<svg width="40" height="36" viewBox="0 0 40 36" fill="none" xmlns="http://www.w3.org/2000/svg">
<path d="M39.9792 17.9648C39.9792 19.2305 38.9375 20.2219 37.7569 20.2219H35.5347L35.5833 31.4859C35.5833 31.6758 35.5694 31.8656 35.5486 32.0555V33.1945C35.5486 34.7484 34.3056 36.007 32.7708 36.007H31.6597C31.5833 36.007 31.5069 36.007 31.4306 36C31.3333 36.007 31.2361 36.007 31.1389 36.007L28.8819 36H27.2153C25.6806 36 24.4375 34.7414 24.4375 33.1875V31.5V27C24.4375 25.7555 23.4444 24.75 22.2153 24.75H17.7708C16.5417 24.75 15.5486 25.7555 15.5486 27V31.5V33.1875C15.5486 34.7414 14.3056 36 12.7708 36H11.1042H8.88889C8.78472 36 8.68056 35.993 8.57639 35.9859C8.49306 35.993 8.40972 36 8.32639 36H7.21528C5.68056 36 4.4375 34.7414 4.4375 33.1875V25.3125C4.4375 25.2492 4.4375 25.1789 4.44444 25.1156V20.2148H2.22222C0.972222 20.2148 0 19.2305 0 17.9578C0 17.325 0.208333 16.7625 0.694444 16.2703L18.4931 0.5625C18.9792 0.0703125 19.5347 0 20.0208 0C20.5069 0 21.0625 0.140625 21.4792 0.492188L39.2153 16.2773C39.7708 16.7695 40.0486 17.332 39.9792 17.9648Z" fill="black"/>
</svg>
