<svg width="33" height="36" viewBox="0 0 33 36" fill="none" xmlns="http://www.w3.org/2000/svg">
<path d="M24.3568 7.44609L32.2717 16.0805C32.7357 16.5867 33 17.2828 33 18C33 18.7172 32.7357 19.4133 32.2717 19.9195L24.3568 28.5539C23.9443 29.0039 23.39 29.25 22.81 29.25C21.6047 29.25 20.625 28.1812 20.625 26.8664V22.5H12.375C11.2342 22.5 10.3125 21.4945 10.3125 20.25V15.75C10.3125 14.5055 11.2342 13.5 12.375 13.5H20.625V9.13359C20.625 7.81875 21.6047 6.75 22.81 6.75C23.39 6.75 23.9443 7.00313 24.3568 7.44609ZM10.3125 6.75H6.1875C5.04668 6.75 4.125 7.75547 4.125 9V27C4.125 28.2445 5.04668 29.25 6.1875 29.25H10.3125C11.4533 29.25 12.375 30.2555 12.375 31.5C12.375 32.7445 11.4533 33.75 10.3125 33.75H6.1875C2.77148 33.75 0 30.7266 0 27V9C0 5.27344 2.77148 2.25 6.1875 2.25H10.3125C11.4533 2.25 12.375 3.25547 12.375 4.5C12.375 5.74453 11.4533 6.75 10.3125 6.75Z" fill="black"/>
</svg>
