<svg width="30" height="30" viewBox="0 0 30 30" fill="none" xmlns="http://www.w3.org/2000/svg">
<path d="M13 27.627C13.5625 27.8496 14.1667 27.3867 14.1667 26.7188V4.60547C14.1667 4.35938 14.0833 4.11328 13.9062 3.96094C12.8854 3.04688 10.5417 1.875 7.5 1.875C4.86979 1.875 2.41146 2.6543 0.942708 3.28711C0.354167 3.54492 0 4.20117 0 4.91016V26.6074C0 27.3047 0.666667 27.791 1.25521 27.5742C2.89583 26.959 5.49479 26.25 7.5 26.25C9.26562 26.25 11.6146 27.0703 13 27.627ZM17 27.627C18.3854 27.0703 20.7344 26.25 22.5 26.25C24.5052 26.25 27.1042 26.959 28.7448 27.5742C29.3333 27.7969 30 27.3047 30 26.6074V4.91016C30 4.20117 29.6458 3.54492 29.0573 3.29297C27.5885 2.6543 25.1302 1.875 22.5 1.875C19.4583 1.875 17.1146 3.04688 16.0938 3.96094C15.9219 4.11328 15.8333 4.35938 15.8333 4.60547V26.7188C15.8333 27.3867 16.4427 27.8496 17 27.627Z" fill="black"/>
</svg>
