<svg width="36" height="36" viewBox="0 0 36 36" fill="none" xmlns="http://www.w3.org/2000/svg">
<path d="M34.868 11.7141C35.093 12.3258 34.9032 13.0078 34.418 13.4437L31.3735 16.2141C31.4508 16.7977 31.493 17.3953 31.493 18C31.493 18.6047 31.4508 19.2023 31.3735 19.7859L34.418 22.5562C34.9032 22.9922 35.093 23.6742 34.868 24.2859C34.5587 25.1227 34.186 25.9242 33.7571 26.6977L33.4266 27.2672C32.9626 28.0406 32.4423 28.7719 31.8727 29.4609C31.4579 29.9672 30.7688 30.1359 30.1501 29.9391L26.2337 28.6945C25.2915 29.4188 24.2508 30.0234 23.1399 30.4805L22.261 34.4953C22.1204 35.1352 21.6282 35.6414 20.9813 35.7469C20.011 35.9086 19.0126 35.993 17.993 35.993C16.9735 35.993 15.9751 35.9086 15.0048 35.7469C14.3579 35.6414 13.8657 35.1352 13.7251 34.4953L12.8462 30.4805C11.7352 30.0234 10.6946 29.4188 9.75241 28.6945L5.84303 29.9461C5.22428 30.143 4.53522 29.9672 4.12038 29.468C3.55085 28.7789 3.03054 28.0477 2.56647 27.2742L2.236 26.7047C1.8071 25.9312 1.43444 25.1297 1.12507 24.293C0.900067 23.6812 1.08991 22.9992 1.57507 22.5633L4.6196 19.793C4.54225 19.2023 4.50007 18.6047 4.50007 18C4.50007 17.3953 4.54225 16.7977 4.6196 16.2141L1.57507 13.4437C1.08991 13.0078 0.900067 12.3258 1.12507 11.7141C1.43444 10.8773 1.8071 10.0758 2.236 9.30234L2.56647 8.73281C3.03054 7.95937 3.55085 7.22813 4.12038 6.53906C4.53522 6.03281 5.22428 5.86406 5.84303 6.06094L9.75944 7.30547C10.7016 6.58125 11.7423 5.97656 12.8532 5.51953L13.7321 1.50469C13.8727 0.864844 14.3649 0.358594 15.0118 0.253125C15.9821 0.084375 16.9805 0 18.0001 0C19.0196 0 20.018 0.084375 20.9883 0.246094C21.6352 0.351562 22.1274 0.857812 22.268 1.49766L23.1469 5.5125C24.2579 5.96953 25.2985 6.57422 26.2407 7.29844L30.1571 6.05391C30.7758 5.85703 31.4649 6.03281 31.8798 6.53203C32.4493 7.22109 32.9696 7.95234 33.4337 8.72578L33.7641 9.29531C34.193 10.0687 34.5657 10.8703 34.8751 11.707L34.868 11.7141ZM18.0001 23.625C19.4919 23.625 20.9226 23.0324 21.9775 21.9775C23.0324 20.9226 23.6251 19.4918 23.6251 18C23.6251 16.5082 23.0324 15.0774 21.9775 14.0225C20.9226 12.9676 19.4919 12.375 18.0001 12.375C16.5082 12.375 15.0775 12.9676 14.0226 14.0225C12.9677 15.0774 12.3751 16.5082 12.3751 18C12.3751 19.4918 12.9677 20.9226 14.0226 21.9775C15.0775 23.0324 16.5082 23.625 18.0001 23.625Z" fill="black"/>
</svg>
