<svg width="33" height="36" viewBox="0 0 33 36" fill="none" xmlns="http://www.w3.org/2000/svg">
<g clip-path="url(#clip0_24_227)">
<path d="M16.4999 0C15.1961 0 14.1428 1.00547 14.1428 2.25V3.6C8.76556 4.64062 4.71422 9.18281 4.71422 14.625V15.9469C4.71422 19.2516 3.43989 22.4438 1.14167 24.9187L0.596585 25.5023C-0.0221654 26.1633 -0.169487 27.1125 0.206183 27.9211C0.581852 28.7297 1.42895 29.25 2.35708 29.25H30.6428C31.5709 29.25 32.4106 28.7297 32.7937 27.9211C33.1767 27.1125 33.022 26.1633 32.4033 25.5023L31.8582 24.9187C29.56 22.4438 28.2856 19.2586 28.2856 15.9469V14.625C28.2856 9.18281 24.2343 4.64062 18.8571 3.6V2.25C18.8571 1.00547 17.8037 0 16.4999 0ZM19.8368 34.6852C20.7207 33.8414 21.2142 32.6953 21.2142 31.5H16.4999H11.7856C11.7856 32.6953 12.2792 33.8414 13.1631 34.6852C14.047 35.5289 15.2477 36 16.4999 36C17.7522 36 18.9528 35.5289 19.8368 34.6852Z" fill="black"/>
</g>
<defs>
<clipPath id="clip0_24_227">
<rect width="33" height="36" fill="white"/>
</clipPath>
</defs>
</svg>
