<svg width="155" height="132" viewBox="0 0 155 132" fill="none" xmlns="http://www.w3.org/2000/svg">
<mask id="path-1-inside-1_3034_730" fill="white">
<path d="M118.044 0C123.567 0.000122618 128.044 4.47723 128.044 10V14.9561H150C150.173 14.9561 150.344 14.9644 150.512 14.9814C150.68 14.9985 150.845 15.0243 151.008 15.0576C153.205 15.5072 154.878 17.398 154.994 19.6992C154.998 19.7843 155 19.8699 155 19.9561V72.5C155 75.2614 152.761 77.5 150 77.5H128.037C127.757 91.064 116.675 101.974 103.044 101.974H99.6738V110H106.392C109.153 110 111.392 112.239 111.392 115V126.754C111.392 129.515 109.153 131.754 106.392 131.754H49C46.2386 131.754 44 129.515 44 126.754V115C44 112.239 46.2386 110 49 110H56.6738V101.974H51.957C38.3258 101.974 27.244 91.0641 26.9639 77.5H5C4.82726 77.5 4.65651 77.4917 4.48828 77.4746C4.32031 77.4575 4.15483 77.4317 3.99219 77.3984C3.58529 77.3152 3.19638 77.1824 2.83203 77.0068C2.68641 76.9367 2.54459 76.8598 2.40723 76.7764C1.3077 76.1083 0.486134 75.0279 0.157227 73.75C0.0954801 73.5101 0.0510004 73.2632 0.0253906 73.0107C0.0168658 72.9267 0.0111481 72.842 0.00683594 72.7568C0.00253103 72.6718 7.46549e-09 72.5861 0 72.5V19.9561C1.81443e-07 19.7836 0.00835512 19.6132 0.0253906 19.4453C0.0595338 19.1088 0.127098 18.7822 0.224609 18.4688C0.594654 17.2793 1.39757 16.2811 2.44824 15.6562C2.57291 15.5821 2.70067 15.5125 2.83203 15.4492C3.34229 15.2033 3.90067 15.0412 4.48926 14.9814C4.65716 14.9644 4.82761 14.9561 5 14.9561H26.957V10C26.957 4.47715 31.4342 0 36.957 0H118.044ZM77.9941 26C77.0626 26.0002 76.2215 26.5608 75.8125 27.4414L70.9424 38.0342L60.0645 39.7314C59.1555 39.8756 58.3984 40.549 58.1182 41.4697C57.838 42.3905 58.0654 43.4074 58.7168 44.0879L66.6094 52.3428L64.7461 64.0088C64.5946 64.9696 64.9737 65.9462 65.7236 66.5146C66.4735 67.083 67.4652 67.1554 68.2832 66.6992L78.002 61.2148L87.7207 66.6992C88.5388 67.1556 89.5313 67.0911 90.2812 66.5146C91.031 65.9381 91.4093 64.9695 91.2578 64.0088L89.3877 52.3428L97.2803 44.0879C97.9316 43.4074 98.1666 42.3904 97.8789 41.4697C97.5911 40.5489 96.8406 39.8756 95.9316 39.7314L85.0469 38.0342L80.1758 27.4414C79.7743 26.5606 78.9259 26 77.9941 26ZM24.4824 36.2988C26.3949 43.5707 26.4089 51.2017 24.5381 58.4648H26.957V33.9912H23.875L24.4824 36.2988ZM128.044 58.4648H131.618L131.123 56.377C129.541 49.7035 129.541 42.7525 131.123 36.0791L131.618 33.9912H128.044V58.4648Z"/>
</mask>
<path d="M118.044 0C123.567 0.000122618 128.044 4.47723 128.044 10V14.9561H150C150.173 14.9561 150.344 14.9644 150.512 14.9814C150.68 14.9985 150.845 15.0243 151.008 15.0576C153.205 15.5072 154.878 17.398 154.994 19.6992C154.998 19.7843 155 19.8699 155 19.9561V72.5C155 75.2614 152.761 77.5 150 77.5H128.037C127.757 91.064 116.675 101.974 103.044 101.974H99.6738V110H106.392C109.153 110 111.392 112.239 111.392 115V126.754C111.392 129.515 109.153 131.754 106.392 131.754H49C46.2386 131.754 44 129.515 44 126.754V115C44 112.239 46.2386 110 49 110H56.6738V101.974H51.957C38.3258 101.974 27.244 91.0641 26.9639 77.5H5C4.82726 77.5 4.65651 77.4917 4.48828 77.4746C4.32031 77.4575 4.15483 77.4317 3.99219 77.3984C3.58529 77.3152 3.19638 77.1824 2.83203 77.0068C2.68641 76.9367 2.54459 76.8598 2.40723 76.7764C1.3077 76.1083 0.486134 75.0279 0.157227 73.75C0.0954801 73.5101 0.0510004 73.2632 0.0253906 73.0107C0.0168658 72.9267 0.0111481 72.842 0.00683594 72.7568C0.00253103 72.6718 7.46549e-09 72.5861 0 72.5V19.9561C1.81443e-07 19.7836 0.00835512 19.6132 0.0253906 19.4453C0.0595338 19.1088 0.127098 18.7822 0.224609 18.4688C0.594654 17.2793 1.39757 16.2811 2.44824 15.6562C2.57291 15.5821 2.70067 15.5125 2.83203 15.4492C3.34229 15.2033 3.90067 15.0412 4.48926 14.9814C4.65716 14.9644 4.82761 14.9561 5 14.9561H26.957V10C26.957 4.47715 31.4342 0 36.957 0H118.044ZM77.9941 26C77.0626 26.0002 76.2215 26.5608 75.8125 27.4414L70.9424 38.0342L60.0645 39.7314C59.1555 39.8756 58.3984 40.549 58.1182 41.4697C57.838 42.3905 58.0654 43.4074 58.7168 44.0879L66.6094 52.3428L64.7461 64.0088C64.5946 64.9696 64.9737 65.9462 65.7236 66.5146C66.4735 67.083 67.4652 67.1554 68.2832 66.6992L78.002 61.2148L87.7207 66.6992C88.5388 67.1556 89.5313 67.0911 90.2812 66.5146C91.031 65.9381 91.4093 64.9695 91.2578 64.0088L89.3877 52.3428L97.2803 44.0879C97.9316 43.4074 98.1666 42.3904 97.8789 41.4697C97.5911 40.5489 96.8406 39.8756 95.9316 39.7314L85.0469 38.0342L80.1758 27.4414C79.7743 26.5606 78.9259 26 77.9941 26ZM24.4824 36.2988C26.3949 43.5707 26.4089 51.2017 24.5381 58.4648H26.957V33.9912H23.875L24.4824 36.2988ZM128.044 58.4648H131.618L131.123 56.377C129.541 49.7035 129.541 42.7525 131.123 36.0791L131.618 33.9912H128.044V58.4648Z" fill="url(#paint0_linear_3034_730)"/>
<path d="M118.044 0L118.044 -7H118.044V0ZM128.044 10L135.044 10L135.044 10L128.044 10ZM128.044 14.9561H121.044V21.9561H128.044V14.9561ZM150 14.9561L150 21.9561L150 21.9561L150 14.9561ZM150.512 14.9814L149.804 21.9456L149.804 21.9456L150.512 14.9814ZM151.008 15.0576L152.411 8.1997L152.411 8.1997L151.008 15.0576ZM154.994 19.6992L161.985 19.3455L161.985 19.3455L154.994 19.6992ZM155 72.5L162 72.5V72.5H155ZM150 77.5L150 84.5L150 84.5L150 77.5ZM128.037 77.5V70.5H121.18L121.039 77.3555L128.037 77.5ZM103.044 101.974L103.044 108.974L103.044 108.974L103.044 101.974ZM99.6738 101.974V94.9736H92.6738V101.974H99.6738ZM99.6738 110H92.6738V117H99.6738V110ZM106.392 110L106.392 103H106.392V110ZM111.392 115L118.392 115L118.392 115L111.392 115ZM111.392 126.754L104.392 126.754L104.392 126.754L111.392 126.754ZM106.392 131.754L106.392 138.754L106.392 138.754L106.392 131.754ZM49 131.754L49 138.754H49V131.754ZM44 126.754L37 126.754L37 126.754L44 126.754ZM44 115L51 115L51 115L44 115ZM49 110L49 103L49 103L49 110ZM56.6738 110V117H63.6738V110H56.6738ZM56.6738 101.974H63.6738V94.9736H56.6738V101.974ZM26.9639 77.5L33.9624 77.3555L33.8208 70.5H26.9639V77.5ZM5 77.5L4.99996 84.5H5V77.5ZM4.48828 77.4746L5.19619 70.5105L5.19608 70.5105L4.48828 77.4746ZM3.99219 77.3984L2.58866 84.2563L2.58875 84.2563L3.99219 77.3984ZM2.83203 77.0068L5.87098 70.7009L5.87092 70.7009L2.83203 77.0068ZM2.40723 76.7764L-1.22762 82.7587L-1.22758 82.7587L2.40723 76.7764ZM0.157227 73.75L-6.62186 75.4947L-6.62184 75.4948L0.157227 73.75ZM0.0253906 73.0107L6.98964 72.3042L6.98963 72.3041L0.0253906 73.0107ZM0.00683594 72.7568L-6.98422 73.1106L-6.98421 73.1107L0.00683594 72.7568ZM0 72.5L-7 72.5L-7 72.5L0 72.5ZM0 19.9561L-7 19.956V19.9561H0ZM0.0253906 19.4453L-6.93885 18.7387L-6.93886 18.7388L0.0253906 19.4453ZM0.224609 18.4688L6.90855 20.5484L6.9086 20.5482L0.224609 18.4688ZM2.44824 15.6562L-1.12982 9.63982L-1.12995 9.63989L2.44824 15.6562ZM2.83203 15.4492L5.87088 21.7552L5.87101 21.7551L2.83203 15.4492ZM4.48926 14.9814L3.78281 8.01718L3.7827 8.0172L4.48926 14.9814ZM5 14.9561L5 7.95605L5 7.95605L5 14.9561ZM26.957 14.9561V21.9561H33.957V14.9561H26.957ZM26.957 10L19.957 10V10H26.957ZM77.9941 26L77.9941 19L77.9929 19L77.9941 26ZM75.8125 27.4414L69.4638 24.4929L69.4581 24.5051L69.4525 24.5173L75.8125 27.4414ZM70.9424 38.0342L72.0215 44.9505L75.7332 44.3714L77.3024 40.9583L70.9424 38.0342ZM60.0645 39.7314L58.9853 32.8151L58.9766 32.8165L58.9679 32.8179L60.0645 39.7314ZM58.1182 41.4697L51.4215 39.4314L51.4213 39.4321L58.1182 41.4697ZM58.7168 44.0879L63.7763 39.2504L63.7736 39.2476L58.7168 44.0879ZM66.6094 52.3428L73.5218 53.4468L74.0697 50.0163L71.6689 47.5053L66.6094 52.3428ZM64.7461 64.0088L57.8337 62.9047L57.8315 62.9185L64.7461 64.0088ZM65.7236 66.5146L61.4949 72.093L61.4953 72.0933L65.7236 66.5146ZM68.2832 66.6992L71.6928 72.8127L71.7081 72.8041L71.7234 72.7955L68.2832 66.6992ZM78.002 61.2148L81.4422 55.1185L78.002 53.1772L74.5618 55.1185L78.002 61.2148ZM87.7207 66.6992L84.2805 72.7955L84.2954 72.8039L84.3104 72.8123L87.7207 66.6992ZM90.2812 66.5146L94.5475 72.0643L94.5482 72.0638L90.2812 66.5146ZM91.2578 64.0088L98.1724 62.9185L98.171 62.9097L98.1696 62.9008L91.2578 64.0088ZM89.3877 52.3428L84.3282 47.5053L81.9257 50.0181L82.4759 53.4508L89.3877 52.3428ZM97.2803 44.0879L92.2234 39.2476L92.2207 39.2504L97.2803 44.0879ZM97.8789 41.4697L104.56 39.3821L104.56 39.3811L97.8789 41.4697ZM95.9316 39.7314L97.0278 32.8178L97.019 32.8164L97.0101 32.815L95.9316 39.7314ZM85.0469 38.0342L78.6871 40.9587L80.2566 44.3718L83.9684 44.9506L85.0469 38.0342ZM80.1758 27.4414L73.8063 30.3448L73.8111 30.3554L73.816 30.366L80.1758 27.4414ZM24.4824 36.2988L31.2522 34.5184L31.2518 34.517L24.4824 36.2988ZM24.5381 58.4648L17.7593 56.7188L15.5066 65.4648H24.5381V58.4648ZM26.957 58.4648V65.4648H33.957V58.4648H26.957ZM26.957 33.9912H33.957V26.9912H26.957V33.9912ZM23.875 33.9912V26.9912H14.794L17.1056 35.7731L23.875 33.9912ZM128.044 58.4648H121.044V65.4648H128.044V58.4648ZM131.618 58.4648V65.4648H140.472L138.429 56.8497L131.618 58.4648ZM131.123 56.377L124.312 57.9915L124.312 57.9921L131.123 56.377ZM131.123 36.0791L124.312 34.4639L124.312 34.4645L131.123 36.0791ZM131.618 33.9912L138.429 35.6064L140.472 26.9912H131.618V33.9912ZM128.044 33.9912V26.9912H121.044V33.9912H128.044ZM118.044 0L118.044 7C119.701 7.00004 121.044 8.34338 121.044 10L128.044 10L135.044 10C135.044 0.611081 127.433 -6.99979 118.044 -7L118.044 0ZM128.044 10H121.044V14.9561H128.044H135.044V10H128.044ZM128.044 14.9561V21.9561H150V14.9561V7.95605H128.044V14.9561ZM150 14.9561L150 21.9561C149.949 21.9561 149.883 21.9536 149.804 21.9456L150.512 14.9814L151.219 8.0173C150.804 7.97511 150.397 7.95605 150 7.95605L150 14.9561ZM150.512 14.9814L149.804 21.9456C149.725 21.9376 149.659 21.9266 149.605 21.9155L151.008 15.0576L152.411 8.1997C152.032 8.12209 151.634 8.05942 151.219 8.0173L150.512 14.9814ZM151.008 15.0576L149.605 21.9155C148.722 21.7349 148.05 20.9888 148.003 20.053L154.994 19.6992L161.985 19.3455C161.705 13.8072 157.688 9.27954 152.411 8.1997L151.008 15.0576ZM154.994 19.6992L148.003 20.0529C148 19.9888 148 19.9516 148 19.9561H155H162C162 19.7883 161.997 19.5798 161.985 19.3455L154.994 19.6992ZM155 19.9561H148V72.5H155H162V19.9561H155ZM155 72.5L148 72.5C148 71.3954 148.895 70.5 150 70.5L150 77.5L150 84.5C156.627 84.5 162 79.1274 162 72.5L155 72.5ZM150 77.5V70.5H128.037V77.5V84.5H150V77.5ZM128.037 77.5L121.039 77.3555C120.837 87.119 112.857 94.9735 103.044 94.9736L103.044 101.974L103.044 108.974C120.493 108.973 134.677 95.0091 135.036 77.6445L128.037 77.5ZM103.044 101.974V94.9736H99.6738V101.974V108.974H103.044V101.974ZM99.6738 101.974H92.6738V110H99.6738H106.674V101.974H99.6738ZM99.6738 110V117H106.392V110V103H99.6738V110ZM106.392 110L106.391 117C105.287 117 104.392 116.105 104.392 115L111.392 115L118.392 115C118.392 108.372 113.019 103 106.392 103L106.392 110ZM111.392 115H104.392V126.754H111.392H118.392V115H111.392ZM111.392 126.754L104.392 126.754C104.392 125.649 105.287 124.754 106.391 124.754L106.392 131.754L106.392 138.754C113.019 138.754 118.392 133.382 118.392 126.754L111.392 126.754ZM106.392 131.754V124.754H49V131.754V138.754H106.392V131.754ZM49 131.754L49 124.754C50.1046 124.754 51 125.649 51 126.754L44 126.754L37 126.754C37 133.381 42.3726 138.754 49 138.754L49 131.754ZM44 126.754H51V115H44H37V126.754H44ZM44 115L51 115C51 116.105 50.1046 117 49 117L49 110L49 103C42.3726 103 37 108.373 37 115L44 115ZM49 110V117H56.6738V110V103H49V110ZM56.6738 110H63.6738V101.974H56.6738H49.6738V110H56.6738ZM56.6738 101.974V94.9736H51.957V101.974V108.974H56.6738V101.974ZM51.957 101.974V94.9736C42.1439 94.9736 34.164 87.1191 33.9624 77.3555L26.9639 77.5L19.9654 77.6445C20.324 95.0091 34.5077 108.974 51.957 108.974V101.974ZM26.9639 77.5V70.5H5V77.5V84.5H26.9639V77.5ZM5 77.5L5.00004 70.5C5.05098 70.5 5.11689 70.5024 5.19619 70.5105L4.48828 77.4746L3.78037 84.4387C4.19613 84.481 4.60354 84.5 4.99996 84.5L5 77.5ZM4.48828 77.4746L5.19608 70.5105C5.2743 70.5184 5.34114 70.5294 5.39562 70.5406L3.99219 77.3984L2.58875 84.2563C2.96851 84.334 3.36631 84.3966 3.78048 84.4387L4.48828 77.4746ZM3.99219 77.3984L5.39572 70.5406C5.56297 70.5748 5.72276 70.6295 5.87098 70.7009L2.83203 77.0068L-0.206915 83.3128C0.669987 83.7354 1.6076 84.0555 2.58866 84.2563L3.99219 77.3984ZM2.83203 77.0068L5.87092 70.7009C5.92409 70.7265 5.98145 70.7572 6.04203 70.794L2.40723 76.7764L-1.22758 82.7587C-0.892275 82.9624 -0.551274 83.1468 -0.206861 83.3128L2.83203 77.0068ZM2.40723 76.7764L6.04207 70.7941C6.47023 71.0542 6.80047 71.4775 6.93629 72.0052L0.157227 73.75L-6.62184 75.4948C-5.8282 78.5783 -3.85482 81.1624 -1.22762 82.7587L2.40723 76.7764ZM0.157227 73.75L6.93631 72.0053C6.96133 72.1025 6.97933 72.2026 6.98964 72.3042L0.0253906 73.0107L-6.93886 73.7173C-6.87733 74.3238 -6.77037 74.9177 -6.62186 75.4947L0.157227 73.75ZM0.0253906 73.0107L6.98963 72.3041C6.99671 72.3739 6.99843 72.4137 6.99789 72.403L0.00683594 72.7568L-6.98421 73.1107C-6.97613 73.2704 -6.96298 73.4796 -6.93885 73.7174L0.0253906 73.0107ZM0.00683594 72.7568L6.99789 72.4031C6.99853 72.4158 7 72.4497 7 72.5L0 72.5L-7 72.5C-7 72.7226 -6.99347 72.9278 -6.98422 73.1106L0.00683594 72.7568ZM0 72.5H7V19.9561H0H-7V72.5H0ZM0 19.9561L7 19.9561C7 20.0097 6.99741 20.0753 6.98964 20.1518L0.0253906 19.4453L-6.93886 18.7388C-6.9807 19.1511 -7 19.5576 -7 19.956L0 19.9561ZM0.0253906 19.4453L6.98963 20.152C6.976 20.2863 6.94867 20.4195 6.90855 20.5484L0.224609 18.4688L-6.45933 16.3891C-6.69448 17.1449 -6.85693 17.9313 -6.93885 18.7387L0.0253906 19.4453ZM0.224609 18.4688L6.9086 20.5482C6.75538 21.0407 6.43345 21.4305 6.02643 21.6726L2.44824 15.6562L-1.12995 9.63989C-3.63831 11.1317 -5.56608 13.518 -6.45938 16.3893L0.224609 18.4688ZM2.44824 15.6562L6.0263 21.6727C5.99975 21.6885 5.94712 21.7185 5.87088 21.7552L2.83203 15.4492L-0.206813 9.14324C-0.54578 9.30658 -0.85392 9.47573 -1.12982 9.63982L2.44824 15.6562ZM2.83203 15.4492L5.87101 21.7551C5.66435 21.8547 5.43496 21.9214 5.19582 21.9457L4.48926 14.9814L3.7827 8.0172C2.36639 8.16089 1.02022 8.5519 -0.206943 9.1433L2.83203 15.4492ZM4.48926 14.9814L5.1957 21.9457C5.11929 21.9535 5.05371 21.9561 5 21.9561L5 14.9561L5 7.95605C4.60151 7.95605 4.19503 7.97537 3.78281 8.01718L4.48926 14.9814ZM5 14.9561V21.9561H26.957V14.9561V7.95605H5V14.9561ZM26.957 14.9561H33.957V10H26.957H19.957V14.9561H26.957ZM26.957 10L33.957 10C33.957 8.34315 35.3002 7 36.957 7V0V-7C27.5682 -7 19.957 0.611162 19.957 10L26.957 10ZM36.957 0V7H118.044V0V-7H36.957V0ZM77.9941 26L77.9929 19C74.1529 19.0007 70.9403 21.3136 69.4638 24.4929L75.8125 27.4414L82.1612 30.3899C81.5027 31.8079 79.9722 32.9996 77.9954 33L77.9941 26ZM75.8125 27.4414L69.4525 24.5173L64.5824 35.1101L70.9424 38.0342L77.3024 40.9583L82.1725 30.3655L75.8125 27.4414ZM70.9424 38.0342L69.8632 31.1179L58.9853 32.8151L60.0645 39.7314L61.1436 46.6478L72.0215 44.9505L70.9424 38.0342ZM60.0645 39.7314L58.9679 32.8179C55.2828 33.4024 52.4426 36.0766 51.4215 39.4314L58.1182 41.4697L64.8148 43.5081C64.3542 45.0213 63.0283 46.3488 61.1611 46.645L60.0645 39.7314ZM58.1182 41.4697L51.4213 39.4321C50.4384 42.6624 51.1803 46.3376 53.66 48.9282L58.7168 44.0879L63.7736 39.2476C64.9505 40.4771 65.2376 42.1185 64.815 43.5074L58.1182 41.4697ZM58.7168 44.0879L53.6573 48.9254L61.5498 57.1802L66.6094 52.3428L71.6689 47.5053L63.7763 39.2504L58.7168 44.0879ZM66.6094 52.3428L59.697 51.2387L57.8337 62.9048L64.7461 64.0088L71.6585 65.1128L73.5218 53.4468L66.6094 52.3428ZM64.7461 64.0088L57.8315 62.9185C57.2978 66.3037 58.5916 69.8921 61.4949 72.093L65.7236 66.5146L69.9524 60.9363C71.3558 62.0002 71.8914 63.6355 71.6607 65.099L64.7461 64.0088ZM65.7236 66.5146L61.4953 72.0933C64.4385 74.3241 68.4256 74.6349 71.6928 72.8127L68.2832 66.6992L64.8736 60.5858C66.5048 59.676 68.5084 59.8418 69.952 60.936L65.7236 66.5146ZM68.2832 66.6992L71.7234 72.7955L81.4422 67.3112L78.002 61.2148L74.5618 55.1185L64.843 60.6029L68.2832 66.6992ZM78.002 61.2148L74.5618 67.3112L84.2805 72.7955L87.7207 66.6992L91.1609 60.6029L81.4422 55.1185L78.002 61.2148ZM87.7207 66.6992L84.3104 72.8123C87.5381 74.6129 91.5519 74.3672 94.5475 72.0643L90.2812 66.5146L86.015 60.965C87.5108 59.8151 89.5395 59.6983 91.131 60.5861L87.7207 66.6992ZM90.2812 66.5146L94.5482 72.0638C97.3944 69.8752 98.7099 66.3277 98.1724 62.9185L91.2578 64.0088L84.3432 65.099C84.1087 63.6113 84.6676 62.001 86.0143 60.9655L90.2812 66.5146ZM91.2578 64.0088L98.1696 62.9008L96.2995 51.2348L89.3877 52.3428L82.4759 53.4508L84.3461 65.1168L91.2578 64.0088ZM89.3877 52.3428L94.4472 57.1802L102.34 48.9254L97.2803 44.0879L92.2207 39.2504L84.3282 47.5053L89.3877 52.3428ZM97.2803 44.0879L102.337 48.9282C104.788 46.368 105.592 42.6845 104.56 39.3821L97.8789 41.4697L91.1975 43.5573C90.741 42.0964 91.0756 40.4468 92.2234 39.2476L97.2803 44.0879ZM97.8789 41.4697L104.56 39.3811C103.535 36.1015 100.745 33.4072 97.0278 32.8178L95.9316 39.7314L94.8355 46.6451C92.936 46.3439 91.6473 44.9964 91.1978 43.5583L97.8789 41.4697ZM95.9316 39.7314L97.0101 32.815L86.1254 31.1178L85.0469 38.0342L83.9684 44.9506L94.8532 46.6479L95.9316 39.7314ZM85.0469 38.0342L91.4067 35.1096L86.5356 24.5169L80.1758 27.4414L73.816 30.366L78.6871 40.9587L85.0469 38.0342ZM80.1758 27.4414L86.5453 24.538C85.0636 21.2876 81.8036 19 77.9941 19V26V33C76.0481 33 74.485 31.8337 73.8063 30.3448L80.1758 27.4414ZM24.4824 36.2988L17.7126 38.0793C19.3208 44.1938 19.3326 50.6108 17.7593 56.7188L24.5381 58.4648L31.3168 60.2109C33.4851 51.7927 33.4691 42.9477 31.2522 34.5184L24.4824 36.2988ZM24.5381 58.4648V65.4648H26.957V58.4648V51.4648H24.5381V58.4648ZM26.957 58.4648H33.957V33.9912H26.957H19.957V58.4648H26.957ZM26.957 33.9912V26.9912H23.875V33.9912V40.9912H26.957V33.9912ZM23.875 33.9912L17.1056 35.7731L17.713 38.0807L24.4824 36.2988L31.2518 34.517L30.6444 32.2093L23.875 33.9912ZM128.044 58.4648V65.4648H131.618V58.4648V51.4648H128.044V58.4648ZM131.618 58.4648L138.429 56.8497L137.934 54.7618L131.123 56.377L124.312 57.9921L124.807 60.08L131.618 58.4648ZM131.123 56.377L137.934 54.7624C136.604 49.1506 136.604 43.3054 137.934 37.6937L131.123 36.0791L124.312 34.4645C122.478 42.1996 122.478 50.2564 124.312 57.9915L131.123 56.377ZM131.123 36.0791L137.934 37.6943L138.429 35.6064L131.618 33.9912L124.807 32.376L124.312 34.4639L131.123 36.0791ZM131.618 33.9912V26.9912H128.044V33.9912V40.9912H131.618V33.9912ZM128.044 33.9912H121.044V58.4648H128.044H135.044V33.9912H128.044Z" fill="black" mask="url(#path-1-inside-1_3034_730)"/>
<defs>
<linearGradient id="paint0_linear_3034_730" x1="77.5" y1="0" x2="77.5" y2="131.754" gradientUnits="userSpaceOnUse">
<stop stop-color="#FFBF00"/>
<stop offset="1" stop-color="#846300"/>
</linearGradient>
</defs>
</svg>
