<svg width="155" height="155" viewBox="0 0 155 155" fill="none" xmlns="http://www.w3.org/2000/svg">
<path d="M11.1908 75.3191C6.2371 72.8014 6.19919 66.4018 11.1228 63.8368L73.8063 31.1812C76.0906 29.9912 78.9094 29.9912 81.1937 31.1812L143.877 63.8368C148.801 66.4018 148.763 72.8014 143.809 75.3191L87.8591 103.756C81.4316 107.023 73.5684 107.023 67.1409 103.756L11.1908 75.3191Z" fill="black"/>
<path d="M28.8607 101.328C28.8606 96.492 34.4459 93.2899 39.3269 95.3271L74.5095 110.011C76.4816 110.835 78.7578 110.832 80.7281 110.006L115.637 95.3565C120.519 93.3077 126.117 96.5096 126.117 101.351L126.117 106.912C126.117 109.577 124.338 111.981 121.604 113.012L85.6968 126.561C80.4932 128.525 74.6298 128.527 69.4239 126.569L33.3804 113.009C30.6427 111.979 28.8608 109.573 28.8608 106.906L28.8607 101.328Z" fill="black"/>
<rect x="7.67212" y="66.9624" width="4.38406" height="25.6033" rx="2.19203" fill="black"/>
<rect x="3.28809" y="95.5195" width="3.28805" height="10.8322" rx="1.64402" fill="black"/>
<rect x="13.1522" y="95.5195" width="3.28805" height="9.84741" rx="1.64402" fill="black"/>
<rect x="6.57605" y="95.5195" width="3.28805" height="14.7711" rx="1.64402" fill="black"/>
<rect x="9.86414" y="95.5195" width="3.28805" height="16.7406" rx="1.64402" fill="black"/>
<rect x="3.28809" y="99.4585" width="3.93897" height="13.1522" rx="1.96948" transform="rotate(-90 3.28809 99.4585)" fill="black"/>
<ellipse cx="9.86418" cy="92.5657" rx="6.57609" ry="5.90845" fill="black"/>
</svg>
