<svg width="155" height="140" viewBox="0 0 155 140" fill="none" xmlns="http://www.w3.org/2000/svg">
<path d="M5 110.085L4.99999 19.3623C5.00005 12.8253 11.1694 8.04624 17.499 9.67969L64.999 21.9375C69.4146 23.0771 72.4998 27.0599 72.5 31.6201L72.5 133.706L12.7373 119.825C8.20692 118.773 5.00016 114.736 5 110.085Z" fill="url(#paint0_linear_3038_624)" stroke="black" stroke-width="10"/>
<path d="M20.3914 36.9026C18.139 36.4101 16.5334 34.4155 16.5334 32.1099C16.5334 28.9732 19.4365 26.6423 22.4991 27.3198L58.1895 35.216C60.4155 35.7085 62.0001 37.682 62.0001 39.9618C62.0001 43.0646 59.1324 45.373 56.1013 44.7103L20.3914 36.9026Z" fill="black"/>
<path d="M20.3914 53.9026C18.139 53.4101 16.5334 51.4155 16.5334 49.1099C16.5334 45.9732 19.4365 43.6423 22.4991 44.3198L58.1895 52.216C60.4155 52.7085 62.0001 54.682 62.0001 56.9618C62.0001 60.0646 59.1324 62.373 56.1013 61.7103L20.3914 53.9026Z" fill="black"/>
<path d="M20.3914 70.9026C18.139 70.4101 16.5334 68.4155 16.5334 66.1099C16.5334 62.9732 19.4365 60.6423 22.4991 61.3198L58.1895 69.216C60.4155 69.7085 62.0001 71.682 62.0001 73.9618C62.0001 77.0646 59.1324 79.373 56.1013 78.7103L20.3914 70.9026Z" fill="black"/>
<path d="M20.3914 87.9026C18.139 87.4101 16.5334 85.4155 16.5334 83.1099C16.5334 79.9732 19.4365 77.6423 22.4991 78.3198L58.1895 86.216C60.4155 86.7085 62.0001 88.682 62.0001 90.9618C62.0001 94.0646 59.1324 96.373 56.1013 95.7103L20.3914 87.9026Z" fill="black"/>
<path d="M20.3914 104.903C18.139 104.41 16.5334 102.416 16.5334 100.11C16.5334 96.9732 19.4365 94.6423 22.4991 95.3198L58.1895 103.216C60.4155 103.708 62.0001 105.682 62.0001 107.962C62.0001 111.065 59.1324 113.373 56.1013 112.71L20.3914 104.903Z" fill="black"/>
<path d="M150 110.085L150 19.3623C150 12.8253 143.831 8.04624 137.501 9.67969L90.001 21.9375C85.5854 23.0771 82.5002 27.0599 82.5 31.6201L82.5 133.706L142.263 119.825C146.793 118.773 150 114.736 150 110.085Z" fill="url(#paint1_linear_3038_624)" stroke="black" stroke-width="10"/>
<path d="M134.609 36.9026C136.861 36.4101 138.467 34.4155 138.467 32.1099C138.467 28.9732 135.564 26.6423 132.501 27.3198L96.8105 35.216C94.5845 35.7085 92.9999 37.682 92.9999 39.9618C92.9999 43.0646 95.8676 45.373 98.8987 44.7103L134.609 36.9026Z" fill="black"/>
<path d="M134.609 53.9026C136.861 53.4101 138.467 51.4155 138.467 49.1099C138.467 45.9732 135.564 43.6423 132.501 44.3198L96.8105 52.216C94.5845 52.7085 92.9999 54.682 92.9999 56.9618C92.9999 60.0646 95.8676 62.373 98.8987 61.7103L134.609 53.9026Z" fill="black"/>
<path d="M134.609 70.9026C136.861 70.4101 138.467 68.4155 138.467 66.1099C138.467 62.9732 135.564 60.6423 132.501 61.3198L96.8105 69.216C94.5845 69.7085 92.9999 71.682 92.9999 73.9618C92.9999 77.0646 95.8676 79.373 98.8987 78.7103L134.609 70.9026Z" fill="black"/>
<path d="M134.609 87.9026C136.861 87.4101 138.467 85.4155 138.467 83.1099C138.467 79.9732 135.564 77.6423 132.501 78.3198L96.8105 86.216C94.5845 86.7085 92.9999 88.682 92.9999 90.9618C92.9999 94.0646 95.8676 96.373 98.8987 95.7103L134.609 87.9026Z" fill="black"/>
<path d="M134.609 104.903C136.861 104.41 138.467 102.416 138.467 100.11C138.467 96.9732 135.564 94.6423 132.501 95.3198L96.8105 103.216C94.5845 103.708 92.9999 105.682 92.9999 107.962C92.9999 111.065 95.8676 113.373 98.8987 112.71L134.609 104.903Z" fill="black"/>
<defs>
<linearGradient id="paint0_linear_3038_624" x1="-3.0598e-06" y1="70" x2="77.5" y2="70" gradientUnits="userSpaceOnUse">
<stop stop-color="#C1BB8E"/>
<stop offset="1" stop-color="#5B5843"/>
</linearGradient>
<linearGradient id="paint1_linear_3038_624" x1="155" y1="70" x2="77.5" y2="70" gradientUnits="userSpaceOnUse">
<stop stop-color="#C1BB8E"/>
<stop offset="1" stop-color="#5B5843"/>
</linearGradient>
</defs>
</svg>
