<svg width="155" height="145" viewBox="0 0 155 145" fill="none" xmlns="http://www.w3.org/2000/svg">
<path d="M77.7227 24.0405C102.608 24.0405 124.154 49.3798 124.154 82.52C124.154 115.66 102.608 141 77.7227 141C52.8374 140.999 31.292 115.66 31.292 82.52C31.2921 49.38 52.8374 24.0408 77.7227 24.0405Z" fill="url(#paint0_radial_3038_682)" stroke="black" stroke-width="8"/>
<rect x="60" width="11" height="28" rx="5.5" fill="black"/>
<rect width="10.6272" height="32.9351" rx="5.31362" transform="matrix(0.50246 -0.8646 0.867439 0.497544 5.87939 47.2461)" fill="black"/>
<rect y="87" width="11" height="31" rx="5.5" transform="rotate(-90 0 87)" fill="black"/>
<rect x="41" y="85" width="8" height="74" rx="4" transform="rotate(-90 41 85)" fill="#54A918" stroke="black" stroke-width="5"/>
<rect x="58" y="52.7886" width="11.7886" height="11.8661" rx="5.89431" transform="rotate(-90 58 52.7886)" fill="white" stroke="black" stroke-width="6"/>
<rect x="85.8662" y="52.7886" width="11.7886" height="11.8661" rx="5.89431" transform="rotate(-90 85.8662 52.7886)" fill="white" stroke="black" stroke-width="6"/>
<rect x="43" y="102" width="8" height="69" rx="4" transform="rotate(-90 43 102)" fill="#54A918" stroke="black" stroke-width="5"/>
<rect x="54" y="119" width="8" height="47" rx="4" transform="rotate(-90 54 119)" fill="#54A918" stroke="black" stroke-width="5"/>
<rect width="10.6272" height="32.2309" rx="5.31362" transform="matrix(-0.50246 -0.8646 0.867439 -0.497544 11.2729 127.172)" fill="black"/>
<rect width="10.6272" height="34.5901" rx="5.31362" transform="matrix(-0.50246 -0.8646 -0.867439 0.497544 149.121 46.9121)" fill="black"/>
<rect width="11" height="31" rx="5.5" transform="matrix(-1.20033e-08 -1 -1 1.1847e-08 155 87)" fill="black"/>
<rect width="10.6272" height="31.6515" rx="5.31362" transform="matrix(0.50246 -0.8646 -0.867439 -0.497544 143.727 126.838)" fill="black"/>
<rect x="83" width="11" height="28" rx="5.5" fill="black"/>
<defs>
<radialGradient id="paint0_radial_3038_682" cx="0" cy="0" r="1" gradientUnits="userSpaceOnUse" gradientTransform="translate(77.7231 82.5202) rotate(-90) scale(62.4797 50.4311)">
<stop stop-color="#65CC1C"/>
<stop offset="1" stop-color="#33660F"/>
</radialGradient>
</defs>
</svg>
