<svg width="155" height="155" viewBox="0 0 155 155" fill="none" xmlns="http://www.w3.org/2000/svg">
<g clip-path="url(#clip0_3034_650)">
<path d="M77.5 53.4375C90.305 53.4375 102.585 58.5246 111.64 67.5791C120.694 76.6336 125.781 88.9138 125.781 101.719C125.781 114.524 120.694 126.804 111.64 135.858C102.585 144.913 90.305 150 77.5 150C64.695 150 52.4148 144.913 43.3604 135.858C34.3059 126.804 29.2188 114.524 29.2188 101.719C29.2188 88.9138 34.3059 76.6336 43.3604 67.5791C52.4148 58.5246 64.695 53.4375 77.5 53.4375ZM84.5264 70.7773C81.6352 64.8786 73.3563 65.0118 70.4854 70.7529L70.4785 70.7646L70.4727 70.7773L64.1973 83.4941L50.1523 85.5371C43.6029 86.4727 41.2717 94.3879 45.75 98.8662L45.7715 98.8887L45.7939 98.9111L55.9697 108.835L53.5605 122.817L53.5596 122.824C52.4737 129.174 59.1374 134.113 64.918 131.097L64.9268 131.093L64.9355 131.088L77.4844 124.477L90.0342 131.088L90.043 131.093L90.0518 131.097C95.8021 134.097 102.493 129.24 101.412 122.835L101.41 122.826L101.409 122.817L98.999 108.835L109.175 98.9102C113.92 94.3052 111.144 86.5231 104.88 85.5469L104.831 85.5391L90.8018 83.4951L84.5273 70.7773H84.5264ZM7.44727 5H40.5361C42.189 5 43.7211 5.87897 44.5322 7.24512L44.5381 7.25586L44.5439 7.26562L61.5674 35.6221C50.8638 38.197 41.144 43.2969 33.082 50.2715L5.40039 8.78906L5.39258 8.77832L5.38574 8.7666L5.30176 8.63086C5.11559 8.30085 5 7.88599 5 7.44727C5 6.0915 6.0915 5 7.44727 5ZM114.464 5H147.553C148.908 5 150 6.09151 150 7.44727C150 7.82216 149.915 8.17941 149.774 8.48145L149.568 8.79102L121.915 50.2695C113.853 43.296 104.134 38.1967 93.4316 35.6221L110.448 7.27832C111.305 5.86089 112.835 5 114.464 5Z" fill="url(#paint0_linear_3034_650)" stroke="black" stroke-width="10"/>
</g>
<defs>
<linearGradient id="paint0_linear_3034_650" x1="77.5" y1="0" x2="77.5" y2="155" gradientUnits="userSpaceOnUse">
<stop stop-color="#00EEFF"/>
<stop offset="1" stop-color="#009D8A"/>
</linearGradient>
<clipPath id="clip0_3034_650">
<rect width="155" height="155" fill="white"/>
</clipPath>
</defs>
</svg>
