<svg width="159" height="112" viewBox="0 0 159 112" fill="none" xmlns="http://www.w3.org/2000/svg">
<path d="M8.15527 57.5332C7.45485 56.6311 7.45487 55.3689 8.15527 54.4668L45.4414 6.46679C45.915 5.85711 46.644 5.5 47.416 5.5L69.251 5.5C71.4048 5.5 72.5504 8.04151 71.124 9.65527L38.0625 47.0596C33.5493 52.1657 33.5493 59.8344 38.0625 64.9404L71.124 102.345C72.5504 103.959 71.4048 106.5 69.251 106.5L47.416 106.5C46.644 106.5 45.915 106.143 45.4414 105.533L8.15527 57.5332Z" fill="url(#paint0_linear_3038_685)" stroke="black" stroke-width="11"/>
<path d="M150.845 54.4668C151.545 55.3689 151.545 56.6311 150.845 57.5332L113.559 105.533C113.085 106.143 112.356 106.5 111.584 106.5L89.749 106.5C87.5952 106.5 86.4496 103.958 87.876 102.345L120.938 64.9404C125.451 59.8343 125.451 52.1656 120.938 47.0596L87.876 9.65527C86.4496 8.04149 87.5952 5.5 89.749 5.5L111.584 5.5C112.356 5.5 113.085 5.85711 113.559 6.4668L150.845 54.4668Z" fill="url(#paint1_linear_3038_685)" stroke="black" stroke-width="11"/>
<circle cx="61" cy="56" r="9.5" fill="#F7DF1E" stroke="black" stroke-width="9"/>
<circle cx="98" cy="56" r="9.5" fill="#F7DF1E" stroke="black" stroke-width="9"/>
<circle cx="80" cy="34" r="9.5" transform="rotate(90 80 34)" fill="#F7DF1E" stroke="black" stroke-width="9"/>
<circle cx="80" cy="79" r="9.5" transform="rotate(90 80 79)" fill="#F7DF1E" stroke="black" stroke-width="9"/>
<defs>
<linearGradient id="paint0_linear_3038_685" x1="-2.44784e-06" y1="56" x2="87" y2="56" gradientUnits="userSpaceOnUse">
<stop offset="0.413462" stop-color="#FFE300"/>
<stop offset="1" stop-color="#827615"/>
</linearGradient>
<linearGradient id="paint1_linear_3038_685" x1="159" y1="56" x2="72" y2="56" gradientUnits="userSpaceOnUse">
<stop offset="0.413462" stop-color="#FFE300"/>
<stop offset="1" stop-color="#827615"/>
</linearGradient>
</defs>
</svg>
