<svg width="155" height="155" viewBox="0 0 155 155" fill="none" xmlns="http://www.w3.org/2000/svg">
<path d="M77.4785 6.5C78.4835 6.5 79.5147 7.09536 80.0371 8.2207L80.041 8.23047L80.0459 8.24023L98.9199 48.5459L100.392 51.6895L103.822 52.2148L145.986 58.6699V58.6709C146.956 58.8219 147.932 59.5604 148.337 60.8311C148.733 62.0748 148.385 63.4344 147.557 64.2842L147.555 64.2861L116.969 95.6963L114.683 98.0439L115.211 101.278L122.458 145.648V145.649C122.67 146.972 122.124 148.249 121.173 148.967C120.343 149.593 119.256 149.683 118.29 149.154L80.6592 128.301L77.5078 126.556L74.3574 128.301L36.7256 149.154C35.7965 149.663 34.6868 149.594 33.8086 148.94C32.9164 148.276 32.346 147.007 32.5566 145.663L39.7773 101.274L40.3027 98.042L38.0186 95.6963L7.43262 64.2861L7.42969 64.2842L7.28516 64.124C6.58642 63.2926 6.28374 62.0132 6.66504 60.7832C7.03609 59.5866 7.9964 58.8273 9 58.6709L8.99902 58.6699L51.1357 52.2148L54.5664 51.6885L56.0381 48.5459L74.9014 8.2627C75.4654 7.07056 76.5045 6.50016 77.4785 6.5Z" fill="url(#paint0_linear_3034_617)" stroke="black" stroke-width="13"/>
<defs>
<linearGradient id="paint0_linear_3034_617" x1="77.5" y1="0" x2="77.5" y2="156" gradientUnits="userSpaceOnUse">
<stop offset="0.201923" stop-color="#FFBF00"/>
<stop offset="1" stop-color="#7E5F00"/>
</linearGradient>
</defs>
</svg>
