<svg width="155" height="155" viewBox="0 0 155 155" fill="none" xmlns="http://www.w3.org/2000/svg">
<g clip-path="url(#clip0_3034_623)">
<path d="M107.516 73.5C107.788 73.5 108.061 73.6579 108.199 73.9482L108.202 73.9551L108.206 73.9619L118.81 96.1836L119.839 98.3408L122.203 98.6953L145.894 102.255C146.145 102.294 146.415 102.484 146.531 102.841C146.638 103.173 146.542 103.544 146.315 103.772L146.314 103.774L129.128 121.092L127.505 122.728L127.883 125.001L131.955 149.461V149.462C132.013 149.819 131.863 150.173 131.589 150.376C131.387 150.526 131.107 150.563 130.833 150.419L109.682 138.919L107.533 137.75L105.383 138.919L84.2379 150.416C83.9864 150.549 83.6881 150.531 83.4518 150.358C83.2185 150.188 83.0527 149.843 83.11 149.471L87.1666 124.998L87.5436 122.727L85.9215 121.092L68.736 103.774L68.734 103.772C68.5275 103.564 68.4102 103.187 68.5299 102.808C68.6259 102.504 68.8785 102.299 69.152 102.255L92.8307 98.6953L95.194 98.3408L96.2223 96.1836L106.82 73.9775C106.982 73.6407 107.266 73.5001 107.516 73.5Z" fill="url(#paint0_linear_3034_623)" stroke="black" stroke-width="9"/>
<path d="M49.5162 4.5C49.7882 4.5 50.0615 4.65789 50.1989 4.94824L50.2018 4.95508L50.2057 4.96191L60.8102 27.1836L61.8395 29.3408L64.2028 29.6953L87.8942 33.2549C88.1451 33.2938 88.4152 33.4843 88.5309 33.8408C88.6383 34.1726 88.5418 34.5442 88.3151 34.7725L88.3141 34.7744L71.1276 52.0918L69.5045 53.7275L69.8834 56.001L73.9547 80.4609V80.4619C74.013 80.8191 73.8635 81.173 73.5895 81.376C73.3873 81.5256 73.1071 81.5627 72.8326 81.4189L51.6823 69.9189L49.5328 68.75L47.3834 69.9189L26.2379 81.416C25.9864 81.5495 25.6881 81.531 25.4518 81.3584C25.2185 81.188 25.0527 80.8428 25.11 80.4707L29.1666 55.998L29.5436 53.7266L27.9215 52.0918L10.736 34.7744L10.734 34.7725C10.5275 34.5645 10.4102 34.1871 10.5299 33.8076C10.6259 33.5036 10.8785 33.2986 11.152 33.2549L34.8307 29.6953L37.194 29.3408L38.2223 27.1836L48.8199 4.97754C48.9823 4.64066 49.266 4.50011 49.5162 4.5Z" fill="url(#paint1_linear_3034_623)" stroke="black" stroke-width="9"/>
</g>
<defs>
<linearGradient id="paint0_linear_3034_623" x1="107.528" y1="69" x2="107.528" y2="155.01" gradientUnits="userSpaceOnUse">
<stop offset="0.4375" stop-color="#FFBF00"/>
<stop offset="1" stop-color="#7E5F00"/>
</linearGradient>
<linearGradient id="paint1_linear_3034_623" x1="49.5284" y1="0" x2="49.5284" y2="86.0096" gradientUnits="userSpaceOnUse">
<stop offset="0.4375" stop-color="#FFBF00"/>
<stop offset="1" stop-color="#7E5F00"/>
</linearGradient>
<clipPath id="clip0_3034_623">
<rect width="155" height="155" fill="white"/>
</clipPath>
</defs>
</svg>
