<svg width="149" height="132" viewBox="0 0 149 132" fill="none" xmlns="http://www.w3.org/2000/svg">
<g clip-path="url(#clip0_3034_629)">
<path d="M35.5137 65C35.556 65.0001 35.6634 65.0262 35.7354 65.1807L35.7412 65.1934L44.3369 83.5391L45.2432 85.4736L47.3535 85.7959L66.5557 88.7344C66.5926 88.7409 66.724 88.7892 66.793 89.0059C66.8219 89.0967 66.827 89.2008 66.8027 89.3047C66.7783 89.4091 66.731 89.4856 66.6846 89.5332L66.6836 89.5342L52.7539 103.832L51.3457 105.277L51.6709 107.269L54.9717 127.461V127.462C55.0081 127.689 54.9074 127.884 54.7871 127.975C54.7531 128 54.7287 128.006 54.709 128.008C54.6878 128.009 54.6521 128.006 54.6035 127.98L37.4648 118.488L35.5264 117.415L33.5889 118.488L16.4492 127.98C16.4109 128 16.38 128.005 16.3535 128.003C16.3256 128.001 16.2889 127.991 16.2451 127.959C16.2074 127.931 16.1546 127.874 16.1162 127.777C16.0786 127.682 16.0656 127.575 16.0811 127.47L19.3691 107.266L19.6934 105.275L18.2861 103.832L4.35645 89.5342L4.35547 89.5332L4.29395 89.4482C4.27428 89.4118 4.25667 89.3666 4.24414 89.3125C4.21887 89.2031 4.22232 89.0849 4.25586 88.9766C4.30915 88.8048 4.42694 88.7444 4.4834 88.7344L23.6729 85.7959L25.7842 85.4727L26.6895 83.5391L35.2783 65.2061L35.2793 65.207C35.3259 65.1086 35.3826 65.0559 35.4219 65.0303C35.4592 65.006 35.4882 65 35.5137 65Z" fill="url(#paint0_linear_3034_629)" stroke="black" stroke-width="8"/>
<path d="M74.5137 4C74.5293 4.00004 74.5545 4.00383 74.5918 4.02832C74.6304 4.05372 74.6841 4.10452 74.7266 4.19727L74.7324 4.20898L83.3281 22.8135L84.2275 24.7598L86.3457 25.0889L105.548 28.0684C105.569 28.0733 105.71 28.1184 105.788 28.3672C105.866 28.6156 105.782 28.8723 105.665 28.9941L105.664 28.9961L91.7344 43.4941L90.3525 44.9326L90.6699 46.9023L93.9697 67.3799V67.3809C94.0137 67.6587 93.89 67.8843 93.7656 67.9795C93.7461 67.9944 93.7326 68.0003 93.7256 68.0029C93.7182 68.0057 93.7115 68.0073 93.7051 68.0078C93.6951 68.0085 93.6663 68.0086 93.6191 67.9824L76.4854 58.3594L74.5264 57.2588L72.5684 58.3594L55.4336 67.9824C55.3969 68.0027 55.3732 68.0041 55.3574 68.0029C55.3411 68.0017 55.3104 67.9959 55.2666 67.9629C55.2279 67.9337 55.1676 67.8706 55.123 67.7568C55.0793 67.645 55.0634 67.5156 55.082 67.3887L58.3711 46.8994L58.6865 44.9316L57.3057 43.4941L43.376 28.9961L43.375 28.9941L43.3398 28.9531C43.3045 28.9042 43.2691 28.8328 43.2471 28.7363C43.2175 28.6068 43.2217 28.4665 43.2607 28.3389C43.3267 28.1231 43.464 28.0723 43.4941 28.0674L62.6816 25.0889L64.7998 24.7598L65.6992 22.8135L74.291 4.21582C74.3436 4.10615 74.4057 4.05029 74.4434 4.02539C74.4792 4.00175 74.5006 4 74.5137 4Z" fill="url(#paint1_linear_3034_629)" stroke="black" stroke-width="8"/>
<path d="M113.514 65C113.556 65.0001 113.663 65.0262 113.735 65.1807L113.741 65.1934L122.337 83.5391L123.243 85.4736L125.354 85.7959L144.556 88.7344C144.593 88.7409 144.724 88.7892 144.793 89.0059C144.822 89.0967 144.827 89.2008 144.803 89.3047C144.778 89.4091 144.731 89.4856 144.685 89.5332L144.684 89.5342L130.754 103.832L129.346 105.277L129.671 107.269L132.972 127.461V127.462C133.008 127.689 132.907 127.884 132.787 127.975C132.753 128 132.729 128.006 132.709 128.008C132.688 128.009 132.652 128.006 132.604 127.98L115.465 118.488L113.526 117.415L111.589 118.488L94.4492 127.98C94.4109 128 94.38 128.005 94.3535 128.003C94.3256 128.001 94.2889 127.991 94.2451 127.959C94.2074 127.931 94.1546 127.874 94.1162 127.777C94.0786 127.682 94.0656 127.575 94.0811 127.47L97.3691 107.266L97.6934 105.275L96.2861 103.832L82.3564 89.5342L82.3555 89.5332L82.2939 89.4482C82.2743 89.4118 82.2567 89.3666 82.2441 89.3125C82.2189 89.2031 82.2223 89.0849 82.2559 88.9766C82.3091 88.8048 82.4269 88.7444 82.4834 88.7344L101.673 85.7959L103.784 85.4727L104.689 83.5391L113.278 65.2061L113.279 65.207C113.326 65.1086 113.383 65.0559 113.422 65.0303C113.459 65.006 113.488 65 113.514 65Z" fill="url(#paint2_linear_3034_629)" stroke="black" stroke-width="8"/>
</g>
<defs>
<linearGradient id="paint0_linear_3034_629" x1="35.523" y1="61" x2="35.523" y2="132.008" gradientUnits="userSpaceOnUse">
<stop offset="0.432692" stop-color="#FFBF00"/>
<stop offset="1" stop-color="#7E5F00"/>
</linearGradient>
<linearGradient id="paint1_linear_3034_629" x1="74.523" y1="0" x2="74.523" y2="72.0081" gradientUnits="userSpaceOnUse">
<stop offset="0.432692" stop-color="#FFBF00"/>
<stop offset="1" stop-color="#7E5F00"/>
</linearGradient>
<linearGradient id="paint2_linear_3034_629" x1="113.523" y1="61" x2="113.523" y2="132.008" gradientUnits="userSpaceOnUse">
<stop offset="0.432692" stop-color="#FFBF00"/>
<stop offset="1" stop-color="#7E5F00"/>
</linearGradient>
<clipPath id="clip0_3034_629">
<rect width="149" height="132" fill="white"/>
</clipPath>
</defs>
</svg>
