<svg width="155" height="155" viewBox="0 0 155 155" fill="none" xmlns="http://www.w3.org/2000/svg">
<mask id="path-1-inside-1_3034_668" fill="white">
<path d="M77.5 0C120.302 0 155 34.6979 155 77.5C155 120.302 120.302 155 77.5 155C34.6979 155 0 120.302 0 77.5C0 34.6979 34.6979 0 77.5 0ZM77.6064 32.6318C75.5742 32.6318 73.74 33.8398 72.8477 35.7383L62.2227 58.5752L38.4951 62.2344C36.5123 62.5451 34.8594 63.9954 34.248 65.9805C33.6369 67.9654 34.1328 70.1579 35.5537 71.625L52.7715 89.4209L48.7061 114.57C48.3756 116.642 49.2023 118.747 50.8379 119.973C52.4737 121.198 54.6383 121.354 56.4229 120.37L77.623 108.546L98.8223 120.37C100.607 121.354 102.771 121.215 104.407 119.973C106.043 118.73 106.87 116.642 106.539 114.57L102.457 89.4209L119.675 71.625C121.096 70.1579 121.608 67.9654 120.98 65.9805C120.353 63.9954 118.716 62.5451 116.733 62.2344L92.9893 58.5752L82.3652 35.7383C81.4895 33.8397 79.6387 32.632 77.6064 32.6318Z"/>
</mask>
<path d="M77.5 0C120.302 0 155 34.6979 155 77.5C155 120.302 120.302 155 77.5 155C34.6979 155 0 120.302 0 77.5C0 34.6979 34.6979 0 77.5 0ZM77.6064 32.6318C75.5742 32.6318 73.74 33.8398 72.8477 35.7383L62.2227 58.5752L38.4951 62.2344C36.5123 62.5451 34.8594 63.9954 34.248 65.9805C33.6369 67.9654 34.1328 70.1579 35.5537 71.625L52.7715 89.4209L48.7061 114.57C48.3756 116.642 49.2023 118.747 50.8379 119.973C52.4737 121.198 54.6383 121.354 56.4229 120.37L77.623 108.546L98.8223 120.37C100.607 121.354 102.771 121.215 104.407 119.973C106.043 118.73 106.87 116.642 106.539 114.57L102.457 89.4209L119.675 71.625C121.096 70.1579 121.608 67.9654 120.98 65.9805C120.353 63.9954 118.716 62.5451 116.733 62.2344L92.9893 58.5752L82.3652 35.7383C81.4895 33.8397 79.6387 32.632 77.6064 32.6318Z" fill="url(#paint0_linear_3034_668)"/>
<path d="M77.6064 32.6318L77.6071 22.6318H77.6064V32.6318ZM72.8477 35.7383L63.7975 31.4845L63.7892 31.5022L63.7809 31.5199L72.8477 35.7383ZM62.2227 58.5752L63.7468 68.4584L69.0331 67.6431L71.2894 62.7935L62.2227 58.5752ZM38.4951 62.2344L36.971 52.3512L36.959 52.3531L36.947 52.3549L38.4951 62.2344ZM34.248 65.9805L24.6911 63.037L24.6909 63.0377L34.248 65.9805ZM35.5537 71.625L42.7406 64.6716L42.7369 64.6679L35.5537 71.625ZM52.7715 89.4209L62.6433 91.0167L63.4431 86.0693L59.9583 82.4675L52.7715 89.4209ZM48.7061 114.57L38.8342 112.975L38.8326 112.985L38.8309 112.995L48.7061 114.57ZM50.8379 119.973L44.8415 127.975L44.842 127.976L50.8379 119.973ZM56.4229 120.37L61.2509 129.127L61.2724 129.116L61.2939 129.104L56.4229 120.37ZM77.623 108.546L82.4942 99.8125L77.6232 97.0956L72.752 99.8124L77.623 108.546ZM98.8223 120.37L93.9511 129.103L93.9726 129.115L93.9941 129.127L98.8223 120.37ZM104.407 119.973L110.457 127.935L110.457 127.935L104.407 119.973ZM106.539 114.57L116.414 112.995L116.412 112.981L116.41 112.968L106.539 114.57ZM102.457 89.4209L95.2702 82.4675L91.7826 86.0722L92.5862 91.023L102.457 89.4209ZM119.675 71.625L112.492 64.6679L112.488 64.6716L119.675 71.625ZM120.98 65.9805L130.515 62.9652L130.515 62.9646L120.98 65.9805ZM116.733 62.2344L118.281 52.3549L118.269 52.353L118.257 52.351L116.733 62.2344ZM92.9893 58.5752L83.9224 62.7932L86.1789 67.6437L91.4662 68.4585L92.9893 58.5752ZM82.3652 35.7383L73.2847 39.9268L73.2915 39.9415L73.2984 39.9563L82.3652 35.7383ZM77.5 0V10C114.779 10 145 40.2208 145 77.5H155H165C165 29.1751 125.825 -10 77.5 -10V0ZM155 77.5H145C145 114.779 114.779 145 77.5 145V155V165C125.825 165 165 125.825 165 77.5H155ZM77.5 155V145C40.2208 145 10 114.779 10 77.5H0H-10C-10 125.825 29.1751 165 77.5 165V155ZM0 77.5H10C10 40.2208 40.2208 10 77.5 10V0V-10C29.1751 -10 -10 29.1751 -10 77.5H0ZM77.6064 32.6318V22.6318C71.4842 22.6318 66.2449 26.2774 63.7975 31.4845L72.8477 35.7383L81.8978 39.992C81.235 41.4022 79.6642 42.6318 77.6064 42.6318V32.6318ZM72.8477 35.7383L63.7809 31.5199L53.1559 54.3569L62.2227 58.5752L71.2894 62.7935L81.9144 39.9566L72.8477 35.7383ZM62.2227 58.5752L60.6985 48.692L36.971 52.3512L38.4951 62.2344L40.0193 72.1175L63.7468 68.4584L62.2227 58.5752ZM38.4951 62.2344L36.947 52.3549C31.0596 53.2775 26.3884 57.5259 24.6911 63.037L34.248 65.9805L43.805 68.9239C43.3304 70.465 41.965 71.8127 40.0432 72.1138L38.4951 62.2344ZM34.248 65.9805L24.6909 63.0377C23.0495 68.3683 24.3115 74.3912 28.3705 78.5821L35.5537 71.625L42.7369 64.6679C43.9541 65.9246 44.2242 67.5625 43.8052 68.9233L34.248 65.9805ZM35.5537 71.625L28.3669 78.5784L45.5846 96.3743L52.7715 89.4209L59.9583 82.4675L42.7406 64.6716L35.5537 71.625ZM52.7715 89.4209L42.8996 87.8251L38.8342 112.975L48.7061 114.57L58.5779 116.166L62.6433 91.0167L52.7715 89.4209ZM48.7061 114.57L38.8309 112.995C37.939 118.585 40.1194 124.437 44.8415 127.975L50.8379 119.973L56.8343 111.97C58.2851 113.057 58.8122 114.698 58.5812 116.146L48.7061 114.57ZM50.8379 119.973L44.842 127.976C49.6023 131.542 56.0001 132.022 61.2509 129.127L56.4229 120.37L51.5948 111.613C53.2765 110.686 55.3451 110.854 56.8337 111.97L50.8379 119.973ZM56.4229 120.37L61.2939 129.104L82.4941 117.279L77.623 108.546L72.752 99.8124L51.5518 111.637L56.4229 120.37ZM77.623 108.546L72.7519 117.279L93.9511 129.103L98.8223 120.37L103.693 111.637L82.4942 99.8125L77.623 108.546ZM98.8223 120.37L93.9941 129.127C99.1886 131.991 105.623 131.608 110.457 127.935L104.407 119.973L98.3577 112.01C99.9203 110.823 102.025 110.717 103.65 111.613L98.8223 120.37ZM104.407 119.973L110.457 127.935C115.094 124.412 117.313 118.626 116.414 112.995L106.539 114.57L96.664 116.146C96.4264 114.657 96.9921 113.048 98.3573 112.01L104.407 119.973ZM106.539 114.57L116.41 112.968L112.328 87.8188L102.457 89.4209L92.5862 91.023L96.6682 116.172L106.539 114.57ZM102.457 89.4209L109.644 96.3743L126.862 78.5784L119.675 71.625L112.488 64.6716L95.2702 82.4675L102.457 89.4209ZM119.675 71.625L126.858 78.5821C130.874 74.4354 132.234 68.4004 130.515 62.9652L120.98 65.9805L111.446 68.9958C110.982 67.5305 111.317 65.8804 112.492 64.6679L119.675 71.625ZM120.98 65.9805L130.515 62.9646C128.807 57.5665 124.22 53.2855 118.281 52.3549L116.733 62.2344L115.185 72.1138C113.212 71.8046 111.898 70.4244 111.446 68.9963L120.98 65.9805ZM116.733 62.2344L118.257 52.351L94.5124 48.6919L92.9893 58.5752L91.4662 68.4585L115.21 72.1177L116.733 62.2344ZM92.9893 58.5752L102.056 54.3572L91.4321 31.5203L82.3652 35.7383L73.2984 39.9563L83.9224 62.7932L92.9893 58.5752ZM82.3652 35.7383L91.4458 31.5498C88.9958 26.2382 83.6809 22.6322 77.6071 22.6318L77.6064 32.6318L77.6058 42.6318C75.5964 42.6317 73.9832 41.4413 73.2847 39.9268L82.3652 35.7383Z" fill="black" mask="url(#path-1-inside-1_3034_668)"/>
<defs>
<linearGradient id="paint0_linear_3034_668" x1="77.5" y1="0" x2="77.5" y2="155" gradientUnits="userSpaceOnUse">
<stop stop-color="#1E2CF7"/>
<stop offset="1" stop-color="#0D135F"/>
</linearGradient>
</defs>
</svg>
