<svg width="75" height="75" viewBox="0 0 75 75" fill="none" xmlns="http://www.w3.org/2000/svg">
<path d="M53.1646 33.1387C53.5912 33.1388 53.9933 33.3879 54.188 33.8018L54.1899 33.8057L59.5063 45.0088L59.8491 45.7305L60.6372 45.8496L72.519 47.6445C72.9297 47.7092 73.2946 48.0096 73.4399 48.46C73.5831 48.904 73.4625 49.3945 73.147 49.7139V49.7148L64.5317 58.4453L63.9946 58.9893L64.1196 59.7432L66.1606 72.0762V72.0771C66.2367 72.5447 66.0452 73.0115 65.6792 73.2842C65.3377 73.5385 64.8821 73.5728 64.4927 73.3623L53.8921 67.5654L53.1724 67.1719L52.4526 67.5654L41.8511 73.3623C41.4701 73.5682 41.0102 73.5372 40.6577 73.2783C40.3047 73.0189 40.107 72.5508 40.1841 72.0771L40.1831 72.0762L42.2173 59.7422L42.3413 58.9893L41.8052 58.4453L33.1899 49.7148L33.189 49.7139C32.8802 49.4011 32.7554 48.9082 32.8999 48.4482C33.0361 48.0149 33.3993 47.7103 33.8179 47.6445L45.6909 45.8496L46.48 45.7305L46.8218 45.0088L52.1353 33.8115C52.3411 33.382 52.745 33.1387 53.1646 33.1387Z" fill="#F3B600" stroke="black" stroke-width="3"/>
<path d="M21.8242 1.5C22.2508 1.50013 22.653 1.74923 22.8477 2.16309L22.8496 2.16699L28.166 13.3701L28.5088 14.0918L29.2969 14.2109L41.1787 16.0059C41.5894 16.0705 41.9543 16.3709 42.0996 16.8213C42.2428 17.2653 42.1222 17.7558 41.8066 18.0752V18.0762L33.1914 26.8066L32.6543 27.3506L32.7793 28.1045L34.8203 40.4375V40.4385C34.8964 40.9061 34.7048 41.3728 34.3389 41.6455C33.9974 41.8999 33.5418 41.9341 33.1523 41.7236L22.5518 35.9268L21.832 35.5332L21.1123 35.9268L10.5107 41.7236C10.1297 41.9295 9.66988 41.8986 9.31738 41.6396C8.96433 41.3802 8.76667 40.9122 8.84375 40.4385L8.84277 40.4375L10.877 28.1035L11.001 27.3506L10.4648 26.8066L1.84961 18.0762L1.84863 18.0752C1.53985 17.7625 1.4151 17.2695 1.55957 16.8096C1.69578 16.3763 2.05895 16.0717 2.47754 16.0059L14.3506 14.2109L15.1396 14.0918L15.4814 13.3701L20.7949 2.17285C21.0008 1.74335 21.4047 1.5 21.8242 1.5Z" fill="#F3B600" stroke="black" stroke-width="3"/>
</svg>
