<svg width="85" height="75" viewBox="0 0 85 75" fill="none" xmlns="http://www.w3.org/2000/svg">
<g clip-path="url(#clip0_3025_611)">
<path d="M42.507 1.5C42.7669 1.5 43.0854 1.6648 43.2589 2.05957L43.2609 2.06445L48.005 12.7666L48.3351 13.5098L49.1368 13.6396L59.7404 15.3545C59.9986 15.3988 60.3063 15.6196 60.4396 16.0615C60.5726 16.5029 60.4514 16.9742 60.1906 17.2568L60.1896 17.2578L52.5021 25.5977L52.0118 26.1289L52.1222 26.8438L53.9445 38.6299C54.0145 39.1 53.826 39.5318 53.5402 39.7598C53.3267 39.93 53.0727 39.9667 52.8341 39.8701L52.7325 39.8203L43.2726 34.2832L42.5148 33.8389L41.757 34.2832L32.297 39.8203C32.0392 39.9695 31.7368 39.9536 31.4816 39.7529C31.2082 39.5379 31.0137 39.1056 31.0851 38.6289L32.8995 26.8428L33.0099 26.1289L32.5206 25.5977L24.8322 17.2578L24.8312 17.2568L24.7423 17.1445C24.5493 16.8627 24.4678 16.4504 24.5851 16.0508C24.7101 15.625 25.0168 15.3997 25.2823 15.3545L35.8781 13.6387L36.6798 13.5098L37.0089 12.7666L41.7531 2.06348C41.937 1.65747 42.2548 1.50015 42.507 1.5Z" fill="#F3B600" stroke="black" stroke-width="3"/>
</g>
<g clip-path="url(#clip1_3025_611)">
<path d="M21.257 35.082C21.5169 35.082 21.8354 35.2468 22.0089 35.6416L22.0109 35.6465L26.755 46.3486L27.0851 47.0918L27.8868 47.2217L38.4904 48.9365C38.7486 48.9809 39.0563 49.2017 39.1896 49.6436C39.3226 50.085 39.2014 50.5562 38.9406 50.8389L38.9396 50.8398L31.2521 59.1797L30.7618 59.7109L30.8722 60.4258L32.6945 72.2119C32.7645 72.682 32.576 73.1139 32.2902 73.3418C32.0767 73.512 31.8227 73.5488 31.5841 73.4521L31.4825 73.4023L22.0226 67.8652L21.2648 67.4209L20.507 67.8652L11.047 73.4023C10.7892 73.5515 10.4868 73.5357 10.2316 73.335C9.95821 73.12 9.76367 72.6876 9.83508 72.2109L11.6495 60.4248L11.7599 59.7109L11.2706 59.1797L3.58215 50.8398L3.58118 50.8389L3.49231 50.7266C3.2993 50.4447 3.21782 50.0324 3.33508 49.6328C3.46012 49.2071 3.76682 48.9818 4.03235 48.9365L14.6281 47.2207L15.4298 47.0918L15.7589 46.3486L20.5031 35.6455C20.687 35.2395 21.0048 35.0822 21.257 35.082Z" fill="#F3B600" stroke="black" stroke-width="3"/>
</g>
<g clip-path="url(#clip2_3025_611)">
<path d="M63.757 35.082C64.0169 35.082 64.3354 35.2468 64.5089 35.6416L64.5109 35.6465L69.255 46.3486L69.5851 47.0918L70.3868 47.2217L80.9904 48.9365C81.2486 48.9809 81.5563 49.2017 81.6896 49.6436C81.8226 50.085 81.7014 50.5562 81.4406 50.8389L81.4396 50.8398L73.7521 59.1797L73.2618 59.7109L73.3722 60.4258L75.1945 72.2119C75.2645 72.682 75.076 73.1139 74.7902 73.3418C74.5767 73.512 74.3227 73.5488 74.0841 73.4521L73.9825 73.4023L64.5226 67.8652L63.7648 67.4209L63.007 67.8652L53.547 73.4023C53.2892 73.5515 52.9868 73.5357 52.7316 73.335C52.4582 73.12 52.2637 72.6876 52.3351 72.2109L54.1495 60.4248L54.2599 59.7109L53.7706 59.1797L46.0822 50.8398L46.0812 50.8389L45.9923 50.7266C45.7993 50.4447 45.7178 50.0324 45.8351 49.6328C45.9601 49.2071 46.2668 48.9818 46.5323 48.9365L57.1281 47.2207L57.9298 47.0918L58.2589 46.3486L63.0031 35.6455C63.187 35.2395 63.5048 35.0822 63.757 35.082Z" fill="#F3B600" stroke="black" stroke-width="3"/>
</g>
<defs>
<clipPath id="clip0_3025_611">
<rect width="42.5" height="41.4179" fill="white" transform="translate(21.25)"/>
</clipPath>
<clipPath id="clip1_3025_611">
<rect width="42.5" height="41.4179" fill="white" transform="translate(0 33.582)"/>
</clipPath>
<clipPath id="clip2_3025_611">
<rect width="42.5" height="41.4179" fill="white" transform="translate(42.5 33.582)"/>
</clipPath>
</defs>
</svg>
