<svg width="50" height="50" viewBox="0 0 50 50" fill="none" xmlns="http://www.w3.org/2000/svg">
<circle cx="25" cy="25" r="25"/>
<g clip-path="url(#clip0_2976_619)">
<path d="M25 25C27.5764 25 30.0473 24.1045 31.869 22.5104C33.6908 20.9163 34.7143 18.7543 34.7143 16.5C34.7143 14.2457 33.6908 12.0837 31.869 10.4896C30.0473 8.89553 27.5764 8 25 8C22.4236 8 19.9527 8.89553 18.131 10.4896C16.3092 12.0837 15.2857 14.2457 15.2857 16.5C15.2857 18.7543 16.3092 20.9163 18.131 22.5104C19.9527 24.1045 22.4236 25 25 25ZM21.5317 28.1875C14.0563 28.1875 8 33.4867 8 40.0277C8 41.1168 9.00938 42 10.254 42H39.746C40.9906 42 42 41.1168 42 40.0277C42 33.4867 35.9438 28.1875 28.4683 28.1875H21.5317Z" fill="black"/>
</g>
<defs>
<clipPath id="clip0_2976_619">
<rect width="34" height="34" fill="white" transform="translate(8 8)"/>
</clipPath>
</defs>
</svg>
