<svg width="23" height="20" viewBox="0 0 23 20" fill="none" xmlns="http://www.w3.org/2000/svg">
<g clip-path="url(#clip0_60_2862)">
<path d="M6.20003 3.75C6.67742 3.75 7.13526 3.55246 7.47283 3.20083C7.81039 2.84919 8.00003 2.37228 8.00003 1.875C8.00003 1.37772 7.81039 0.900805 7.47283 0.549175C7.13526 0.197544 6.67742 0 6.20003 0C5.72265 0 5.26481 0.197544 4.92724 0.549175C4.58968 0.900805 4.40003 1.37772 4.40003 1.875C4.40003 2.37228 4.58968 2.84919 4.92724 3.20083C5.26481 3.55246 5.72265 3.75 6.20003 3.75ZM5.90003 18.75V13.75H6.50003V18.75C6.50003 19.4414 7.03628 20 7.70003 20C8.36378 20 8.90003 19.4414 8.90003 18.75V7.5H11H13.4H14C14.6638 7.5 15.2 6.94141 15.2 6.25C15.2 5.55859 14.6638 5 14 5H13.4V2.5H20.6V10H13.4V8.75H11V10.625C11 11.6602 11.8063 12.5 12.8 12.5H21.2C22.1938 12.5 23 11.6602 23 10.625V1.875C23 0.839844 22.1938 0 21.2 0H12.8C11.8063 0 11 0.839844 11 1.875V5H8.11628H5.64503C4.38128 5 3.21128 5.69141 2.55878 6.82031L0.372534 10.6094C0.0312844 11.1992 0.215034 11.9688 0.781284 12.3242C1.34753 12.6797 2.08628 12.4883 2.42753 11.8984L3.50003 10.0352V18.75C3.50003 19.4414 4.03628 20 4.70003 20C5.36378 20 5.90003 19.4414 5.90003 18.75Z" fill="white"/>
</g>
<defs>
<clipPath id="clip0_60_2862">
<rect width="23" height="20" fill="white"/>
</clipPath>
</defs>
</svg>
