<svg width="24" height="19" viewBox="0 0 24 19" fill="none" xmlns="http://www.w3.org/2000/svg">
<g clip-path="url(#clip0_60_2864)">
<path d="M6.8987 0.519347C7.34773 0.886317 7.38401 1.50893 6.98034 1.91713L3.71472 5.21574C3.51515 5.41778 3.23395 5.53736 2.9346 5.54148C2.63525 5.54561 2.34951 5.44252 2.13633 5.25285L0.317562 3.60355C-0.104248 3.21596 -0.104248 2.58923 0.317562 2.20164C0.739372 1.81405 1.43332 1.81405 1.85513 2.20164L2.85749 3.11288L5.3566 0.589442C5.76027 0.181239 6.44514 0.148253 6.89417 0.515224L6.8987 0.519347ZM6.8987 7.11657C7.34773 7.48354 7.38401 8.10615 6.98034 8.51436L3.71472 11.813C3.51515 12.015 3.23395 12.1346 2.9346 12.1387C2.63525 12.1428 2.34951 12.0397 2.13633 11.8501L0.317562 10.2008C-0.108784 9.81318 -0.108784 9.18645 0.317562 8.80298C0.743907 8.41952 1.43332 8.4154 1.85513 8.80298L2.85749 9.71423L5.3566 7.19079C5.76027 6.78258 6.44514 6.7496 6.89417 7.11657H6.8987ZM10.1598 2.90259C10.1598 2.17278 10.8084 1.58315 11.6112 1.58315H21.7709C22.5737 1.58315 23.2223 2.17278 23.2223 2.90259C23.2223 3.63241 22.5737 4.22204 21.7709 4.22204H11.6112C10.8084 4.22204 10.1598 3.63241 10.1598 2.90259ZM10.1598 9.49981C10.1598 8.77 10.8084 8.18037 11.6112 8.18037H21.7709C22.5737 8.18037 23.2223 8.77 23.2223 9.49981C23.2223 10.2296 22.5737 10.8193 21.7709 10.8193H11.6112C10.8084 10.8193 10.1598 10.2296 10.1598 9.49981ZM7.25701 16.097C7.25701 15.3672 7.9056 14.7776 8.7084 14.7776H21.7709C22.5737 14.7776 23.2223 15.3672 23.2223 16.097C23.2223 16.8269 22.5737 17.4165 21.7709 17.4165H8.7084C7.9056 17.4165 7.25701 16.8269 7.25701 16.097ZM2.17715 14.1179C2.75455 14.1179 3.3083 14.3264 3.71658 14.6976C4.12487 15.0687 4.35424 15.5721 4.35424 16.097C4.35424 16.6219 4.12487 17.1254 3.71658 17.4965C3.3083 17.8677 2.75455 18.0762 2.17715 18.0762C1.59976 18.0762 1.04601 17.8677 0.637723 17.4965C0.229441 17.1254 7.05163e-05 16.6219 7.05163e-05 16.097C7.05163e-05 15.5721 0.229441 15.0687 0.637723 14.6976C1.04601 14.3264 1.59976 14.1179 2.17715 14.1179Z" fill="white"/>
</g>
<defs>
<clipPath id="clip0_60_2864">
<rect width="23.2222" height="19" fill="white"/>
</clipPath>
</defs>
</svg>
