<svg width="112" height="98" viewBox="0 0 112 98" fill="none" xmlns="http://www.w3.org/2000/svg">
<path d="M112.007 45.5C112.007 70.6344 86.9378 91 56.0065 91C47.8909 91 40.1909 89.6 33.2346 87.0844C30.6315 88.9875 26.3877 91.5906 21.3565 93.7781C16.1065 96.0531 9.78461 98 3.50649 98C2.08461 98 0.815862 97.1469 0.268987 95.8344C-0.277888 94.5219 0.028362 93.0344 1.01274 92.0281L1.07836 91.9625C1.14399 91.8969 1.23149 91.8094 1.36274 91.6562C1.60336 91.3937 1.97524 90.9781 2.43461 90.4094C3.33149 89.3156 4.53461 87.6969 5.75961 85.6844C7.94711 82.0531 10.0252 77.2844 10.4409 71.925C3.87836 64.4875 0.00648705 55.3656 0.00648705 45.5C0.00648705 20.3656 25.0752 0 56.0065 0C86.9378 0 112.007 20.3656 112.007 45.5Z" fill="white"/>
</svg>
