<svg width="385" height="201" viewBox="0 0 385 201" fill="none" xmlns="http://www.w3.org/2000/svg">
<path d="M0 21C0 9.95431 8.9543 1 20 1H362C373.046 1 382 9.95431 382 21V201H0V21Z" fill="url(#paint0_linear_2985_731)"/>
<g filter="url(#filter0_d_2985_731)">
<path d="M93.548 34L89.188 27.26L91.808 25.68L97.228 34H93.548ZM84.448 34V20H87.668V34H84.448ZM86.728 28.36V25.66H91.608V28.36H86.728ZM92.108 27.36L89.128 27L93.668 20H97.088L92.108 27.36ZM99.751 38.04C99.191 38.04 98.6377 37.9533 98.091 37.78C97.5443 37.6067 97.0977 37.3667 96.751 37.06L97.891 34.84C98.131 35.0533 98.4043 35.22 98.711 35.34C99.031 35.46 99.3443 35.52 99.651 35.52C100.091 35.52 100.438 35.4133 100.691 35.2C100.958 35 101.198 34.66 101.411 34.18L101.971 32.86L102.211 32.52L106.071 23.24H109.071L104.211 34.66C103.864 35.5267 103.464 36.2067 103.011 36.7C102.571 37.1933 102.078 37.54 101.531 37.74C100.998 37.94 100.404 38.04 99.751 38.04ZM101.591 34.42L96.791 23.24H100.011L103.731 32.24L101.591 34.42ZM116.916 34.16C116.01 34.16 115.216 33.96 114.536 33.56C113.856 33.16 113.323 32.5533 112.936 31.74C112.563 30.9133 112.376 29.8733 112.376 28.62C112.376 27.3533 112.556 26.3133 112.916 25.5C113.276 24.6867 113.796 24.08 114.476 23.68C115.156 23.28 115.97 23.08 116.916 23.08C117.93 23.08 118.836 23.3133 119.636 23.78C120.45 24.2333 121.09 24.8733 121.556 25.7C122.036 26.5267 122.276 27.5 122.276 28.62C122.276 29.7533 122.036 30.7333 121.556 31.56C121.09 32.3867 120.45 33.0267 119.636 33.48C118.836 33.9333 117.93 34.16 116.916 34.16ZM110.556 37.88V23.24H113.536V25.44L113.476 28.64L113.676 31.82V37.88H110.556ZM116.376 31.6C116.896 31.6 117.356 31.48 117.756 31.24C118.17 31 118.496 30.66 118.736 30.22C118.99 29.7667 119.116 29.2333 119.116 28.62C119.116 27.9933 118.99 27.46 118.736 27.02C118.496 26.58 118.17 26.24 117.756 26C117.356 25.76 116.896 25.64 116.376 25.64C115.856 25.64 115.39 25.76 114.976 26C114.563 26.24 114.236 26.58 113.996 27.02C113.756 27.46 113.636 27.9933 113.636 28.62C113.636 29.2333 113.756 29.7667 113.996 30.22C114.236 30.66 114.563 31 114.976 31.24C115.39 31.48 115.856 31.6 116.376 31.6ZM129.583 34.16C128.423 34.16 127.39 33.9267 126.483 33.46C125.576 32.98 124.863 32.32 124.343 31.48C123.836 30.64 123.583 29.6867 123.583 28.62C123.583 27.54 123.836 26.5867 124.343 25.76C124.863 24.92 125.576 24.2667 126.483 23.8C127.39 23.32 128.423 23.08 129.583 23.08C130.716 23.08 131.703 23.32 132.543 23.8C133.383 24.2667 134.003 24.94 134.403 25.82L131.983 27.12C131.703 26.6133 131.35 26.24 130.923 26C130.51 25.76 130.056 25.64 129.563 25.64C129.03 25.64 128.55 25.76 128.123 26C127.696 26.24 127.356 26.58 127.103 27.02C126.863 27.46 126.743 27.9933 126.743 28.62C126.743 29.2467 126.863 29.78 127.103 30.22C127.356 30.66 127.696 31 128.123 31.24C128.55 31.48 129.03 31.6 129.563 31.6C130.056 31.6 130.51 31.4867 130.923 31.26C131.35 31.02 131.703 30.64 131.983 30.12L134.403 31.44C134.003 32.3067 133.383 32.98 132.543 33.46C131.703 33.9267 130.716 34.16 129.583 34.16ZM149.363 32.6V25.8H145.843L145.783 27.18C145.756 27.7533 145.723 28.3 145.683 28.82C145.643 29.34 145.563 29.8133 145.443 30.24C145.336 30.6533 145.176 31.0067 144.963 31.3C144.75 31.58 144.463 31.7733 144.103 31.88L141.023 31.44C141.41 31.44 141.723 31.3267 141.963 31.1C142.203 30.86 142.39 30.5333 142.523 30.12C142.656 29.6933 142.756 29.2133 142.823 28.68C142.89 28.1333 142.936 27.56 142.963 26.96L143.103 23.24H152.483V32.6H149.363ZM140.663 36.32V31.44H154.023V36.32H151.123V34H143.563V36.32H140.663ZM154.626 33.98L154.786 31.42C154.866 31.4333 154.946 31.4467 155.026 31.46C155.106 31.46 155.18 31.46 155.246 31.46C155.62 31.46 155.913 31.3533 156.126 31.14C156.34 30.9267 156.5 30.64 156.606 30.28C156.713 29.9067 156.786 29.4867 156.826 29.02C156.88 28.5533 156.92 28.0667 156.946 27.56L157.106 23.24H166.306V34H163.186V25.04L163.886 25.8H159.166L159.826 25L159.686 27.7C159.646 28.66 159.566 29.54 159.446 30.34C159.34 31.14 159.16 31.8333 158.906 32.42C158.653 32.9933 158.313 33.44 157.886 33.76C157.46 34.0667 156.913 34.22 156.246 34.22C156.006 34.22 155.753 34.2 155.486 34.16C155.22 34.12 154.933 34.06 154.626 33.98ZM176.087 34V30.42L176.527 30.92H173.547C172 30.92 170.787 30.6 169.907 29.96C169.027 29.32 168.587 28.4 168.587 27.2C168.587 25.92 169.047 24.94 169.967 24.26C170.9 23.58 172.153 23.24 173.727 23.24H178.867V34H176.087ZM168.427 34L171.287 29.9H174.467L171.747 34H168.427ZM176.087 29.46V24.98L176.527 25.78H173.787C173.147 25.78 172.647 25.9 172.287 26.14C171.94 26.38 171.767 26.7667 171.767 27.3C171.767 28.3267 172.427 28.84 173.747 28.84H176.527L176.087 29.46ZM187.529 34V23.24H193.029C194.376 23.24 195.429 23.4867 196.189 23.98C196.949 24.46 197.329 25.14 197.329 26.02C197.329 26.9 196.969 27.5933 196.249 28.1C195.543 28.5933 194.603 28.84 193.429 28.84L193.749 28.12C195.056 28.12 196.029 28.36 196.669 28.84C197.323 29.32 197.649 30.02 197.649 30.94C197.649 31.8867 197.289 32.6333 196.569 33.18C195.849 33.7267 194.749 34 193.269 34H187.529ZM190.389 31.88H193.009C193.583 31.88 194.009 31.7867 194.289 31.6C194.583 31.4 194.729 31.1 194.729 30.7C194.729 30.2867 194.596 29.9867 194.329 29.8C194.063 29.6 193.643 29.5 193.069 29.5H190.389V31.88ZM190.389 27.66H192.749C193.296 27.66 193.703 27.56 193.969 27.36C194.249 27.16 194.389 26.8733 194.389 26.5C194.389 26.1133 194.249 25.8267 193.969 25.64C193.703 25.4533 193.296 25.36 192.749 25.36H190.389V27.66ZM205.231 34.16C204.004 34.16 202.924 33.92 201.991 33.44C201.071 32.96 200.357 32.3067 199.851 31.48C199.344 30.64 199.091 29.6867 199.091 28.62C199.091 27.54 199.337 26.5867 199.831 25.76C200.337 24.92 201.024 24.2667 201.891 23.8C202.757 23.32 203.737 23.08 204.831 23.08C205.884 23.08 206.831 23.3067 207.671 23.76C208.524 24.2 209.197 24.84 209.691 25.68C210.184 26.5067 210.431 27.5 210.431 28.66C210.431 28.78 210.424 28.92 210.411 29.08C210.397 29.2267 210.384 29.3667 210.371 29.5H201.631V27.68H208.731L207.531 28.22C207.531 27.66 207.417 27.1733 207.191 26.76C206.964 26.3467 206.651 26.0267 206.251 25.8C205.851 25.56 205.384 25.44 204.851 25.44C204.317 25.44 203.844 25.56 203.431 25.8C203.031 26.0267 202.717 26.3533 202.491 26.78C202.264 27.1933 202.151 27.6867 202.151 28.26V28.74C202.151 29.3267 202.277 29.8467 202.531 30.3C202.797 30.74 203.164 31.08 203.631 31.32C204.111 31.5467 204.671 31.66 205.311 31.66C205.884 31.66 206.384 31.5733 206.811 31.4C207.251 31.2267 207.651 30.9667 208.011 30.62L209.671 32.42C209.177 32.98 208.557 33.4133 207.811 33.72C207.064 34.0133 206.204 34.16 205.231 34.16ZM214.751 34V25.08L215.451 25.8H211.111V23.24H221.491V25.8H217.151L217.851 25.08V34H214.751ZM227.965 34.16C226.738 34.16 225.658 33.92 224.725 33.44C223.805 32.96 223.092 32.3067 222.585 31.48C222.078 30.64 221.825 29.6867 221.825 28.62C221.825 27.54 222.072 26.5867 222.565 25.76C223.072 24.92 223.758 24.2667 224.625 23.8C225.492 23.32 226.472 23.08 227.565 23.08C228.618 23.08 229.565 23.3067 230.405 23.76C231.258 24.2 231.932 24.84 232.425 25.68C232.918 26.5067 233.165 27.5 233.165 28.66C233.165 28.78 233.158 28.92 233.145 29.08C233.132 29.2267 233.118 29.3667 233.105 29.5H224.365V27.68H231.465L230.265 28.22C230.265 27.66 230.152 27.1733 229.925 26.76C229.698 26.3467 229.385 26.0267 228.985 25.8C228.585 25.56 228.118 25.44 227.585 25.44C227.052 25.44 226.578 25.56 226.165 25.8C225.765 26.0267 225.452 26.3533 225.225 26.78C224.998 27.1933 224.885 27.6867 224.885 28.26V28.74C224.885 29.3267 225.012 29.8467 225.265 30.3C225.532 30.74 225.898 31.08 226.365 31.32C226.845 31.5467 227.405 31.66 228.045 31.66C228.618 31.66 229.118 31.5733 229.545 31.4C229.985 31.2267 230.385 30.9667 230.745 30.62L232.405 32.42C231.912 32.98 231.292 33.4133 230.545 33.72C229.798 34.0133 228.938 34.16 227.965 34.16ZM241.897 34.16C240.99 34.16 240.197 33.96 239.517 33.56C238.837 33.16 238.303 32.5533 237.917 31.74C237.543 30.9133 237.357 29.8733 237.357 28.62C237.357 27.3533 237.537 26.3133 237.897 25.5C238.257 24.6867 238.777 24.08 239.457 23.68C240.137 23.28 240.95 23.08 241.897 23.08C242.91 23.08 243.817 23.3133 244.617 23.78C245.43 24.2333 246.07 24.8733 246.537 25.7C247.017 26.5267 247.257 27.5 247.257 28.62C247.257 29.7533 247.017 30.7333 246.537 31.56C246.07 32.3867 245.43 33.0267 244.617 33.48C243.817 33.9333 242.91 34.16 241.897 34.16ZM235.537 37.88V23.24H238.517V25.44L238.457 28.64L238.657 31.82V37.88H235.537ZM241.357 31.6C241.877 31.6 242.337 31.48 242.737 31.24C243.15 31 243.477 30.66 243.717 30.22C243.97 29.7667 244.097 29.2333 244.097 28.62C244.097 27.9933 243.97 27.46 243.717 27.02C243.477 26.58 243.15 26.24 242.737 26C242.337 25.76 241.877 25.64 241.357 25.64C240.837 25.64 240.37 25.76 239.957 26C239.543 26.24 239.217 26.58 238.977 27.02C238.737 27.46 238.617 27.9933 238.617 28.62C238.617 29.2333 238.737 29.7667 238.977 30.22C239.217 30.66 239.543 31 239.957 31.24C240.37 31.48 240.837 31.6 241.357 31.6ZM255.708 34V31.9L255.508 31.44V27.68C255.508 27.0133 255.301 26.4933 254.888 26.12C254.488 25.7467 253.868 25.56 253.028 25.56C252.454 25.56 251.888 25.6533 251.328 25.84C250.781 26.0133 250.314 26.2533 249.928 26.56L248.808 24.38C249.394 23.9667 250.101 23.6467 250.928 23.42C251.754 23.1933 252.594 23.08 253.448 23.08C255.088 23.08 256.361 23.4667 257.268 24.24C258.174 25.0133 258.628 26.22 258.628 27.86V34H255.708ZM252.428 34.16C251.588 34.16 250.868 34.02 250.268 33.74C249.668 33.4467 249.208 33.0533 248.888 32.56C248.568 32.0667 248.408 31.5133 248.408 30.9C248.408 30.26 248.561 29.7 248.868 29.22C249.188 28.74 249.688 28.3667 250.368 28.1C251.048 27.82 251.934 27.68 253.028 27.68H255.888V29.5H253.368C252.634 29.5 252.128 29.62 251.848 29.86C251.581 30.1 251.448 30.4 251.448 30.76C251.448 31.16 251.601 31.48 251.908 31.72C252.228 31.9467 252.661 32.06 253.208 32.06C253.728 32.06 254.194 31.94 254.608 31.7C255.021 31.4467 255.321 31.08 255.508 30.6L255.988 32.04C255.761 32.7333 255.348 33.26 254.748 33.62C254.148 33.98 253.374 34.16 252.428 34.16ZM261.338 34V23.24H264.438V27.44H269.118V23.24H272.238V34H269.118V29.98H264.438V34H261.338ZM280.265 34.16C279.118 34.16 278.098 33.92 277.205 33.44C276.325 32.96 275.625 32.3067 275.105 31.48C274.598 30.64 274.345 29.6867 274.345 28.62C274.345 27.54 274.598 26.5867 275.105 25.76C275.625 24.92 276.325 24.2667 277.205 23.8C278.098 23.32 279.118 23.08 280.265 23.08C281.398 23.08 282.411 23.32 283.305 23.8C284.198 24.2667 284.898 24.9133 285.405 25.74C285.911 26.5667 286.165 27.5267 286.165 28.62C286.165 29.6867 285.911 30.64 285.405 31.48C284.898 32.3067 284.198 32.96 283.305 33.44C282.411 33.92 281.398 34.16 280.265 34.16ZM280.265 31.6C280.785 31.6 281.251 31.48 281.665 31.24C282.078 31 282.405 30.66 282.645 30.22C282.885 29.7667 283.005 29.2333 283.005 28.62C283.005 27.9933 282.885 27.46 282.645 27.02C282.405 26.58 282.078 26.24 281.665 26C281.251 25.76 280.785 25.64 280.265 25.64C279.745 25.64 279.278 25.76 278.865 26C278.451 26.24 278.118 26.58 277.865 27.02C277.625 27.46 277.505 27.9933 277.505 28.62C277.505 29.2333 277.625 29.7667 277.865 30.22C278.118 30.66 278.451 31 278.865 31.24C279.278 31.48 279.745 31.6 280.265 31.6ZM288.311 34V23.24H293.811C295.157 23.24 296.211 23.4867 296.971 23.98C297.731 24.46 298.111 25.14 298.111 26.02C298.111 26.9 297.751 27.5933 297.031 28.1C296.324 28.5933 295.384 28.84 294.211 28.84L294.531 28.12C295.837 28.12 296.811 28.36 297.451 28.84C298.104 29.32 298.431 30.02 298.431 30.94C298.431 31.8867 298.071 32.6333 297.351 33.18C296.631 33.7267 295.531 34 294.051 34H288.311ZM291.171 31.88H293.791C294.364 31.88 294.791 31.7867 295.071 31.6C295.364 31.4 295.511 31.1 295.511 30.7C295.511 30.2867 295.377 29.9867 295.111 29.8C294.844 29.6 294.424 29.5 293.851 29.5H291.171V31.88ZM291.171 27.66H293.531C294.077 27.66 294.484 27.56 294.751 27.36C295.031 27.16 295.171 26.8733 295.171 26.5C295.171 26.1133 295.031 25.8267 294.751 25.64C294.484 25.4533 294.077 25.36 293.531 25.36H291.171V27.66Z" fill="white"/>
</g>
<g filter="url(#filter1_d_2985_731)">
<path d="M106.296 87.48C104.312 87.48 102.552 87.144 101.016 86.472C99.5121 85.768 98.3281 84.76 97.4641 83.448C96.6321 82.104 96.2161 80.472 96.2161 78.552V75.912H103.56V78.264C103.56 79.384 103.88 80.232 104.52 80.808C105.16 81.352 105.928 81.624 106.824 81.624C107.752 81.624 108.536 81.336 109.176 80.76C109.816 80.184 110.136 79.352 110.136 78.264V54.072H117.96V78.552C117.96 80.504 117.496 82.152 116.568 83.496C115.672 84.808 114.424 85.8 112.824 86.472C111.256 87.144 109.464 87.48 107.448 87.48H106.296ZM135.701 87.48C133.941 87.48 132.261 87.288 130.661 86.904C129.093 86.488 127.685 85.88 126.437 85.08C125.189 84.248 124.197 83.192 123.461 81.912C122.757 80.6 122.405 79.032 122.405 77.208C122.405 77.048 122.405 76.888 122.405 76.728C122.405 76.536 122.421 76.344 122.453 76.152H129.845C129.813 76.28 129.797 76.408 129.797 76.536C129.797 76.632 129.797 76.76 129.797 76.92C129.797 77.784 130.005 78.552 130.421 79.224C130.837 79.864 131.477 80.36 132.341 80.712C133.237 81.064 134.341 81.24 135.653 81.24C136.965 81.24 138.021 81.128 138.821 80.904C139.621 80.648 140.197 80.264 140.549 79.752C140.933 79.208 141.125 78.552 141.125 77.784C141.125 76.92 140.789 76.232 140.117 75.72C139.477 75.208 138.629 74.792 137.573 74.472C136.517 74.12 135.349 73.8 134.069 73.512C132.789 73.224 131.509 72.872 130.229 72.456C128.949 72.008 127.765 71.432 126.677 70.728C125.621 69.992 124.757 69.032 124.085 67.848C123.445 66.664 123.125 65.176 123.125 63.384C123.125 61.176 123.717 59.352 124.901 57.912C126.085 56.472 127.653 55.4 129.605 54.696C131.589 53.96 133.749 53.592 136.085 53.592C138.389 53.592 140.485 53.928 142.373 54.6C144.261 55.272 145.765 56.328 146.885 57.768C148.037 59.176 148.613 61 148.613 63.24V63.864H141.269V63.432C141.269 62.632 141.077 61.944 140.693 61.368C140.309 60.76 139.733 60.296 138.965 59.976C138.197 59.656 137.237 59.496 136.085 59.496C135.093 59.496 134.229 59.608 133.493 59.832C132.757 60.056 132.181 60.392 131.765 60.84C131.381 61.288 131.189 61.864 131.189 62.568C131.189 63.464 131.509 64.168 132.149 64.68C132.821 65.192 133.685 65.608 134.741 65.928C135.797 66.216 136.965 66.504 138.245 66.792C139.557 67.08 140.853 67.432 142.133 67.848C143.413 68.232 144.581 68.776 145.637 69.48C146.725 70.184 147.605 71.112 148.277 72.264C148.949 73.384 149.301 74.808 149.333 76.536C149.333 79.16 148.741 81.272 147.557 82.872C146.405 84.472 144.805 85.64 142.757 86.376C140.709 87.112 138.357 87.48 135.701 87.48Z" fill="#F7DF1E"/>
<path d="M152.211 87V63.96H157.235V77.912L162.835 70.648H168.627L162.579 78.136L168.819 87H162.867L158.995 81.592L157.235 83.224V87H152.211ZM171.59 87V70.648H175.686L176.07 72.504C176.582 71.7573 177.243 71.2133 178.054 70.872C178.865 70.5093 179.814 70.328 180.902 70.328C182.651 70.328 184.027 70.808 185.03 71.768C186.054 72.728 186.566 74.072 186.566 75.8V87H181.542V76.856C181.542 75.896 181.329 75.1813 180.902 74.712C180.475 74.2213 179.889 73.976 179.142 73.976C178.63 73.976 178.182 74.104 177.798 74.36C177.414 74.616 177.115 74.968 176.902 75.416C176.71 75.8427 176.614 76.344 176.614 76.92V87H171.59ZM198.202 87.32C196.474 87.32 194.991 86.968 193.754 86.264C192.516 85.56 191.556 84.5893 190.874 83.352C190.212 82.1147 189.882 80.7067 189.882 79.128V78.52C189.882 76.8987 190.212 75.4693 190.874 74.232C191.556 72.9947 192.516 72.0347 193.754 71.352C194.991 70.6693 196.463 70.328 198.17 70.328C199.919 70.328 201.412 70.68 202.65 71.384C203.908 72.0667 204.868 73.0267 205.53 74.264C206.191 75.48 206.522 76.8987 206.522 78.52V79.128C206.522 80.7493 206.18 82.1787 205.498 83.416C204.836 84.6533 203.887 85.6133 202.65 86.296C201.412 86.9787 199.93 87.32 198.202 87.32ZM198.202 84.12C199.055 84.12 199.759 83.8 200.314 83.16C200.89 82.52 201.178 81.688 201.178 80.664V76.984C201.178 75.9387 200.89 75.1067 200.314 74.488C199.759 73.848 199.055 73.528 198.202 73.528C197.37 73.528 196.666 73.848 196.09 74.488C195.514 75.1067 195.226 75.9387 195.226 76.984V80.664C195.226 81.688 195.514 82.52 196.09 83.16C196.666 83.8 197.37 84.12 198.202 84.12ZM210.669 87L207.789 70.648H211.693L213.517 80.792H213.645L215.437 70.648H219.501L221.197 80.792H221.325L223.117 70.648H226.989L224.141 87H219.181L217.549 77.176H217.421L215.693 87H210.669ZM236.673 87.32C234.774 87.32 233.206 87 231.969 86.36C230.753 85.6987 229.846 84.76 229.249 83.544C228.673 82.328 228.385 80.8987 228.385 79.256V78.392C228.385 76.6853 228.726 75.2347 229.409 74.04C230.113 72.824 231.094 71.9067 232.353 71.288C233.633 70.648 235.137 70.328 236.865 70.328C238.465 70.328 239.841 70.6267 240.993 71.224C242.166 71.8 243.062 72.6213 243.681 73.688C244.321 74.7333 244.641 75.992 244.641 77.464V79.768H233.729V80.632C233.729 81.8053 234.017 82.68 234.593 83.256C235.169 83.832 235.926 84.12 236.865 84.12C237.91 84.12 238.689 83.8747 239.201 83.384C239.713 82.872 239.969 82.0933 239.969 81.048H244.641C244.641 82.3707 244.31 83.5013 243.649 84.44C243.009 85.3787 242.091 86.0933 240.897 86.584C239.723 87.0747 238.315 87.32 236.673 87.32ZM233.729 76.984H239.713V76.568C239.713 75.9707 239.585 75.448 239.329 75C239.073 74.5307 238.721 74.168 238.273 73.912C237.846 73.656 237.345 73.528 236.769 73.528C236.15 73.528 235.617 73.6773 235.169 73.976C234.721 74.2533 234.369 74.6373 234.113 75.128C233.857 75.6187 233.729 76.152 233.729 76.728V76.984ZM251.092 87V74.328H247.7V70.648H255.188L255.412 72.728C255.753 72.0453 256.297 71.48 257.044 71.032C257.791 70.5627 258.719 70.328 259.828 70.328C261.3 70.328 262.441 70.7547 263.252 71.608C264.084 72.4613 264.5 73.592 264.5 75C264.5 75.3413 264.489 75.6827 264.468 76.024C264.468 76.344 264.436 76.6853 264.372 77.048H260.212V76.184C260.212 75.8 260.127 75.448 259.956 75.128C259.807 74.7867 259.572 74.52 259.252 74.328C258.953 74.136 258.58 74.04 258.132 74.04C257.684 74.04 257.3 74.1573 256.98 74.392C256.66 74.6267 256.415 74.936 256.244 75.32C256.073 75.6827 255.988 76.088 255.988 76.536V87H251.092ZM247.636 87V83.384H262.164V87H247.636Z" fill="white"/>
<path d="M277.312 87.4C275.258 87.4 273.445 87.0267 271.872 86.28C270.298 85.5067 269.072 84.44 268.192 83.08C267.338 81.6933 266.912 80.0533 266.912 78.16H272.632C272.632 78.96 272.805 79.6933 273.152 80.36C273.525 81 274.045 81.5067 274.712 81.88C275.378 82.2267 276.152 82.4 277.032 82.4C277.992 82.4 278.792 82.2133 279.432 81.84C280.098 81.44 280.592 80.9067 280.912 80.24C281.258 79.5467 281.432 78.7867 281.432 77.96C281.432 77.08 281.245 76.3067 280.872 75.64C280.525 74.9733 280.018 74.4533 279.352 74.08C278.685 73.7067 277.925 73.52 277.072 73.52C276.245 73.52 275.472 73.72 274.752 74.12C274.058 74.4933 273.512 74.96 273.112 75.52L268.032 74.8L269.192 59.56H285.912V65.08H274.032L273.592 70.8C274.125 70.2933 274.832 69.84 275.712 69.44C276.618 69.04 277.685 68.84 278.912 68.84C280.672 68.84 282.205 69.2133 283.512 69.96C284.845 70.7067 285.872 71.7733 286.592 73.16C287.338 74.5467 287.712 76.2 287.712 78.12C287.712 79.96 287.258 81.5733 286.352 82.96C285.472 84.3467 284.245 85.44 282.672 86.24C281.125 87.0133 279.338 87.4 277.312 87.4Z" fill="#430F4D"/>
</g>
<path d="M92.0588 169.28V164.32H89.6588L89.6288 165.34C89.6088 165.773 89.5788 166.183 89.5388 166.57C89.5055 166.957 89.4522 167.31 89.3788 167.63C89.3055 167.943 89.2088 168.21 89.0888 168.43C88.9755 168.65 88.8322 168.807 88.6588 168.9L86.9288 168.68C87.1688 168.687 87.3655 168.603 87.5188 168.43C87.6788 168.257 87.8055 168.013 87.8988 167.7C87.9922 167.38 88.0588 167.007 88.0988 166.58C88.1455 166.153 88.1788 165.69 88.1988 165.19L88.2788 163H93.6588V169.28H92.0588ZM86.6988 171.45L86.7088 168.68H94.6388V171.45H93.1388V170H88.1988V171.45H86.6988ZM98.8294 170V168.95L98.7294 168.72V166.84C98.7294 166.507 98.626 166.247 98.4194 166.06C98.2194 165.873 97.9094 165.78 97.4894 165.78C97.2027 165.78 96.9194 165.827 96.6394 165.92C96.366 166.007 96.1327 166.127 95.9394 166.28L95.3794 165.19C95.6727 164.983 96.026 164.823 96.4394 164.71C96.8527 164.597 97.2727 164.54 97.6994 164.54C98.5194 164.54 99.156 164.733 99.6094 165.12C100.063 165.507 100.289 166.11 100.289 166.93V170H98.8294ZM97.1894 170.08C96.7694 170.08 96.4094 170.01 96.1094 169.87C95.8094 169.723 95.5794 169.527 95.4194 169.28C95.2594 169.033 95.1794 168.757 95.1794 168.45C95.1794 168.13 95.256 167.85 95.4094 167.61C95.5694 167.37 95.8194 167.183 96.1594 167.05C96.4994 166.91 96.9427 166.84 97.4894 166.84H98.9194V167.75H97.6594C97.2927 167.75 97.0394 167.81 96.8994 167.93C96.766 168.05 96.6994 168.2 96.6994 168.38C96.6994 168.58 96.776 168.74 96.9294 168.86C97.0894 168.973 97.306 169.03 97.5794 169.03C97.8394 169.03 98.0727 168.97 98.2794 168.85C98.486 168.723 98.636 168.54 98.7294 168.3L98.9694 169.02C98.856 169.367 98.6494 169.63 98.3494 169.81C98.0494 169.99 97.6627 170.08 97.1894 170.08ZM102.795 170V165.54L103.145 165.9H100.975V164.62H106.165V165.9H103.995L104.345 165.54V170H102.795ZM110.216 170V168.95L110.116 168.72V166.84C110.116 166.507 110.013 166.247 109.806 166.06C109.606 165.873 109.296 165.78 108.876 165.78C108.589 165.78 108.306 165.827 108.026 165.92C107.753 166.007 107.519 166.127 107.326 166.28L106.766 165.19C107.059 164.983 107.413 164.823 107.826 164.71C108.239 164.597 108.659 164.54 109.086 164.54C109.906 164.54 110.543 164.733 110.996 165.12C111.449 165.507 111.676 166.11 111.676 166.93V170H110.216ZM108.576 170.08C108.156 170.08 107.796 170.01 107.496 169.87C107.196 169.723 106.966 169.527 106.806 169.28C106.646 169.033 106.566 168.757 106.566 168.45C106.566 168.13 106.643 167.85 106.796 167.61C106.956 167.37 107.206 167.183 107.546 167.05C107.886 166.91 108.329 166.84 108.876 166.84H110.306V167.75H109.046C108.679 167.75 108.426 167.81 108.286 167.93C108.153 168.05 108.086 168.2 108.086 168.38C108.086 168.58 108.163 168.74 108.316 168.86C108.476 168.973 108.693 169.03 108.966 169.03C109.226 169.03 109.459 168.97 109.666 168.85C109.873 168.723 110.023 168.54 110.116 168.3L110.356 169.02C110.243 169.367 110.036 169.63 109.736 169.81C109.436 169.99 109.049 170.08 108.576 170.08ZM115.863 170V164.62H121.213V170H119.653V165.55L120.003 165.9H117.063L117.413 165.55V170H115.863ZM123.439 172.02C123.159 172.02 122.882 171.977 122.609 171.89C122.336 171.803 122.112 171.683 121.939 171.53L122.509 170.42C122.629 170.527 122.766 170.61 122.919 170.67C123.079 170.73 123.236 170.76 123.389 170.76C123.609 170.76 123.782 170.707 123.909 170.6C124.042 170.5 124.162 170.33 124.269 170.09L124.549 169.43L124.669 169.26L126.599 164.62H128.099L125.669 170.33C125.496 170.763 125.296 171.103 125.069 171.35C124.849 171.597 124.602 171.77 124.329 171.87C124.062 171.97 123.766 172.02 123.439 172.02ZM124.359 170.21L121.959 164.62H123.569L125.429 169.12L124.359 170.21ZM131.492 170.12C131.052 170.12 130.652 170.057 130.292 169.93C129.932 169.797 129.619 169.593 129.352 169.32C129.092 169.04 128.889 168.683 128.742 168.25C128.602 167.817 128.532 167.3 128.532 166.7C128.532 166.273 128.569 165.883 128.642 165.53C128.716 165.177 128.826 164.857 128.972 164.57C129.119 164.277 129.306 164.02 129.532 163.8C129.766 163.573 130.036 163.387 130.342 163.24C130.656 163.087 131.009 162.97 131.402 162.89L133.962 162.38L134.172 163.72L131.912 164.17C131.779 164.197 131.626 164.233 131.452 164.28C131.286 164.32 131.116 164.383 130.942 164.47C130.776 164.557 130.619 164.68 130.472 164.84C130.332 164.993 130.219 165.197 130.132 165.45C130.046 165.697 130.002 166.003 130.002 166.37C130.002 166.483 130.006 166.57 130.012 166.63C130.026 166.69 130.036 166.753 130.042 166.82C130.056 166.887 130.062 166.99 130.062 167.13L129.562 166.64C129.709 166.327 129.896 166.06 130.122 165.84C130.356 165.62 130.622 165.453 130.922 165.34C131.229 165.22 131.569 165.16 131.942 165.16C132.449 165.16 132.892 165.263 133.272 165.47C133.659 165.67 133.959 165.953 134.172 166.32C134.386 166.687 134.492 167.103 134.492 167.57C134.492 168.077 134.366 168.523 134.112 168.91C133.859 169.29 133.506 169.587 133.052 169.8C132.606 170.013 132.086 170.12 131.492 170.12ZM131.572 168.91C131.832 168.91 132.062 168.853 132.262 168.74C132.462 168.62 132.616 168.463 132.722 168.27C132.836 168.07 132.892 167.847 132.892 167.6C132.892 167.36 132.836 167.147 132.722 166.96C132.616 166.773 132.462 166.627 132.262 166.52C132.062 166.413 131.829 166.36 131.562 166.36C131.302 166.36 131.069 166.413 130.862 166.52C130.656 166.62 130.496 166.76 130.382 166.94C130.269 167.12 130.212 167.33 130.212 167.57C130.212 167.817 130.269 168.043 130.382 168.25C130.502 168.45 130.662 168.61 130.862 168.73C131.069 168.85 131.306 168.91 131.572 168.91ZM134.793 169.99L134.873 168.71C134.913 168.717 134.953 168.723 134.993 168.73C135.033 168.73 135.069 168.73 135.103 168.73C135.289 168.73 135.436 168.677 135.543 168.57C135.649 168.463 135.729 168.32 135.783 168.14C135.836 167.953 135.873 167.743 135.893 167.51C135.919 167.277 135.939 167.033 135.953 166.78L136.033 164.62H140.633V170H139.073V165.52L139.423 165.9H137.063L137.393 165.5L137.323 166.85C137.303 167.33 137.263 167.77 137.203 168.17C137.149 168.57 137.059 168.917 136.933 169.21C136.806 169.497 136.636 169.72 136.423 169.88C136.209 170.033 135.936 170.11 135.603 170.11C135.483 170.11 135.356 170.1 135.223 170.08C135.089 170.06 134.946 170.03 134.793 169.99ZM142.133 170V164.62H143.683V167.82L146.303 164.62H147.733V170H146.183V166.8L143.573 170H142.133ZM153.042 170L151.242 167.45L152.512 166.7L154.882 170H153.042ZM149.232 170V164.62H150.792V170H149.232ZM150.332 167.96V166.71H152.212V167.96H150.332ZM152.662 167.49L151.202 167.33L153.092 164.62H154.752L152.662 167.49ZM158.771 170V168.95L158.671 168.72V166.84C158.671 166.507 158.567 166.247 158.361 166.06C158.161 165.873 157.851 165.78 157.431 165.78C157.144 165.78 156.861 165.827 156.581 165.92C156.307 166.007 156.074 166.127 155.881 166.28L155.321 165.19C155.614 164.983 155.967 164.823 156.381 164.71C156.794 164.597 157.214 164.54 157.641 164.54C158.461 164.54 159.097 164.733 159.551 165.12C160.004 165.507 160.231 166.11 160.231 166.93V170H158.771ZM157.131 170.08C156.711 170.08 156.351 170.01 156.051 169.87C155.751 169.723 155.521 169.527 155.361 169.28C155.201 169.033 155.121 168.757 155.121 168.45C155.121 168.13 155.197 167.85 155.351 167.61C155.511 167.37 155.761 167.183 156.101 167.05C156.441 166.91 156.884 166.84 157.431 166.84H158.861V167.75H157.601C157.234 167.75 156.981 167.81 156.841 167.93C156.707 168.05 156.641 168.2 156.641 168.38C156.641 168.58 156.717 168.74 156.871 168.86C157.031 168.973 157.247 169.03 157.521 169.03C157.781 169.03 158.014 168.97 158.221 168.85C158.427 168.723 158.577 168.54 158.671 168.3L158.911 169.02C158.797 169.367 158.591 169.63 158.291 169.81C157.991 169.99 157.604 170.08 157.131 170.08ZM161.586 170V164.62H163.136V168.72H165.306V164.62H166.866V170H161.586ZM166.196 171.16V169.98L166.556 170H165.306V168.72H167.646V171.16H166.196ZM168.627 170V164.62H170.177V167.82L172.797 164.62H174.227V170H172.677V166.8L170.067 170H168.627ZM175.727 170V164.62H177.277V167.82L179.897 164.62H181.327V170H179.777V166.8L177.167 170H175.727ZM183.386 166.49C183.12 166.49 182.89 166.4 182.696 166.22C182.51 166.033 182.416 165.797 182.416 165.51C182.416 165.223 182.51 164.993 182.696 164.82C182.89 164.64 183.12 164.55 183.386 164.55C183.66 164.55 183.89 164.64 184.076 164.82C184.263 164.993 184.356 165.223 184.356 165.51C184.356 165.797 184.263 166.033 184.076 166.22C183.89 166.4 183.66 166.49 183.386 166.49ZM183.386 170.08C183.12 170.08 182.89 169.99 182.696 169.81C182.51 169.623 182.416 169.387 182.416 169.1C182.416 168.813 182.51 168.583 182.696 168.41C182.89 168.23 183.12 168.14 183.386 168.14C183.66 168.14 183.89 168.23 184.076 168.41C184.263 168.583 184.356 168.813 184.356 169.1C184.356 169.387 184.263 169.623 184.076 169.81C183.89 169.99 183.66 170.08 183.386 170.08ZM189.039 170V163.4L189.469 163.87H187.459V163H190.029V170H189.039ZM191.45 170V169.32L194.3 166.57C194.553 166.33 194.74 166.12 194.86 165.94C194.987 165.753 195.07 165.583 195.11 165.43C195.157 165.27 195.18 165.117 195.18 164.97C195.18 164.61 195.053 164.327 194.8 164.12C194.547 163.913 194.177 163.81 193.69 163.81C193.317 163.81 192.98 163.873 192.68 164C192.38 164.12 192.12 164.31 191.9 164.57L191.22 163.98C191.487 163.64 191.843 163.38 192.29 163.2C192.743 163.013 193.24 162.92 193.78 162.92C194.267 162.92 194.69 163 195.05 163.16C195.41 163.313 195.687 163.537 195.88 163.83C196.08 164.123 196.18 164.47 196.18 164.87C196.18 165.097 196.15 165.32 196.09 165.54C196.03 165.76 195.917 165.993 195.75 166.24C195.583 166.487 195.343 166.763 195.03 167.07L192.49 169.52L192.25 169.13H196.48V170H191.45ZM204.058 169.55V165.54H201.758L201.708 166.56C201.694 166.893 201.671 167.217 201.638 167.53C201.611 167.837 201.564 168.12 201.498 168.38C201.438 168.64 201.348 168.853 201.228 169.02C201.108 169.187 200.948 169.29 200.748 169.33L199.798 169.16C200.004 169.167 200.171 169.1 200.298 168.96C200.424 168.813 200.521 168.613 200.588 168.36C200.661 168.107 200.714 167.82 200.748 167.5C200.781 167.173 200.808 166.837 200.828 166.49L200.908 164.7H205.018V169.55H204.058ZM199.588 171.23V169.16H205.828V171.23H204.928V170H200.498V171.23H199.588ZM209.438 170.06C208.872 170.06 208.372 169.943 207.938 169.71C207.512 169.477 207.178 169.157 206.938 168.75C206.705 168.343 206.588 167.877 206.588 167.35C206.588 166.823 206.702 166.357 206.928 165.95C207.162 165.543 207.478 165.227 207.878 165C208.285 164.767 208.742 164.65 209.248 164.65C209.762 164.65 210.215 164.763 210.608 164.99C211.002 165.217 211.308 165.537 211.528 165.95C211.755 166.357 211.868 166.833 211.868 167.38C211.868 167.42 211.865 167.467 211.858 167.52C211.858 167.573 211.855 167.623 211.848 167.67H207.338V166.98H211.348L210.958 167.22C210.965 166.88 210.895 166.577 210.748 166.31C210.602 166.043 210.398 165.837 210.138 165.69C209.885 165.537 209.588 165.46 209.248 165.46C208.915 165.46 208.618 165.537 208.358 165.69C208.098 165.837 207.895 166.047 207.748 166.32C207.602 166.587 207.528 166.893 207.528 167.24V167.4C207.528 167.753 207.608 168.07 207.768 168.35C207.935 168.623 208.165 168.837 208.458 168.99C208.752 169.143 209.088 169.22 209.468 169.22C209.782 169.22 210.065 169.167 210.318 169.06C210.578 168.953 210.805 168.793 210.998 168.58L211.528 169.2C211.288 169.48 210.988 169.693 210.628 169.84C210.275 169.987 209.878 170.06 209.438 170.06ZM217.198 170L215.148 167.42L215.938 166.94L218.328 170H217.198ZM213.358 170V164.7H214.318V170H213.358ZM214.028 167.76V166.94H215.778V167.76H214.028ZM216.018 167.46L215.128 167.34L217.158 164.7H218.188L216.018 167.46ZM222.487 170V168.88L222.437 168.67V166.76C222.437 166.353 222.317 166.04 222.077 165.82C221.843 165.593 221.49 165.48 221.017 165.48C220.703 165.48 220.397 165.533 220.097 165.64C219.797 165.74 219.543 165.877 219.337 166.05L218.937 165.33C219.21 165.11 219.537 164.943 219.917 164.83C220.303 164.71 220.707 164.65 221.127 164.65C221.853 164.65 222.413 164.827 222.807 165.18C223.2 165.533 223.397 166.073 223.397 166.8V170H222.487ZM220.747 170.06C220.353 170.06 220.007 169.993 219.707 169.86C219.413 169.727 219.187 169.543 219.027 169.31C218.867 169.07 218.787 168.8 218.787 168.5C218.787 168.213 218.853 167.953 218.987 167.72C219.127 167.487 219.35 167.3 219.657 167.16C219.97 167.02 220.39 166.95 220.917 166.95H222.597V167.64H220.957C220.477 167.64 220.153 167.72 219.987 167.88C219.82 168.04 219.737 168.233 219.737 168.46C219.737 168.72 219.84 168.93 220.047 169.09C220.253 169.243 220.54 169.32 220.907 169.32C221.267 169.32 221.58 169.24 221.847 169.08C222.12 168.92 222.317 168.687 222.437 168.38L222.627 169.04C222.5 169.353 222.277 169.603 221.957 169.79C221.637 169.97 221.233 170.06 220.747 170.06ZM227.575 170.08C227.135 170.08 226.745 170.01 226.405 169.87C226.072 169.73 225.785 169.523 225.545 169.25C225.305 168.97 225.122 168.62 224.995 168.2C224.875 167.773 224.815 167.273 224.815 166.7C224.815 166.247 224.855 165.84 224.935 165.48C225.015 165.12 225.129 164.8 225.275 164.52C225.429 164.24 225.615 163.997 225.835 163.79C226.062 163.583 226.315 163.413 226.595 163.28C226.882 163.14 227.195 163.033 227.535 162.96L229.955 162.42L230.095 163.31L227.865 163.79C227.732 163.817 227.572 163.857 227.385 163.91C227.199 163.963 227.009 164.047 226.815 164.16C226.622 164.267 226.442 164.417 226.275 164.61C226.109 164.803 225.975 165.057 225.875 165.37C225.775 165.677 225.725 166.057 225.725 166.51C225.725 166.637 225.729 166.733 225.735 166.8C225.742 166.867 225.749 166.933 225.755 167C225.769 167.067 225.779 167.167 225.785 167.3L225.385 166.89C225.492 166.523 225.662 166.203 225.895 165.93C226.129 165.657 226.409 165.447 226.735 165.3C227.069 165.147 227.432 165.07 227.825 165.07C228.319 165.07 228.755 165.177 229.135 165.39C229.522 165.603 229.825 165.897 230.045 166.27C230.265 166.643 230.375 167.07 230.375 167.55C230.375 168.037 230.259 168.473 230.025 168.86C229.799 169.24 229.475 169.54 229.055 169.76C228.635 169.973 228.142 170.08 227.575 170.08ZM227.665 169.28C228.005 169.28 228.305 169.207 228.565 169.06C228.825 168.907 229.029 168.703 229.175 168.45C229.322 168.19 229.395 167.9 229.395 167.58C229.395 167.26 229.322 166.977 229.175 166.73C229.029 166.483 228.825 166.29 228.565 166.15C228.305 166.003 227.999 165.93 227.645 165.93C227.312 165.93 227.012 166 226.745 166.14C226.479 166.273 226.272 166.463 226.125 166.71C225.979 166.95 225.905 167.23 225.905 167.55C225.905 167.87 225.979 168.163 226.125 168.43C226.279 168.69 226.485 168.897 226.745 169.05C227.012 169.203 227.319 169.28 227.665 169.28ZM234.556 170.06C234.116 170.06 233.713 169.96 233.346 169.76C232.986 169.553 232.696 169.25 232.476 168.85C232.263 168.45 232.156 167.95 232.156 167.35C232.156 166.75 232.26 166.25 232.466 165.85C232.68 165.45 232.966 165.15 233.326 164.95C233.693 164.75 234.103 164.65 234.556 164.65C235.076 164.65 235.536 164.763 235.936 164.99C236.336 165.217 236.653 165.533 236.886 165.94C237.12 166.34 237.236 166.81 237.236 167.35C237.236 167.89 237.12 168.363 236.886 168.77C236.653 169.177 236.336 169.493 235.936 169.72C235.536 169.947 235.076 170.06 234.556 170.06ZM231.746 171.94V164.7H232.666V166.13L232.606 167.36L232.706 168.59V171.94H231.746ZM234.476 169.22C234.816 169.22 235.12 169.143 235.386 168.99C235.66 168.837 235.873 168.62 236.026 168.34C236.186 168.053 236.266 167.723 236.266 167.35C236.266 166.97 236.186 166.643 236.026 166.37C235.873 166.09 235.66 165.873 235.386 165.72C235.12 165.567 234.816 165.49 234.476 165.49C234.143 165.49 233.84 165.567 233.566 165.72C233.3 165.873 233.086 166.09 232.926 166.37C232.773 166.643 232.696 166.97 232.696 167.35C232.696 167.723 232.773 168.053 232.926 168.34C233.086 168.62 233.3 168.837 233.566 168.99C233.84 169.143 234.143 169.22 234.476 169.22ZM241.845 170V168.14L241.995 168.32H240.305C239.599 168.32 239.045 168.17 238.645 167.87C238.252 167.57 238.055 167.133 238.055 166.56C238.055 165.947 238.265 165.483 238.685 165.17C239.112 164.857 239.679 164.7 240.385 164.7H242.705V170H241.845ZM238.005 170L239.445 167.97H240.435L239.035 170H238.005ZM241.845 167.84V165.27L241.995 165.54H240.415C239.975 165.54 239.635 165.623 239.395 165.79C239.155 165.95 239.035 166.217 239.035 166.59C239.035 167.283 239.482 167.63 240.375 167.63H241.995L241.845 167.84ZM246.704 170V169.32L249.554 166.57C249.807 166.33 249.994 166.12 250.114 165.94C250.241 165.753 250.324 165.583 250.364 165.43C250.411 165.27 250.434 165.117 250.434 164.97C250.434 164.61 250.307 164.327 250.054 164.12C249.801 163.913 249.431 163.81 248.944 163.81C248.571 163.81 248.234 163.873 247.934 164C247.634 164.12 247.374 164.31 247.154 164.57L246.474 163.98C246.741 163.64 247.097 163.38 247.544 163.2C247.997 163.013 248.494 162.92 249.034 162.92C249.521 162.92 249.944 163 250.304 163.16C250.664 163.313 250.941 163.537 251.134 163.83C251.334 164.123 251.434 164.47 251.434 164.87C251.434 165.097 251.404 165.32 251.344 165.54C251.284 165.76 251.171 165.993 251.004 166.24C250.837 166.487 250.597 166.763 250.284 167.07L247.744 169.52L247.504 169.13H251.734V170H246.704ZM255.406 170.08C254.86 170.08 254.37 169.94 253.936 169.66C253.51 169.38 253.17 168.973 252.916 168.44C252.67 167.907 252.546 167.26 252.546 166.5C252.546 165.74 252.67 165.093 252.916 164.56C253.17 164.027 253.51 163.62 253.936 163.34C254.37 163.06 254.86 162.92 255.406 162.92C255.946 162.92 256.433 163.06 256.866 163.34C257.3 163.62 257.64 164.027 257.886 164.56C258.133 165.093 258.256 165.74 258.256 166.5C258.256 167.26 258.133 167.907 257.886 168.44C257.64 168.973 257.3 169.38 256.866 169.66C256.433 169.94 255.946 170.08 255.406 170.08ZM255.406 169.19C255.773 169.19 256.093 169.09 256.366 168.89C256.646 168.69 256.863 168.39 257.016 167.99C257.176 167.59 257.256 167.093 257.256 166.5C257.256 165.907 257.176 165.41 257.016 165.01C256.863 164.61 256.646 164.31 256.366 164.11C256.093 163.91 255.773 163.81 255.406 163.81C255.04 163.81 254.716 163.91 254.436 164.11C254.156 164.31 253.936 164.61 253.776 165.01C253.623 165.41 253.546 165.907 253.546 166.5C253.546 167.093 253.623 167.59 253.776 167.99C253.936 168.39 254.156 168.69 254.436 168.89C254.716 169.09 255.04 169.19 255.406 169.19ZM259.106 170V169.32L261.956 166.57C262.21 166.33 262.396 166.12 262.516 165.94C262.643 165.753 262.726 165.583 262.766 165.43C262.813 165.27 262.836 165.117 262.836 164.97C262.836 164.61 262.71 164.327 262.456 164.12C262.203 163.913 261.833 163.81 261.346 163.81C260.973 163.81 260.636 163.873 260.336 164C260.036 164.12 259.776 164.31 259.556 164.57L258.876 163.98C259.143 163.64 259.5 163.38 259.946 163.2C260.4 163.013 260.896 162.92 261.436 162.92C261.923 162.92 262.346 163 262.706 163.16C263.066 163.313 263.343 163.537 263.536 163.83C263.736 164.123 263.836 164.47 263.836 164.87C263.836 165.097 263.806 165.32 263.746 165.54C263.686 165.76 263.573 165.993 263.406 166.24C263.24 166.487 263 166.763 262.686 167.07L260.146 169.52L259.906 169.13H264.136V170H259.106ZM267.219 170.08C266.725 170.08 266.245 170.003 265.779 169.85C265.319 169.697 264.942 169.49 264.649 169.23L265.109 168.44C265.342 168.66 265.645 168.84 266.019 168.98C266.392 169.12 266.789 169.19 267.209 169.19C267.742 169.19 268.152 169.077 268.439 168.85C268.725 168.623 268.869 168.32 268.869 167.94C268.869 167.68 268.805 167.453 268.679 167.26C268.552 167.067 268.332 166.92 268.019 166.82C267.712 166.713 267.289 166.66 266.749 166.66H265.159L265.529 163H269.479V163.87H265.899L266.419 163.38L266.129 166.27L265.609 165.79H266.959C267.659 165.79 268.222 165.88 268.649 166.06C269.075 166.24 269.385 166.49 269.579 166.81C269.772 167.123 269.869 167.487 269.869 167.9C269.869 168.3 269.772 168.667 269.579 169C269.385 169.327 269.092 169.59 268.699 169.79C268.312 169.983 267.819 170.08 267.219 170.08ZM273.836 170V164.7H277.736V165.54H274.566L274.796 165.32V170H273.836ZM280.755 170.06C280.221 170.06 279.748 169.943 279.335 169.71C278.921 169.477 278.595 169.157 278.355 168.75C278.115 168.337 277.995 167.87 277.995 167.35C277.995 166.823 278.115 166.357 278.355 165.95C278.595 165.543 278.921 165.227 279.335 165C279.748 164.767 280.221 164.65 280.755 164.65C281.281 164.65 281.751 164.767 282.165 165C282.585 165.227 282.911 165.543 283.145 165.95C283.385 166.35 283.505 166.817 283.505 167.35C283.505 167.877 283.385 168.343 283.145 168.75C282.911 169.157 282.585 169.477 282.165 169.71C281.751 169.943 281.281 170.06 280.755 170.06ZM280.755 169.22C281.095 169.22 281.398 169.143 281.665 168.99C281.938 168.837 282.151 168.62 282.305 168.34C282.458 168.053 282.535 167.723 282.535 167.35C282.535 166.97 282.458 166.643 282.305 166.37C282.151 166.09 281.938 165.873 281.665 165.72C281.398 165.567 281.095 165.49 280.755 165.49C280.415 165.49 280.111 165.567 279.845 165.72C279.578 165.873 279.365 166.09 279.205 166.37C279.045 166.643 278.965 166.97 278.965 167.35C278.965 167.723 279.045 168.053 279.205 168.34C279.365 168.62 279.578 168.837 279.845 168.99C280.111 169.143 280.415 169.22 280.755 169.22ZM288.472 169.55V165.54H286.172L286.122 166.56C286.109 166.893 286.085 167.217 286.052 167.53C286.025 167.837 285.979 168.12 285.912 168.38C285.852 168.64 285.762 168.853 285.642 169.02C285.522 169.187 285.362 169.29 285.162 169.33L284.212 169.16C284.419 169.167 284.585 169.1 284.712 168.96C284.839 168.813 284.935 168.613 285.002 168.36C285.075 168.107 285.129 167.82 285.162 167.5C285.195 167.173 285.222 166.837 285.242 166.49L285.322 164.7H289.432V169.55H288.472ZM284.002 171.23V169.16H290.242V171.23H289.342V170H284.912V171.23H284.002ZM294.743 170V168.88L294.693 168.67V166.76C294.693 166.353 294.573 166.04 294.333 165.82C294.099 165.593 293.746 165.48 293.273 165.48C292.959 165.48 292.653 165.533 292.353 165.64C292.053 165.74 291.799 165.877 291.593 166.05L291.193 165.33C291.466 165.11 291.793 164.943 292.173 164.83C292.559 164.71 292.963 164.65 293.383 164.65C294.109 164.65 294.669 164.827 295.063 165.18C295.456 165.533 295.653 166.073 295.653 166.8V170H294.743ZM293.003 170.06C292.609 170.06 292.263 169.993 291.963 169.86C291.669 169.727 291.443 169.543 291.283 169.31C291.123 169.07 291.043 168.8 291.043 168.5C291.043 168.213 291.109 167.953 291.243 167.72C291.383 167.487 291.606 167.3 291.913 167.16C292.226 167.02 292.646 166.95 293.173 166.95H294.853V167.64H293.213C292.733 167.64 292.409 167.72 292.243 167.88C292.076 168.04 291.993 168.233 291.993 168.46C291.993 168.72 292.096 168.93 292.303 169.09C292.509 169.243 292.796 169.32 293.163 169.32C293.523 169.32 293.836 169.24 294.103 169.08C294.376 168.92 294.573 168.687 294.693 168.38L294.883 169.04C294.756 169.353 294.533 169.603 294.213 169.79C293.893 169.97 293.489 170.06 293.003 170.06Z" fill="white"/>
<path d="M47.878 130.168C47.1967 130.168 46.52 130.079 45.848 129.902C45.1853 129.715 44.616 129.454 44.14 129.118L45.036 127.382C45.4093 127.653 45.8387 127.867 46.324 128.026C46.8187 128.185 47.318 128.264 47.822 128.264C48.3913 128.264 48.8393 128.152 49.166 127.928C49.4927 127.704 49.656 127.391 49.656 126.99C49.656 126.738 49.5907 126.514 49.46 126.318C49.3293 126.122 49.096 125.973 48.76 125.87C48.4333 125.767 47.9713 125.716 47.374 125.716H44.868L45.372 120.2H51.35V122.02H46.184L47.36 120.984L47.01 124.918L45.834 123.882H47.906C48.8767 123.882 49.656 124.017 50.244 124.288C50.8413 124.549 51.2753 124.909 51.546 125.366C51.8167 125.823 51.952 126.341 51.952 126.92C51.952 127.499 51.8073 128.035 51.518 128.53C51.2287 129.015 50.7807 129.412 50.174 129.72C49.5767 130.019 48.8113 130.168 47.878 130.168ZM57.0722 130.168C56.2695 130.168 55.5508 129.972 54.9162 129.58C54.2815 129.179 53.7822 128.6 53.4182 127.844C53.0542 127.088 52.8722 126.173 52.8722 125.1C52.8722 124.027 53.0542 123.112 53.4182 122.356C53.7822 121.6 54.2815 121.026 54.9162 120.634C55.5508 120.233 56.2695 120.032 57.0722 120.032C57.8842 120.032 58.6028 120.233 59.2282 120.634C59.8628 121.026 60.3622 121.6 60.7262 122.356C61.0902 123.112 61.2722 124.027 61.2722 125.1C61.2722 126.173 61.0902 127.088 60.7262 127.844C60.3622 128.6 59.8628 129.179 59.2282 129.58C58.6028 129.972 57.8842 130.168 57.0722 130.168ZM57.0722 128.25C57.4548 128.25 57.7862 128.143 58.0662 127.928C58.3555 127.713 58.5795 127.373 58.7382 126.906C58.9062 126.439 58.9902 125.837 58.9902 125.1C58.9902 124.363 58.9062 123.761 58.7382 123.294C58.5795 122.827 58.3555 122.487 58.0662 122.272C57.7862 122.057 57.4548 121.95 57.0722 121.95C56.6988 121.95 56.3675 122.057 56.0782 122.272C55.7982 122.487 55.5742 122.827 55.4062 123.294C55.2475 123.761 55.1682 124.363 55.1682 125.1C55.1682 125.837 55.2475 126.439 55.4062 126.906C55.5742 127.373 55.7982 127.713 56.0782 127.928C56.3675 128.143 56.6988 128.25 57.0722 128.25ZM67.473 132.8C67.1183 132.8 66.773 132.739 66.437 132.618C66.101 132.506 65.8116 132.338 65.569 132.114L66.143 131.106C66.3296 131.283 66.535 131.419 66.759 131.512C66.983 131.605 67.221 131.652 67.473 131.652C67.7996 131.652 68.0703 131.568 68.285 131.4C68.4996 131.232 68.7003 130.933 68.887 130.504L69.349 129.482L69.489 129.314L72.401 122.58H73.717L70.119 130.742C69.9043 131.265 69.6616 131.675 69.391 131.974C69.1296 132.273 68.8403 132.483 68.523 132.604C68.2056 132.735 67.8556 132.8 67.473 132.8ZM69.237 130.238L65.849 122.58H67.249L70.133 129.188L69.237 130.238ZM79.027 130.084C78.411 130.084 77.8463 129.944 77.333 129.664C76.829 129.375 76.423 128.95 76.115 128.39C75.8163 127.83 75.667 127.13 75.667 126.29C75.667 125.45 75.8117 124.75 76.101 124.19C76.3997 123.63 76.801 123.21 77.305 122.93C77.8183 122.65 78.3923 122.51 79.027 122.51C79.755 122.51 80.399 122.669 80.959 122.986C81.519 123.303 81.9623 123.747 82.289 124.316C82.6157 124.876 82.779 125.534 82.779 126.29C82.779 127.046 82.6157 127.709 82.289 128.278C81.9623 128.847 81.519 129.291 80.959 129.608C80.399 129.925 79.755 130.084 79.027 130.084ZM75.093 132.716V122.58H76.381V124.582L76.297 126.304L76.437 128.026V132.716H75.093ZM78.915 128.908C79.391 128.908 79.8157 128.801 80.189 128.586C80.5717 128.371 80.8703 128.068 81.085 127.676C81.309 127.275 81.421 126.813 81.421 126.29C81.421 125.758 81.309 125.301 81.085 124.918C80.8703 124.526 80.5717 124.223 80.189 124.008C79.8157 123.793 79.391 123.686 78.915 123.686C78.4483 123.686 78.0237 123.793 77.641 124.008C77.2677 124.223 76.969 124.526 76.745 124.918C76.5303 125.301 76.423 125.758 76.423 126.29C76.423 126.813 76.5303 127.275 76.745 127.676C76.969 128.068 77.2677 128.371 77.641 128.586C78.0237 128.801 78.4483 128.908 78.915 128.908ZM87.9097 130.084C87.163 130.084 86.5004 129.921 85.9217 129.594C85.343 129.267 84.8857 128.819 84.5497 128.25C84.2137 127.671 84.0457 127.018 84.0457 126.29C84.0457 125.553 84.2137 124.899 84.5497 124.33C84.8857 123.761 85.343 123.317 85.9217 123C86.5004 122.673 87.163 122.51 87.9097 122.51C88.647 122.51 89.305 122.673 89.8837 123C90.4717 123.317 90.929 123.761 91.2557 124.33C91.5917 124.89 91.7597 125.543 91.7597 126.29C91.7597 127.027 91.5917 127.681 91.2557 128.25C90.929 128.819 90.4717 129.267 89.8837 129.594C89.305 129.921 88.647 130.084 87.9097 130.084ZM87.9097 128.908C88.3857 128.908 88.8104 128.801 89.1837 128.586C89.5664 128.371 89.865 128.068 90.0797 127.676C90.2944 127.275 90.4017 126.813 90.4017 126.29C90.4017 125.758 90.2944 125.301 90.0797 124.918C89.865 124.526 89.5664 124.223 89.1837 124.008C88.8104 123.793 88.3857 123.686 87.9097 123.686C87.4337 123.686 87.009 123.793 86.6357 124.008C86.2624 124.223 85.9637 124.526 85.7397 124.918C85.5157 125.301 85.4037 125.758 85.4037 126.29C85.4037 126.813 85.5157 127.275 85.7397 127.676C85.9637 128.068 86.2624 128.371 86.6357 128.586C87.009 128.801 87.4337 128.908 87.9097 128.908ZM99.0764 130L96.2064 126.388L97.3124 125.716L100.658 130H99.0764ZM93.7004 130V122.58H95.0444V130H93.7004ZM94.6384 126.864V125.716H97.0884V126.864H94.6384ZM97.4244 126.444L96.1784 126.276L99.0204 122.58H100.462L97.4244 126.444ZM105 130.084C104.253 130.084 103.59 129.921 103.012 129.594C102.433 129.267 101.976 128.819 101.64 128.25C101.304 127.671 101.136 127.018 101.136 126.29C101.136 125.553 101.304 124.899 101.64 124.33C101.976 123.761 102.433 123.317 103.012 123C103.59 122.673 104.253 122.51 105 122.51C105.737 122.51 106.395 122.673 106.974 123C107.562 123.317 108.019 123.761 108.346 124.33C108.682 124.89 108.85 125.543 108.85 126.29C108.85 127.027 108.682 127.681 108.346 128.25C108.019 128.819 107.562 129.267 106.974 129.594C106.395 129.921 105.737 130.084 105 130.084ZM105 128.908C105.476 128.908 105.9 128.801 106.274 128.586C106.656 128.371 106.955 128.068 107.17 127.676C107.384 127.275 107.492 126.813 107.492 126.29C107.492 125.758 107.384 125.301 107.17 124.918C106.955 124.526 106.656 124.223 106.274 124.008C105.9 123.793 105.476 123.686 105 123.686C104.524 123.686 104.099 123.793 103.726 124.008C103.352 124.223 103.054 124.526 102.83 124.918C102.606 125.301 102.494 125.758 102.494 126.29C102.494 126.813 102.606 127.275 102.83 127.676C103.054 128.068 103.352 128.371 103.726 128.586C104.099 128.801 104.524 128.908 105 128.908ZM110.79 130V122.58H114.234C115.102 122.58 115.784 122.748 116.278 123.084C116.782 123.411 117.034 123.877 117.034 124.484C117.034 125.091 116.796 125.562 116.32 125.898C115.854 126.225 115.233 126.388 114.458 126.388L114.668 126.024C115.555 126.024 116.213 126.187 116.642 126.514C117.072 126.841 117.286 127.321 117.286 127.956C117.286 128.6 117.044 129.104 116.558 129.468C116.082 129.823 115.35 130 114.36 130H110.79ZM112.106 128.964H114.262C114.822 128.964 115.242 128.88 115.522 128.712C115.802 128.535 115.942 128.255 115.942 127.872C115.942 127.48 115.812 127.195 115.55 127.018C115.298 126.831 114.897 126.738 114.346 126.738H112.106V128.964ZM112.106 125.772H114.122C114.636 125.772 115.023 125.679 115.284 125.492C115.555 125.296 115.69 125.025 115.69 124.68C115.69 124.325 115.555 124.059 115.284 123.882C115.023 123.705 114.636 123.616 114.122 123.616H112.106V125.772Z" fill="white"/>
<path d="M164.878 130.168C164.197 130.168 163.52 130.079 162.848 129.902C162.185 129.715 161.616 129.454 161.14 129.118L162.036 127.382C162.409 127.653 162.839 127.867 163.324 128.026C163.819 128.185 164.318 128.264 164.822 128.264C165.391 128.264 165.839 128.152 166.166 127.928C166.493 127.704 166.656 127.391 166.656 126.99C166.656 126.738 166.591 126.514 166.46 126.318C166.329 126.122 166.096 125.973 165.76 125.87C165.433 125.767 164.971 125.716 164.374 125.716H161.868L162.372 120.2H168.35V122.02H163.184L164.36 120.984L164.01 124.918L162.834 123.882H164.906C165.877 123.882 166.656 124.017 167.244 124.288C167.841 124.549 168.275 124.909 168.546 125.366C168.817 125.823 168.952 126.341 168.952 126.92C168.952 127.499 168.807 128.035 168.518 128.53C168.229 129.015 167.781 129.412 167.174 129.72C166.577 130.019 165.811 130.168 164.878 130.168ZM174.072 130.168C173.27 130.168 172.551 129.972 171.916 129.58C171.282 129.179 170.782 128.6 170.418 127.844C170.054 127.088 169.872 126.173 169.872 125.1C169.872 124.027 170.054 123.112 170.418 122.356C170.782 121.6 171.282 121.026 171.916 120.634C172.551 120.233 173.27 120.032 174.072 120.032C174.884 120.032 175.603 120.233 176.228 120.634C176.863 121.026 177.362 121.6 177.726 122.356C178.09 123.112 178.272 124.027 178.272 125.1C178.272 126.173 178.09 127.088 177.726 127.844C177.362 128.6 176.863 129.179 176.228 129.58C175.603 129.972 174.884 130.168 174.072 130.168ZM174.072 128.25C174.455 128.25 174.786 128.143 175.066 127.928C175.356 127.713 175.58 127.373 175.738 126.906C175.906 126.439 175.99 125.837 175.99 125.1C175.99 124.363 175.906 123.761 175.738 123.294C175.58 122.827 175.356 122.487 175.066 122.272C174.786 122.057 174.455 121.95 174.072 121.95C173.699 121.95 173.368 122.057 173.078 122.272C172.798 122.487 172.574 122.827 172.406 123.294C172.248 123.761 172.168 124.363 172.168 125.1C172.168 125.837 172.248 126.439 172.406 126.906C172.574 127.373 172.798 127.713 173.078 127.928C173.368 128.143 173.699 128.25 174.072 128.25ZM183.574 130.168C182.771 130.168 182.053 129.972 181.418 129.58C180.783 129.179 180.284 128.6 179.92 127.844C179.556 127.088 179.374 126.173 179.374 125.1C179.374 124.027 179.556 123.112 179.92 122.356C180.284 121.6 180.783 121.026 181.418 120.634C182.053 120.233 182.771 120.032 183.574 120.032C184.386 120.032 185.105 120.233 185.73 120.634C186.365 121.026 186.864 121.6 187.228 122.356C187.592 123.112 187.774 124.027 187.774 125.1C187.774 126.173 187.592 127.088 187.228 127.844C186.864 128.6 186.365 129.179 185.73 129.58C185.105 129.972 184.386 130.168 183.574 130.168ZM183.574 128.25C183.957 128.25 184.288 128.143 184.568 127.928C184.857 127.713 185.081 127.373 185.24 126.906C185.408 126.439 185.492 125.837 185.492 125.1C185.492 124.363 185.408 123.761 185.24 123.294C185.081 122.827 184.857 122.487 184.568 122.272C184.288 122.057 183.957 121.95 183.574 121.95C183.201 121.95 182.869 122.057 182.58 122.272C182.3 122.487 182.076 122.827 181.908 123.294C181.749 123.761 181.67 124.363 181.67 125.1C181.67 125.837 181.749 126.439 181.908 126.906C182.076 127.373 182.3 127.713 182.58 127.928C182.869 128.143 183.201 128.25 183.574 128.25ZM195.767 130.098C195.207 130.098 194.656 130.028 194.115 129.888C193.583 129.739 193.107 129.529 192.687 129.258L193.093 128.236C193.448 128.46 193.854 128.637 194.311 128.768C194.768 128.889 195.23 128.95 195.697 128.95C196.126 128.95 196.495 128.899 196.803 128.796C197.12 128.693 197.363 128.553 197.531 128.376C197.699 128.189 197.783 127.975 197.783 127.732C197.783 127.387 197.629 127.121 197.321 126.934C197.013 126.747 196.584 126.654 196.033 126.654H194.689V125.688H195.949C196.276 125.688 196.56 125.651 196.803 125.576C197.046 125.501 197.232 125.389 197.363 125.24C197.503 125.081 197.573 124.899 197.573 124.694C197.573 124.47 197.494 124.279 197.335 124.12C197.176 123.961 196.952 123.84 196.663 123.756C196.383 123.672 196.052 123.63 195.669 123.63C195.296 123.639 194.913 123.691 194.521 123.784C194.138 123.877 193.746 124.022 193.345 124.218L192.981 123.168C193.429 122.953 193.868 122.79 194.297 122.678C194.736 122.557 195.17 122.491 195.599 122.482C196.243 122.463 196.817 122.538 197.321 122.706C197.825 122.865 198.222 123.098 198.511 123.406C198.81 123.714 198.959 124.078 198.959 124.498C198.959 124.853 198.847 125.17 198.623 125.45C198.399 125.721 198.1 125.935 197.727 126.094C197.354 126.253 196.924 126.332 196.439 126.332L196.495 126.01C197.326 126.01 197.979 126.173 198.455 126.5C198.931 126.827 199.169 127.27 199.169 127.83C199.169 128.278 199.02 128.675 198.721 129.02C198.422 129.356 198.016 129.622 197.503 129.818C196.999 130.005 196.42 130.098 195.767 130.098ZM205.762 130V128.432L205.692 128.138V125.464C205.692 124.895 205.524 124.456 205.188 124.148C204.861 123.831 204.367 123.672 203.704 123.672C203.265 123.672 202.836 123.747 202.416 123.896C201.996 124.036 201.641 124.227 201.352 124.47L200.792 123.462C201.175 123.154 201.632 122.921 202.164 122.762C202.705 122.594 203.27 122.51 203.858 122.51C204.875 122.51 205.659 122.757 206.21 123.252C206.761 123.747 207.036 124.503 207.036 125.52V130H205.762ZM203.326 130.084C202.775 130.084 202.29 129.991 201.87 129.804C201.459 129.617 201.142 129.361 200.918 129.034C200.694 128.698 200.582 128.32 200.582 127.9C200.582 127.499 200.675 127.135 200.862 126.808C201.058 126.481 201.371 126.22 201.8 126.024C202.239 125.828 202.827 125.73 203.564 125.73H205.916V126.696H203.62C202.948 126.696 202.495 126.808 202.262 127.032C202.029 127.256 201.912 127.527 201.912 127.844C201.912 128.208 202.057 128.502 202.346 128.726C202.635 128.941 203.037 129.048 203.55 129.048C204.054 129.048 204.493 128.936 204.866 128.712C205.249 128.488 205.524 128.161 205.692 127.732L205.958 128.656C205.781 129.095 205.468 129.445 205.02 129.706C204.572 129.958 204.007 130.084 203.326 130.084ZM214.524 129.37V123.756H211.304L211.234 125.184C211.216 125.651 211.183 126.103 211.136 126.542C211.099 126.971 211.034 127.368 210.94 127.732C210.856 128.096 210.73 128.395 210.562 128.628C210.394 128.861 210.17 129.006 209.89 129.062L208.56 128.824C208.85 128.833 209.083 128.74 209.26 128.544C209.438 128.339 209.573 128.059 209.666 127.704C209.769 127.349 209.844 126.948 209.89 126.5C209.937 126.043 209.974 125.571 210.002 125.086L210.114 122.58H215.868V129.37H214.524ZM208.266 131.722V128.824H217.002V131.722H215.742V130H209.54V131.722H208.266ZM223.303 130V128.432L223.233 128.138V125.464C223.233 124.895 223.065 124.456 222.729 124.148C222.403 123.831 221.908 123.672 221.245 123.672C220.807 123.672 220.377 123.747 219.957 123.896C219.537 124.036 219.183 124.227 218.893 124.47L218.333 123.462C218.716 123.154 219.173 122.921 219.705 122.762C220.247 122.594 220.811 122.51 221.399 122.51C222.417 122.51 223.201 122.757 223.751 123.252C224.302 123.747 224.577 124.503 224.577 125.52V130H223.303ZM220.867 130.084C220.317 130.084 219.831 129.991 219.411 129.804C219.001 129.617 218.683 129.361 218.459 129.034C218.235 128.698 218.123 128.32 218.123 127.9C218.123 127.499 218.217 127.135 218.403 126.808C218.599 126.481 218.912 126.22 219.341 126.024C219.78 125.828 220.368 125.73 221.105 125.73H223.457V126.696H221.161C220.489 126.696 220.037 126.808 219.803 127.032C219.57 127.256 219.453 127.527 219.453 127.844C219.453 128.208 219.598 128.502 219.887 128.726C220.177 128.941 220.578 129.048 221.091 129.048C221.595 129.048 222.034 128.936 222.407 128.712C222.79 128.488 223.065 128.161 223.233 127.732L223.499 128.656C223.322 129.095 223.009 129.445 222.561 129.706C222.113 129.958 221.549 130.084 220.867 130.084ZM226.997 130V122.58H228.341V125.73H232.569V122.58H233.913V130H232.569V126.892H228.341V130H226.997ZM236.527 130V122.58H237.871V127.984L242.421 122.58H243.639V130H242.295V124.596L237.759 130H236.527ZM246.247 130V122.58H247.591V127.984L252.141 122.58H253.359V130H252.015V124.596L247.479 130H246.247ZM249.719 121.614C249.038 121.614 248.501 121.451 248.109 121.124C247.727 120.788 247.531 120.307 247.521 119.682H248.431C248.441 120.037 248.557 120.317 248.781 120.522C249.015 120.727 249.323 120.83 249.705 120.83C250.088 120.83 250.396 120.727 250.629 120.522C250.863 120.317 250.984 120.037 250.993 119.682H251.931C251.922 120.307 251.721 120.788 251.329 121.124C250.937 121.451 250.401 121.614 249.719 121.614Z" fill="white"/>
<path d="M294.058 130V121.04L295.038 122.02H292.098V120.2H296.326V130H294.058ZM302.228 130.168C301.426 130.168 300.707 129.972 300.072 129.58C299.438 129.179 298.938 128.6 298.574 127.844C298.21 127.088 298.028 126.173 298.028 125.1C298.028 124.027 298.21 123.112 298.574 122.356C298.938 121.6 299.438 121.026 300.072 120.634C300.707 120.233 301.426 120.032 302.228 120.032C303.04 120.032 303.759 120.233 304.384 120.634C305.019 121.026 305.518 121.6 305.882 122.356C306.246 123.112 306.428 124.027 306.428 125.1C306.428 126.173 306.246 127.088 305.882 127.844C305.518 128.6 305.019 129.179 304.384 129.58C303.759 129.972 303.04 130.168 302.228 130.168ZM302.228 128.25C302.611 128.25 302.942 128.143 303.222 127.928C303.512 127.713 303.736 127.373 303.894 126.906C304.062 126.439 304.146 125.837 304.146 125.1C304.146 124.363 304.062 123.761 303.894 123.294C303.736 122.827 303.512 122.487 303.222 122.272C302.942 122.057 302.611 121.95 302.228 121.95C301.855 121.95 301.524 122.057 301.234 122.272C300.954 122.487 300.73 122.827 300.562 123.294C300.404 123.761 300.324 124.363 300.324 125.1C300.324 125.837 300.404 126.439 300.562 126.906C300.73 127.373 300.954 127.713 301.234 127.928C301.524 128.143 301.855 128.25 302.228 128.25ZM311.73 130.168C310.928 130.168 310.209 129.972 309.574 129.58C308.94 129.179 308.44 128.6 308.076 127.844C307.712 127.088 307.53 126.173 307.53 125.1C307.53 124.027 307.712 123.112 308.076 122.356C308.44 121.6 308.94 121.026 309.574 120.634C310.209 120.233 310.928 120.032 311.73 120.032C312.542 120.032 313.261 120.233 313.886 120.634C314.521 121.026 315.02 121.6 315.384 122.356C315.748 123.112 315.93 124.027 315.93 125.1C315.93 126.173 315.748 127.088 315.384 127.844C315.02 128.6 314.521 129.179 313.886 129.58C313.261 129.972 312.542 130.168 311.73 130.168ZM311.73 128.25C312.113 128.25 312.444 128.143 312.724 127.928C313.014 127.713 313.238 127.373 313.396 126.906C313.564 126.439 313.648 125.837 313.648 125.1C313.648 124.363 313.564 123.761 313.396 123.294C313.238 122.827 313.014 122.487 312.724 122.272C312.444 122.057 312.113 121.95 311.73 121.95C311.357 121.95 311.026 122.057 310.736 122.272C310.456 122.487 310.232 122.827 310.064 123.294C309.906 123.761 309.826 124.363 309.826 125.1C309.826 125.837 309.906 126.439 310.064 126.906C310.232 127.373 310.456 127.713 310.736 127.928C311.026 128.143 311.357 128.25 311.73 128.25ZM326.429 126.962C326.037 127.149 325.631 127.298 325.211 127.41C324.801 127.513 324.376 127.564 323.937 127.564C323.041 127.564 322.332 127.354 321.809 126.934C321.296 126.514 321.039 125.865 321.039 124.988V122.58H322.383V124.904C322.383 125.436 322.547 125.828 322.873 126.08C323.209 126.332 323.657 126.458 324.217 126.458C324.572 126.458 324.936 126.411 325.309 126.318C325.692 126.225 326.065 126.094 326.429 125.926V126.962ZM326.331 130V122.58H327.675V130H326.331ZM334.834 130V128.432L334.764 128.138V125.464C334.764 124.895 334.596 124.456 334.26 124.148C333.934 123.831 333.439 123.672 332.776 123.672C332.338 123.672 331.908 123.747 331.488 123.896C331.068 124.036 330.714 124.227 330.424 124.47L329.864 123.462C330.247 123.154 330.704 122.921 331.236 122.762C331.778 122.594 332.342 122.51 332.93 122.51C333.948 122.51 334.732 122.757 335.282 123.252C335.833 123.747 336.108 124.503 336.108 125.52V130H334.834ZM332.398 130.084C331.848 130.084 331.362 129.991 330.942 129.804C330.532 129.617 330.214 129.361 329.99 129.034C329.766 128.698 329.654 128.32 329.654 127.9C329.654 127.499 329.748 127.135 329.934 126.808C330.13 126.481 330.443 126.22 330.872 126.024C331.311 125.828 331.899 125.73 332.636 125.73H334.988V126.696H332.692C332.02 126.696 331.568 126.808 331.334 127.032C331.101 127.256 330.984 127.527 330.984 127.844C330.984 128.208 331.129 128.502 331.418 128.726C331.708 128.941 332.109 129.048 332.622 129.048C333.126 129.048 333.565 128.936 333.938 128.712C334.321 128.488 334.596 128.161 334.764 127.732L335.03 128.656C334.853 129.095 334.54 129.445 334.092 129.706C333.644 129.958 333.08 130.084 332.398 130.084ZM341.763 130.084C341.007 130.084 340.33 129.921 339.733 129.594C339.145 129.267 338.683 128.819 338.347 128.25C338.011 127.681 337.843 127.027 337.843 126.29C337.843 125.553 338.011 124.899 338.347 124.33C338.683 123.761 339.145 123.317 339.733 123C340.33 122.673 341.007 122.51 341.763 122.51C342.435 122.51 343.032 122.645 343.555 122.916C344.087 123.177 344.497 123.569 344.787 124.092L343.765 124.75C343.522 124.386 343.223 124.12 342.869 123.952C342.523 123.775 342.15 123.686 341.749 123.686C341.263 123.686 340.829 123.793 340.447 124.008C340.064 124.223 339.761 124.526 339.537 124.918C339.313 125.301 339.201 125.758 339.201 126.29C339.201 126.822 339.313 127.284 339.537 127.676C339.761 128.068 340.064 128.371 340.447 128.586C340.829 128.801 341.263 128.908 341.749 128.908C342.15 128.908 342.523 128.824 342.869 128.656C343.223 128.479 343.522 128.208 343.765 127.844L344.787 128.488C344.497 129.001 344.087 129.398 343.555 129.678C343.032 129.949 342.435 130.084 341.763 130.084ZM349.595 130.084C348.849 130.084 348.186 129.921 347.607 129.594C347.029 129.267 346.571 128.819 346.235 128.25C345.899 127.671 345.731 127.018 345.731 126.29C345.731 125.553 345.899 124.899 346.235 124.33C346.571 123.761 347.029 123.317 347.607 123C348.186 122.673 348.849 122.51 349.595 122.51C350.333 122.51 350.991 122.673 351.569 123C352.157 123.317 352.615 123.761 352.941 124.33C353.277 124.89 353.445 125.543 353.445 126.29C353.445 127.027 353.277 127.681 352.941 128.25C352.615 128.819 352.157 129.267 351.569 129.594C350.991 129.921 350.333 130.084 349.595 130.084ZM349.595 128.908C350.071 128.908 350.496 128.801 350.869 128.586C351.252 128.371 351.551 128.068 351.765 127.676C351.98 127.275 352.087 126.813 352.087 126.29C352.087 125.758 351.98 125.301 351.765 124.918C351.551 124.526 351.252 124.223 350.869 124.008C350.496 123.793 350.071 123.686 349.595 123.686C349.119 123.686 348.695 123.793 348.321 124.008C347.948 124.223 347.649 124.526 347.425 124.918C347.201 125.301 347.089 125.758 347.089 126.29C347.089 126.813 347.201 127.275 347.425 127.676C347.649 128.068 347.948 128.371 348.321 128.586C348.695 128.801 349.119 128.908 349.595 128.908ZM355.386 130V122.58H358.83C359.698 122.58 360.379 122.748 360.874 123.084C361.378 123.411 361.63 123.877 361.63 124.484C361.63 125.091 361.392 125.562 360.916 125.898C360.449 126.225 359.829 126.388 359.054 126.388L359.264 126.024C360.151 126.024 360.809 126.187 361.238 126.514C361.667 126.841 361.882 127.321 361.882 127.956C361.882 128.6 361.639 129.104 361.154 129.468C360.678 129.823 359.945 130 358.956 130H355.386ZM356.702 128.964H358.858C359.418 128.964 359.838 128.88 360.118 128.712C360.398 128.535 360.538 128.255 360.538 127.872C360.538 127.48 360.407 127.195 360.146 127.018C359.894 126.831 359.493 126.738 358.942 126.738H356.702V128.964ZM356.702 125.772H358.718C359.231 125.772 359.619 125.679 359.88 125.492C360.151 125.296 360.286 125.025 360.286 124.68C360.286 124.325 360.151 124.059 359.88 123.882C359.619 123.705 359.231 123.616 358.718 123.616H356.702V125.772Z" fill="white"/>
<g clip-path="url(#clip0_2985_731)">
<path d="M20.2003 118.75C20.6777 118.75 21.1355 118.552 21.4731 118.201C21.8106 117.849 22.0003 117.372 22.0003 116.875C22.0003 116.378 21.8106 115.901 21.4731 115.549C21.1355 115.198 20.6777 115 20.2003 115C19.7229 115 19.2651 115.198 18.9275 115.549C18.5899 115.901 18.4003 116.378 18.4003 116.875C18.4003 117.372 18.5899 117.849 18.9275 118.201C19.2651 118.552 19.7229 118.75 20.2003 118.75ZM19.9003 133.75V128.75H20.5003V133.75C20.5003 134.441 21.0365 135 21.7003 135C22.364 135 22.9003 134.441 22.9003 133.75V122.5H25.0003H27.4003H28.0003C28.664 122.5 29.2003 121.941 29.2003 121.25C29.2003 120.559 28.664 120 28.0003 120H27.4003V117.5H34.6003V125H27.4003V123.75H25.0003V125.625C25.0003 126.66 25.8065 127.5 26.8003 127.5H35.2003C36.194 127.5 37.0003 126.66 37.0003 125.625V116.875C37.0003 115.84 36.194 115 35.2003 115H26.8003C25.8065 115 25.0003 115.84 25.0003 116.875V120H22.1165H19.6453C18.3815 120 17.2115 120.691 16.559 121.82L14.3728 125.609C14.0315 126.199 14.2153 126.969 14.7815 127.324C15.3478 127.68 16.0865 127.488 16.4278 126.898L17.5003 125.035V133.75C17.5003 134.441 18.0365 135 18.7003 135C19.364 135 19.9003 134.441 19.9003 133.75Z" fill="white"/>
</g>
<g clip-path="url(#clip1_2985_731)">
<path d="M137.898 115.519C138.347 115.886 138.384 116.509 137.98 116.917L134.714 120.216C134.515 120.418 134.234 120.537 133.934 120.541C133.635 120.546 133.349 120.443 133.136 120.253L131.317 118.604C130.896 118.216 130.896 117.589 131.317 117.202C131.739 116.814 132.433 116.814 132.855 117.202L133.857 118.113L136.356 115.589C136.76 115.181 137.445 115.148 137.894 115.515L137.898 115.519ZM137.898 122.117C138.347 122.484 138.384 123.106 137.98 123.514L134.714 126.813C134.515 127.015 134.234 127.135 133.934 127.139C133.635 127.143 133.349 127.04 133.136 126.85L131.317 125.201C130.891 124.813 130.891 124.186 131.317 123.803C131.744 123.42 132.433 123.415 132.855 123.803L133.857 124.714L136.356 122.191C136.76 121.783 137.445 121.75 137.894 122.117H137.898ZM141.16 117.903C141.16 117.173 141.808 116.583 142.611 116.583H152.771C153.573 116.583 154.222 117.173 154.222 117.903C154.222 118.632 153.573 119.222 152.771 119.222H142.611C141.808 119.222 141.16 118.632 141.16 117.903ZM141.16 124.5C141.16 123.77 141.808 123.18 142.611 123.18H152.771C153.573 123.18 154.222 123.77 154.222 124.5C154.222 125.23 153.573 125.819 152.771 125.819H142.611C141.808 125.819 141.16 125.23 141.16 124.5ZM138.257 131.097C138.257 130.367 138.905 129.778 139.708 129.778H152.771C153.573 129.778 154.222 130.367 154.222 131.097C154.222 131.827 153.573 132.416 152.771 132.416H139.708C138.905 132.416 138.257 131.827 138.257 131.097ZM133.177 129.118C133.754 129.118 134.308 129.326 134.716 129.698C135.125 130.069 135.354 130.572 135.354 131.097C135.354 131.622 135.125 132.125 134.716 132.497C134.308 132.868 133.754 133.076 133.177 133.076C132.6 133.076 132.046 132.868 131.637 132.497C131.229 132.125 131 131.622 131 131.097C131 130.572 131.229 130.069 131.637 129.698C132.046 129.326 132.6 129.118 133.177 129.118Z" fill="white"/>
</g>
<g clip-path="url(#clip2_2985_731)">
<path d="M273 115C275.652 115 278.196 116.054 280.071 117.929C281.946 119.804 283 122.348 283 125C283 127.652 281.946 130.196 280.071 132.071C278.196 133.946 275.652 135 273 135C270.348 135 267.804 133.946 265.929 132.071C264.054 130.196 263 127.652 263 125C263 122.348 264.054 119.804 265.929 117.929C267.804 116.054 270.348 115 273 115ZM272.062 119.688V125C272.062 125.312 272.219 125.605 272.48 125.781L276.23 128.281C276.66 128.57 277.242 128.453 277.531 128.02C277.82 127.586 277.703 127.008 277.27 126.719L273.938 124.5V119.688C273.938 119.168 273.52 118.75 273 118.75C272.48 118.75 272.062 119.168 272.062 119.688Z" fill="white"/>
</g>
<path d="M316 1H362C373.046 1 382 9.9543 382 21V70H316V1Z" fill="#F7DF1E"/>
<path d="M323.3 19.0282L335.18 7.14883L337.454 9.42288L335.91 24.9849L334.806 23.8818L343.36 15.3286L346.075 18.0439L334.196 29.9233L331.938 27.6662L333.466 12.0873L334.569 13.1903L326.016 21.7435L323.3 19.0282ZM346.628 28.1689L352.348 33.8879L350.209 36.0262L344.49 30.3071L346.628 28.1689ZM341.945 33.26L348.41 39.7258L346.204 41.932L337.006 32.7339L348.886 20.8545L357.863 29.832L355.657 32.0381L349.412 25.793L341.945 33.26ZM351.077 46.8048L359.07 31.0391L361.921 33.8902L354.777 47.7891L353.351 46.3636L367.403 39.3717L369.948 41.9173L362.821 55.8331L361.446 54.4585L375.43 47.3988L378.06 50.0292L362.295 58.0223L359.342 55.0695L365.57 42.8337L366.351 43.6143L354.03 49.7577L351.077 46.8048Z" fill="white"/>
<path d="M321.3 21.0282L333.18 9.14883L335.454 11.4229L333.91 26.9849L332.806 25.8818L341.36 17.3286L344.075 20.0439L332.196 31.9233L329.938 29.6662L331.466 14.0873L332.569 15.1903L324.016 23.7435L321.3 21.0282ZM344.628 30.1689L350.348 35.8879L348.209 38.0262L342.49 32.3071L344.628 30.1689ZM339.945 35.26L346.41 41.7258L344.204 43.932L335.006 34.7339L346.886 22.8545L355.863 31.832L353.657 34.0381L347.412 27.793L339.945 35.26ZM349.077 48.8048L357.07 33.0391L359.921 35.8902L352.777 49.7891L351.351 48.3636L365.403 41.3717L367.948 43.9173L360.821 57.8331L359.446 56.4585L373.43 49.3988L376.06 52.0292L360.295 60.0223L357.342 57.0695L363.57 44.8337L364.351 45.6143L352.03 51.7577L349.077 48.8048Z" fill="black"/>
<defs>
<filter id="filter0_d_2985_731" x="80.4482" y="20" width="221.982" height="26.04" filterUnits="userSpaceOnUse" color-interpolation-filters="sRGB">
<feFlood flood-opacity="0" result="BackgroundImageFix"/>
<feColorMatrix in="SourceAlpha" type="matrix" values="0 0 0 0 0 0 0 0 0 0 0 0 0 0 0 0 0 0 127 0" result="hardAlpha"/>
<feOffset dy="4"/>
<feGaussianBlur stdDeviation="2"/>
<feComposite in2="hardAlpha" operator="out"/>
<feColorMatrix type="matrix" values="0 0 0 0 1 0 0 0 0 1 0 0 0 0 1 0 0 0 0.25 0"/>
<feBlend mode="normal" in2="BackgroundImageFix" result="effect1_dropShadow_2985_731"/>
<feBlend mode="normal" in="SourceGraphic" in2="effect1_dropShadow_2985_731" result="shape"/>
</filter>
<filter id="filter1_d_2985_731" x="91.2158" y="48.5918" width="201.496" height="43.8882" filterUnits="userSpaceOnUse" color-interpolation-filters="sRGB">
<feFlood flood-opacity="0" result="BackgroundImageFix"/>
<feColorMatrix in="SourceAlpha" type="matrix" values="0 0 0 0 0 0 0 0 0 0 0 0 0 0 0 0 0 0 127 0" result="hardAlpha"/>
<feOffset/>
<feGaussianBlur stdDeviation="2.5"/>
<feComposite in2="hardAlpha" operator="out"/>
<feColorMatrix type="matrix" values="0 0 0 0 1 0 0 0 0 1 0 0 0 0 1 0 0 0 0.75 0"/>
<feBlend mode="normal" in2="BackgroundImageFix" result="effect1_dropShadow_2985_731"/>
<feBlend mode="normal" in="SourceGraphic" in2="effect1_dropShadow_2985_731" result="shape"/>
</filter>
<linearGradient id="paint0_linear_2985_731" x1="191" y1="1" x2="191" y2="201" gradientUnits="userSpaceOnUse">
<stop stop-color="#30004D"/>
<stop offset="1"/>
</linearGradient>
<clipPath id="clip0_2985_731">
<rect width="23" height="20" fill="white" transform="translate(14 115)"/>
</clipPath>
<clipPath id="clip1_2985_731">
<rect width="23.2222" height="19" fill="white" transform="translate(131 115)"/>
</clipPath>
<clipPath id="clip2_2985_731">
<rect width="20" height="20" fill="white" transform="translate(263 115)"/>
</clipPath>
</defs>
</svg>
