<svg width="382" height="200" viewBox="0 0 382 200" fill="none" xmlns="http://www.w3.org/2000/svg">
<path d="M0 20C0 8.95431 8.9543 0 20 0H362C373.046 0 382 8.95431 382 20V200H0V20Z" fill="url(#paint0_linear_2985_686)"/>
<path d="M57.1027 33L52.7427 26.26L55.3627 24.68L60.7827 33H57.1027ZM48.0027 33V19H51.2227V33H48.0027ZM50.2827 27.36V24.66H55.1627V27.36H50.2827ZM55.6627 26.36L52.6827 26L57.2227 19H60.6427L55.6627 26.36ZM63.3057 37.04C62.7457 37.04 62.1924 36.9533 61.6457 36.78C61.099 36.6067 60.6524 36.3667 60.3057 36.06L61.4457 33.84C61.6857 34.0533 61.959 34.22 62.2657 34.34C62.5857 34.46 62.899 34.52 63.2057 34.52C63.6457 34.52 63.9924 34.4133 64.2457 34.2C64.5124 34 64.7524 33.66 64.9657 33.18L65.5257 31.86L65.7657 31.52L69.6257 22.24H72.6257L67.7657 33.66C67.419 34.5267 67.019 35.2067 66.5657 35.7C66.1257 36.1933 65.6324 36.54 65.0857 36.74C64.5524 36.94 63.959 37.04 63.3057 37.04ZM65.1457 33.42L60.3457 22.24H63.5657L67.2857 31.24L65.1457 33.42ZM80.4709 33.16C79.5642 33.16 78.7709 32.96 78.0909 32.56C77.4109 32.16 76.8775 31.5533 76.4909 30.74C76.1175 29.9133 75.9309 28.8733 75.9309 27.62C75.9309 26.3533 76.1109 25.3133 76.4709 24.5C76.8309 23.6867 77.3509 23.08 78.0309 22.68C78.7109 22.28 79.5242 22.08 80.4709 22.08C81.4842 22.08 82.3909 22.3133 83.1909 22.78C84.0042 23.2333 84.6442 23.8733 85.1109 24.7C85.5909 25.5267 85.8309 26.5 85.8309 27.62C85.8309 28.7533 85.5909 29.7333 85.1109 30.56C84.6442 31.3867 84.0042 32.0267 83.1909 32.48C82.3909 32.9333 81.4842 33.16 80.4709 33.16ZM74.1109 36.88V22.24H77.0909V24.44L77.0309 27.64L77.2309 30.82V36.88H74.1109ZM79.9309 30.6C80.4509 30.6 80.9109 30.48 81.3109 30.24C81.7242 30 82.0509 29.66 82.2909 29.22C82.5442 28.7667 82.6709 28.2333 82.6709 27.62C82.6709 26.9933 82.5442 26.46 82.2909 26.02C82.0509 25.58 81.7242 25.24 81.3109 25C80.9109 24.76 80.4509 24.64 79.9309 24.64C79.4109 24.64 78.9442 24.76 78.5309 25C78.1175 25.24 77.7909 25.58 77.5509 26.02C77.3109 26.46 77.1909 26.9933 77.1909 27.62C77.1909 28.2333 77.3109 28.7667 77.5509 29.22C77.7909 29.66 78.1175 30 78.5309 30.24C78.9442 30.48 79.4109 30.6 79.9309 30.6ZM93.1376 33.16C91.9776 33.16 90.9442 32.9267 90.0376 32.46C89.1309 31.98 88.4176 31.32 87.8976 30.48C87.3909 29.64 87.1376 28.6867 87.1376 27.62C87.1376 26.54 87.3909 25.5867 87.8976 24.76C88.4176 23.92 89.1309 23.2667 90.0376 22.8C90.9442 22.32 91.9776 22.08 93.1376 22.08C94.2709 22.08 95.2576 22.32 96.0976 22.8C96.9376 23.2667 97.5576 23.94 97.9576 24.82L95.5376 26.12C95.2576 25.6133 94.9042 25.24 94.4776 25C94.0642 24.76 93.6109 24.64 93.1176 24.64C92.5842 24.64 92.1042 24.76 91.6776 25C91.2509 25.24 90.9109 25.58 90.6576 26.02C90.4176 26.46 90.2976 26.9933 90.2976 27.62C90.2976 28.2467 90.4176 28.78 90.6576 29.22C90.9109 29.66 91.2509 30 91.6776 30.24C92.1042 30.48 92.5842 30.6 93.1176 30.6C93.6109 30.6 94.0642 30.4867 94.4776 30.26C94.9042 30.02 95.2576 29.64 95.5376 29.12L97.9576 30.44C97.5576 31.3067 96.9376 31.98 96.0976 32.46C95.2576 32.9267 94.2709 33.16 93.1376 33.16ZM112.918 31.6V24.8H109.398L109.338 26.18C109.311 26.7533 109.278 27.3 109.238 27.82C109.198 28.34 109.118 28.8133 108.998 29.24C108.891 29.6533 108.731 30.0067 108.518 30.3C108.304 30.58 108.018 30.7733 107.658 30.88L104.578 30.44C104.964 30.44 105.278 30.3267 105.518 30.1C105.758 29.86 105.944 29.5333 106.078 29.12C106.211 28.6933 106.311 28.2133 106.378 27.68C106.444 27.1333 106.491 26.56 106.518 25.96L106.658 22.24H116.038V31.6H112.918ZM104.218 35.32V30.44H117.578V35.32H114.678V33H107.118V35.32H104.218ZM118.181 32.98L118.341 30.42C118.421 30.4333 118.501 30.4467 118.581 30.46C118.661 30.46 118.734 30.46 118.801 30.46C119.174 30.46 119.468 30.3533 119.681 30.14C119.894 29.9267 120.054 29.64 120.161 29.28C120.268 28.9067 120.341 28.4867 120.381 28.02C120.434 27.5533 120.474 27.0667 120.501 26.56L120.661 22.24H129.861V33H126.741V24.04L127.441 24.8H122.721L123.381 24L123.241 26.7C123.201 27.66 123.121 28.54 123.001 29.34C122.894 30.14 122.714 30.8333 122.461 31.42C122.208 31.9933 121.868 32.44 121.441 32.76C121.014 33.0667 120.468 33.22 119.801 33.22C119.561 33.22 119.308 33.2 119.041 33.16C118.774 33.12 118.488 33.06 118.181 32.98ZM139.641 33V29.42L140.081 29.92H137.101C135.555 29.92 134.341 29.6 133.461 28.96C132.581 28.32 132.141 27.4 132.141 26.2C132.141 24.92 132.601 23.94 133.521 23.26C134.455 22.58 135.708 22.24 137.281 22.24H142.421V33H139.641ZM131.981 33L134.841 28.9H138.021L135.301 33H131.981ZM139.641 28.46V23.98L140.081 24.78H137.341C136.701 24.78 136.201 24.9 135.841 25.14C135.495 25.38 135.321 25.7667 135.321 26.3C135.321 27.3267 135.981 27.84 137.301 27.84H140.081L139.641 28.46ZM151.084 33V22.24H161.784V33H158.664V24.1L159.364 24.8H153.484L154.184 24.1V33H151.084ZM171.115 33.16C170.209 33.16 169.415 32.96 168.735 32.56C168.055 32.16 167.522 31.5533 167.135 30.74C166.762 29.9133 166.575 28.8733 166.575 27.62C166.575 26.3533 166.755 25.3133 167.115 24.5C167.475 23.6867 167.995 23.08 168.675 22.68C169.355 22.28 170.169 22.08 171.115 22.08C172.129 22.08 173.035 22.3133 173.835 22.78C174.649 23.2333 175.289 23.8733 175.755 24.7C176.235 25.5267 176.475 26.5 176.475 27.62C176.475 28.7533 176.235 29.7333 175.755 30.56C175.289 31.3867 174.649 32.0267 173.835 32.48C173.035 32.9333 172.129 33.16 171.115 33.16ZM164.755 36.88V22.24H167.735V24.44L167.675 27.64L167.875 30.82V36.88H164.755ZM170.575 30.6C171.095 30.6 171.555 30.48 171.955 30.24C172.369 30 172.695 29.66 172.935 29.22C173.189 28.7667 173.315 28.2333 173.315 27.62C173.315 26.9933 173.189 26.46 172.935 26.02C172.695 25.58 172.369 25.24 171.955 25C171.555 24.76 171.095 24.64 170.575 24.64C170.055 24.64 169.589 24.76 169.175 25C168.762 25.24 168.435 25.58 168.195 26.02C167.955 26.46 167.835 26.9933 167.835 27.62C167.835 28.2333 167.955 28.7667 168.195 29.22C168.435 29.66 168.762 30 169.175 30.24C169.589 30.48 170.055 30.6 170.575 30.6ZM183.702 33.16C182.555 33.16 181.535 32.92 180.642 32.44C179.762 31.96 179.062 31.3067 178.542 30.48C178.035 29.64 177.782 28.6867 177.782 27.62C177.782 26.54 178.035 25.5867 178.542 24.76C179.062 23.92 179.762 23.2667 180.642 22.8C181.535 22.32 182.555 22.08 183.702 22.08C184.835 22.08 185.849 22.32 186.742 22.8C187.635 23.2667 188.335 23.9133 188.842 24.74C189.349 25.5667 189.602 26.5267 189.602 27.62C189.602 28.6867 189.349 29.64 188.842 30.48C188.335 31.3067 187.635 31.96 186.742 32.44C185.849 32.92 184.835 33.16 183.702 33.16ZM183.702 30.6C184.222 30.6 184.689 30.48 185.102 30.24C185.515 30 185.842 29.66 186.082 29.22C186.322 28.7667 186.442 28.2333 186.442 27.62C186.442 26.9933 186.322 26.46 186.082 26.02C185.842 25.58 185.515 25.24 185.102 25C184.689 24.76 184.222 24.64 183.702 24.64C183.182 24.64 182.715 24.76 182.302 25C181.889 25.24 181.555 25.58 181.302 26.02C181.062 26.46 180.942 26.9933 180.942 27.62C180.942 28.2333 181.062 28.7667 181.302 29.22C181.555 29.66 181.889 30 182.302 30.24C182.715 30.48 183.182 30.6 183.702 30.6ZM198.988 33.24C198.961 33.24 198.888 33.24 198.768 33.24C198.648 33.24 198.535 33.24 198.428 33.24C198.321 33.24 198.248 33.24 198.208 33.24C195.875 33.2 194.068 32.7 192.788 31.74C191.508 30.78 190.868 29.3933 190.868 27.58C190.868 25.7933 191.501 24.4333 192.768 23.5C194.048 22.5533 195.881 22.0733 198.268 22.06C198.295 22.06 198.361 22.06 198.468 22.06C198.588 22.06 198.701 22.06 198.808 22.06C198.915 22.06 198.981 22.06 199.008 22.06C201.421 22.06 203.288 22.5267 204.608 23.46C205.941 24.3933 206.608 25.7667 206.608 27.58C206.608 29.42 205.941 30.8267 204.608 31.8C203.288 32.76 201.415 33.24 198.988 33.24ZM198.888 30.84C199.995 30.84 200.895 30.7267 201.588 30.5C202.281 30.26 202.788 29.9 203.108 29.42C203.441 28.9267 203.608 28.3133 203.608 27.58C203.608 26.8733 203.448 26.2933 203.128 25.84C202.808 25.3733 202.295 25.0267 201.588 24.8C200.895 24.5733 199.995 24.46 198.888 24.46C198.848 24.46 198.768 24.46 198.648 24.46C198.528 24.46 198.448 24.46 198.408 24.46C197.341 24.46 196.475 24.58 195.808 24.82C195.141 25.06 194.655 25.4067 194.348 25.86C194.041 26.3133 193.888 26.8867 193.888 27.58C193.888 28.3 194.041 28.9 194.348 29.38C194.655 29.86 195.141 30.22 195.808 30.46C196.475 30.7 197.341 30.8267 198.408 30.84C198.448 30.84 198.528 30.84 198.648 30.84C198.768 30.84 198.848 30.84 198.888 30.84ZM197.308 36.88V18.16H200.168V36.88H197.308ZM213.981 33.16C212.754 33.16 211.674 32.92 210.741 32.44C209.821 31.96 209.107 31.3067 208.601 30.48C208.094 29.64 207.841 28.6867 207.841 27.62C207.841 26.54 208.087 25.5867 208.581 24.76C209.087 23.92 209.774 23.2667 210.641 22.8C211.507 22.32 212.487 22.08 213.581 22.08C214.634 22.08 215.581 22.3067 216.421 22.76C217.274 23.2 217.947 23.84 218.441 24.68C218.934 25.5067 219.181 26.5 219.181 27.66C219.181 27.78 219.174 27.92 219.161 28.08C219.147 28.2267 219.134 28.3667 219.121 28.5H210.381V26.68H217.481L216.281 27.22C216.281 26.66 216.167 26.1733 215.941 25.76C215.714 25.3467 215.401 25.0267 215.001 24.8C214.601 24.56 214.134 24.44 213.601 24.44C213.067 24.44 212.594 24.56 212.181 24.8C211.781 25.0267 211.467 25.3533 211.241 25.78C211.014 26.1933 210.901 26.6867 210.901 27.26V27.74C210.901 28.3267 211.027 28.8467 211.281 29.3C211.547 29.74 211.914 30.08 212.381 30.32C212.861 30.5467 213.421 30.66 214.061 30.66C214.634 30.66 215.134 30.5733 215.561 30.4C216.001 30.2267 216.401 29.9667 216.761 29.62L218.421 31.42C217.927 31.98 217.307 32.4133 216.561 32.72C215.814 33.0133 214.954 33.16 213.981 33.16ZM226.692 33.16C225.532 33.16 224.499 32.9267 223.592 32.46C222.686 31.98 221.972 31.32 221.452 30.48C220.946 29.64 220.692 28.6867 220.692 27.62C220.692 26.54 220.946 25.5867 221.452 24.76C221.972 23.92 222.686 23.2667 223.592 22.8C224.499 22.32 225.532 22.08 226.692 22.08C227.826 22.08 228.812 22.32 229.652 22.8C230.492 23.2667 231.112 23.94 231.512 24.82L229.092 26.12C228.812 25.6133 228.459 25.24 228.032 25C227.619 24.76 227.166 24.64 226.672 24.64C226.139 24.64 225.659 24.76 225.232 25C224.806 25.24 224.466 25.58 224.212 26.02C223.972 26.46 223.852 26.9933 223.852 27.62C223.852 28.2467 223.972 28.78 224.212 29.22C224.466 29.66 224.806 30 225.232 30.24C225.659 30.48 226.139 30.6 226.672 30.6C227.166 30.6 227.619 30.4867 228.032 30.26C228.459 30.02 228.812 29.64 229.092 29.12L231.512 30.44C231.112 31.3067 230.492 31.98 229.652 32.46C228.812 32.9267 227.826 33.16 226.692 33.16ZM238.391 33.16C237.231 33.16 236.198 32.9267 235.291 32.46C234.385 31.98 233.671 31.32 233.151 30.48C232.645 29.64 232.391 28.6867 232.391 27.62C232.391 26.54 232.645 25.5867 233.151 24.76C233.671 23.92 234.385 23.2667 235.291 22.8C236.198 22.32 237.231 22.08 238.391 22.08C239.525 22.08 240.511 22.32 241.351 22.8C242.191 23.2667 242.811 23.94 243.211 24.82L240.791 26.12C240.511 25.6133 240.158 25.24 239.731 25C239.318 24.76 238.865 24.64 238.371 24.64C237.838 24.64 237.358 24.76 236.931 25C236.505 25.24 236.165 25.58 235.911 26.02C235.671 26.46 235.551 26.9933 235.551 27.62C235.551 28.2467 235.671 28.78 235.911 29.22C236.165 29.66 236.505 30 236.931 30.24C237.358 30.48 237.838 30.6 238.371 30.6C238.865 30.6 239.318 30.4867 239.731 30.26C240.158 30.02 240.511 29.64 240.791 29.12L243.211 30.44C242.811 31.3067 242.191 31.98 241.351 32.46C240.511 32.9267 239.525 33.16 238.391 33.16ZM245.107 33V22.24H248.207V28.64L253.447 22.24H256.307V33H253.207V26.6L247.987 33H245.107ZM264.347 33.16C263.2 33.16 262.18 32.92 261.287 32.44C260.407 31.96 259.707 31.3067 259.187 30.48C258.68 29.64 258.427 28.6867 258.427 27.62C258.427 26.54 258.68 25.5867 259.187 24.76C259.707 23.92 260.407 23.2667 261.287 22.8C262.18 22.32 263.2 22.08 264.347 22.08C265.48 22.08 266.493 22.32 267.387 22.8C268.28 23.2667 268.98 23.9133 269.487 24.74C269.993 25.5667 270.247 26.5267 270.247 27.62C270.247 28.6867 269.993 29.64 269.487 30.48C268.98 31.3067 268.28 31.96 267.387 32.44C266.493 32.92 265.48 33.16 264.347 33.16ZM264.347 30.6C264.867 30.6 265.333 30.48 265.747 30.24C266.16 30 266.487 29.66 266.727 29.22C266.967 28.7667 267.087 28.2333 267.087 27.62C267.087 26.9933 266.967 26.46 266.727 26.02C266.487 25.58 266.16 25.24 265.747 25C265.333 24.76 264.867 24.64 264.347 24.64C263.827 24.64 263.36 24.76 262.947 25C262.533 25.24 262.2 25.58 261.947 26.02C261.707 26.46 261.587 26.9933 261.587 27.62C261.587 28.2333 261.707 28.7667 261.947 29.22C262.2 29.66 262.533 30 262.947 30.24C263.36 30.48 263.827 30.6 264.347 30.6ZM272.393 33V22.24H275.493V26.44H280.173V22.24H283.293V33H280.173V28.98H275.493V33H272.393ZM292.719 33V30.9L292.519 30.44V26.68C292.519 26.0133 292.313 25.4933 291.899 25.12C291.499 24.7467 290.879 24.56 290.039 24.56C289.466 24.56 288.899 24.6533 288.339 24.84C287.793 25.0133 287.326 25.2533 286.939 25.56L285.819 23.38C286.406 22.9667 287.113 22.6467 287.939 22.42C288.766 22.1933 289.606 22.08 290.459 22.08C292.099 22.08 293.373 22.4667 294.279 23.24C295.186 24.0133 295.639 25.22 295.639 26.86V33H292.719ZM289.439 33.16C288.599 33.16 287.879 33.02 287.279 32.74C286.679 32.4467 286.219 32.0533 285.899 31.56C285.579 31.0667 285.419 30.5133 285.419 29.9C285.419 29.26 285.573 28.7 285.879 28.22C286.199 27.74 286.699 27.3667 287.379 27.1C288.059 26.82 288.946 26.68 290.039 26.68H292.899V28.5H290.379C289.646 28.5 289.139 28.62 288.859 28.86C288.593 29.1 288.459 29.4 288.459 29.76C288.459 30.16 288.613 30.48 288.919 30.72C289.239 30.9467 289.673 31.06 290.219 31.06C290.739 31.06 291.206 30.94 291.619 30.7C292.033 30.4467 292.333 30.08 292.519 29.6L292.999 31.04C292.773 31.7333 292.359 32.26 291.759 32.62C291.159 32.98 290.386 33.16 289.439 33.16ZM296.99 32.98L297.15 30.42C297.23 30.4333 297.31 30.4467 297.39 30.46C297.47 30.46 297.543 30.46 297.61 30.46C297.983 30.46 298.276 30.3533 298.49 30.14C298.703 29.9267 298.863 29.64 298.97 29.28C299.076 28.9067 299.15 28.4867 299.19 28.02C299.243 27.5533 299.283 27.0667 299.31 26.56L299.47 22.24H308.67V33H305.55V24.04L306.25 24.8H301.53L302.19 24L302.05 26.7C302.01 27.66 301.93 28.54 301.81 29.34C301.703 30.14 301.523 30.8333 301.27 31.42C301.016 31.9933 300.676 32.44 300.25 32.76C299.823 33.0667 299.276 33.22 298.61 33.22C298.37 33.22 298.116 33.2 297.85 33.16C297.583 33.12 297.296 33.06 296.99 32.98ZM316.71 33.16C315.563 33.16 314.543 32.92 313.65 32.44C312.77 31.96 312.07 31.3067 311.55 30.48C311.043 29.64 310.79 28.6867 310.79 27.62C310.79 26.54 311.043 25.5867 311.55 24.76C312.07 23.92 312.77 23.2667 313.65 22.8C314.543 22.32 315.563 22.08 316.71 22.08C317.843 22.08 318.857 22.32 319.75 22.8C320.643 23.2667 321.343 23.9133 321.85 24.74C322.357 25.5667 322.61 26.5267 322.61 27.62C322.61 28.6867 322.357 29.64 321.85 30.48C321.343 31.3067 320.643 31.96 319.75 32.44C318.857 32.92 317.843 33.16 316.71 33.16ZM316.71 30.6C317.23 30.6 317.697 30.48 318.11 30.24C318.523 30 318.85 29.66 319.09 29.22C319.33 28.7667 319.45 28.2333 319.45 27.62C319.45 26.9933 319.33 26.46 319.09 26.02C318.85 25.58 318.523 25.24 318.11 25C317.697 24.76 317.23 24.64 316.71 24.64C316.19 24.64 315.723 24.76 315.31 25C314.897 25.24 314.563 25.58 314.31 26.02C314.07 26.46 313.95 26.9933 313.95 27.62C313.95 28.2333 314.07 28.7667 314.31 29.22C314.563 29.66 314.897 30 315.31 30.24C315.723 30.48 316.19 30.6 316.71 30.6ZM324.756 33V22.24H330.256C331.603 22.24 332.656 22.4867 333.416 22.98C334.176 23.46 334.556 24.14 334.556 25.02C334.556 25.9 334.196 26.5933 333.476 27.1C332.769 27.5933 331.829 27.84 330.656 27.84L330.976 27.12C332.283 27.12 333.256 27.36 333.896 27.84C334.549 28.32 334.876 29.02 334.876 29.94C334.876 30.8867 334.516 31.6333 333.796 32.18C333.076 32.7267 331.976 33 330.496 33H324.756ZM327.616 30.88H330.236C330.809 30.88 331.236 30.7867 331.516 30.6C331.809 30.4 331.956 30.1 331.956 29.7C331.956 29.2867 331.823 28.9867 331.556 28.8C331.289 28.6 330.869 28.5 330.296 28.5H327.616V30.88ZM327.616 26.66H329.976C330.523 26.66 330.929 26.56 331.196 26.36C331.476 26.16 331.616 25.8733 331.616 25.5C331.616 25.1133 331.476 24.8267 331.196 24.64C330.929 24.4533 330.523 24.36 329.976 24.36H327.616V26.66Z" fill="white"/>
<path d="M106.296 86.48C104.312 86.48 102.552 86.144 101.016 85.472C99.5121 84.768 98.3281 83.76 97.4641 82.448C96.6321 81.104 96.2161 79.472 96.2161 77.552V74.912H103.56V77.264C103.56 78.384 103.88 79.232 104.52 79.808C105.16 80.352 105.928 80.624 106.824 80.624C107.752 80.624 108.536 80.336 109.176 79.76C109.816 79.184 110.136 78.352 110.136 77.264V53.072H117.96V77.552C117.96 79.504 117.496 81.152 116.568 82.496C115.672 83.808 114.424 84.8 112.824 85.472C111.256 86.144 109.464 86.48 107.448 86.48H106.296ZM135.701 86.48C133.941 86.48 132.261 86.288 130.661 85.904C129.093 85.488 127.685 84.88 126.437 84.08C125.189 83.248 124.197 82.192 123.461 80.912C122.757 79.6 122.405 78.032 122.405 76.208C122.405 76.048 122.405 75.888 122.405 75.728C122.405 75.536 122.421 75.344 122.453 75.152H129.845C129.813 75.28 129.797 75.408 129.797 75.536C129.797 75.632 129.797 75.76 129.797 75.92C129.797 76.784 130.005 77.552 130.421 78.224C130.837 78.864 131.477 79.36 132.341 79.712C133.237 80.064 134.341 80.24 135.653 80.24C136.965 80.24 138.021 80.128 138.821 79.904C139.621 79.648 140.197 79.264 140.549 78.752C140.933 78.208 141.125 77.552 141.125 76.784C141.125 75.92 140.789 75.232 140.117 74.72C139.477 74.208 138.629 73.792 137.573 73.472C136.517 73.12 135.349 72.8 134.069 72.512C132.789 72.224 131.509 71.872 130.229 71.456C128.949 71.008 127.765 70.432 126.677 69.728C125.621 68.992 124.757 68.032 124.085 66.848C123.445 65.664 123.125 64.176 123.125 62.384C123.125 60.176 123.717 58.352 124.901 56.912C126.085 55.472 127.653 54.4 129.605 53.696C131.589 52.96 133.749 52.592 136.085 52.592C138.389 52.592 140.485 52.928 142.373 53.6C144.261 54.272 145.765 55.328 146.885 56.768C148.037 58.176 148.613 60 148.613 62.24V62.864H141.269V62.432C141.269 61.632 141.077 60.944 140.693 60.368C140.309 59.76 139.733 59.296 138.965 58.976C138.197 58.656 137.237 58.496 136.085 58.496C135.093 58.496 134.229 58.608 133.493 58.832C132.757 59.056 132.181 59.392 131.765 59.84C131.381 60.288 131.189 60.864 131.189 61.568C131.189 62.464 131.509 63.168 132.149 63.68C132.821 64.192 133.685 64.608 134.741 64.928C135.797 65.216 136.965 65.504 138.245 65.792C139.557 66.08 140.853 66.432 142.133 66.848C143.413 67.232 144.581 67.776 145.637 68.48C146.725 69.184 147.605 70.112 148.277 71.264C148.949 72.384 149.301 73.808 149.333 75.536C149.333 78.16 148.741 80.272 147.557 81.872C146.405 83.472 144.805 84.64 142.757 85.376C140.709 86.112 138.357 86.48 135.701 86.48Z" fill="#F7DF1E"/>
<path d="M152.211 86V62.96H157.235V76.912L162.835 69.648H168.627L162.579 77.136L168.819 86H162.867L158.995 80.592L157.235 82.224V86H152.211ZM171.59 86V69.648H175.686L176.07 71.504C176.582 70.7573 177.243 70.2133 178.054 69.872C178.865 69.5093 179.814 69.328 180.902 69.328C182.651 69.328 184.027 69.808 185.03 70.768C186.054 71.728 186.566 73.072 186.566 74.8V86H181.542V75.856C181.542 74.896 181.329 74.1813 180.902 73.712C180.475 73.2213 179.889 72.976 179.142 72.976C178.63 72.976 178.182 73.104 177.798 73.36C177.414 73.616 177.115 73.968 176.902 74.416C176.71 74.8427 176.614 75.344 176.614 75.92V86H171.59ZM198.202 86.32C196.474 86.32 194.991 85.968 193.754 85.264C192.516 84.56 191.556 83.5893 190.874 82.352C190.212 81.1147 189.882 79.7067 189.882 78.128V77.52C189.882 75.8987 190.212 74.4693 190.874 73.232C191.556 71.9947 192.516 71.0347 193.754 70.352C194.991 69.6693 196.463 69.328 198.17 69.328C199.919 69.328 201.412 69.68 202.65 70.384C203.908 71.0667 204.868 72.0267 205.53 73.264C206.191 74.48 206.522 75.8987 206.522 77.52V78.128C206.522 79.7493 206.18 81.1787 205.498 82.416C204.836 83.6533 203.887 84.6133 202.65 85.296C201.412 85.9787 199.93 86.32 198.202 86.32ZM198.202 83.12C199.055 83.12 199.759 82.8 200.314 82.16C200.89 81.52 201.178 80.688 201.178 79.664V75.984C201.178 74.9387 200.89 74.1067 200.314 73.488C199.759 72.848 199.055 72.528 198.202 72.528C197.37 72.528 196.666 72.848 196.09 73.488C195.514 74.1067 195.226 74.9387 195.226 75.984V79.664C195.226 80.688 195.514 81.52 196.09 82.16C196.666 82.8 197.37 83.12 198.202 83.12ZM210.669 86L207.789 69.648H211.693L213.517 79.792H213.645L215.437 69.648H219.501L221.197 79.792H221.325L223.117 69.648H226.989L224.141 86H219.181L217.549 76.176H217.421L215.693 86H210.669ZM236.673 86.32C234.774 86.32 233.206 86 231.969 85.36C230.753 84.6987 229.846 83.76 229.249 82.544C228.673 81.328 228.385 79.8987 228.385 78.256V77.392C228.385 75.6853 228.726 74.2347 229.409 73.04C230.113 71.824 231.094 70.9067 232.353 70.288C233.633 69.648 235.137 69.328 236.865 69.328C238.465 69.328 239.841 69.6267 240.993 70.224C242.166 70.8 243.062 71.6213 243.681 72.688C244.321 73.7333 244.641 74.992 244.641 76.464V78.768H233.729V79.632C233.729 80.8053 234.017 81.68 234.593 82.256C235.169 82.832 235.926 83.12 236.865 83.12C237.91 83.12 238.689 82.8747 239.201 82.384C239.713 81.872 239.969 81.0933 239.969 80.048H244.641C244.641 81.3707 244.31 82.5013 243.649 83.44C243.009 84.3787 242.091 85.0933 240.897 85.584C239.723 86.0747 238.315 86.32 236.673 86.32ZM233.729 75.984H239.713V75.568C239.713 74.9707 239.585 74.448 239.329 74C239.073 73.5307 238.721 73.168 238.273 72.912C237.846 72.656 237.345 72.528 236.769 72.528C236.15 72.528 235.617 72.6773 235.169 72.976C234.721 73.2533 234.369 73.6373 234.113 74.128C233.857 74.6187 233.729 75.152 233.729 75.728V75.984ZM251.092 86V73.328H247.7V69.648H255.188L255.412 71.728C255.753 71.0453 256.297 70.48 257.044 70.032C257.791 69.5627 258.719 69.328 259.828 69.328C261.3 69.328 262.441 69.7547 263.252 70.608C264.084 71.4613 264.5 72.592 264.5 74C264.5 74.3413 264.489 74.6827 264.468 75.024C264.468 75.344 264.436 75.6853 264.372 76.048H260.212V75.184C260.212 74.8 260.127 74.448 259.956 74.128C259.807 73.7867 259.572 73.52 259.252 73.328C258.953 73.136 258.58 73.04 258.132 73.04C257.684 73.04 257.3 73.1573 256.98 73.392C256.66 73.6267 256.415 73.936 256.244 74.32C256.073 74.6827 255.988 75.088 255.988 75.536V86H251.092ZM247.636 86V82.384H262.164V86H247.636Z" fill="white"/>
<path d="M276.592 86.4C274.485 86.4 272.685 86.0533 271.192 85.36C269.698 84.6667 268.552 83.72 267.752 82.52C266.952 81.32 266.552 79.9867 266.552 78.52V77.76H272.232C272.232 79.2 272.658 80.2 273.512 80.76C274.392 81.2933 275.512 81.56 276.872 81.56C278.285 81.56 279.418 81.2667 280.272 80.68C281.125 80.0667 281.552 79.08 281.552 77.72C281.552 76.8667 281.365 76.1733 280.992 75.64C280.645 75.08 280.165 74.6667 279.552 74.4C278.965 74.1333 278.298 74 277.552 74H273.712V69.92H277.032C277.752 69.92 278.405 69.7867 278.992 69.52C279.578 69.2533 280.045 68.8533 280.392 68.32C280.738 67.7867 280.912 67.12 280.912 66.32C280.912 65.6 280.738 65 280.392 64.52C280.045 64.0133 279.552 63.64 278.912 63.4C278.298 63.1333 277.605 63 276.832 63C275.552 63 274.552 63.3067 273.832 63.92C273.112 64.5333 272.752 65.3867 272.752 66.48H267.352V65.6C267.352 64.16 267.752 62.88 268.552 61.76C269.378 60.64 270.512 59.76 271.952 59.12C273.392 58.48 275.045 58.16 276.912 58.16H277.832C279.645 58.16 281.245 58.48 282.632 59.12C284.045 59.76 285.152 60.64 285.952 61.76C286.752 62.88 287.152 64.1467 287.152 65.56C287.152 66.52 286.978 67.3867 286.632 68.16C286.285 68.9333 285.805 69.6 285.192 70.16C284.605 70.72 283.925 71.1867 283.152 71.56V71.84C284.565 72.32 285.698 73.12 286.552 74.24C287.432 75.36 287.872 76.7867 287.872 78.52C287.872 80.0133 287.472 81.36 286.672 82.56C285.872 83.7333 284.712 84.6667 283.192 85.36C281.698 86.0533 279.912 86.4 277.832 86.4H276.592Z" fill="#5B0F0F"/>
<path d="M90.5481 168.28V163.32H88.1481L88.1181 164.34C88.0981 164.773 88.0681 165.183 88.0281 165.57C87.9948 165.957 87.9414 166.31 87.8681 166.63C87.7948 166.943 87.6981 167.21 87.5781 167.43C87.4648 167.65 87.3214 167.807 87.1481 167.9L85.4181 167.68C85.6581 167.687 85.8548 167.603 86.0081 167.43C86.1681 167.257 86.2948 167.013 86.3881 166.7C86.4814 166.38 86.5481 166.007 86.5881 165.58C86.6348 165.153 86.6681 164.69 86.6881 164.19L86.7681 162H92.1481V168.28H90.5481ZM85.1881 170.45L85.1981 167.68H93.1281V170.45H91.6281V169H86.6881V170.45H85.1881ZM97.3186 169V167.95L97.2186 167.72V165.84C97.2186 165.507 97.1153 165.247 96.9086 165.06C96.7086 164.873 96.3986 164.78 95.9786 164.78C95.692 164.78 95.4086 164.827 95.1286 164.92C94.8553 165.007 94.622 165.127 94.4286 165.28L93.8686 164.19C94.162 163.983 94.5153 163.823 94.9286 163.71C95.342 163.597 95.762 163.54 96.1886 163.54C97.0086 163.54 97.6453 163.733 98.0986 164.12C98.552 164.507 98.7786 165.11 98.7786 165.93V169H97.3186ZM95.6786 169.08C95.2586 169.08 94.8986 169.01 94.5986 168.87C94.2986 168.723 94.0686 168.527 93.9086 168.28C93.7486 168.033 93.6686 167.757 93.6686 167.45C93.6686 167.13 93.7453 166.85 93.8986 166.61C94.0586 166.37 94.3086 166.183 94.6486 166.05C94.9886 165.91 95.432 165.84 95.9786 165.84H97.4086V166.75H96.1486C95.782 166.75 95.5286 166.81 95.3886 166.93C95.2553 167.05 95.1886 167.2 95.1886 167.38C95.1886 167.58 95.2653 167.74 95.4186 167.86C95.5786 167.973 95.7953 168.03 96.0686 168.03C96.3286 168.03 96.562 167.97 96.7686 167.85C96.9753 167.723 97.1253 167.54 97.2186 167.3L97.4586 168.02C97.3453 168.367 97.1386 168.63 96.8386 168.81C96.5386 168.99 96.152 169.08 95.6786 169.08ZM101.284 169V164.54L101.634 164.9H99.4638V163.62H104.654V164.9H102.484L102.834 164.54V169H101.284ZM108.705 169V167.95L108.605 167.72V165.84C108.605 165.507 108.502 165.247 108.295 165.06C108.095 164.873 107.785 164.78 107.365 164.78C107.079 164.78 106.795 164.827 106.515 164.92C106.242 165.007 106.009 165.127 105.815 165.28L105.255 164.19C105.549 163.983 105.902 163.823 106.315 163.71C106.729 163.597 107.149 163.54 107.575 163.54C108.395 163.54 109.032 163.733 109.485 164.12C109.939 164.507 110.165 165.11 110.165 165.93V169H108.705ZM107.065 169.08C106.645 169.08 106.285 169.01 105.985 168.87C105.685 168.723 105.455 168.527 105.295 168.28C105.135 168.033 105.055 167.757 105.055 167.45C105.055 167.13 105.132 166.85 105.285 166.61C105.445 166.37 105.695 166.183 106.035 166.05C106.375 165.91 106.819 165.84 107.365 165.84H108.795V166.75H107.535C107.169 166.75 106.915 166.81 106.775 166.93C106.642 167.05 106.575 167.2 106.575 167.38C106.575 167.58 106.652 167.74 106.805 167.86C106.965 167.973 107.182 168.03 107.455 168.03C107.715 168.03 107.949 167.97 108.155 167.85C108.362 167.723 108.512 167.54 108.605 167.3L108.845 168.02C108.732 168.367 108.525 168.63 108.225 168.81C107.925 168.99 107.539 169.08 107.065 169.08ZM114.353 169V163.62H119.703V169H118.143V164.55L118.493 164.9H115.553L115.903 164.55V169H114.353ZM121.928 171.02C121.648 171.02 121.372 170.977 121.098 170.89C120.825 170.803 120.602 170.683 120.428 170.53L120.998 169.42C121.118 169.527 121.255 169.61 121.408 169.67C121.568 169.73 121.725 169.76 121.878 169.76C122.098 169.76 122.272 169.707 122.398 169.6C122.532 169.5 122.652 169.33 122.758 169.09L123.038 168.43L123.158 168.26L125.088 163.62H126.588L124.158 169.33C123.985 169.763 123.785 170.103 123.558 170.35C123.338 170.597 123.092 170.77 122.818 170.87C122.552 170.97 122.255 171.02 121.928 171.02ZM122.848 169.21L120.448 163.62H122.058L123.918 168.12L122.848 169.21ZM129.982 169.12C129.542 169.12 129.142 169.057 128.782 168.93C128.422 168.797 128.108 168.593 127.842 168.32C127.582 168.04 127.378 167.683 127.232 167.25C127.092 166.817 127.022 166.3 127.022 165.7C127.022 165.273 127.058 164.883 127.132 164.53C127.205 164.177 127.315 163.857 127.462 163.57C127.608 163.277 127.795 163.02 128.022 162.8C128.255 162.573 128.525 162.387 128.832 162.24C129.145 162.087 129.498 161.97 129.892 161.89L132.452 161.38L132.662 162.72L130.402 163.17C130.268 163.197 130.115 163.233 129.942 163.28C129.775 163.32 129.605 163.383 129.432 163.47C129.265 163.557 129.108 163.68 128.962 163.84C128.822 163.993 128.708 164.197 128.622 164.45C128.535 164.697 128.492 165.003 128.492 165.37C128.492 165.483 128.495 165.57 128.502 165.63C128.515 165.69 128.525 165.753 128.532 165.82C128.545 165.887 128.552 165.99 128.552 166.13L128.052 165.64C128.198 165.327 128.385 165.06 128.612 164.84C128.845 164.62 129.112 164.453 129.412 164.34C129.718 164.22 130.058 164.16 130.432 164.16C130.938 164.16 131.382 164.263 131.762 164.47C132.148 164.67 132.448 164.953 132.662 165.32C132.875 165.687 132.982 166.103 132.982 166.57C132.982 167.077 132.855 167.523 132.602 167.91C132.348 168.29 131.995 168.587 131.542 168.8C131.095 169.013 130.575 169.12 129.982 169.12ZM130.062 167.91C130.322 167.91 130.552 167.853 130.752 167.74C130.952 167.62 131.105 167.463 131.212 167.27C131.325 167.07 131.382 166.847 131.382 166.6C131.382 166.36 131.325 166.147 131.212 165.96C131.105 165.773 130.952 165.627 130.752 165.52C130.552 165.413 130.318 165.36 130.052 165.36C129.792 165.36 129.558 165.413 129.352 165.52C129.145 165.62 128.985 165.76 128.872 165.94C128.758 166.12 128.702 166.33 128.702 166.57C128.702 166.817 128.758 167.043 128.872 167.25C128.992 167.45 129.152 167.61 129.352 167.73C129.558 167.85 129.795 167.91 130.062 167.91ZM133.282 168.99L133.362 167.71C133.402 167.717 133.442 167.723 133.482 167.73C133.522 167.73 133.559 167.73 133.592 167.73C133.779 167.73 133.925 167.677 134.032 167.57C134.139 167.463 134.219 167.32 134.272 167.14C134.325 166.953 134.362 166.743 134.382 166.51C134.409 166.277 134.429 166.033 134.442 165.78L134.522 163.62H139.122V169H137.562V164.52L137.912 164.9H135.552L135.882 164.5L135.812 165.85C135.792 166.33 135.752 166.77 135.692 167.17C135.639 167.57 135.549 167.917 135.422 168.21C135.295 168.497 135.125 168.72 134.912 168.88C134.699 169.033 134.425 169.11 134.092 169.11C133.972 169.11 133.845 169.1 133.712 169.08C133.579 169.06 133.435 169.03 133.282 168.99ZM140.622 169V163.62H142.172V166.82L144.792 163.62H146.222V169H144.672V165.8L142.062 169H140.622ZM151.532 169L149.732 166.45L151.002 165.7L153.372 169H151.532ZM147.722 169V163.62H149.282V169H147.722ZM148.822 166.96V165.71H150.702V166.96H148.822ZM151.152 166.49L149.692 166.33L151.582 163.62H153.242L151.152 166.49ZM157.26 169V167.95L157.16 167.72V165.84C157.16 165.507 157.057 165.247 156.85 165.06C156.65 164.873 156.34 164.78 155.92 164.78C155.633 164.78 155.35 164.827 155.07 164.92C154.797 165.007 154.563 165.127 154.37 165.28L153.81 164.19C154.103 163.983 154.457 163.823 154.87 163.71C155.283 163.597 155.703 163.54 156.13 163.54C156.95 163.54 157.587 163.733 158.04 164.12C158.493 164.507 158.72 165.11 158.72 165.93V169H157.26ZM155.62 169.08C155.2 169.08 154.84 169.01 154.54 168.87C154.24 168.723 154.01 168.527 153.85 168.28C153.69 168.033 153.61 167.757 153.61 167.45C153.61 167.13 153.687 166.85 153.84 166.61C154 166.37 154.25 166.183 154.59 166.05C154.93 165.91 155.373 165.84 155.92 165.84H157.35V166.75H156.09C155.723 166.75 155.47 166.81 155.33 166.93C155.197 167.05 155.13 167.2 155.13 167.38C155.13 167.58 155.207 167.74 155.36 167.86C155.52 167.973 155.737 168.03 156.01 168.03C156.27 168.03 156.503 167.97 156.71 167.85C156.917 167.723 157.067 167.54 157.16 167.3L157.4 168.02C157.287 168.367 157.08 168.63 156.78 168.81C156.48 168.99 156.093 169.08 155.62 169.08ZM160.075 169V163.62H161.625V167.72H163.795V163.62H165.355V169H160.075ZM164.685 170.16V168.98L165.045 169H163.795V167.72H166.135V170.16H164.685ZM167.116 169V163.62H168.666V166.82L171.286 163.62H172.716V169H171.166V165.8L168.556 169H167.116ZM174.216 169V163.62H175.766V166.82L178.386 163.62H179.816V169H178.266V165.8L175.656 169H174.216ZM181.875 165.49C181.609 165.49 181.379 165.4 181.185 165.22C180.999 165.033 180.905 164.797 180.905 164.51C180.905 164.223 180.999 163.993 181.185 163.82C181.379 163.64 181.609 163.55 181.875 163.55C182.149 163.55 182.379 163.64 182.565 163.82C182.752 163.993 182.845 164.223 182.845 164.51C182.845 164.797 182.752 165.033 182.565 165.22C182.379 165.4 182.149 165.49 181.875 165.49ZM181.875 169.08C181.609 169.08 181.379 168.99 181.185 168.81C180.999 168.623 180.905 168.387 180.905 168.1C180.905 167.813 180.999 167.583 181.185 167.41C181.379 167.23 181.609 167.14 181.875 167.14C182.149 167.14 182.379 167.23 182.565 167.41C182.752 167.583 182.845 167.813 182.845 168.1C182.845 168.387 182.752 168.623 182.565 168.81C182.379 168.99 182.149 169.08 181.875 169.08ZM186.238 169V168.32L189.088 165.57C189.341 165.33 189.528 165.12 189.648 164.94C189.775 164.753 189.858 164.583 189.898 164.43C189.945 164.27 189.968 164.117 189.968 163.97C189.968 163.61 189.841 163.327 189.588 163.12C189.335 162.913 188.965 162.81 188.478 162.81C188.105 162.81 187.768 162.873 187.468 163C187.168 163.12 186.908 163.31 186.688 163.57L186.008 162.98C186.275 162.64 186.631 162.38 187.078 162.2C187.531 162.013 188.028 161.92 188.568 161.92C189.055 161.92 189.478 162 189.838 162.16C190.198 162.313 190.475 162.537 190.668 162.83C190.868 163.123 190.968 163.47 190.968 163.87C190.968 164.097 190.938 164.32 190.878 164.54C190.818 164.76 190.705 164.993 190.538 165.24C190.371 165.487 190.131 165.763 189.818 166.07L187.278 168.52L187.038 168.13H191.268V169H186.238ZM194.35 169.08C193.857 169.08 193.377 169.003 192.91 168.85C192.45 168.697 192.074 168.49 191.78 168.23L192.24 167.44C192.474 167.66 192.777 167.84 193.15 167.98C193.524 168.12 193.92 168.19 194.34 168.19C194.874 168.19 195.284 168.077 195.57 167.85C195.857 167.623 196 167.32 196 166.94C196 166.68 195.937 166.453 195.81 166.26C195.684 166.067 195.464 165.92 195.15 165.82C194.844 165.713 194.42 165.66 193.88 165.66H192.29L192.66 162H196.61V162.87H193.03L193.55 162.38L193.26 165.27L192.74 164.79H194.09C194.79 164.79 195.354 164.88 195.78 165.06C196.207 165.24 196.517 165.49 196.71 165.81C196.904 166.123 197 166.487 197 166.9C197 167.3 196.904 167.667 196.71 168C196.517 168.327 196.224 168.59 195.83 168.79C195.444 168.983 194.95 169.08 194.35 169.08ZM204.588 168.55V164.54H202.288L202.238 165.56C202.225 165.893 202.201 166.217 202.168 166.53C202.141 166.837 202.095 167.12 202.028 167.38C201.968 167.64 201.878 167.853 201.758 168.02C201.638 168.187 201.478 168.29 201.278 168.33L200.328 168.16C200.535 168.167 200.701 168.1 200.828 167.96C200.955 167.813 201.051 167.613 201.118 167.36C201.191 167.107 201.245 166.82 201.278 166.5C201.311 166.173 201.338 165.837 201.358 165.49L201.438 163.7H205.548V168.55H204.588ZM200.118 170.23V168.16H206.358V170.23H205.458V169H201.028V170.23H200.118ZM209.969 169.06C209.402 169.06 208.902 168.943 208.469 168.71C208.042 168.477 207.709 168.157 207.469 167.75C207.235 167.343 207.119 166.877 207.119 166.35C207.119 165.823 207.232 165.357 207.459 164.95C207.692 164.543 208.009 164.227 208.409 164C208.815 163.767 209.272 163.65 209.779 163.65C210.292 163.65 210.745 163.763 211.139 163.99C211.532 164.217 211.839 164.537 212.059 164.95C212.285 165.357 212.399 165.833 212.399 166.38C212.399 166.42 212.395 166.467 212.389 166.52C212.389 166.573 212.385 166.623 212.379 166.67H207.869V165.98H211.879L211.489 166.22C211.495 165.88 211.425 165.577 211.279 165.31C211.132 165.043 210.929 164.837 210.669 164.69C210.415 164.537 210.119 164.46 209.779 164.46C209.445 164.46 209.149 164.537 208.889 164.69C208.629 164.837 208.425 165.047 208.279 165.32C208.132 165.587 208.059 165.893 208.059 166.24V166.4C208.059 166.753 208.139 167.07 208.299 167.35C208.465 167.623 208.695 167.837 208.989 167.99C209.282 168.143 209.619 168.22 209.999 168.22C210.312 168.22 210.595 168.167 210.849 168.06C211.109 167.953 211.335 167.793 211.529 167.58L212.059 168.2C211.819 168.48 211.519 168.693 211.159 168.84C210.805 168.987 210.409 169.06 209.969 169.06ZM217.728 169L215.678 166.42L216.468 165.94L218.858 169H217.728ZM213.888 169V163.7H214.848V169H213.888ZM214.558 166.76V165.94H216.308V166.76H214.558ZM216.548 166.46L215.658 166.34L217.688 163.7H218.718L216.548 166.46ZM223.017 169V167.88L222.967 167.67V165.76C222.967 165.353 222.847 165.04 222.607 164.82C222.374 164.593 222.02 164.48 221.547 164.48C221.234 164.48 220.927 164.533 220.627 164.64C220.327 164.74 220.074 164.877 219.867 165.05L219.467 164.33C219.74 164.11 220.067 163.943 220.447 163.83C220.834 163.71 221.237 163.65 221.657 163.65C222.384 163.65 222.944 163.827 223.337 164.18C223.73 164.533 223.927 165.073 223.927 165.8V169H223.017ZM221.277 169.06C220.884 169.06 220.537 168.993 220.237 168.86C219.944 168.727 219.717 168.543 219.557 168.31C219.397 168.07 219.317 167.8 219.317 167.5C219.317 167.213 219.384 166.953 219.517 166.72C219.657 166.487 219.88 166.3 220.187 166.16C220.5 166.02 220.92 165.95 221.447 165.95H223.127V166.64H221.487C221.007 166.64 220.684 166.72 220.517 166.88C220.35 167.04 220.267 167.233 220.267 167.46C220.267 167.72 220.37 167.93 220.577 168.09C220.784 168.243 221.07 168.32 221.437 168.32C221.797 168.32 222.11 168.24 222.377 168.08C222.65 167.92 222.847 167.687 222.967 167.38L223.157 168.04C223.03 168.353 222.807 168.603 222.487 168.79C222.167 168.97 221.764 169.06 221.277 169.06ZM228.106 169.08C227.666 169.08 227.276 169.01 226.936 168.87C226.602 168.73 226.316 168.523 226.076 168.25C225.836 167.97 225.652 167.62 225.526 167.2C225.406 166.773 225.346 166.273 225.346 165.7C225.346 165.247 225.386 164.84 225.466 164.48C225.546 164.12 225.659 163.8 225.806 163.52C225.959 163.24 226.146 162.997 226.366 162.79C226.592 162.583 226.846 162.413 227.126 162.28C227.412 162.14 227.726 162.033 228.066 161.96L230.486 161.42L230.626 162.31L228.396 162.79C228.262 162.817 228.102 162.857 227.916 162.91C227.729 162.963 227.539 163.047 227.346 163.16C227.152 163.267 226.972 163.417 226.806 163.61C226.639 163.803 226.506 164.057 226.406 164.37C226.306 164.677 226.256 165.057 226.256 165.51C226.256 165.637 226.259 165.733 226.266 165.8C226.272 165.867 226.279 165.933 226.286 166C226.299 166.067 226.309 166.167 226.316 166.3L225.916 165.89C226.022 165.523 226.192 165.203 226.426 164.93C226.659 164.657 226.939 164.447 227.266 164.3C227.599 164.147 227.962 164.07 228.356 164.07C228.849 164.07 229.286 164.177 229.666 164.39C230.052 164.603 230.356 164.897 230.576 165.27C230.796 165.643 230.906 166.07 230.906 166.55C230.906 167.037 230.789 167.473 230.556 167.86C230.329 168.24 230.006 168.54 229.586 168.76C229.166 168.973 228.672 169.08 228.106 169.08ZM228.196 168.28C228.536 168.28 228.836 168.207 229.096 168.06C229.356 167.907 229.559 167.703 229.706 167.45C229.852 167.19 229.926 166.9 229.926 166.58C229.926 166.26 229.852 165.977 229.706 165.73C229.559 165.483 229.356 165.29 229.096 165.15C228.836 165.003 228.529 164.93 228.176 164.93C227.842 164.93 227.542 165 227.276 165.14C227.009 165.273 226.802 165.463 226.656 165.71C226.509 165.95 226.436 166.23 226.436 166.55C226.436 166.87 226.509 167.163 226.656 167.43C226.809 167.69 227.016 167.897 227.276 168.05C227.542 168.203 227.849 168.28 228.196 168.28ZM235.087 169.06C234.647 169.06 234.243 168.96 233.877 168.76C233.517 168.553 233.227 168.25 233.007 167.85C232.793 167.45 232.687 166.95 232.687 166.35C232.687 165.75 232.79 165.25 232.997 164.85C233.21 164.45 233.497 164.15 233.857 163.95C234.223 163.75 234.633 163.65 235.087 163.65C235.607 163.65 236.067 163.763 236.467 163.99C236.867 164.217 237.183 164.533 237.417 164.94C237.65 165.34 237.767 165.81 237.767 166.35C237.767 166.89 237.65 167.363 237.417 167.77C237.183 168.177 236.867 168.493 236.467 168.72C236.067 168.947 235.607 169.06 235.087 169.06ZM232.277 170.94V163.7H233.197V165.13L233.137 166.36L233.237 167.59V170.94H232.277ZM235.007 168.22C235.347 168.22 235.65 168.143 235.917 167.99C236.19 167.837 236.403 167.62 236.557 167.34C236.717 167.053 236.797 166.723 236.797 166.35C236.797 165.97 236.717 165.643 236.557 165.37C236.403 165.09 236.19 164.873 235.917 164.72C235.65 164.567 235.347 164.49 235.007 164.49C234.673 164.49 234.37 164.567 234.097 164.72C233.83 164.873 233.617 165.09 233.457 165.37C233.303 165.643 233.227 165.97 233.227 166.35C233.227 166.723 233.303 167.053 233.457 167.34C233.617 167.62 233.83 167.837 234.097 167.99C234.37 168.143 234.673 168.22 235.007 168.22ZM242.376 169V167.14L242.526 167.32H240.836C240.129 167.32 239.576 167.17 239.176 166.87C238.782 166.57 238.586 166.133 238.586 165.56C238.586 164.947 238.796 164.483 239.216 164.17C239.642 163.857 240.209 163.7 240.916 163.7H243.236V169H242.376ZM238.536 169L239.976 166.97H240.966L239.566 169H238.536ZM242.376 166.84V164.27L242.526 164.54H240.946C240.506 164.54 240.166 164.623 239.926 164.79C239.686 164.95 239.566 165.217 239.566 165.59C239.566 166.283 240.012 166.63 240.906 166.63H242.526L242.376 166.84ZM247.234 169V168.32L250.084 165.57C250.338 165.33 250.524 165.12 250.644 164.94C250.771 164.753 250.854 164.583 250.894 164.43C250.941 164.27 250.964 164.117 250.964 163.97C250.964 163.61 250.838 163.327 250.584 163.12C250.331 162.913 249.961 162.81 249.474 162.81C249.101 162.81 248.764 162.873 248.464 163C248.164 163.12 247.904 163.31 247.684 163.57L247.004 162.98C247.271 162.64 247.628 162.38 248.074 162.2C248.528 162.013 249.024 161.92 249.564 161.92C250.051 161.92 250.474 162 250.834 162.16C251.194 162.313 251.471 162.537 251.664 162.83C251.864 163.123 251.964 163.47 251.964 163.87C251.964 164.097 251.934 164.32 251.874 164.54C251.814 164.76 251.701 164.993 251.534 165.24C251.368 165.487 251.128 165.763 250.814 166.07L248.274 168.52L248.034 168.13H252.264V169H247.234ZM255.937 169.08C255.39 169.08 254.9 168.94 254.467 168.66C254.04 168.38 253.7 167.973 253.447 167.44C253.2 166.907 253.077 166.26 253.077 165.5C253.077 164.74 253.2 164.093 253.447 163.56C253.7 163.027 254.04 162.62 254.467 162.34C254.9 162.06 255.39 161.92 255.937 161.92C256.477 161.92 256.963 162.06 257.397 162.34C257.83 162.62 258.17 163.027 258.417 163.56C258.663 164.093 258.787 164.74 258.787 165.5C258.787 166.26 258.663 166.907 258.417 167.44C258.17 167.973 257.83 168.38 257.397 168.66C256.963 168.94 256.477 169.08 255.937 169.08ZM255.937 168.19C256.303 168.19 256.623 168.09 256.897 167.89C257.177 167.69 257.393 167.39 257.547 166.99C257.707 166.59 257.787 166.093 257.787 165.5C257.787 164.907 257.707 164.41 257.547 164.01C257.393 163.61 257.177 163.31 256.897 163.11C256.623 162.91 256.303 162.81 255.937 162.81C255.57 162.81 255.247 162.91 254.967 163.11C254.687 163.31 254.467 163.61 254.307 164.01C254.153 164.41 254.077 164.907 254.077 165.5C254.077 166.093 254.153 166.59 254.307 166.99C254.467 167.39 254.687 167.69 254.967 167.89C255.247 168.09 255.57 168.19 255.937 168.19ZM259.637 169V168.32L262.487 165.57C262.74 165.33 262.927 165.12 263.047 164.94C263.173 164.753 263.257 164.583 263.297 164.43C263.343 164.27 263.367 164.117 263.367 163.97C263.367 163.61 263.24 163.327 262.987 163.12C262.733 162.913 262.363 162.81 261.877 162.81C261.503 162.81 261.167 162.873 260.867 163C260.567 163.12 260.307 163.31 260.087 163.57L259.407 162.98C259.673 162.64 260.03 162.38 260.477 162.2C260.93 162.013 261.427 161.92 261.967 161.92C262.453 161.92 262.877 162 263.237 162.16C263.597 162.313 263.873 162.537 264.067 162.83C264.267 163.123 264.367 163.47 264.367 163.87C264.367 164.097 264.337 164.32 264.277 164.54C264.217 164.76 264.103 164.993 263.937 165.24C263.77 165.487 263.53 165.763 263.217 166.07L260.677 168.52L260.437 168.13H264.667V169H259.637ZM267.629 169.08C267.135 169.08 266.655 169.003 266.189 168.85C265.729 168.697 265.352 168.49 265.059 168.23L265.519 167.44C265.752 167.66 266.055 167.84 266.429 167.98C266.802 168.12 267.202 168.19 267.629 168.19C268.149 168.19 268.552 168.08 268.839 167.86C269.132 167.633 269.279 167.33 269.279 166.95C269.279 166.583 269.139 166.29 268.859 166.07C268.585 165.843 268.149 165.73 267.549 165.73H266.989V165.03L269.069 162.47L269.209 162.87H265.379V162H269.999V162.68L267.929 165.23L267.409 164.92H267.739C268.585 164.92 269.219 165.11 269.639 165.49C270.065 165.87 270.279 166.353 270.279 166.94C270.279 167.333 270.182 167.693 269.989 168.02C269.795 168.347 269.502 168.607 269.109 168.8C268.722 168.987 268.229 169.08 267.629 169.08ZM274.347 169V163.7H278.247V164.54H275.077L275.307 164.32V169H274.347ZM281.265 169.06C280.732 169.06 280.259 168.943 279.845 168.71C279.432 168.477 279.105 168.157 278.865 167.75C278.625 167.337 278.505 166.87 278.505 166.35C278.505 165.823 278.625 165.357 278.865 164.95C279.105 164.543 279.432 164.227 279.845 164C280.259 163.767 280.732 163.65 281.265 163.65C281.792 163.65 282.262 163.767 282.675 164C283.095 164.227 283.422 164.543 283.655 164.95C283.895 165.35 284.015 165.817 284.015 166.35C284.015 166.877 283.895 167.343 283.655 167.75C283.422 168.157 283.095 168.477 282.675 168.71C282.262 168.943 281.792 169.06 281.265 169.06ZM281.265 168.22C281.605 168.22 281.909 168.143 282.175 167.99C282.449 167.837 282.662 167.62 282.815 167.34C282.969 167.053 283.045 166.723 283.045 166.35C283.045 165.97 282.969 165.643 282.815 165.37C282.662 165.09 282.449 164.873 282.175 164.72C281.909 164.567 281.605 164.49 281.265 164.49C280.925 164.49 280.622 164.567 280.355 164.72C280.089 164.873 279.875 165.09 279.715 165.37C279.555 165.643 279.475 165.97 279.475 166.35C279.475 166.723 279.555 167.053 279.715 167.34C279.875 167.62 280.089 167.837 280.355 167.99C280.622 168.143 280.925 168.22 281.265 168.22ZM288.983 168.55V164.54H286.683L286.633 165.56C286.619 165.893 286.596 166.217 286.563 166.53C286.536 166.837 286.489 167.12 286.423 167.38C286.363 167.64 286.273 167.853 286.153 168.02C286.033 168.187 285.873 168.29 285.673 168.33L284.723 168.16C284.929 168.167 285.096 168.1 285.223 167.96C285.349 167.813 285.446 167.613 285.513 167.36C285.586 167.107 285.639 166.82 285.673 166.5C285.706 166.173 285.733 165.837 285.753 165.49L285.833 163.7H289.943V168.55H288.983ZM284.513 170.23V168.16H290.753V170.23H289.853V169H285.423V170.23H284.513ZM295.253 169V167.88L295.203 167.67V165.76C295.203 165.353 295.083 165.04 294.843 164.82C294.61 164.593 294.257 164.48 293.783 164.48C293.47 164.48 293.163 164.533 292.863 164.64C292.563 164.74 292.31 164.877 292.103 165.05L291.703 164.33C291.977 164.11 292.303 163.943 292.683 163.83C293.07 163.71 293.473 163.65 293.893 163.65C294.62 163.65 295.18 163.827 295.573 164.18C295.967 164.533 296.163 165.073 296.163 165.8V169H295.253ZM293.513 169.06C293.12 169.06 292.773 168.993 292.473 168.86C292.18 168.727 291.953 168.543 291.793 168.31C291.633 168.07 291.553 167.8 291.553 167.5C291.553 167.213 291.62 166.953 291.753 166.72C291.893 166.487 292.117 166.3 292.423 166.16C292.737 166.02 293.157 165.95 293.683 165.95H295.363V166.64H293.723C293.243 166.64 292.92 166.72 292.753 166.88C292.587 167.04 292.503 167.233 292.503 167.46C292.503 167.72 292.607 167.93 292.813 168.09C293.02 168.243 293.307 168.32 293.673 168.32C294.033 168.32 294.347 168.24 294.613 168.08C294.887 167.92 295.083 167.687 295.203 167.38L295.393 168.04C295.267 168.353 295.043 168.603 294.723 168.79C294.403 168.97 294 169.06 293.513 169.06Z" fill="white"/>
<path d="M46.058 129V120.04L47.038 121.02H44.098V119.2H48.326V129H46.058ZM54.2284 129.168C53.4258 129.168 52.7071 128.972 52.0724 128.58C51.4378 128.179 50.9384 127.6 50.5744 126.844C50.2104 126.088 50.0284 125.173 50.0284 124.1C50.0284 123.027 50.2104 122.112 50.5744 121.356C50.9384 120.6 51.4378 120.026 52.0724 119.634C52.7071 119.233 53.4258 119.032 54.2284 119.032C55.0404 119.032 55.7591 119.233 56.3844 119.634C57.0191 120.026 57.5184 120.6 57.8824 121.356C58.2464 122.112 58.4284 123.027 58.4284 124.1C58.4284 125.173 58.2464 126.088 57.8824 126.844C57.5184 127.6 57.0191 128.179 56.3844 128.58C55.7591 128.972 55.0404 129.168 54.2284 129.168ZM54.2284 127.25C54.6111 127.25 54.9424 127.143 55.2224 126.928C55.5118 126.713 55.7358 126.373 55.8944 125.906C56.0624 125.439 56.1464 124.837 56.1464 124.1C56.1464 123.363 56.0624 122.761 55.8944 122.294C55.7358 121.827 55.5118 121.487 55.2224 121.272C54.9424 121.057 54.6111 120.95 54.2284 120.95C53.8551 120.95 53.5238 121.057 53.2344 121.272C52.9544 121.487 52.7304 121.827 52.5624 122.294C52.4038 122.761 52.3244 123.363 52.3244 124.1C52.3244 124.837 52.4038 125.439 52.5624 125.906C52.7304 126.373 52.9544 126.713 53.2344 126.928C53.5238 127.143 53.8551 127.25 54.2284 127.25ZM63.7304 129.168C62.9277 129.168 62.209 128.972 61.5744 128.58C60.9397 128.179 60.4404 127.6 60.0764 126.844C59.7124 126.088 59.5304 125.173 59.5304 124.1C59.5304 123.027 59.7124 122.112 60.0764 121.356C60.4404 120.6 60.9397 120.026 61.5744 119.634C62.209 119.233 62.9277 119.032 63.7304 119.032C64.5424 119.032 65.261 119.233 65.8864 119.634C66.521 120.026 67.0204 120.6 67.3844 121.356C67.7484 122.112 67.9304 123.027 67.9304 124.1C67.9304 125.173 67.7484 126.088 67.3844 126.844C67.0204 127.6 66.521 128.179 65.8864 128.58C65.261 128.972 64.5424 129.168 63.7304 129.168ZM63.7304 127.25C64.113 127.25 64.4444 127.143 64.7244 126.928C65.0137 126.713 65.2377 126.373 65.3964 125.906C65.5644 125.439 65.6484 124.837 65.6484 124.1C65.6484 123.363 65.5644 122.761 65.3964 122.294C65.2377 121.827 65.0137 121.487 64.7244 121.272C64.4444 121.057 64.113 120.95 63.7304 120.95C63.357 120.95 63.0257 121.057 62.7364 121.272C62.4564 121.487 62.2324 121.827 62.0644 122.294C61.9057 122.761 61.8264 123.363 61.8264 124.1C61.8264 124.837 61.9057 125.439 62.0644 125.906C62.2324 126.373 62.4564 126.713 62.7364 126.928C63.0257 127.143 63.357 127.25 63.7304 127.25ZM74.1312 131.8C73.7765 131.8 73.4312 131.739 73.0952 131.618C72.7592 131.506 72.4698 131.338 72.2272 131.114L72.8012 130.106C72.9878 130.283 73.1932 130.419 73.4172 130.512C73.6412 130.605 73.8792 130.652 74.1312 130.652C74.4578 130.652 74.7285 130.568 74.9432 130.4C75.1578 130.232 75.3585 129.933 75.5452 129.504L76.0072 128.482L76.1472 128.314L79.0592 121.58H80.3752L76.7772 129.742C76.5625 130.265 76.3198 130.675 76.0492 130.974C75.7878 131.273 75.4985 131.483 75.1812 131.604C74.8638 131.735 74.5138 131.8 74.1312 131.8ZM75.8952 129.238L72.5072 121.58H73.9072L76.7912 128.188L75.8952 129.238ZM85.6852 129.084C85.0692 129.084 84.5046 128.944 83.9912 128.664C83.4872 128.375 83.0812 127.95 82.7732 127.39C82.4746 126.83 82.3252 126.13 82.3252 125.29C82.3252 124.45 82.4699 123.75 82.7592 123.19C83.0579 122.63 83.4592 122.21 83.9632 121.93C84.4766 121.65 85.0506 121.51 85.6852 121.51C86.4132 121.51 87.0572 121.669 87.6172 121.986C88.1772 122.303 88.6206 122.747 88.9472 123.316C89.2739 123.876 89.4372 124.534 89.4372 125.29C89.4372 126.046 89.2739 126.709 88.9472 127.278C88.6206 127.847 88.1772 128.291 87.6172 128.608C87.0572 128.925 86.4132 129.084 85.6852 129.084ZM81.7512 131.716V121.58H83.0392V123.582L82.9552 125.304L83.0952 127.026V131.716H81.7512ZM85.5732 127.908C86.0492 127.908 86.4739 127.801 86.8472 127.586C87.2299 127.371 87.5286 127.068 87.7432 126.676C87.9672 126.275 88.0792 125.813 88.0792 125.29C88.0792 124.758 87.9672 124.301 87.7432 123.918C87.5286 123.526 87.2299 123.223 86.8472 123.008C86.4739 122.793 86.0492 122.686 85.5732 122.686C85.1066 122.686 84.6819 122.793 84.2992 123.008C83.9259 123.223 83.6272 123.526 83.4032 123.918C83.1886 124.301 83.0812 124.758 83.0812 125.29C83.0812 125.813 83.1886 126.275 83.4032 126.676C83.6272 127.068 83.9259 127.371 84.2992 127.586C84.6819 127.801 85.1066 127.908 85.5732 127.908ZM94.5679 129.084C93.8212 129.084 93.1586 128.921 92.5799 128.594C92.0012 128.267 91.5439 127.819 91.2079 127.25C90.8719 126.671 90.7039 126.018 90.7039 125.29C90.7039 124.553 90.8719 123.899 91.2079 123.33C91.5439 122.761 92.0012 122.317 92.5799 122C93.1586 121.673 93.8212 121.51 94.5679 121.51C95.3052 121.51 95.9632 121.673 96.5419 122C97.1299 122.317 97.5872 122.761 97.9139 123.33C98.2499 123.89 98.4179 124.543 98.4179 125.29C98.4179 126.027 98.2499 126.681 97.9139 127.25C97.5872 127.819 97.1299 128.267 96.5419 128.594C95.9632 128.921 95.3052 129.084 94.5679 129.084ZM94.5679 127.908C95.0439 127.908 95.4686 127.801 95.8419 127.586C96.2246 127.371 96.5232 127.068 96.7379 126.676C96.9526 126.275 97.0599 125.813 97.0599 125.29C97.0599 124.758 96.9526 124.301 96.7379 123.918C96.5232 123.526 96.2246 123.223 95.8419 123.008C95.4686 122.793 95.0439 122.686 94.5679 122.686C94.0919 122.686 93.6672 122.793 93.2939 123.008C92.9206 123.223 92.6219 123.526 92.3979 123.918C92.1739 124.301 92.0619 124.758 92.0619 125.29C92.0619 125.813 92.1739 126.275 92.3979 126.676C92.6219 127.068 92.9206 127.371 93.2939 127.586C93.6672 127.801 94.0919 127.908 94.5679 127.908ZM105.735 129L102.865 125.388L103.971 124.716L107.317 129H105.735ZM100.359 129V121.58H101.703V129H100.359ZM101.297 125.864V124.716H103.747V125.864H101.297ZM104.083 125.444L102.837 125.276L105.679 121.58H107.121L104.083 125.444ZM111.658 129.084C110.911 129.084 110.248 128.921 109.67 128.594C109.091 128.267 108.634 127.819 108.298 127.25C107.962 126.671 107.794 126.018 107.794 125.29C107.794 124.553 107.962 123.899 108.298 123.33C108.634 122.761 109.091 122.317 109.67 122C110.248 121.673 110.911 121.51 111.658 121.51C112.395 121.51 113.053 121.673 113.632 122C114.22 122.317 114.677 122.761 115.004 123.33C115.34 123.89 115.508 124.543 115.508 125.29C115.508 126.027 115.34 126.681 115.004 127.25C114.677 127.819 114.22 128.267 113.632 128.594C113.053 128.921 112.395 129.084 111.658 129.084ZM111.658 127.908C112.134 127.908 112.558 127.801 112.932 127.586C113.314 127.371 113.613 127.068 113.828 126.676C114.042 126.275 114.15 125.813 114.15 125.29C114.15 124.758 114.042 124.301 113.828 123.918C113.613 123.526 113.314 123.223 112.932 123.008C112.558 122.793 112.134 122.686 111.658 122.686C111.182 122.686 110.757 122.793 110.384 123.008C110.01 123.223 109.712 123.526 109.488 123.918C109.264 124.301 109.152 124.758 109.152 125.29C109.152 125.813 109.264 126.275 109.488 126.676C109.712 127.068 110.01 127.371 110.384 127.586C110.757 127.801 111.182 127.908 111.658 127.908ZM117.448 129V121.58H120.892C121.76 121.58 122.442 121.748 122.936 122.084C123.44 122.411 123.692 122.877 123.692 123.484C123.692 124.091 123.454 124.562 122.978 124.898C122.512 125.225 121.891 125.388 121.116 125.388L121.326 125.024C122.213 125.024 122.871 125.187 123.3 125.514C123.73 125.841 123.944 126.321 123.944 126.956C123.944 127.6 123.702 128.104 123.216 128.468C122.74 128.823 122.008 129 121.018 129H117.448ZM118.764 127.964H120.92C121.48 127.964 121.9 127.88 122.18 127.712C122.46 127.535 122.6 127.255 122.6 126.872C122.6 126.48 122.47 126.195 122.208 126.018C121.956 125.831 121.555 125.738 121.004 125.738H118.764V127.964ZM118.764 124.772H120.78C121.294 124.772 121.681 124.679 121.942 124.492C122.213 124.296 122.348 124.025 122.348 123.68C122.348 123.325 122.213 123.059 121.942 122.882C121.681 122.705 121.294 122.616 120.78 122.616H118.764V124.772Z" fill="white"/>
<path d="M165.606 129.168C164.785 129.168 164.066 129.047 163.45 128.804C162.834 128.552 162.353 128.202 162.008 127.754C161.663 127.297 161.49 126.765 161.49 126.158C161.49 125.551 161.658 125.038 161.994 124.618C162.339 124.189 162.82 123.867 163.436 123.652C164.052 123.428 164.775 123.316 165.606 123.316C166.446 123.316 167.174 123.428 167.79 123.652C168.415 123.867 168.896 124.189 169.232 124.618C169.577 125.038 169.75 125.551 169.75 126.158C169.75 126.765 169.577 127.297 169.232 127.754C168.887 128.202 168.401 128.552 167.776 128.804C167.16 129.047 166.437 129.168 165.606 129.168ZM165.606 127.502C166.175 127.502 166.623 127.376 166.95 127.124C167.286 126.872 167.454 126.527 167.454 126.088C167.454 125.649 167.286 125.309 166.95 125.066C166.623 124.814 166.175 124.688 165.606 124.688C165.046 124.688 164.603 124.814 164.276 125.066C163.949 125.309 163.786 125.649 163.786 126.088C163.786 126.527 163.949 126.872 164.276 127.124C164.603 127.376 165.046 127.502 165.606 127.502ZM165.606 124.464C164.85 124.464 164.187 124.361 163.618 124.156C163.058 123.951 162.619 123.652 162.302 123.26C161.994 122.859 161.84 122.383 161.84 121.832C161.84 121.253 161.999 120.759 162.316 120.348C162.633 119.928 163.077 119.606 163.646 119.382C164.215 119.149 164.869 119.032 165.606 119.032C166.362 119.032 167.02 119.149 167.58 119.382C168.149 119.606 168.593 119.928 168.91 120.348C169.237 120.759 169.4 121.253 169.4 121.832C169.4 122.383 169.241 122.859 168.924 123.26C168.616 123.652 168.177 123.951 167.608 124.156C167.039 124.361 166.371 124.464 165.606 124.464ZM165.606 123.134C166.082 123.134 166.455 123.027 166.726 122.812C167.006 122.597 167.146 122.303 167.146 121.93C167.146 121.538 167.001 121.235 166.712 121.02C166.432 120.805 166.063 120.698 165.606 120.698C165.158 120.698 164.794 120.805 164.514 121.02C164.234 121.235 164.094 121.538 164.094 121.93C164.094 122.303 164.229 122.597 164.5 122.812C164.771 123.027 165.139 123.134 165.606 123.134ZM174.988 129.168C174.186 129.168 173.467 128.972 172.832 128.58C172.198 128.179 171.698 127.6 171.334 126.844C170.97 126.088 170.788 125.173 170.788 124.1C170.788 123.027 170.97 122.112 171.334 121.356C171.698 120.6 172.198 120.026 172.832 119.634C173.467 119.233 174.186 119.032 174.988 119.032C175.8 119.032 176.519 119.233 177.144 119.634C177.779 120.026 178.278 120.6 178.642 121.356C179.006 122.112 179.188 123.027 179.188 124.1C179.188 125.173 179.006 126.088 178.642 126.844C178.278 127.6 177.779 128.179 177.144 128.58C176.519 128.972 175.8 129.168 174.988 129.168ZM174.988 127.25C175.371 127.25 175.702 127.143 175.982 126.928C176.272 126.713 176.496 126.373 176.654 125.906C176.822 125.439 176.906 124.837 176.906 124.1C176.906 123.363 176.822 122.761 176.654 122.294C176.496 121.827 176.272 121.487 175.982 121.272C175.702 121.057 175.371 120.95 174.988 120.95C174.615 120.95 174.284 121.057 173.994 121.272C173.714 121.487 173.49 121.827 173.322 122.294C173.164 122.761 173.084 123.363 173.084 124.1C173.084 124.837 173.164 125.439 173.322 125.906C173.49 126.373 173.714 126.713 173.994 126.928C174.284 127.143 174.615 127.25 174.988 127.25ZM184.49 129.168C183.687 129.168 182.969 128.972 182.334 128.58C181.699 128.179 181.2 127.6 180.836 126.844C180.472 126.088 180.29 125.173 180.29 124.1C180.29 123.027 180.472 122.112 180.836 121.356C181.2 120.6 181.699 120.026 182.334 119.634C182.969 119.233 183.687 119.032 184.49 119.032C185.302 119.032 186.021 119.233 186.646 119.634C187.281 120.026 187.78 120.6 188.144 121.356C188.508 122.112 188.69 123.027 188.69 124.1C188.69 125.173 188.508 126.088 188.144 126.844C187.78 127.6 187.281 128.179 186.646 128.58C186.021 128.972 185.302 129.168 184.49 129.168ZM184.49 127.25C184.873 127.25 185.204 127.143 185.484 126.928C185.773 126.713 185.997 126.373 186.156 125.906C186.324 125.439 186.408 124.837 186.408 124.1C186.408 123.363 186.324 122.761 186.156 122.294C185.997 121.827 185.773 121.487 185.484 121.272C185.204 121.057 184.873 120.95 184.49 120.95C184.117 120.95 183.785 121.057 183.496 121.272C183.216 121.487 182.992 121.827 182.824 122.294C182.665 122.761 182.586 123.363 182.586 124.1C182.586 124.837 182.665 125.439 182.824 125.906C182.992 126.373 183.216 126.713 183.496 126.928C183.785 127.143 184.117 127.25 184.49 127.25ZM196.683 129.098C196.123 129.098 195.572 129.028 195.031 128.888C194.499 128.739 194.023 128.529 193.603 128.258L194.009 127.236C194.364 127.46 194.77 127.637 195.227 127.768C195.684 127.889 196.146 127.95 196.613 127.95C197.042 127.95 197.411 127.899 197.719 127.796C198.036 127.693 198.279 127.553 198.447 127.376C198.615 127.189 198.699 126.975 198.699 126.732C198.699 126.387 198.545 126.121 198.237 125.934C197.929 125.747 197.5 125.654 196.949 125.654H195.605V124.688H196.865C197.192 124.688 197.476 124.651 197.719 124.576C197.962 124.501 198.148 124.389 198.279 124.24C198.419 124.081 198.489 123.899 198.489 123.694C198.489 123.47 198.41 123.279 198.251 123.12C198.092 122.961 197.868 122.84 197.579 122.756C197.299 122.672 196.968 122.63 196.585 122.63C196.212 122.639 195.829 122.691 195.437 122.784C195.054 122.877 194.662 123.022 194.261 123.218L193.897 122.168C194.345 121.953 194.784 121.79 195.213 121.678C195.652 121.557 196.086 121.491 196.515 121.482C197.159 121.463 197.733 121.538 198.237 121.706C198.741 121.865 199.138 122.098 199.427 122.406C199.726 122.714 199.875 123.078 199.875 123.498C199.875 123.853 199.763 124.17 199.539 124.45C199.315 124.721 199.016 124.935 198.643 125.094C198.27 125.253 197.84 125.332 197.355 125.332L197.411 125.01C198.242 125.01 198.895 125.173 199.371 125.5C199.847 125.827 200.085 126.27 200.085 126.83C200.085 127.278 199.936 127.675 199.637 128.02C199.338 128.356 198.932 128.622 198.419 128.818C197.915 129.005 197.336 129.098 196.683 129.098ZM206.678 129V127.432L206.608 127.138V124.464C206.608 123.895 206.44 123.456 206.104 123.148C205.778 122.831 205.283 122.672 204.62 122.672C204.182 122.672 203.752 122.747 203.332 122.896C202.912 123.036 202.558 123.227 202.268 123.47L201.708 122.462C202.091 122.154 202.548 121.921 203.08 121.762C203.622 121.594 204.186 121.51 204.774 121.51C205.792 121.51 206.576 121.757 207.126 122.252C207.677 122.747 207.952 123.503 207.952 124.52V129H206.678ZM204.242 129.084C203.692 129.084 203.206 128.991 202.786 128.804C202.376 128.617 202.058 128.361 201.834 128.034C201.61 127.698 201.498 127.32 201.498 126.9C201.498 126.499 201.592 126.135 201.778 125.808C201.974 125.481 202.287 125.22 202.716 125.024C203.155 124.828 203.743 124.73 204.48 124.73H206.832V125.696H204.536C203.864 125.696 203.412 125.808 203.178 126.032C202.945 126.256 202.828 126.527 202.828 126.844C202.828 127.208 202.973 127.502 203.262 127.726C203.552 127.941 203.953 128.048 204.466 128.048C204.97 128.048 205.409 127.936 205.782 127.712C206.165 127.488 206.44 127.161 206.608 126.732L206.874 127.656C206.697 128.095 206.384 128.445 205.936 128.706C205.488 128.958 204.924 129.084 204.242 129.084ZM215.44 128.37V122.756H212.22L212.15 124.184C212.132 124.651 212.099 125.103 212.052 125.542C212.015 125.971 211.95 126.368 211.856 126.732C211.772 127.096 211.646 127.395 211.478 127.628C211.31 127.861 211.086 128.006 210.806 128.062L209.476 127.824C209.766 127.833 209.999 127.74 210.176 127.544C210.354 127.339 210.489 127.059 210.582 126.704C210.685 126.349 210.76 125.948 210.806 125.5C210.853 125.043 210.89 124.571 210.918 124.086L211.03 121.58H216.784V128.37H215.44ZM209.182 130.722V127.824H217.918V130.722H216.658V129H210.456V130.722H209.182ZM224.219 129V127.432L224.149 127.138V124.464C224.149 123.895 223.981 123.456 223.645 123.148C223.319 122.831 222.824 122.672 222.161 122.672C221.723 122.672 221.293 122.747 220.873 122.896C220.453 123.036 220.099 123.227 219.809 123.47L219.249 122.462C219.632 122.154 220.089 121.921 220.621 121.762C221.163 121.594 221.727 121.51 222.315 121.51C223.333 121.51 224.117 121.757 224.667 122.252C225.218 122.747 225.493 123.503 225.493 124.52V129H224.219ZM221.783 129.084C221.233 129.084 220.747 128.991 220.327 128.804C219.917 128.617 219.599 128.361 219.375 128.034C219.151 127.698 219.039 127.32 219.039 126.9C219.039 126.499 219.133 126.135 219.319 125.808C219.515 125.481 219.828 125.22 220.257 125.024C220.696 124.828 221.284 124.73 222.021 124.73H224.373V125.696H222.077C221.405 125.696 220.953 125.808 220.719 126.032C220.486 126.256 220.369 126.527 220.369 126.844C220.369 127.208 220.514 127.502 220.803 127.726C221.093 127.941 221.494 128.048 222.007 128.048C222.511 128.048 222.95 127.936 223.323 127.712C223.706 127.488 223.981 127.161 224.149 126.732L224.415 127.656C224.238 128.095 223.925 128.445 223.477 128.706C223.029 128.958 222.465 129.084 221.783 129.084ZM227.913 129V121.58H229.257V124.73H233.485V121.58H234.829V129H233.485V125.892H229.257V129H227.913ZM237.443 129V121.58H238.787V126.984L243.337 121.58H244.555V129H243.211V123.596L238.675 129H237.443ZM247.163 129V121.58H248.507V126.984L253.057 121.58H254.275V129H252.931V123.596L248.395 129H247.163ZM250.635 120.614C249.954 120.614 249.417 120.451 249.025 120.124C248.643 119.788 248.447 119.307 248.437 118.682H249.347C249.357 119.037 249.473 119.317 249.697 119.522C249.931 119.727 250.239 119.83 250.621 119.83C251.004 119.83 251.312 119.727 251.545 119.522C251.779 119.317 251.9 119.037 251.909 118.682H252.847C252.838 119.307 252.637 119.788 252.245 120.124C251.853 120.451 251.317 120.614 250.635 120.614Z" fill="white"/>
<path d="M294.058 129V120.04L295.038 121.02H292.098V119.2H296.326V129H294.058ZM302.41 129.168C301.514 129.168 300.735 128.981 300.072 128.608C299.419 128.235 298.915 127.689 298.56 126.97C298.206 126.251 298.028 125.365 298.028 124.31C298.028 123.181 298.238 122.224 298.658 121.44C299.088 120.656 299.676 120.059 300.422 119.648C301.178 119.237 302.046 119.032 303.026 119.032C303.549 119.032 304.048 119.088 304.524 119.2C305 119.312 305.411 119.48 305.756 119.704L304.916 121.37C304.646 121.183 304.356 121.057 304.048 120.992C303.74 120.917 303.418 120.88 303.082 120.88C302.233 120.88 301.561 121.137 301.066 121.65C300.572 122.163 300.324 122.924 300.324 123.932C300.324 124.1 300.324 124.287 300.324 124.492C300.334 124.697 300.362 124.903 300.408 125.108L299.778 124.52C299.956 124.156 300.184 123.853 300.464 123.61C300.744 123.358 301.076 123.171 301.458 123.05C301.85 122.919 302.28 122.854 302.746 122.854C303.381 122.854 303.95 122.98 304.454 123.232C304.958 123.484 305.36 123.839 305.658 124.296C305.966 124.753 306.12 125.29 306.12 125.906C306.12 126.569 305.952 127.147 305.616 127.642C305.29 128.127 304.846 128.505 304.286 128.776C303.736 129.037 303.11 129.168 302.41 129.168ZM302.284 127.474C302.602 127.474 302.882 127.418 303.124 127.306C303.376 127.185 303.572 127.012 303.712 126.788C303.852 126.564 303.922 126.307 303.922 126.018C303.922 125.57 303.768 125.215 303.46 124.954C303.162 124.683 302.76 124.548 302.256 124.548C301.92 124.548 301.626 124.613 301.374 124.744C301.122 124.865 300.922 125.038 300.772 125.262C300.632 125.477 300.562 125.729 300.562 126.018C300.562 126.298 300.632 126.55 300.772 126.774C300.912 126.989 301.108 127.161 301.36 127.292C301.612 127.413 301.92 127.474 302.284 127.474ZM311.142 129.168C310.34 129.168 309.621 128.972 308.986 128.58C308.352 128.179 307.852 127.6 307.488 126.844C307.124 126.088 306.942 125.173 306.942 124.1C306.942 123.027 307.124 122.112 307.488 121.356C307.852 120.6 308.352 120.026 308.986 119.634C309.621 119.233 310.34 119.032 311.142 119.032C311.954 119.032 312.673 119.233 313.298 119.634C313.933 120.026 314.432 120.6 314.796 121.356C315.16 122.112 315.342 123.027 315.342 124.1C315.342 125.173 315.16 126.088 314.796 126.844C314.432 127.6 313.933 128.179 313.298 128.58C312.673 128.972 311.954 129.168 311.142 129.168ZM311.142 127.25C311.525 127.25 311.856 127.143 312.136 126.928C312.426 126.713 312.65 126.373 312.808 125.906C312.976 125.439 313.06 124.837 313.06 124.1C313.06 123.363 312.976 122.761 312.808 122.294C312.65 121.827 312.426 121.487 312.136 121.272C311.856 121.057 311.525 120.95 311.142 120.95C310.769 120.95 310.438 121.057 310.148 121.272C309.868 121.487 309.644 121.827 309.476 122.294C309.318 122.761 309.238 123.363 309.238 124.1C309.238 124.837 309.318 125.439 309.476 125.906C309.644 126.373 309.868 126.713 310.148 126.928C310.438 127.143 310.769 127.25 311.142 127.25ZM325.841 125.962C325.449 126.149 325.043 126.298 324.623 126.41C324.213 126.513 323.788 126.564 323.349 126.564C322.453 126.564 321.744 126.354 321.221 125.934C320.708 125.514 320.451 124.865 320.451 123.988V121.58H321.795V123.904C321.795 124.436 321.959 124.828 322.285 125.08C322.621 125.332 323.069 125.458 323.629 125.458C323.984 125.458 324.348 125.411 324.721 125.318C325.104 125.225 325.477 125.094 325.841 124.926V125.962ZM325.743 129V121.58H327.087V129H325.743ZM334.247 129V127.432L334.177 127.138V124.464C334.177 123.895 334.009 123.456 333.673 123.148C333.346 122.831 332.851 122.672 332.189 122.672C331.75 122.672 331.321 122.747 330.901 122.896C330.481 123.036 330.126 123.227 329.837 123.47L329.277 122.462C329.659 122.154 330.117 121.921 330.649 121.762C331.19 121.594 331.755 121.51 332.343 121.51C333.36 121.51 334.144 121.757 334.695 122.252C335.245 122.747 335.521 123.503 335.521 124.52V129H334.247ZM331.811 129.084C331.26 129.084 330.775 128.991 330.355 128.804C329.944 128.617 329.627 128.361 329.403 128.034C329.179 127.698 329.067 127.32 329.067 126.9C329.067 126.499 329.16 126.135 329.347 125.808C329.543 125.481 329.855 125.22 330.285 125.024C330.723 124.828 331.311 124.73 332.049 124.73H334.401V125.696H332.105C331.433 125.696 330.98 125.808 330.747 126.032C330.513 126.256 330.397 126.527 330.397 126.844C330.397 127.208 330.541 127.502 330.831 127.726C331.12 127.941 331.521 128.048 332.035 128.048C332.539 128.048 332.977 127.936 333.351 127.712C333.733 127.488 334.009 127.161 334.177 126.732L334.443 127.656C334.265 128.095 333.953 128.445 333.505 128.706C333.057 128.958 332.492 129.084 331.811 129.084ZM341.175 129.084C340.419 129.084 339.742 128.921 339.145 128.594C338.557 128.267 338.095 127.819 337.759 127.25C337.423 126.681 337.255 126.027 337.255 125.29C337.255 124.553 337.423 123.899 337.759 123.33C338.095 122.761 338.557 122.317 339.145 122C339.742 121.673 340.419 121.51 341.175 121.51C341.847 121.51 342.444 121.645 342.967 121.916C343.499 122.177 343.909 122.569 344.199 123.092L343.177 123.75C342.934 123.386 342.635 123.12 342.281 122.952C341.935 122.775 341.562 122.686 341.161 122.686C340.675 122.686 340.241 122.793 339.859 123.008C339.476 123.223 339.173 123.526 338.949 123.918C338.725 124.301 338.613 124.758 338.613 125.29C338.613 125.822 338.725 126.284 338.949 126.676C339.173 127.068 339.476 127.371 339.859 127.586C340.241 127.801 340.675 127.908 341.161 127.908C341.562 127.908 341.935 127.824 342.281 127.656C342.635 127.479 342.934 127.208 343.177 126.844L344.199 127.488C343.909 128.001 343.499 128.398 342.967 128.678C342.444 128.949 341.847 129.084 341.175 129.084ZM349.007 129.084C348.261 129.084 347.598 128.921 347.019 128.594C346.441 128.267 345.983 127.819 345.647 127.25C345.311 126.671 345.143 126.018 345.143 125.29C345.143 124.553 345.311 123.899 345.647 123.33C345.983 122.761 346.441 122.317 347.019 122C347.598 121.673 348.261 121.51 349.007 121.51C349.745 121.51 350.403 121.673 350.981 122C351.569 122.317 352.027 122.761 352.353 123.33C352.689 123.89 352.857 124.543 352.857 125.29C352.857 126.027 352.689 126.681 352.353 127.25C352.027 127.819 351.569 128.267 350.981 128.594C350.403 128.921 349.745 129.084 349.007 129.084ZM349.007 127.908C349.483 127.908 349.908 127.801 350.281 127.586C350.664 127.371 350.963 127.068 351.177 126.676C351.392 126.275 351.499 125.813 351.499 125.29C351.499 124.758 351.392 124.301 351.177 123.918C350.963 123.526 350.664 123.223 350.281 123.008C349.908 122.793 349.483 122.686 349.007 122.686C348.531 122.686 348.107 122.793 347.733 123.008C347.36 123.223 347.061 123.526 346.837 123.918C346.613 124.301 346.501 124.758 346.501 125.29C346.501 125.813 346.613 126.275 346.837 126.676C347.061 127.068 347.36 127.371 347.733 127.586C348.107 127.801 348.531 127.908 349.007 127.908ZM354.798 129V121.58H358.242C359.11 121.58 359.791 121.748 360.286 122.084C360.79 122.411 361.042 122.877 361.042 123.484C361.042 124.091 360.804 124.562 360.328 124.898C359.861 125.225 359.241 125.388 358.466 125.388L358.676 125.024C359.563 125.024 360.221 125.187 360.65 125.514C361.079 125.841 361.294 126.321 361.294 126.956C361.294 127.6 361.051 128.104 360.566 128.468C360.09 128.823 359.357 129 358.368 129H354.798ZM356.114 127.964H358.27C358.83 127.964 359.25 127.88 359.53 127.712C359.81 127.535 359.95 127.255 359.95 126.872C359.95 126.48 359.819 126.195 359.558 126.018C359.306 125.831 358.905 125.738 358.354 125.738H356.114V127.964ZM356.114 124.772H358.13C358.643 124.772 359.031 124.679 359.292 124.492C359.563 124.296 359.698 124.025 359.698 123.68C359.698 123.325 359.563 123.059 359.292 122.882C359.031 122.705 358.643 122.616 358.13 122.616H356.114V124.772Z" fill="white"/>
<g clip-path="url(#clip0_2985_686)">
<path d="M20.2003 117.75C20.6777 117.75 21.1355 117.552 21.4731 117.201C21.8106 116.849 22.0003 116.372 22.0003 115.875C22.0003 115.378 21.8106 114.901 21.4731 114.549C21.1355 114.198 20.6777 114 20.2003 114C19.7229 114 19.2651 114.198 18.9275 114.549C18.5899 114.901 18.4003 115.378 18.4003 115.875C18.4003 116.372 18.5899 116.849 18.9275 117.201C19.2651 117.552 19.7229 117.75 20.2003 117.75ZM19.9003 132.75V127.75H20.5003V132.75C20.5003 133.441 21.0365 134 21.7003 134C22.364 134 22.9003 133.441 22.9003 132.75V121.5H25.0003H27.4003H28.0003C28.664 121.5 29.2003 120.941 29.2003 120.25C29.2003 119.559 28.664 119 28.0003 119H27.4003V116.5H34.6003V124H27.4003V122.75H25.0003V124.625C25.0003 125.66 25.8065 126.5 26.8003 126.5H35.2003C36.194 126.5 37.0003 125.66 37.0003 124.625V115.875C37.0003 114.84 36.194 114 35.2003 114H26.8003C25.8065 114 25.0003 114.84 25.0003 115.875V119H22.1165H19.6453C18.3815 119 17.2115 119.691 16.559 120.82L14.3728 124.609C14.0315 125.199 14.2153 125.969 14.7815 126.324C15.3478 126.68 16.0865 126.488 16.4278 125.898L17.5003 124.035V132.75C17.5003 133.441 18.0365 134 18.7003 134C19.364 134 19.9003 133.441 19.9003 132.75Z" fill="white"/>
</g>
<g clip-path="url(#clip1_2985_686)">
<path d="M137.898 114.519C138.347 114.886 138.384 115.509 137.98 115.917L134.714 119.216C134.515 119.418 134.234 119.537 133.934 119.541C133.635 119.546 133.349 119.443 133.136 119.253L131.317 117.604C130.896 117.216 130.896 116.589 131.317 116.202C131.739 115.814 132.433 115.814 132.855 116.202L133.857 117.113L136.356 114.589C136.76 114.181 137.445 114.148 137.894 114.515L137.898 114.519ZM137.898 121.117C138.347 121.484 138.384 122.106 137.98 122.514L134.714 125.813C134.515 126.015 134.234 126.135 133.934 126.139C133.635 126.143 133.349 126.04 133.136 125.85L131.317 124.201C130.891 123.813 130.891 123.186 131.317 122.803C131.744 122.42 132.433 122.415 132.855 122.803L133.857 123.714L136.356 121.191C136.76 120.783 137.445 120.75 137.894 121.117H137.898ZM141.16 116.903C141.16 116.173 141.808 115.583 142.611 115.583H152.771C153.573 115.583 154.222 116.173 154.222 116.903C154.222 117.632 153.573 118.222 152.771 118.222H142.611C141.808 118.222 141.16 117.632 141.16 116.903ZM141.16 123.5C141.16 122.77 141.808 122.18 142.611 122.18H152.771C153.573 122.18 154.222 122.77 154.222 123.5C154.222 124.23 153.573 124.819 152.771 124.819H142.611C141.808 124.819 141.16 124.23 141.16 123.5ZM138.257 130.097C138.257 129.367 138.905 128.778 139.708 128.778H152.771C153.573 128.778 154.222 129.367 154.222 130.097C154.222 130.827 153.573 131.416 152.771 131.416H139.708C138.905 131.416 138.257 130.827 138.257 130.097ZM133.177 128.118C133.754 128.118 134.308 128.326 134.716 128.698C135.125 129.069 135.354 129.572 135.354 130.097C135.354 130.622 135.125 131.125 134.716 131.497C134.308 131.868 133.754 132.076 133.177 132.076C132.6 132.076 132.046 131.868 131.637 131.497C131.229 131.125 131 130.622 131 130.097C131 129.572 131.229 129.069 131.637 128.698C132.046 128.326 132.6 128.118 133.177 128.118Z" fill="white"/>
</g>
<g clip-path="url(#clip2_2985_686)">
<path d="M273 114C275.652 114 278.196 115.054 280.071 116.929C281.946 118.804 283 121.348 283 124C283 126.652 281.946 129.196 280.071 131.071C278.196 132.946 275.652 134 273 134C270.348 134 267.804 132.946 265.929 131.071C264.054 129.196 263 126.652 263 124C263 121.348 264.054 118.804 265.929 116.929C267.804 115.054 270.348 114 273 114ZM272.062 118.688V124C272.062 124.312 272.219 124.605 272.48 124.781L276.23 127.281C276.66 127.57 277.242 127.453 277.531 127.02C277.82 126.586 277.703 126.008 277.27 125.719L273.938 123.5V118.688C273.938 118.168 273.52 117.75 273 117.75C272.48 117.75 272.062 118.168 272.062 118.688Z" fill="white"/>
</g>
<defs>
<linearGradient id="paint0_linear_2985_686" x1="191" y1="0" x2="191" y2="200" gradientUnits="userSpaceOnUse">
<stop stop-color="#FF6C6C"/>
<stop offset="1" stop-color="#621F1F"/>
</linearGradient>
<clipPath id="clip0_2985_686">
<rect width="23" height="20" fill="white" transform="translate(14 114)"/>
</clipPath>
<clipPath id="clip1_2985_686">
<rect width="23.2222" height="19" fill="white" transform="translate(131 114)"/>
</clipPath>
<clipPath id="clip2_2985_686">
<rect width="20" height="20" fill="white" transform="translate(263 114)"/>
</clipPath>
</defs>
</svg>
