<svg width="382" height="200" viewBox="0 0 382 200" fill="none" xmlns="http://www.w3.org/2000/svg">
<path d="M0 20C0 8.95431 8.9543 0 20 0H362C373.046 0 382 8.95431 382 20V200H0V20Z" fill="url(#paint0_linear_2985_596)"/>
<path d="M94.1828 33L89.8228 26.26L92.4428 24.68L97.8628 33H94.1828ZM85.0828 33V19H88.3028V33H85.0828ZM87.3628 27.36V24.66H92.2428V27.36H87.3628ZM92.7428 26.36L89.7628 26L94.3028 19H97.7228L92.7428 26.36ZM100.386 37.04C99.8258 37.04 99.2724 36.9533 98.7258 36.78C98.1791 36.6067 97.7324 36.3667 97.3858 36.06L98.5258 33.84C98.7658 34.0533 99.0391 34.22 99.3458 34.34C99.6658 34.46 99.9791 34.52 100.286 34.52C100.726 34.52 101.072 34.4133 101.326 34.2C101.592 34 101.832 33.66 102.046 33.18L102.606 31.86L102.846 31.52L106.706 22.24H109.706L104.846 33.66C104.499 34.5267 104.099 35.2067 103.646 35.7C103.206 36.1933 102.712 36.54 102.166 36.74C101.632 36.94 101.039 37.04 100.386 37.04ZM102.226 33.42L97.4258 22.24H100.646L104.366 31.24L102.226 33.42ZM117.551 33.16C116.644 33.16 115.851 32.96 115.171 32.56C114.491 32.16 113.958 31.5533 113.571 30.74C113.198 29.9133 113.011 28.8733 113.011 27.62C113.011 26.3533 113.191 25.3133 113.551 24.5C113.911 23.6867 114.431 23.08 115.111 22.68C115.791 22.28 116.604 22.08 117.551 22.08C118.564 22.08 119.471 22.3133 120.271 22.78C121.084 23.2333 121.724 23.8733 122.191 24.7C122.671 25.5267 122.911 26.5 122.911 27.62C122.911 28.7533 122.671 29.7333 122.191 30.56C121.724 31.3867 121.084 32.0267 120.271 32.48C119.471 32.9333 118.564 33.16 117.551 33.16ZM111.191 36.88V22.24H114.171V24.44L114.111 27.64L114.311 30.82V36.88H111.191ZM117.011 30.6C117.531 30.6 117.991 30.48 118.391 30.24C118.804 30 119.131 29.66 119.371 29.22C119.624 28.7667 119.751 28.2333 119.751 27.62C119.751 26.9933 119.624 26.46 119.371 26.02C119.131 25.58 118.804 25.24 118.391 25C117.991 24.76 117.531 24.64 117.011 24.64C116.491 24.64 116.024 24.76 115.611 25C115.198 25.24 114.871 25.58 114.631 26.02C114.391 26.46 114.271 26.9933 114.271 27.62C114.271 28.2333 114.391 28.7667 114.631 29.22C114.871 29.66 115.198 30 115.611 30.24C116.024 30.48 116.491 30.6 117.011 30.6ZM130.218 33.16C129.058 33.16 128.024 32.9267 127.118 32.46C126.211 31.98 125.498 31.32 124.978 30.48C124.471 29.64 124.218 28.6867 124.218 27.62C124.218 26.54 124.471 25.5867 124.978 24.76C125.498 23.92 126.211 23.2667 127.118 22.8C128.024 22.32 129.058 22.08 130.218 22.08C131.351 22.08 132.338 22.32 133.178 22.8C134.018 23.2667 134.638 23.94 135.038 24.82L132.618 26.12C132.338 25.6133 131.984 25.24 131.558 25C131.144 24.76 130.691 24.64 130.198 24.64C129.664 24.64 129.184 24.76 128.758 25C128.331 25.24 127.991 25.58 127.738 26.02C127.498 26.46 127.378 26.9933 127.378 27.62C127.378 28.2467 127.498 28.78 127.738 29.22C127.991 29.66 128.331 30 128.758 30.24C129.184 30.48 129.664 30.6 130.198 30.6C130.691 30.6 131.144 30.4867 131.558 30.26C131.984 30.02 132.338 29.64 132.618 29.12L135.038 30.44C134.638 31.3067 134.018 31.98 133.178 32.46C132.338 32.9267 131.351 33.16 130.218 33.16ZM149.998 31.6V24.8H146.478L146.418 26.18C146.391 26.7533 146.358 27.3 146.318 27.82C146.278 28.34 146.198 28.8133 146.078 29.24C145.971 29.6533 145.811 30.0067 145.598 30.3C145.384 30.58 145.098 30.7733 144.738 30.88L141.658 30.44C142.044 30.44 142.358 30.3267 142.598 30.1C142.838 29.86 143.024 29.5333 143.158 29.12C143.291 28.6933 143.391 28.2133 143.458 27.68C143.524 27.1333 143.571 26.56 143.598 25.96L143.738 22.24H153.118V31.6H149.998ZM141.298 35.32V30.44H154.658V35.32H151.758V33H144.198V35.32H141.298ZM155.261 32.98L155.421 30.42C155.501 30.4333 155.581 30.4467 155.661 30.46C155.741 30.46 155.814 30.46 155.881 30.46C156.254 30.46 156.548 30.3533 156.761 30.14C156.974 29.9267 157.134 29.64 157.241 29.28C157.348 28.9067 157.421 28.4867 157.461 28.02C157.514 27.5533 157.554 27.0667 157.581 26.56L157.741 22.24H166.941V33H163.821V24.04L164.521 24.8H159.801L160.461 24L160.321 26.7C160.281 27.66 160.201 28.54 160.081 29.34C159.974 30.14 159.794 30.8333 159.541 31.42C159.288 31.9933 158.948 32.44 158.521 32.76C158.094 33.0667 157.548 33.22 156.881 33.22C156.641 33.22 156.388 33.2 156.121 33.16C155.854 33.12 155.568 33.06 155.261 32.98ZM176.721 33V29.42L177.161 29.92H174.181C172.635 29.92 171.421 29.6 170.541 28.96C169.661 28.32 169.221 27.4 169.221 26.2C169.221 24.92 169.681 23.94 170.601 23.26C171.535 22.58 172.788 22.24 174.361 22.24H179.501V33H176.721ZM169.061 33L171.921 28.9H175.101L172.381 33H169.061ZM176.721 28.46V23.98L177.161 24.78H174.421C173.781 24.78 173.281 24.9 172.921 25.14C172.575 25.38 172.401 25.7667 172.401 26.3C172.401 27.3267 173.061 27.84 174.381 27.84H177.161L176.721 28.46ZM190.304 28.64V26.5H195.924V28.64H190.304ZM191.804 22.04C192.977 22.04 194.017 22.28 194.924 22.76C195.831 23.2267 196.544 23.88 197.064 24.72C197.584 25.56 197.844 26.5267 197.844 27.62C197.844 28.7 197.584 29.6667 197.064 30.52C196.544 31.36 195.831 32.02 194.924 32.5C194.017 32.9667 192.977 33.2 191.804 33.2C190.777 33.2 189.844 33.0333 189.004 32.7C188.177 32.3533 187.491 31.86 186.944 31.22L188.724 29.54C189.124 29.94 189.564 30.2533 190.044 30.48C190.537 30.6933 191.084 30.8 191.684 30.8C192.337 30.8 192.904 30.6667 193.384 30.4C193.877 30.1333 194.264 29.76 194.544 29.28C194.824 28.8 194.964 28.2467 194.964 27.62C194.964 26.98 194.824 26.42 194.544 25.94C194.264 25.46 193.877 25.0867 193.384 24.82C192.904 24.5533 192.337 24.42 191.684 24.42C191.084 24.42 190.537 24.5333 190.044 24.76C189.564 24.9733 189.124 25.2867 188.724 25.7L186.944 24.04C187.491 23.3867 188.177 22.8933 189.004 22.56C189.844 22.2133 190.777 22.04 191.804 22.04ZM207.581 33L203.981 27.9L206.521 26.4L211.261 33H207.581ZM199.961 33V22.24H203.081V33H199.961ZM202.161 28.92V26.42H205.921V28.92H202.161ZM206.821 27.98L203.901 27.66L207.681 22.24H211.001L206.821 27.98ZM217.581 33.16C216.421 33.16 215.388 32.9267 214.481 32.46C213.574 31.98 212.861 31.32 212.341 30.48C211.834 29.64 211.581 28.6867 211.581 27.62C211.581 26.54 211.834 25.5867 212.341 24.76C212.861 23.92 213.574 23.2667 214.481 22.8C215.388 22.32 216.421 22.08 217.581 22.08C218.714 22.08 219.701 22.32 220.541 22.8C221.381 23.2667 222.001 23.94 222.401 24.82L219.981 26.12C219.701 25.6133 219.348 25.24 218.921 25C218.508 24.76 218.054 24.64 217.561 24.64C217.028 24.64 216.548 24.76 216.121 25C215.694 25.24 215.354 25.58 215.101 26.02C214.861 26.46 214.741 26.9933 214.741 27.62C214.741 28.2467 214.861 28.78 215.101 29.22C215.354 29.66 215.694 30 216.121 30.24C216.548 30.48 217.028 30.6 217.561 30.6C218.054 30.6 218.508 30.4867 218.921 30.26C219.348 30.02 219.701 29.64 219.981 29.12L222.401 30.44C222.001 31.3067 221.381 31.98 220.541 32.46C219.701 32.9267 218.714 33.16 217.581 33.16ZM224.297 33V22.24H234.997V33H231.877V24.1L232.577 24.8H226.697L227.397 24.1V33H224.297ZM243.248 33.16C242.022 33.16 240.942 32.92 240.008 32.44C239.088 31.96 238.375 31.3067 237.868 30.48C237.362 29.64 237.108 28.6867 237.108 27.62C237.108 26.54 237.355 25.5867 237.848 24.76C238.355 23.92 239.042 23.2667 239.908 22.8C240.775 22.32 241.755 22.08 242.848 22.08C243.902 22.08 244.848 22.3067 245.688 22.76C246.542 23.2 247.215 23.84 247.708 24.68C248.202 25.5067 248.448 26.5 248.448 27.66C248.448 27.78 248.442 27.92 248.428 28.08C248.415 28.2267 248.402 28.3667 248.388 28.5H239.648V26.68H246.748L245.548 27.22C245.548 26.66 245.435 26.1733 245.208 25.76C244.982 25.3467 244.668 25.0267 244.268 24.8C243.868 24.56 243.402 24.44 242.868 24.44C242.335 24.44 241.862 24.56 241.448 24.8C241.048 25.0267 240.735 25.3533 240.508 25.78C240.282 26.1933 240.168 26.6867 240.168 27.26V27.74C240.168 28.3267 240.295 28.8467 240.548 29.3C240.815 29.74 241.182 30.08 241.648 30.32C242.128 30.5467 242.688 30.66 243.328 30.66C243.902 30.66 244.402 30.5733 244.828 30.4C245.268 30.2267 245.668 29.9667 246.028 29.62L247.688 31.42C247.195 31.98 246.575 32.4133 245.828 32.72C245.082 33.0133 244.222 33.16 243.248 33.16ZM257.18 33.16C256.273 33.16 255.48 32.96 254.8 32.56C254.12 32.16 253.587 31.5533 253.2 30.74C252.827 29.9133 252.64 28.8733 252.64 27.62C252.64 26.3533 252.82 25.3133 253.18 24.5C253.54 23.6867 254.06 23.08 254.74 22.68C255.42 22.28 256.233 22.08 257.18 22.08C258.193 22.08 259.1 22.3133 259.9 22.78C260.713 23.2333 261.353 23.8733 261.82 24.7C262.3 25.5267 262.54 26.5 262.54 27.62C262.54 28.7533 262.3 29.7333 261.82 30.56C261.353 31.3867 260.713 32.0267 259.9 32.48C259.1 32.9333 258.193 33.16 257.18 33.16ZM250.82 36.88V22.24H253.8V24.44L253.74 27.64L253.94 30.82V36.88H250.82ZM256.64 30.6C257.16 30.6 257.62 30.48 258.02 30.24C258.433 30 258.76 29.66 259 29.22C259.253 28.7667 259.38 28.2333 259.38 27.62C259.38 26.9933 259.253 26.46 259 26.02C258.76 25.58 258.433 25.24 258.02 25C257.62 24.76 257.16 24.64 256.64 24.64C256.12 24.64 255.653 24.76 255.24 25C254.827 25.24 254.5 25.58 254.26 26.02C254.02 26.46 253.9 26.9933 253.9 27.62C253.9 28.2333 254.02 28.7667 254.26 29.22C254.5 29.66 254.827 30 255.24 30.24C255.653 30.48 256.12 30.6 256.64 30.6ZM266.636 33V24.08L267.336 24.8H262.996V22.24H273.376V24.8H269.036L269.736 24.08V33H266.636ZM279.63 33.16C278.483 33.16 277.463 32.92 276.57 32.44C275.69 31.96 274.99 31.3067 274.47 30.48C273.963 29.64 273.71 28.6867 273.71 27.62C273.71 26.54 273.963 25.5867 274.47 24.76C274.99 23.92 275.69 23.2667 276.57 22.8C277.463 22.32 278.483 22.08 279.63 22.08C280.763 22.08 281.777 22.32 282.67 22.8C283.563 23.2667 284.263 23.9133 284.77 24.74C285.277 25.5667 285.53 26.5267 285.53 27.62C285.53 28.6867 285.277 29.64 284.77 30.48C284.263 31.3067 283.563 31.96 282.67 32.44C281.777 32.92 280.763 33.16 279.63 33.16ZM279.63 30.6C280.15 30.6 280.617 30.48 281.03 30.24C281.443 30 281.77 29.66 282.01 29.22C282.25 28.7667 282.37 28.2333 282.37 27.62C282.37 26.9933 282.25 26.46 282.01 26.02C281.77 25.58 281.443 25.24 281.03 25C280.617 24.76 280.15 24.64 279.63 24.64C279.11 24.64 278.643 24.76 278.23 25C277.817 25.24 277.483 25.58 277.23 26.02C276.99 26.46 276.87 26.9933 276.87 27.62C276.87 28.2333 276.99 28.7667 277.23 29.22C277.483 29.66 277.817 30 278.23 30.24C278.643 30.48 279.11 30.6 279.63 30.6ZM287.676 33V22.24H293.176C294.522 22.24 295.576 22.4867 296.336 22.98C297.096 23.46 297.476 24.14 297.476 25.02C297.476 25.9 297.116 26.5933 296.396 27.1C295.689 27.5933 294.749 27.84 293.576 27.84L293.896 27.12C295.202 27.12 296.176 27.36 296.816 27.84C297.469 28.32 297.796 29.02 297.796 29.94C297.796 30.8867 297.436 31.6333 296.716 32.18C295.996 32.7267 294.896 33 293.416 33H287.676ZM290.536 30.88H293.156C293.729 30.88 294.156 30.7867 294.436 30.6C294.729 30.4 294.876 30.1 294.876 29.7C294.876 29.2867 294.742 28.9867 294.476 28.8C294.209 28.6 293.789 28.5 293.216 28.5H290.536V30.88ZM290.536 26.66H292.896C293.442 26.66 293.849 26.56 294.116 26.36C294.396 26.16 294.536 25.8733 294.536 25.5C294.536 25.1133 294.396 24.8267 294.116 24.64C293.849 24.4533 293.442 24.36 292.896 24.36H290.536V26.66Z" fill="white"/>
<path d="M106.296 86.48C104.312 86.48 102.552 86.144 101.016 85.472C99.5121 84.768 98.3281 83.76 97.4641 82.448C96.6321 81.104 96.2161 79.472 96.2161 77.552V74.912H103.56V77.264C103.56 78.384 103.88 79.232 104.52 79.808C105.16 80.352 105.928 80.624 106.824 80.624C107.752 80.624 108.536 80.336 109.176 79.76C109.816 79.184 110.136 78.352 110.136 77.264V53.072H117.96V77.552C117.96 79.504 117.496 81.152 116.568 82.496C115.672 83.808 114.424 84.8 112.824 85.472C111.256 86.144 109.464 86.48 107.448 86.48H106.296ZM135.701 86.48C133.941 86.48 132.261 86.288 130.661 85.904C129.093 85.488 127.685 84.88 126.437 84.08C125.189 83.248 124.197 82.192 123.461 80.912C122.757 79.6 122.405 78.032 122.405 76.208C122.405 76.048 122.405 75.888 122.405 75.728C122.405 75.536 122.421 75.344 122.453 75.152H129.845C129.813 75.28 129.797 75.408 129.797 75.536C129.797 75.632 129.797 75.76 129.797 75.92C129.797 76.784 130.005 77.552 130.421 78.224C130.837 78.864 131.477 79.36 132.341 79.712C133.237 80.064 134.341 80.24 135.653 80.24C136.965 80.24 138.021 80.128 138.821 79.904C139.621 79.648 140.197 79.264 140.549 78.752C140.933 78.208 141.125 77.552 141.125 76.784C141.125 75.92 140.789 75.232 140.117 74.72C139.477 74.208 138.629 73.792 137.573 73.472C136.517 73.12 135.349 72.8 134.069 72.512C132.789 72.224 131.509 71.872 130.229 71.456C128.949 71.008 127.765 70.432 126.677 69.728C125.621 68.992 124.757 68.032 124.085 66.848C123.445 65.664 123.125 64.176 123.125 62.384C123.125 60.176 123.717 58.352 124.901 56.912C126.085 55.472 127.653 54.4 129.605 53.696C131.589 52.96 133.749 52.592 136.085 52.592C138.389 52.592 140.485 52.928 142.373 53.6C144.261 54.272 145.765 55.328 146.885 56.768C148.037 58.176 148.613 60 148.613 62.24V62.864H141.269V62.432C141.269 61.632 141.077 60.944 140.693 60.368C140.309 59.76 139.733 59.296 138.965 58.976C138.197 58.656 137.237 58.496 136.085 58.496C135.093 58.496 134.229 58.608 133.493 58.832C132.757 59.056 132.181 59.392 131.765 59.84C131.381 60.288 131.189 60.864 131.189 61.568C131.189 62.464 131.509 63.168 132.149 63.68C132.821 64.192 133.685 64.608 134.741 64.928C135.797 65.216 136.965 65.504 138.245 65.792C139.557 66.08 140.853 66.432 142.133 66.848C143.413 67.232 144.581 67.776 145.637 68.48C146.725 69.184 147.605 70.112 148.277 71.264C148.949 72.384 149.301 73.808 149.333 75.536C149.333 78.16 148.741 80.272 147.557 81.872C146.405 83.472 144.805 84.64 142.757 85.376C140.709 86.112 138.357 86.48 135.701 86.48Z" fill="#F7DF1E"/>
<path d="M152.211 86V62.96H157.235V76.912L162.835 69.648H168.627L162.579 77.136L168.819 86H162.867L158.995 80.592L157.235 82.224V86H152.211ZM171.59 86V69.648H175.686L176.07 71.504C176.582 70.7573 177.243 70.2133 178.054 69.872C178.865 69.5093 179.814 69.328 180.902 69.328C182.651 69.328 184.027 69.808 185.03 70.768C186.054 71.728 186.566 73.072 186.566 74.8V86H181.542V75.856C181.542 74.896 181.329 74.1813 180.902 73.712C180.475 73.2213 179.889 72.976 179.142 72.976C178.63 72.976 178.182 73.104 177.798 73.36C177.414 73.616 177.115 73.968 176.902 74.416C176.71 74.8427 176.614 75.344 176.614 75.92V86H171.59ZM198.202 86.32C196.474 86.32 194.991 85.968 193.754 85.264C192.516 84.56 191.556 83.5893 190.874 82.352C190.212 81.1147 189.882 79.7067 189.882 78.128V77.52C189.882 75.8987 190.212 74.4693 190.874 73.232C191.556 71.9947 192.516 71.0347 193.754 70.352C194.991 69.6693 196.463 69.328 198.17 69.328C199.919 69.328 201.412 69.68 202.65 70.384C203.908 71.0667 204.868 72.0267 205.53 73.264C206.191 74.48 206.522 75.8987 206.522 77.52V78.128C206.522 79.7493 206.18 81.1787 205.498 82.416C204.836 83.6533 203.887 84.6133 202.65 85.296C201.412 85.9787 199.93 86.32 198.202 86.32ZM198.202 83.12C199.055 83.12 199.759 82.8 200.314 82.16C200.89 81.52 201.178 80.688 201.178 79.664V75.984C201.178 74.9387 200.89 74.1067 200.314 73.488C199.759 72.848 199.055 72.528 198.202 72.528C197.37 72.528 196.666 72.848 196.09 73.488C195.514 74.1067 195.226 74.9387 195.226 75.984V79.664C195.226 80.688 195.514 81.52 196.09 82.16C196.666 82.8 197.37 83.12 198.202 83.12ZM210.669 86L207.789 69.648H211.693L213.517 79.792H213.645L215.437 69.648H219.501L221.197 79.792H221.325L223.117 69.648H226.989L224.141 86H219.181L217.549 76.176H217.421L215.693 86H210.669ZM236.673 86.32C234.774 86.32 233.206 86 231.969 85.36C230.753 84.6987 229.846 83.76 229.249 82.544C228.673 81.328 228.385 79.8987 228.385 78.256V77.392C228.385 75.6853 228.726 74.2347 229.409 73.04C230.113 71.824 231.094 70.9067 232.353 70.288C233.633 69.648 235.137 69.328 236.865 69.328C238.465 69.328 239.841 69.6267 240.993 70.224C242.166 70.8 243.062 71.6213 243.681 72.688C244.321 73.7333 244.641 74.992 244.641 76.464V78.768H233.729V79.632C233.729 80.8053 234.017 81.68 234.593 82.256C235.169 82.832 235.926 83.12 236.865 83.12C237.91 83.12 238.689 82.8747 239.201 82.384C239.713 81.872 239.969 81.0933 239.969 80.048H244.641C244.641 81.3707 244.31 82.5013 243.649 83.44C243.009 84.3787 242.091 85.0933 240.897 85.584C239.723 86.0747 238.315 86.32 236.673 86.32ZM233.729 75.984H239.713V75.568C239.713 74.9707 239.585 74.448 239.329 74C239.073 73.5307 238.721 73.168 238.273 72.912C237.846 72.656 237.345 72.528 236.769 72.528C236.15 72.528 235.617 72.6773 235.169 72.976C234.721 73.2533 234.369 73.6373 234.113 74.128C233.857 74.6187 233.729 75.152 233.729 75.728V75.984ZM251.092 86V73.328H247.7V69.648H255.188L255.412 71.728C255.753 71.0453 256.297 70.48 257.044 70.032C257.791 69.5627 258.719 69.328 259.828 69.328C261.3 69.328 262.441 69.7547 263.252 70.608C264.084 71.4613 264.5 72.592 264.5 74C264.5 74.3413 264.489 74.6827 264.468 75.024C264.468 75.344 264.436 75.6853 264.372 76.048H260.212V75.184C260.212 74.8 260.127 74.448 259.956 74.128C259.807 73.7867 259.572 73.52 259.252 73.328C258.953 73.136 258.58 73.04 258.132 73.04C257.684 73.04 257.3 73.1573 256.98 73.392C256.66 73.6267 256.415 73.936 256.244 74.32C256.073 74.6827 255.988 75.088 255.988 75.536V86H251.092ZM247.636 86V82.384H262.164V86H247.636Z" fill="white"/>
<path d="M278.472 86V79.56H266.512V74.72C266.938 74 267.405 73.1333 267.912 72.12C268.445 71.08 268.992 69.96 269.552 68.76C270.112 67.5333 270.658 66.28 271.192 65C271.725 63.72 272.205 62.4933 272.632 61.32C273.058 60.1467 273.405 59.0933 273.672 58.16H279.392C279.178 59.1467 278.832 60.2533 278.352 61.48C277.898 62.68 277.352 63.9333 276.712 65.24C276.098 66.5467 275.445 67.8133 274.752 69.04C274.085 70.24 273.418 71.3467 272.752 72.36C272.085 73.3467 271.472 74.1467 270.912 74.76H278.472V68.96C278.738 68.56 279.045 68.04 279.392 67.4C279.738 66.7333 280.072 66.04 280.392 65.32C280.738 64.5733 281.045 63.8533 281.312 63.16C281.578 62.4667 281.778 61.8933 281.912 61.44H284.512V74.76H288.272V79.56H284.512V86H278.472Z" fill="#E14CFF"/>
<path d="M97.9407 168.28V163.32H95.5407L95.5107 164.34C95.4907 164.773 95.4607 165.183 95.4207 165.57C95.3873 165.957 95.334 166.31 95.2607 166.63C95.1873 166.943 95.0907 167.21 94.9707 167.43C94.8573 167.65 94.714 167.807 94.5407 167.9L92.8107 167.68C93.0507 167.687 93.2473 167.603 93.4007 167.43C93.5607 167.257 93.6873 167.013 93.7807 166.7C93.874 166.38 93.9407 166.007 93.9807 165.58C94.0273 165.153 94.0607 164.69 94.0807 164.19L94.1607 162H99.5407V168.28H97.9407ZM92.5807 170.45L92.5907 167.68H100.521V170.45H99.0207V169H94.0807V170.45H92.5807ZM104.711 169V167.95L104.611 167.72V165.84C104.611 165.507 104.508 165.247 104.301 165.06C104.101 164.873 103.791 164.78 103.371 164.78C103.085 164.78 102.801 164.827 102.521 164.92C102.248 165.007 102.015 165.127 101.821 165.28L101.261 164.19C101.555 163.983 101.908 163.823 102.321 163.71C102.735 163.597 103.155 163.54 103.581 163.54C104.401 163.54 105.038 163.733 105.491 164.12C105.945 164.507 106.171 165.11 106.171 165.93V169H104.711ZM103.071 169.08C102.651 169.08 102.291 169.01 101.991 168.87C101.691 168.723 101.461 168.527 101.301 168.28C101.141 168.033 101.061 167.757 101.061 167.45C101.061 167.13 101.138 166.85 101.291 166.61C101.451 166.37 101.701 166.183 102.041 166.05C102.381 165.91 102.825 165.84 103.371 165.84H104.801V166.75H103.541C103.175 166.75 102.921 166.81 102.781 166.93C102.648 167.05 102.581 167.2 102.581 167.38C102.581 167.58 102.658 167.74 102.811 167.86C102.971 167.973 103.188 168.03 103.461 168.03C103.721 168.03 103.955 167.97 104.161 167.85C104.368 167.723 104.518 167.54 104.611 167.3L104.851 168.02C104.738 168.367 104.531 168.63 104.231 168.81C103.931 168.99 103.545 169.08 103.071 169.08ZM108.676 169V164.54L109.026 164.9H106.856V163.62H112.046V164.9H109.876L110.226 164.54V169H108.676ZM116.098 169V167.95L115.998 167.72V165.84C115.998 165.507 115.895 165.247 115.688 165.06C115.488 164.873 115.178 164.78 114.758 164.78C114.471 164.78 114.188 164.827 113.908 164.92C113.635 165.007 113.401 165.127 113.208 165.28L112.648 164.19C112.941 163.983 113.295 163.823 113.708 163.71C114.121 163.597 114.541 163.54 114.968 163.54C115.788 163.54 116.425 163.733 116.878 164.12C117.331 164.507 117.558 165.11 117.558 165.93V169H116.098ZM114.458 169.08C114.038 169.08 113.678 169.01 113.378 168.87C113.078 168.723 112.848 168.527 112.688 168.28C112.528 168.033 112.448 167.757 112.448 167.45C112.448 167.13 112.525 166.85 112.678 166.61C112.838 166.37 113.088 166.183 113.428 166.05C113.768 165.91 114.211 165.84 114.758 165.84H116.188V166.75H114.928C114.561 166.75 114.308 166.81 114.168 166.93C114.035 167.05 113.968 167.2 113.968 167.38C113.968 167.58 114.045 167.74 114.198 167.86C114.358 167.973 114.575 168.03 114.848 168.03C115.108 168.03 115.341 167.97 115.548 167.85C115.755 167.723 115.905 167.54 115.998 167.3L116.238 168.02C116.125 168.367 115.918 168.63 115.618 168.81C115.318 168.99 114.931 169.08 114.458 169.08ZM121.745 169V163.62H127.095V169H125.535V164.55L125.885 164.9H122.945L123.295 164.55V169H121.745ZM129.321 171.02C129.041 171.02 128.764 170.977 128.491 170.89C128.217 170.803 127.994 170.683 127.821 170.53L128.391 169.42C128.511 169.527 128.647 169.61 128.801 169.67C128.961 169.73 129.117 169.76 129.271 169.76C129.491 169.76 129.664 169.707 129.791 169.6C129.924 169.5 130.044 169.33 130.151 169.09L130.431 168.43L130.551 168.26L132.481 163.62H133.981L131.551 169.33C131.377 169.763 131.177 170.103 130.951 170.35C130.731 170.597 130.484 170.77 130.211 170.87C129.944 170.97 129.647 171.02 129.321 171.02ZM130.241 169.21L127.841 163.62H129.451L131.311 168.12L130.241 169.21ZM137.374 169.12C136.934 169.12 136.534 169.057 136.174 168.93C135.814 168.797 135.501 168.593 135.234 168.32C134.974 168.04 134.771 167.683 134.624 167.25C134.484 166.817 134.414 166.3 134.414 165.7C134.414 165.273 134.451 164.883 134.524 164.53C134.597 164.177 134.707 163.857 134.854 163.57C135.001 163.277 135.187 163.02 135.414 162.8C135.647 162.573 135.917 162.387 136.224 162.24C136.537 162.087 136.891 161.97 137.284 161.89L139.844 161.38L140.054 162.72L137.794 163.17C137.661 163.197 137.507 163.233 137.334 163.28C137.167 163.32 136.997 163.383 136.824 163.47C136.657 163.557 136.501 163.68 136.354 163.84C136.214 163.993 136.101 164.197 136.014 164.45C135.927 164.697 135.884 165.003 135.884 165.37C135.884 165.483 135.887 165.57 135.894 165.63C135.907 165.69 135.917 165.753 135.924 165.82C135.937 165.887 135.944 165.99 135.944 166.13L135.444 165.64C135.591 165.327 135.777 165.06 136.004 164.84C136.237 164.62 136.504 164.453 136.804 164.34C137.111 164.22 137.451 164.16 137.824 164.16C138.331 164.16 138.774 164.263 139.154 164.47C139.541 164.67 139.841 164.953 140.054 165.32C140.267 165.687 140.374 166.103 140.374 166.57C140.374 167.077 140.247 167.523 139.994 167.91C139.741 168.29 139.387 168.587 138.934 168.8C138.487 169.013 137.967 169.12 137.374 169.12ZM137.454 167.91C137.714 167.91 137.944 167.853 138.144 167.74C138.344 167.62 138.497 167.463 138.604 167.27C138.717 167.07 138.774 166.847 138.774 166.6C138.774 166.36 138.717 166.147 138.604 165.96C138.497 165.773 138.344 165.627 138.144 165.52C137.944 165.413 137.711 165.36 137.444 165.36C137.184 165.36 136.951 165.413 136.744 165.52C136.537 165.62 136.377 165.76 136.264 165.94C136.151 166.12 136.094 166.33 136.094 166.57C136.094 166.817 136.151 167.043 136.264 167.25C136.384 167.45 136.544 167.61 136.744 167.73C136.951 167.85 137.187 167.91 137.454 167.91ZM140.674 168.99L140.754 167.71C140.794 167.717 140.834 167.723 140.874 167.73C140.914 167.73 140.951 167.73 140.984 167.73C141.171 167.73 141.318 167.677 141.424 167.57C141.531 167.463 141.611 167.32 141.664 167.14C141.718 166.953 141.754 166.743 141.774 166.51C141.801 166.277 141.821 166.033 141.834 165.78L141.914 163.62H146.514V169H144.954V164.52L145.304 164.9H142.944L143.274 164.5L143.204 165.85C143.184 166.33 143.144 166.77 143.084 167.17C143.031 167.57 142.941 167.917 142.814 168.21C142.688 168.497 142.518 168.72 142.304 168.88C142.091 169.033 141.818 169.11 141.484 169.11C141.364 169.11 141.238 169.1 141.104 169.08C140.971 169.06 140.828 169.03 140.674 168.99ZM148.015 169V163.62H149.565V166.82L152.185 163.62H153.615V169H152.065V165.8L149.455 169H148.015ZM158.924 169L157.124 166.45L158.394 165.7L160.764 169H158.924ZM155.114 169V163.62H156.674V169H155.114ZM156.214 166.96V165.71H158.094V166.96H156.214ZM158.544 166.49L157.084 166.33L158.974 163.62H160.634L158.544 166.49ZM164.653 169V167.95L164.553 167.72V165.84C164.553 165.507 164.449 165.247 164.243 165.06C164.043 164.873 163.733 164.78 163.313 164.78C163.026 164.78 162.743 164.827 162.463 164.92C162.189 165.007 161.956 165.127 161.763 165.28L161.203 164.19C161.496 163.983 161.849 163.823 162.263 163.71C162.676 163.597 163.096 163.54 163.523 163.54C164.343 163.54 164.979 163.733 165.433 164.12C165.886 164.507 166.113 165.11 166.113 165.93V169H164.653ZM163.013 169.08C162.593 169.08 162.233 169.01 161.933 168.87C161.633 168.723 161.403 168.527 161.243 168.28C161.083 168.033 161.003 167.757 161.003 167.45C161.003 167.13 161.079 166.85 161.233 166.61C161.393 166.37 161.643 166.183 161.983 166.05C162.323 165.91 162.766 165.84 163.313 165.84H164.743V166.75H163.483C163.116 166.75 162.863 166.81 162.723 166.93C162.589 167.05 162.523 167.2 162.523 167.38C162.523 167.58 162.599 167.74 162.753 167.86C162.913 167.973 163.129 168.03 163.403 168.03C163.663 168.03 163.896 167.97 164.103 167.85C164.309 167.723 164.459 167.54 164.553 167.3L164.793 168.02C164.679 168.367 164.473 168.63 164.173 168.81C163.873 168.99 163.486 169.08 163.013 169.08ZM167.468 169V163.62H169.018V167.72H171.188V163.62H172.748V169H167.468ZM172.078 170.16V168.98L172.438 169H171.188V167.72H173.528V170.16H172.078ZM174.509 169V163.62H176.059V166.82L178.679 163.62H180.109V169H178.559V165.8L175.949 169H174.509ZM181.608 169V163.62H183.158V166.82L185.778 163.62H187.208V169H185.658V165.8L183.048 169H181.608ZM189.268 165.49C189.001 165.49 188.771 165.4 188.578 165.22C188.391 165.033 188.298 164.797 188.298 164.51C188.298 164.223 188.391 163.993 188.578 163.82C188.771 163.64 189.001 163.55 189.268 163.55C189.541 163.55 189.771 163.64 189.958 163.82C190.145 163.993 190.238 164.223 190.238 164.51C190.238 164.797 190.145 165.033 189.958 165.22C189.771 165.4 189.541 165.49 189.268 165.49ZM189.268 169.08C189.001 169.08 188.771 168.99 188.578 168.81C188.391 168.623 188.298 168.387 188.298 168.1C188.298 167.813 188.391 167.583 188.578 167.41C188.771 167.23 189.001 167.14 189.268 167.14C189.541 167.14 189.771 167.23 189.958 167.41C190.145 167.583 190.238 167.813 190.238 168.1C190.238 168.387 190.145 168.623 189.958 168.81C189.771 168.99 189.541 169.08 189.268 169.08ZM194.921 169V162.4L195.351 162.87H193.341V162H195.911V169H194.921ZM197.332 169V168.32L200.182 165.57C200.435 165.33 200.622 165.12 200.742 164.94C200.869 164.753 200.952 164.583 200.992 164.43C201.039 164.27 201.062 164.117 201.062 163.97C201.062 163.61 200.935 163.327 200.682 163.12C200.429 162.913 200.059 162.81 199.572 162.81C199.199 162.81 198.862 162.873 198.562 163C198.262 163.12 198.002 163.31 197.782 163.57L197.102 162.98C197.369 162.64 197.725 162.38 198.172 162.2C198.625 162.013 199.122 161.92 199.662 161.92C200.149 161.92 200.572 162 200.932 162.16C201.292 162.313 201.569 162.537 201.762 162.83C201.962 163.123 202.062 163.47 202.062 163.87C202.062 164.097 202.032 164.32 201.972 164.54C201.912 164.76 201.799 164.993 201.632 165.24C201.465 165.487 201.225 165.763 200.912 166.07L198.372 168.52L198.132 168.13H202.362V169H197.332ZM206.32 169V163.7H207.31L209.59 167.62H209.19L211.53 163.7H212.43V169H211.56V164.78L211.72 164.87L209.58 168.4H209.16L207.01 164.8L207.2 164.76V169H206.32ZM217.548 169V167.88L217.498 167.67V165.76C217.498 165.353 217.378 165.04 217.138 164.82C216.905 164.593 216.551 164.48 216.078 164.48C215.765 164.48 215.458 164.533 215.158 164.64C214.858 164.74 214.605 164.877 214.398 165.05L213.998 164.33C214.271 164.11 214.598 163.943 214.978 163.83C215.365 163.71 215.768 163.65 216.188 163.65C216.915 163.65 217.475 163.827 217.868 164.18C218.261 164.533 218.458 165.073 218.458 165.8V169H217.548ZM215.808 169.06C215.415 169.06 215.068 168.993 214.768 168.86C214.475 168.727 214.248 168.543 214.088 168.31C213.928 168.07 213.848 167.8 213.848 167.5C213.848 167.213 213.915 166.953 214.048 166.72C214.188 166.487 214.411 166.3 214.718 166.16C215.031 166.02 215.451 165.95 215.978 165.95H217.658V166.64H216.018C215.538 166.64 215.215 166.72 215.048 166.88C214.881 167.04 214.798 167.233 214.798 167.46C214.798 167.72 214.901 167.93 215.108 168.09C215.315 168.243 215.601 168.32 215.968 168.32C216.328 168.32 216.641 168.24 216.908 168.08C217.181 167.92 217.378 167.687 217.498 167.38L217.688 168.04C217.561 168.353 217.338 168.603 217.018 168.79C216.698 168.97 216.295 169.06 215.808 169.06ZM222.997 169.06C222.557 169.06 222.154 168.96 221.787 168.76C221.427 168.553 221.137 168.25 220.917 167.85C220.704 167.45 220.597 166.95 220.597 166.35C220.597 165.75 220.7 165.25 220.907 164.85C221.12 164.45 221.407 164.15 221.767 163.95C222.134 163.75 222.544 163.65 222.997 163.65C223.517 163.65 223.977 163.763 224.377 163.99C224.777 164.217 225.094 164.533 225.327 164.94C225.56 165.34 225.677 165.81 225.677 166.35C225.677 166.89 225.56 167.363 225.327 167.77C225.094 168.177 224.777 168.493 224.377 168.72C223.977 168.947 223.517 169.06 222.997 169.06ZM220.187 170.94V163.7H221.107V165.13L221.047 166.36L221.147 167.59V170.94H220.187ZM222.917 168.22C223.257 168.22 223.56 168.143 223.827 167.99C224.1 167.837 224.314 167.62 224.467 167.34C224.627 167.053 224.707 166.723 224.707 166.35C224.707 165.97 224.627 165.643 224.467 165.37C224.314 165.09 224.1 164.873 223.827 164.72C223.56 164.567 223.257 164.49 222.917 164.49C222.584 164.49 222.28 164.567 222.007 164.72C221.74 164.873 221.527 165.09 221.367 165.37C221.214 165.643 221.137 165.97 221.137 166.35C221.137 166.723 221.214 167.053 221.367 167.34C221.527 167.62 221.74 167.837 222.007 167.99C222.28 168.143 222.584 168.22 222.917 168.22ZM227.926 169V164.29L228.166 164.54H225.986V163.7H230.826V164.54H228.656L228.886 164.29V169H227.926ZM235.058 169V167.88L235.008 167.67V165.76C235.008 165.353 234.888 165.04 234.648 164.82C234.415 164.593 234.061 164.48 233.588 164.48C233.275 164.48 232.968 164.533 232.668 164.64C232.368 164.74 232.115 164.877 231.908 165.05L231.508 164.33C231.781 164.11 232.108 163.943 232.488 163.83C232.875 163.71 233.278 163.65 233.698 163.65C234.425 163.65 234.985 163.827 235.378 164.18C235.771 164.533 235.968 165.073 235.968 165.8V169H235.058ZM233.318 169.06C232.925 169.06 232.578 168.993 232.278 168.86C231.985 168.727 231.758 168.543 231.598 168.31C231.438 168.07 231.358 167.8 231.358 167.5C231.358 167.213 231.425 166.953 231.558 166.72C231.698 166.487 231.921 166.3 232.228 166.16C232.541 166.02 232.961 165.95 233.488 165.95H235.168V166.64H233.528C233.048 166.64 232.725 166.72 232.558 166.88C232.391 167.04 232.308 167.233 232.308 167.46C232.308 167.72 232.411 167.93 232.618 168.09C232.825 168.243 233.111 168.32 233.478 168.32C233.838 168.32 234.151 168.24 234.418 168.08C234.691 167.92 234.888 167.687 235.008 167.38L235.198 168.04C235.071 168.353 234.848 168.603 234.528 168.79C234.208 168.97 233.805 169.06 233.318 169.06ZM239.822 169V168.32L242.672 165.57C242.925 165.33 243.112 165.12 243.232 164.94C243.359 164.753 243.442 164.583 243.482 164.43C243.529 164.27 243.552 164.117 243.552 163.97C243.552 163.61 243.425 163.327 243.172 163.12C242.919 162.913 242.549 162.81 242.062 162.81C241.689 162.81 241.352 162.873 241.052 163C240.752 163.12 240.492 163.31 240.272 163.57L239.592 162.98C239.859 162.64 240.215 162.38 240.662 162.2C241.115 162.013 241.612 161.92 242.152 161.92C242.639 161.92 243.062 162 243.422 162.16C243.782 162.313 244.059 162.537 244.252 162.83C244.452 163.123 244.552 163.47 244.552 163.87C244.552 164.097 244.522 164.32 244.462 164.54C244.402 164.76 244.289 164.993 244.122 165.24C243.955 165.487 243.715 165.763 243.402 166.07L240.862 168.52L240.622 168.13H244.852V169H239.822ZM248.525 169.08C247.978 169.08 247.488 168.94 247.055 168.66C246.628 168.38 246.288 167.973 246.035 167.44C245.788 166.907 245.665 166.26 245.665 165.5C245.665 164.74 245.788 164.093 246.035 163.56C246.288 163.027 246.628 162.62 247.055 162.34C247.488 162.06 247.978 161.92 248.525 161.92C249.065 161.92 249.551 162.06 249.985 162.34C250.418 162.62 250.758 163.027 251.005 163.56C251.251 164.093 251.375 164.74 251.375 165.5C251.375 166.26 251.251 166.907 251.005 167.44C250.758 167.973 250.418 168.38 249.985 168.66C249.551 168.94 249.065 169.08 248.525 169.08ZM248.525 168.19C248.891 168.19 249.211 168.09 249.485 167.89C249.765 167.69 249.981 167.39 250.135 166.99C250.295 166.59 250.375 166.093 250.375 165.5C250.375 164.907 250.295 164.41 250.135 164.01C249.981 163.61 249.765 163.31 249.485 163.11C249.211 162.91 248.891 162.81 248.525 162.81C248.158 162.81 247.835 162.91 247.555 163.11C247.275 163.31 247.055 163.61 246.895 164.01C246.741 164.41 246.665 164.907 246.665 165.5C246.665 166.093 246.741 166.59 246.895 166.99C247.055 167.39 247.275 167.69 247.555 167.89C247.835 168.09 248.158 168.19 248.525 168.19ZM252.224 169V168.32L255.074 165.57C255.328 165.33 255.514 165.12 255.634 164.94C255.761 164.753 255.844 164.583 255.884 164.43C255.931 164.27 255.954 164.117 255.954 163.97C255.954 163.61 255.828 163.327 255.574 163.12C255.321 162.913 254.951 162.81 254.464 162.81C254.091 162.81 253.754 162.873 253.454 163C253.154 163.12 252.894 163.31 252.674 163.57L251.994 162.98C252.261 162.64 252.618 162.38 253.064 162.2C253.518 162.013 254.014 161.92 254.554 161.92C255.041 161.92 255.464 162 255.824 162.16C256.184 162.313 256.461 162.537 256.654 162.83C256.854 163.123 256.954 163.47 256.954 163.87C256.954 164.097 256.924 164.32 256.864 164.54C256.804 164.76 256.691 164.993 256.524 165.24C256.358 165.487 256.118 165.763 255.804 166.07L253.264 168.52L253.024 168.13H257.254V169H252.224ZM260.337 169.08C259.843 169.08 259.363 169.003 258.897 168.85C258.437 168.697 258.06 168.49 257.767 168.23L258.227 167.44C258.46 167.66 258.763 167.84 259.137 167.98C259.51 168.12 259.907 168.19 260.327 168.19C260.86 168.19 261.27 168.077 261.557 167.85C261.843 167.623 261.987 167.32 261.987 166.94C261.987 166.68 261.923 166.453 261.797 166.26C261.67 166.067 261.45 165.92 261.137 165.82C260.83 165.713 260.407 165.66 259.867 165.66H258.277L258.647 162H262.597V162.87H259.017L259.537 162.38L259.247 165.27L258.727 164.79H260.077C260.777 164.79 261.34 164.88 261.767 165.06C262.193 165.24 262.503 165.49 262.697 165.81C262.89 166.123 262.987 166.487 262.987 166.9C262.987 167.3 262.89 167.667 262.697 168C262.503 168.327 262.21 168.59 261.817 168.79C261.43 168.983 260.937 169.08 260.337 169.08ZM266.954 169V163.7H270.854V164.54H267.684L267.914 164.32V169H266.954ZM273.873 169.06C273.34 169.06 272.866 168.943 272.453 168.71C272.04 168.477 271.713 168.157 271.473 167.75C271.233 167.337 271.113 166.87 271.113 166.35C271.113 165.823 271.233 165.357 271.473 164.95C271.713 164.543 272.04 164.227 272.453 164C272.866 163.767 273.34 163.65 273.873 163.65C274.4 163.65 274.87 163.767 275.283 164C275.703 164.227 276.03 164.543 276.263 164.95C276.503 165.35 276.623 165.817 276.623 166.35C276.623 166.877 276.503 167.343 276.263 167.75C276.03 168.157 275.703 168.477 275.283 168.71C274.87 168.943 274.4 169.06 273.873 169.06ZM273.873 168.22C274.213 168.22 274.516 168.143 274.783 167.99C275.056 167.837 275.27 167.62 275.423 167.34C275.576 167.053 275.653 166.723 275.653 166.35C275.653 165.97 275.576 165.643 275.423 165.37C275.27 165.09 275.056 164.873 274.783 164.72C274.516 164.567 274.213 164.49 273.873 164.49C273.533 164.49 273.23 164.567 272.963 164.72C272.696 164.873 272.483 165.09 272.323 165.37C272.163 165.643 272.083 165.97 272.083 166.35C272.083 166.723 272.163 167.053 272.323 167.34C272.483 167.62 272.696 167.837 272.963 167.99C273.23 168.143 273.533 168.22 273.873 168.22ZM281.59 168.55V164.54H279.29L279.24 165.56C279.227 165.893 279.203 166.217 279.17 166.53C279.143 166.837 279.097 167.12 279.03 167.38C278.97 167.64 278.88 167.853 278.76 168.02C278.64 168.187 278.48 168.29 278.28 168.33L277.33 168.16C277.537 168.167 277.703 168.1 277.83 167.96C277.957 167.813 278.053 167.613 278.12 167.36C278.193 167.107 278.247 166.82 278.28 166.5C278.313 166.173 278.34 165.837 278.36 165.49L278.44 163.7H282.55V168.55H281.59ZM277.12 170.23V168.16H283.36V170.23H282.46V169H278.03V170.23H277.12ZM287.861 169V167.88L287.811 167.67V165.76C287.811 165.353 287.691 165.04 287.451 164.82C287.217 164.593 286.864 164.48 286.391 164.48C286.077 164.48 285.771 164.533 285.471 164.64C285.171 164.74 284.917 164.877 284.711 165.05L284.311 164.33C284.584 164.11 284.911 163.943 285.291 163.83C285.677 163.71 286.081 163.65 286.501 163.65C287.227 163.65 287.787 163.827 288.181 164.18C288.574 164.533 288.771 165.073 288.771 165.8V169H287.861ZM286.121 169.06C285.727 169.06 285.381 168.993 285.081 168.86C284.787 168.727 284.561 168.543 284.401 168.31C284.241 168.07 284.161 167.8 284.161 167.5C284.161 167.213 284.227 166.953 284.361 166.72C284.501 166.487 284.724 166.3 285.031 166.16C285.344 166.02 285.764 165.95 286.291 165.95H287.971V166.64H286.331C285.851 166.64 285.527 166.72 285.361 166.88C285.194 167.04 285.111 167.233 285.111 167.46C285.111 167.72 285.214 167.93 285.421 168.09C285.627 168.243 285.914 168.32 286.281 168.32C286.641 168.32 286.954 168.24 287.221 168.08C287.494 167.92 287.691 167.687 287.811 167.38L288.001 168.04C287.874 168.353 287.651 168.603 287.331 168.79C287.011 168.97 286.607 169.06 286.121 169.06Z" fill="white"/>
<path d="M48.606 129.168C47.7847 129.168 47.066 129.047 46.45 128.804C45.834 128.552 45.3533 128.202 45.008 127.754C44.6627 127.297 44.49 126.765 44.49 126.158C44.49 125.551 44.658 125.038 44.994 124.618C45.3393 124.189 45.82 123.867 46.436 123.652C47.052 123.428 47.7753 123.316 48.606 123.316C49.446 123.316 50.174 123.428 50.79 123.652C51.4153 123.867 51.896 124.189 52.232 124.618C52.5773 125.038 52.75 125.551 52.75 126.158C52.75 126.765 52.5773 127.297 52.232 127.754C51.8867 128.202 51.4013 128.552 50.776 128.804C50.16 129.047 49.4367 129.168 48.606 129.168ZM48.606 127.502C49.1753 127.502 49.6233 127.376 49.95 127.124C50.286 126.872 50.454 126.527 50.454 126.088C50.454 125.649 50.286 125.309 49.95 125.066C49.6233 124.814 49.1753 124.688 48.606 124.688C48.046 124.688 47.6027 124.814 47.276 125.066C46.9493 125.309 46.786 125.649 46.786 126.088C46.786 126.527 46.9493 126.872 47.276 127.124C47.6027 127.376 48.046 127.502 48.606 127.502ZM48.606 124.464C47.85 124.464 47.1873 124.361 46.618 124.156C46.058 123.951 45.6193 123.652 45.302 123.26C44.994 122.859 44.84 122.383 44.84 121.832C44.84 121.253 44.9987 120.759 45.316 120.348C45.6333 119.928 46.0767 119.606 46.646 119.382C47.2153 119.149 47.8687 119.032 48.606 119.032C49.362 119.032 50.02 119.149 50.58 119.382C51.1493 119.606 51.5927 119.928 51.91 120.348C52.2367 120.759 52.4 121.253 52.4 121.832C52.4 122.383 52.2413 122.859 51.924 123.26C51.616 123.652 51.1773 123.951 50.608 124.156C50.0387 124.361 49.3713 124.464 48.606 124.464ZM48.606 123.134C49.082 123.134 49.4553 123.027 49.726 122.812C50.006 122.597 50.146 122.303 50.146 121.93C50.146 121.538 50.0013 121.235 49.712 121.02C49.432 120.805 49.0633 120.698 48.606 120.698C48.158 120.698 47.794 120.805 47.514 121.02C47.234 121.235 47.094 121.538 47.094 121.93C47.094 122.303 47.2293 122.597 47.5 122.812C47.7707 123.027 48.1393 123.134 48.606 123.134ZM57.9882 129.168C57.1855 129.168 56.4669 128.972 55.8322 128.58C55.1975 128.179 54.6982 127.6 54.3342 126.844C53.9702 126.088 53.7882 125.173 53.7882 124.1C53.7882 123.027 53.9702 122.112 54.3342 121.356C54.6982 120.6 55.1975 120.026 55.8322 119.634C56.4669 119.233 57.1855 119.032 57.9882 119.032C58.8002 119.032 59.5189 119.233 60.1442 119.634C60.7789 120.026 61.2782 120.6 61.6422 121.356C62.0062 122.112 62.1882 123.027 62.1882 124.1C62.1882 125.173 62.0062 126.088 61.6422 126.844C61.2782 127.6 60.7789 128.179 60.1442 128.58C59.5189 128.972 58.8002 129.168 57.9882 129.168ZM57.9882 127.25C58.3709 127.25 58.7022 127.143 58.9822 126.928C59.2715 126.713 59.4955 126.373 59.6542 125.906C59.8222 125.439 59.9062 124.837 59.9062 124.1C59.9062 123.363 59.8222 122.761 59.6542 122.294C59.4955 121.827 59.2715 121.487 58.9822 121.272C58.7022 121.057 58.3709 120.95 57.9882 120.95C57.6149 120.95 57.2835 121.057 56.9942 121.272C56.7142 121.487 56.4902 121.827 56.3222 122.294C56.1635 122.761 56.0842 123.363 56.0842 124.1C56.0842 124.837 56.1635 125.439 56.3222 125.906C56.4902 126.373 56.7142 126.713 56.9942 126.928C57.2835 127.143 57.6149 127.25 57.9882 127.25ZM68.389 131.8C68.0343 131.8 67.689 131.739 67.353 131.618C67.017 131.506 66.7277 131.338 66.485 131.114L67.059 130.106C67.2457 130.283 67.451 130.419 67.675 130.512C67.899 130.605 68.137 130.652 68.389 130.652C68.7157 130.652 68.9863 130.568 69.201 130.4C69.4157 130.232 69.6163 129.933 69.803 129.504L70.265 128.482L70.405 128.314L73.317 121.58H74.633L71.035 129.742C70.8203 130.265 70.5777 130.675 70.307 130.974C70.0457 131.273 69.7563 131.483 69.439 131.604C69.1217 131.735 68.7717 131.8 68.389 131.8ZM70.153 129.238L66.765 121.58H68.165L71.049 128.188L70.153 129.238ZM79.943 129.084C79.327 129.084 78.7624 128.944 78.249 128.664C77.745 128.375 77.339 127.95 77.031 127.39C76.7324 126.83 76.583 126.13 76.583 125.29C76.583 124.45 76.7277 123.75 77.017 123.19C77.3157 122.63 77.717 122.21 78.221 121.93C78.7344 121.65 79.3084 121.51 79.943 121.51C80.671 121.51 81.315 121.669 81.875 121.986C82.435 122.303 82.8784 122.747 83.205 123.316C83.5317 123.876 83.695 124.534 83.695 125.29C83.695 126.046 83.5317 126.709 83.205 127.278C82.8784 127.847 82.435 128.291 81.875 128.608C81.315 128.925 80.671 129.084 79.943 129.084ZM76.009 131.716V121.58H77.297V123.582L77.213 125.304L77.353 127.026V131.716H76.009ZM79.831 127.908C80.307 127.908 80.7317 127.801 81.105 127.586C81.4877 127.371 81.7864 127.068 82.001 126.676C82.225 126.275 82.337 125.813 82.337 125.29C82.337 124.758 82.225 124.301 82.001 123.918C81.7864 123.526 81.4877 123.223 81.105 123.008C80.7317 122.793 80.307 122.686 79.831 122.686C79.3644 122.686 78.9397 122.793 78.557 123.008C78.1837 123.223 77.885 123.526 77.661 123.918C77.4464 124.301 77.339 124.758 77.339 125.29C77.339 125.813 77.4464 126.275 77.661 126.676C77.885 127.068 78.1837 127.371 78.557 127.586C78.9397 127.801 79.3644 127.908 79.831 127.908ZM88.8257 129.084C88.079 129.084 87.4164 128.921 86.8377 128.594C86.259 128.267 85.8017 127.819 85.4657 127.25C85.1297 126.671 84.9617 126.018 84.9617 125.29C84.9617 124.553 85.1297 123.899 85.4657 123.33C85.8017 122.761 86.259 122.317 86.8377 122C87.4164 121.673 88.079 121.51 88.8257 121.51C89.563 121.51 90.221 121.673 90.7997 122C91.3877 122.317 91.845 122.761 92.1717 123.33C92.5077 123.89 92.6757 124.543 92.6757 125.29C92.6757 126.027 92.5077 126.681 92.1717 127.25C91.845 127.819 91.3877 128.267 90.7997 128.594C90.221 128.921 89.563 129.084 88.8257 129.084ZM88.8257 127.908C89.3017 127.908 89.7264 127.801 90.0997 127.586C90.4824 127.371 90.781 127.068 90.9957 126.676C91.2104 126.275 91.3177 125.813 91.3177 125.29C91.3177 124.758 91.2104 124.301 90.9957 123.918C90.781 123.526 90.4824 123.223 90.0997 123.008C89.7264 122.793 89.3017 122.686 88.8257 122.686C88.3497 122.686 87.925 122.793 87.5517 123.008C87.1784 123.223 86.8797 123.526 86.6557 123.918C86.4317 124.301 86.3197 124.758 86.3197 125.29C86.3197 125.813 86.4317 126.275 86.6557 126.676C86.8797 127.068 87.1784 127.371 87.5517 127.586C87.925 127.801 88.3497 127.908 88.8257 127.908ZM99.9925 129L97.1225 125.388L98.2285 124.716L101.574 129H99.9925ZM94.6165 129V121.58H95.9605V129H94.6165ZM95.5545 125.864V124.716H98.0045V125.864H95.5545ZM98.3405 125.444L97.0945 125.276L99.9365 121.58H101.378L98.3405 125.444ZM105.916 129.084C105.169 129.084 104.506 128.921 103.928 128.594C103.349 128.267 102.892 127.819 102.556 127.25C102.22 126.671 102.052 126.018 102.052 125.29C102.052 124.553 102.22 123.899 102.556 123.33C102.892 122.761 103.349 122.317 103.928 122C104.506 121.673 105.169 121.51 105.916 121.51C106.653 121.51 107.311 121.673 107.89 122C108.478 122.317 108.935 122.761 109.262 123.33C109.598 123.89 109.766 124.543 109.766 125.29C109.766 126.027 109.598 126.681 109.262 127.25C108.935 127.819 108.478 128.267 107.89 128.594C107.311 128.921 106.653 129.084 105.916 129.084ZM105.916 127.908C106.392 127.908 106.816 127.801 107.19 127.586C107.572 127.371 107.871 127.068 108.086 126.676C108.3 126.275 108.408 125.813 108.408 125.29C108.408 124.758 108.3 124.301 108.086 123.918C107.871 123.526 107.572 123.223 107.19 123.008C106.816 122.793 106.392 122.686 105.916 122.686C105.44 122.686 105.015 122.793 104.642 123.008C104.268 123.223 103.97 123.526 103.746 123.918C103.522 124.301 103.41 124.758 103.41 125.29C103.41 125.813 103.522 126.275 103.746 126.676C103.97 127.068 104.268 127.371 104.642 127.586C105.015 127.801 105.44 127.908 105.916 127.908ZM111.706 129V121.58H115.15C116.018 121.58 116.7 121.748 117.194 122.084C117.698 122.411 117.95 122.877 117.95 123.484C117.95 124.091 117.712 124.562 117.236 124.898C116.77 125.225 116.149 125.388 115.374 125.388L115.584 125.024C116.471 125.024 117.129 125.187 117.558 125.514C117.988 125.841 118.202 126.321 118.202 126.956C118.202 127.6 117.96 128.104 117.474 128.468C116.998 128.823 116.266 129 115.276 129H111.706ZM113.022 127.964H115.178C115.738 127.964 116.158 127.88 116.438 127.712C116.718 127.535 116.858 127.255 116.858 126.872C116.858 126.48 116.728 126.195 116.466 126.018C116.214 125.831 115.813 125.738 115.262 125.738H113.022V127.964ZM113.022 124.772H115.038C115.552 124.772 115.939 124.679 116.2 124.492C116.471 124.296 116.606 124.025 116.606 123.68C116.606 123.325 116.471 123.059 116.2 122.882C115.939 122.705 115.552 122.616 115.038 122.616H113.022V124.772Z" fill="white"/>
<path d="M165.928 129.168C165.032 129.168 164.253 128.981 163.59 128.608C162.937 128.235 162.433 127.689 162.078 126.97C161.723 126.251 161.546 125.365 161.546 124.31C161.546 123.181 161.756 122.224 162.176 121.44C162.605 120.656 163.193 120.059 163.94 119.648C164.696 119.237 165.564 119.032 166.544 119.032C167.067 119.032 167.566 119.088 168.042 119.2C168.518 119.312 168.929 119.48 169.274 119.704L168.434 121.37C168.163 121.183 167.874 121.057 167.566 120.992C167.258 120.917 166.936 120.88 166.6 120.88C165.751 120.88 165.079 121.137 164.584 121.65C164.089 122.163 163.842 122.924 163.842 123.932C163.842 124.1 163.842 124.287 163.842 124.492C163.851 124.697 163.879 124.903 163.926 125.108L163.296 124.52C163.473 124.156 163.702 123.853 163.982 123.61C164.262 123.358 164.593 123.171 164.976 123.05C165.368 122.919 165.797 122.854 166.264 122.854C166.899 122.854 167.468 122.98 167.972 123.232C168.476 123.484 168.877 123.839 169.176 124.296C169.484 124.753 169.638 125.29 169.638 125.906C169.638 126.569 169.47 127.147 169.134 127.642C168.807 128.127 168.364 128.505 167.804 128.776C167.253 129.037 166.628 129.168 165.928 129.168ZM165.802 127.474C166.119 127.474 166.399 127.418 166.642 127.306C166.894 127.185 167.09 127.012 167.23 126.788C167.37 126.564 167.44 126.307 167.44 126.018C167.44 125.57 167.286 125.215 166.978 124.954C166.679 124.683 166.278 124.548 165.774 124.548C165.438 124.548 165.144 124.613 164.892 124.744C164.64 124.865 164.439 125.038 164.29 125.262C164.15 125.477 164.08 125.729 164.08 126.018C164.08 126.298 164.15 126.55 164.29 126.774C164.43 126.989 164.626 127.161 164.878 127.292C165.13 127.413 165.438 127.474 165.802 127.474ZM173.638 129.168C172.957 129.168 172.28 129.079 171.608 128.902C170.936 128.715 170.367 128.454 169.9 128.118L170.782 126.382C171.155 126.653 171.589 126.867 172.084 127.026C172.579 127.185 173.078 127.264 173.582 127.264C174.151 127.264 174.599 127.152 174.926 126.928C175.253 126.704 175.416 126.396 175.416 126.004C175.416 125.631 175.271 125.337 174.982 125.122C174.693 124.907 174.226 124.8 173.582 124.8H172.546V123.302L175.276 120.208L175.528 121.02H170.39V119.2H177.25V120.67L174.534 123.764L173.386 123.106H174.044C175.248 123.106 176.158 123.377 176.774 123.918C177.39 124.459 177.698 125.155 177.698 126.004C177.698 126.555 177.553 127.073 177.264 127.558C176.975 128.034 176.531 128.421 175.934 128.72C175.337 129.019 174.571 129.168 173.638 129.168ZM182.945 129.168C182.143 129.168 181.424 128.972 180.789 128.58C180.155 128.179 179.655 127.6 179.291 126.844C178.927 126.088 178.745 125.173 178.745 124.1C178.745 123.027 178.927 122.112 179.291 121.356C179.655 120.6 180.155 120.026 180.789 119.634C181.424 119.233 182.143 119.032 182.945 119.032C183.757 119.032 184.476 119.233 185.101 119.634C185.736 120.026 186.235 120.6 186.599 121.356C186.963 122.112 187.145 123.027 187.145 124.1C187.145 125.173 186.963 126.088 186.599 126.844C186.235 127.6 185.736 128.179 185.101 128.58C184.476 128.972 183.757 129.168 182.945 129.168ZM182.945 127.25C183.328 127.25 183.659 127.143 183.939 126.928C184.229 126.713 184.453 126.373 184.611 125.906C184.779 125.439 184.863 124.837 184.863 124.1C184.863 123.363 184.779 122.761 184.611 122.294C184.453 121.827 184.229 121.487 183.939 121.272C183.659 121.057 183.328 120.95 182.945 120.95C182.572 120.95 182.241 121.057 181.951 121.272C181.671 121.487 181.447 121.827 181.279 122.294C181.121 122.761 181.041 123.363 181.041 124.1C181.041 124.837 181.121 125.439 181.279 125.906C181.447 126.373 181.671 126.713 181.951 126.928C182.241 127.143 182.572 127.25 182.945 127.25ZM195.138 129.098C194.578 129.098 194.027 129.028 193.486 128.888C192.954 128.739 192.478 128.529 192.058 128.258L192.464 127.236C192.819 127.46 193.225 127.637 193.682 127.768C194.139 127.889 194.601 127.95 195.068 127.95C195.497 127.95 195.866 127.899 196.174 127.796C196.491 127.693 196.734 127.553 196.902 127.376C197.07 127.189 197.154 126.975 197.154 126.732C197.154 126.387 197 126.121 196.692 125.934C196.384 125.747 195.955 125.654 195.404 125.654H194.06V124.688H195.32C195.647 124.688 195.931 124.651 196.174 124.576C196.417 124.501 196.603 124.389 196.734 124.24C196.874 124.081 196.944 123.899 196.944 123.694C196.944 123.47 196.865 123.279 196.706 123.12C196.547 122.961 196.323 122.84 196.034 122.756C195.754 122.672 195.423 122.63 195.04 122.63C194.667 122.639 194.284 122.691 193.892 122.784C193.509 122.877 193.117 123.022 192.716 123.218L192.352 122.168C192.8 121.953 193.239 121.79 193.668 121.678C194.107 121.557 194.541 121.491 194.97 121.482C195.614 121.463 196.188 121.538 196.692 121.706C197.196 121.865 197.593 122.098 197.882 122.406C198.181 122.714 198.33 123.078 198.33 123.498C198.33 123.853 198.218 124.17 197.994 124.45C197.77 124.721 197.471 124.935 197.098 125.094C196.725 125.253 196.295 125.332 195.81 125.332L195.866 125.01C196.697 125.01 197.35 125.173 197.826 125.5C198.302 125.827 198.54 126.27 198.54 126.83C198.54 127.278 198.391 127.675 198.092 128.02C197.793 128.356 197.387 128.622 196.874 128.818C196.37 129.005 195.791 129.098 195.138 129.098ZM205.133 129V127.432L205.063 127.138V124.464C205.063 123.895 204.895 123.456 204.559 123.148C204.233 122.831 203.738 122.672 203.075 122.672C202.637 122.672 202.207 122.747 201.787 122.896C201.367 123.036 201.013 123.227 200.723 123.47L200.163 122.462C200.546 122.154 201.003 121.921 201.535 121.762C202.077 121.594 202.641 121.51 203.229 121.51C204.247 121.51 205.031 121.757 205.581 122.252C206.132 122.747 206.407 123.503 206.407 124.52V129H205.133ZM202.697 129.084C202.147 129.084 201.661 128.991 201.241 128.804C200.831 128.617 200.513 128.361 200.289 128.034C200.065 127.698 199.953 127.32 199.953 126.9C199.953 126.499 200.047 126.135 200.233 125.808C200.429 125.481 200.742 125.22 201.171 125.024C201.61 124.828 202.198 124.73 202.935 124.73H205.287V125.696H202.991C202.319 125.696 201.867 125.808 201.633 126.032C201.4 126.256 201.283 126.527 201.283 126.844C201.283 127.208 201.428 127.502 201.717 127.726C202.007 127.941 202.408 128.048 202.921 128.048C203.425 128.048 203.864 127.936 204.237 127.712C204.62 127.488 204.895 127.161 205.063 126.732L205.329 127.656C205.152 128.095 204.839 128.445 204.391 128.706C203.943 128.958 203.379 129.084 202.697 129.084ZM213.895 128.37V122.756H210.675L210.605 124.184C210.587 124.651 210.554 125.103 210.507 125.542C210.47 125.971 210.405 126.368 210.311 126.732C210.227 127.096 210.101 127.395 209.933 127.628C209.765 127.861 209.541 128.006 209.261 128.062L207.931 127.824C208.221 127.833 208.454 127.74 208.631 127.544C208.809 127.339 208.944 127.059 209.037 126.704C209.14 126.349 209.215 125.948 209.261 125.5C209.308 125.043 209.345 124.571 209.373 124.086L209.485 121.58H215.239V128.37H213.895ZM207.637 130.722V127.824H216.373V130.722H215.113V129H208.911V130.722H207.637ZM222.674 129V127.432L222.604 127.138V124.464C222.604 123.895 222.436 123.456 222.1 123.148C221.774 122.831 221.279 122.672 220.616 122.672C220.178 122.672 219.748 122.747 219.328 122.896C218.908 123.036 218.554 123.227 218.264 123.47L217.704 122.462C218.087 122.154 218.544 121.921 219.076 121.762C219.618 121.594 220.182 121.51 220.77 121.51C221.788 121.51 222.572 121.757 223.122 122.252C223.673 122.747 223.948 123.503 223.948 124.52V129H222.674ZM220.238 129.084C219.688 129.084 219.202 128.991 218.782 128.804C218.372 128.617 218.054 128.361 217.83 128.034C217.606 127.698 217.494 127.32 217.494 126.9C217.494 126.499 217.588 126.135 217.774 125.808C217.97 125.481 218.283 125.22 218.712 125.024C219.151 124.828 219.739 124.73 220.476 124.73H222.828V125.696H220.532C219.86 125.696 219.408 125.808 219.174 126.032C218.941 126.256 218.824 126.527 218.824 126.844C218.824 127.208 218.969 127.502 219.258 127.726C219.548 127.941 219.949 128.048 220.462 128.048C220.966 128.048 221.405 127.936 221.778 127.712C222.161 127.488 222.436 127.161 222.604 126.732L222.87 127.656C222.693 128.095 222.38 128.445 221.932 128.706C221.484 128.958 220.92 129.084 220.238 129.084ZM226.368 129V121.58H227.712V124.73H231.94V121.58H233.284V129H231.94V125.892H227.712V129H226.368ZM235.898 129V121.58H237.242V126.984L241.792 121.58H243.01V129H241.666V123.596L237.13 129H235.898ZM245.618 129V121.58H246.962V126.984L251.512 121.58H252.73V129H251.386V123.596L246.85 129H245.618ZM249.09 120.614C248.409 120.614 247.872 120.451 247.48 120.124C247.098 119.788 246.902 119.307 246.892 118.682H247.802C247.812 119.037 247.928 119.317 248.152 119.522C248.386 119.727 248.694 119.83 249.076 119.83C249.459 119.83 249.767 119.727 250 119.522C250.234 119.317 250.355 119.037 250.364 118.682H251.302C251.293 119.307 251.092 119.788 250.7 120.124C250.308 120.451 249.772 120.614 249.09 120.614Z" fill="white"/>
<path d="M294.058 129V120.04L295.038 121.02H292.098V119.2H296.326V129H294.058ZM297.944 129V127.53L301.724 123.96C302.023 123.689 302.242 123.447 302.382 123.232C302.522 123.017 302.616 122.821 302.662 122.644C302.718 122.467 302.746 122.303 302.746 122.154C302.746 121.762 302.611 121.463 302.34 121.258C302.079 121.043 301.692 120.936 301.178 120.936C300.768 120.936 300.385 121.015 300.03 121.174C299.685 121.333 299.391 121.58 299.148 121.916L297.496 120.852C297.87 120.292 298.392 119.849 299.064 119.522C299.736 119.195 300.511 119.032 301.388 119.032C302.116 119.032 302.751 119.153 303.292 119.396C303.843 119.629 304.268 119.961 304.566 120.39C304.874 120.819 305.028 121.333 305.028 121.93C305.028 122.247 304.986 122.565 304.902 122.882C304.828 123.19 304.669 123.517 304.426 123.862C304.193 124.207 303.848 124.595 303.39 125.024L300.254 127.978L299.82 127.152H305.35V129H297.944ZM310.486 129.168C309.684 129.168 308.965 128.972 308.33 128.58C307.696 128.179 307.196 127.6 306.832 126.844C306.468 126.088 306.286 125.173 306.286 124.1C306.286 123.027 306.468 122.112 306.832 121.356C307.196 120.6 307.696 120.026 308.33 119.634C308.965 119.233 309.684 119.032 310.486 119.032C311.298 119.032 312.017 119.233 312.642 119.634C313.277 120.026 313.776 120.6 314.14 121.356C314.504 122.112 314.686 123.027 314.686 124.1C314.686 125.173 314.504 126.088 314.14 126.844C313.776 127.6 313.277 128.179 312.642 128.58C312.017 128.972 311.298 129.168 310.486 129.168ZM310.486 127.25C310.869 127.25 311.2 127.143 311.48 126.928C311.77 126.713 311.994 126.373 312.152 125.906C312.32 125.439 312.404 124.837 312.404 124.1C312.404 123.363 312.32 122.761 312.152 122.294C311.994 121.827 311.77 121.487 311.48 121.272C311.2 121.057 310.869 120.95 310.486 120.95C310.113 120.95 309.782 121.057 309.492 121.272C309.212 121.487 308.988 121.827 308.82 122.294C308.662 122.761 308.582 123.363 308.582 124.1C308.582 124.837 308.662 125.439 308.82 125.906C308.988 126.373 309.212 126.713 309.492 126.928C309.782 127.143 310.113 127.25 310.486 127.25ZM325.185 125.962C324.793 126.149 324.387 126.298 323.967 126.41C323.556 126.513 323.132 126.564 322.693 126.564C321.797 126.564 321.088 126.354 320.565 125.934C320.052 125.514 319.795 124.865 319.795 123.988V121.58H321.139V123.904C321.139 124.436 321.302 124.828 321.629 125.08C321.965 125.332 322.413 125.458 322.973 125.458C323.328 125.458 323.692 125.411 324.065 125.318C324.448 125.225 324.821 125.094 325.185 124.926V125.962ZM325.087 129V121.58H326.431V129H325.087ZM333.59 129V127.432L333.52 127.138V124.464C333.52 123.895 333.352 123.456 333.016 123.148C332.69 122.831 332.195 122.672 331.532 122.672C331.094 122.672 330.664 122.747 330.244 122.896C329.824 123.036 329.47 123.227 329.18 123.47L328.62 122.462C329.003 122.154 329.46 121.921 329.992 121.762C330.534 121.594 331.098 121.51 331.686 121.51C332.704 121.51 333.488 121.757 334.038 122.252C334.589 122.747 334.864 123.503 334.864 124.52V129H333.59ZM331.154 129.084C330.604 129.084 330.118 128.991 329.698 128.804C329.288 128.617 328.97 128.361 328.746 128.034C328.522 127.698 328.41 127.32 328.41 126.9C328.41 126.499 328.504 126.135 328.69 125.808C328.886 125.481 329.199 125.22 329.628 125.024C330.067 124.828 330.655 124.73 331.392 124.73H333.744V125.696H331.448C330.776 125.696 330.324 125.808 330.09 126.032C329.857 126.256 329.74 126.527 329.74 126.844C329.74 127.208 329.885 127.502 330.174 127.726C330.464 127.941 330.865 128.048 331.378 128.048C331.882 128.048 332.321 127.936 332.694 127.712C333.077 127.488 333.352 127.161 333.52 126.732L333.786 127.656C333.609 128.095 333.296 128.445 332.848 128.706C332.4 128.958 331.836 129.084 331.154 129.084ZM340.518 129.084C339.762 129.084 339.086 128.921 338.488 128.594C337.9 128.267 337.438 127.819 337.102 127.25C336.766 126.681 336.598 126.027 336.598 125.29C336.598 124.553 336.766 123.899 337.102 123.33C337.438 122.761 337.9 122.317 338.488 122C339.086 121.673 339.762 121.51 340.518 121.51C341.19 121.51 341.788 121.645 342.31 121.916C342.842 122.177 343.253 122.569 343.542 123.092L342.52 123.75C342.278 123.386 341.979 123.12 341.624 122.952C341.279 122.775 340.906 122.686 340.504 122.686C340.019 122.686 339.585 122.793 339.202 123.008C338.82 123.223 338.516 123.526 338.292 123.918C338.068 124.301 337.956 124.758 337.956 125.29C337.956 125.822 338.068 126.284 338.292 126.676C338.516 127.068 338.82 127.371 339.202 127.586C339.585 127.801 340.019 127.908 340.504 127.908C340.906 127.908 341.279 127.824 341.624 127.656C341.979 127.479 342.278 127.208 342.52 126.844L343.542 127.488C343.253 128.001 342.842 128.398 342.31 128.678C341.788 128.949 341.19 129.084 340.518 129.084ZM348.351 129.084C347.604 129.084 346.942 128.921 346.363 128.594C345.784 128.267 345.327 127.819 344.991 127.25C344.655 126.671 344.487 126.018 344.487 125.29C344.487 124.553 344.655 123.899 344.991 123.33C345.327 122.761 345.784 122.317 346.363 122C346.942 121.673 347.604 121.51 348.351 121.51C349.088 121.51 349.746 121.673 350.325 122C350.913 122.317 351.37 122.761 351.697 123.33C352.033 123.89 352.201 124.543 352.201 125.29C352.201 126.027 352.033 126.681 351.697 127.25C351.37 127.819 350.913 128.267 350.325 128.594C349.746 128.921 349.088 129.084 348.351 129.084ZM348.351 127.908C348.827 127.908 349.252 127.801 349.625 127.586C350.008 127.371 350.306 127.068 350.521 126.676C350.736 126.275 350.843 125.813 350.843 125.29C350.843 124.758 350.736 124.301 350.521 123.918C350.306 123.526 350.008 123.223 349.625 123.008C349.252 122.793 348.827 122.686 348.351 122.686C347.875 122.686 347.45 122.793 347.077 123.008C346.704 123.223 346.405 123.526 346.181 123.918C345.957 124.301 345.845 124.758 345.845 125.29C345.845 125.813 345.957 126.275 346.181 126.676C346.405 127.068 346.704 127.371 347.077 127.586C347.45 127.801 347.875 127.908 348.351 127.908ZM354.142 129V121.58H357.586C358.454 121.58 359.135 121.748 359.63 122.084C360.134 122.411 360.386 122.877 360.386 123.484C360.386 124.091 360.148 124.562 359.672 124.898C359.205 125.225 358.585 125.388 357.81 125.388L358.02 125.024C358.907 125.024 359.565 125.187 359.994 125.514C360.423 125.841 360.638 126.321 360.638 126.956C360.638 127.6 360.395 128.104 359.91 128.468C359.434 128.823 358.701 129 357.712 129H354.142ZM355.458 127.964H357.614C358.174 127.964 358.594 127.88 358.874 127.712C359.154 127.535 359.294 127.255 359.294 126.872C359.294 126.48 359.163 126.195 358.902 126.018C358.65 125.831 358.249 125.738 357.698 125.738H355.458V127.964ZM355.458 124.772H357.474C357.987 124.772 358.375 124.679 358.636 124.492C358.907 124.296 359.042 124.025 359.042 123.68C359.042 123.325 358.907 123.059 358.636 122.882C358.375 122.705 357.987 122.616 357.474 122.616H355.458V124.772Z" fill="white"/>
<g clip-path="url(#clip0_2985_596)">
<path d="M20.2003 117.75C20.6777 117.75 21.1355 117.552 21.4731 117.201C21.8106 116.849 22.0003 116.372 22.0003 115.875C22.0003 115.378 21.8106 114.901 21.4731 114.549C21.1355 114.198 20.6777 114 20.2003 114C19.7229 114 19.2651 114.198 18.9275 114.549C18.5899 114.901 18.4003 115.378 18.4003 115.875C18.4003 116.372 18.5899 116.849 18.9275 117.201C19.2651 117.552 19.7229 117.75 20.2003 117.75ZM19.9003 132.75V127.75H20.5003V132.75C20.5003 133.441 21.0365 134 21.7003 134C22.364 134 22.9003 133.441 22.9003 132.75V121.5H25.0003H27.4003H28.0003C28.664 121.5 29.2003 120.941 29.2003 120.25C29.2003 119.559 28.664 119 28.0003 119H27.4003V116.5H34.6003V124H27.4003V122.75H25.0003V124.625C25.0003 125.66 25.8065 126.5 26.8003 126.5H35.2003C36.194 126.5 37.0003 125.66 37.0003 124.625V115.875C37.0003 114.84 36.194 114 35.2003 114H26.8003C25.8065 114 25.0003 114.84 25.0003 115.875V119H22.1165H19.6453C18.3815 119 17.2115 119.691 16.559 120.82L14.3728 124.609C14.0315 125.199 14.2153 125.969 14.7815 126.324C15.3478 126.68 16.0865 126.488 16.4278 125.898L17.5003 124.035V132.75C17.5003 133.441 18.0365 134 18.7003 134C19.364 134 19.9003 133.441 19.9003 132.75Z" fill="white"/>
</g>
<g clip-path="url(#clip1_2985_596)">
<path d="M137.898 114.519C138.347 114.886 138.384 115.509 137.98 115.917L134.714 119.216C134.515 119.418 134.234 119.537 133.934 119.541C133.635 119.546 133.349 119.443 133.136 119.253L131.317 117.604C130.896 117.216 130.896 116.589 131.317 116.202C131.739 115.814 132.433 115.814 132.855 116.202L133.857 117.113L136.356 114.589C136.76 114.181 137.445 114.148 137.894 114.515L137.898 114.519ZM137.898 121.117C138.347 121.484 138.384 122.106 137.98 122.514L134.714 125.813C134.515 126.015 134.234 126.135 133.934 126.139C133.635 126.143 133.349 126.04 133.136 125.85L131.317 124.201C130.891 123.813 130.891 123.186 131.317 122.803C131.744 122.42 132.433 122.415 132.855 122.803L133.857 123.714L136.356 121.191C136.76 120.783 137.445 120.75 137.894 121.117H137.898ZM141.16 116.903C141.16 116.173 141.808 115.583 142.611 115.583H152.771C153.573 115.583 154.222 116.173 154.222 116.903C154.222 117.632 153.573 118.222 152.771 118.222H142.611C141.808 118.222 141.16 117.632 141.16 116.903ZM141.16 123.5C141.16 122.77 141.808 122.18 142.611 122.18H152.771C153.573 122.18 154.222 122.77 154.222 123.5C154.222 124.23 153.573 124.819 152.771 124.819H142.611C141.808 124.819 141.16 124.23 141.16 123.5ZM138.257 130.097C138.257 129.367 138.905 128.778 139.708 128.778H152.771C153.573 128.778 154.222 129.367 154.222 130.097C154.222 130.827 153.573 131.416 152.771 131.416H139.708C138.905 131.416 138.257 130.827 138.257 130.097ZM133.177 128.118C133.754 128.118 134.308 128.326 134.716 128.698C135.125 129.069 135.354 129.572 135.354 130.097C135.354 130.622 135.125 131.125 134.716 131.497C134.308 131.868 133.754 132.076 133.177 132.076C132.6 132.076 132.046 131.868 131.637 131.497C131.229 131.125 131 130.622 131 130.097C131 129.572 131.229 129.069 131.637 128.698C132.046 128.326 132.6 128.118 133.177 128.118Z" fill="white"/>
</g>
<g clip-path="url(#clip2_2985_596)">
<path d="M273 114C275.652 114 278.196 115.054 280.071 116.929C281.946 118.804 283 121.348 283 124C283 126.652 281.946 129.196 280.071 131.071C278.196 132.946 275.652 134 273 134C270.348 134 267.804 132.946 265.929 131.071C264.054 129.196 263 126.652 263 124C263 121.348 264.054 118.804 265.929 116.929C267.804 115.054 270.348 114 273 114ZM272.062 118.688V124C272.062 124.312 272.219 124.605 272.48 124.781L276.23 127.281C276.66 127.57 277.242 127.453 277.531 127.02C277.82 126.586 277.703 126.008 277.27 125.719L273.938 123.5V118.688C273.938 118.168 273.52 117.75 273 117.75C272.48 117.75 272.062 118.168 272.062 118.688Z" fill="white"/>
</g>
<defs>
<linearGradient id="paint0_linear_2985_596" x1="191" y1="0" x2="191" y2="200" gradientUnits="userSpaceOnUse">
<stop stop-color="#9D00FF"/>
<stop offset="1" stop-color="#510084"/>
</linearGradient>
<clipPath id="clip0_2985_596">
<rect width="23" height="20" fill="white" transform="translate(14 114)"/>
</clipPath>
<clipPath id="clip1_2985_596">
<rect width="23.2222" height="19" fill="white" transform="translate(131 114)"/>
</clipPath>
<clipPath id="clip2_2985_596">
<rect width="20" height="20" fill="white" transform="translate(263 114)"/>
</clipPath>
</defs>
</svg>
