<svg width="382" height="200" viewBox="0 0 382 200" fill="none" xmlns="http://www.w3.org/2000/svg">
<path d="M0 20C0 8.95431 8.9543 0 20 0H362C373.046 0 382 8.95431 382 20V200H0V20Z" fill="url(#paint0_linear_2985_716)"/>
<path d="M79.007 33L74.647 26.26L77.267 24.68L82.687 33H79.007ZM69.907 33V19H73.127V33H69.907ZM72.187 27.36V24.66H77.067V27.36H72.187ZM77.567 26.36L74.587 26L79.127 19H82.547L77.567 26.36ZM85.21 37.04C84.65 37.04 84.0967 36.9533 83.55 36.78C83.0033 36.6067 82.5567 36.3667 82.21 36.06L83.35 33.84C83.59 34.0533 83.8633 34.22 84.17 34.34C84.49 34.46 84.8033 34.52 85.11 34.52C85.55 34.52 85.8967 34.4133 86.15 34.2C86.4167 34 86.6567 33.66 86.87 33.18L87.43 31.86L87.67 31.52L91.53 22.24H94.53L89.67 33.66C89.3233 34.5267 88.9233 35.2067 88.47 35.7C88.03 36.1933 87.5367 36.54 86.99 36.74C86.4567 36.94 85.8633 37.04 85.21 37.04ZM87.05 33.42L82.25 22.24H85.47L89.19 31.24L87.05 33.42ZM102.375 33.16C101.468 33.16 100.675 32.96 99.9952 32.56C99.3152 32.16 98.7818 31.5533 98.3952 30.74C98.0218 29.9133 97.8352 28.8733 97.8352 27.62C97.8352 26.3533 98.0152 25.3133 98.3752 24.5C98.7352 23.6867 99.2552 23.08 99.9352 22.68C100.615 22.28 101.428 22.08 102.375 22.08C103.388 22.08 104.295 22.3133 105.095 22.78C105.908 23.2333 106.548 23.8733 107.015 24.7C107.495 25.5267 107.735 26.5 107.735 27.62C107.735 28.7533 107.495 29.7333 107.015 30.56C106.548 31.3867 105.908 32.0267 105.095 32.48C104.295 32.9333 103.388 33.16 102.375 33.16ZM96.0152 36.88V22.24H98.9952V24.44L98.9352 27.64L99.1352 30.82V36.88H96.0152ZM101.835 30.6C102.355 30.6 102.815 30.48 103.215 30.24C103.628 30 103.955 29.66 104.195 29.22C104.448 28.7667 104.575 28.2333 104.575 27.62C104.575 26.9933 104.448 26.46 104.195 26.02C103.955 25.58 103.628 25.24 103.215 25C102.815 24.76 102.355 24.64 101.835 24.64C101.315 24.64 100.848 24.76 100.435 25C100.022 25.24 99.6952 25.58 99.4552 26.02C99.2152 26.46 99.0952 26.9933 99.0952 27.62C99.0952 28.2333 99.2152 28.7667 99.4552 29.22C99.6952 29.66 100.022 30 100.435 30.24C100.848 30.48 101.315 30.6 101.835 30.6ZM115.042 33.16C113.882 33.16 112.849 32.9267 111.942 32.46C111.035 31.98 110.322 31.32 109.802 30.48C109.295 29.64 109.042 28.6867 109.042 27.62C109.042 26.54 109.295 25.5867 109.802 24.76C110.322 23.92 111.035 23.2667 111.942 22.8C112.849 22.32 113.882 22.08 115.042 22.08C116.175 22.08 117.162 22.32 118.002 22.8C118.842 23.2667 119.462 23.94 119.862 24.82L117.442 26.12C117.162 25.6133 116.809 25.24 116.382 25C115.969 24.76 115.515 24.64 115.022 24.64C114.489 24.64 114.009 24.76 113.582 25C113.155 25.24 112.815 25.58 112.562 26.02C112.322 26.46 112.202 26.9933 112.202 27.62C112.202 28.2467 112.322 28.78 112.562 29.22C112.815 29.66 113.155 30 113.582 30.24C114.009 30.48 114.489 30.6 115.022 30.6C115.515 30.6 115.969 30.4867 116.382 30.26C116.809 30.02 117.162 29.64 117.442 29.12L119.862 30.44C119.462 31.3067 118.842 31.98 118.002 32.46C117.162 32.9267 116.175 33.16 115.042 33.16ZM134.822 31.6V24.8H131.302L131.242 26.18C131.215 26.7533 131.182 27.3 131.142 27.82C131.102 28.34 131.022 28.8133 130.902 29.24C130.795 29.6533 130.635 30.0067 130.422 30.3C130.209 30.58 129.922 30.7733 129.562 30.88L126.482 30.44C126.869 30.44 127.182 30.3267 127.422 30.1C127.662 29.86 127.849 29.5333 127.982 29.12C128.115 28.6933 128.215 28.2133 128.282 27.68C128.349 27.1333 128.395 26.56 128.422 25.96L128.562 22.24H137.942V31.6H134.822ZM126.122 35.32V30.44H139.482V35.32H136.582V33H129.022V35.32H126.122ZM140.085 32.98L140.245 30.42C140.325 30.4333 140.405 30.4467 140.485 30.46C140.565 30.46 140.639 30.46 140.705 30.46C141.079 30.46 141.372 30.3533 141.585 30.14C141.799 29.9267 141.959 29.64 142.065 29.28C142.172 28.9067 142.245 28.4867 142.285 28.02C142.339 27.5533 142.379 27.0667 142.405 26.56L142.565 22.24H151.765V33H148.645V24.04L149.345 24.8H144.625L145.285 24L145.145 26.7C145.105 27.66 145.025 28.54 144.905 29.34C144.799 30.14 144.619 30.8333 144.365 31.42C144.112 31.9933 143.772 32.44 143.345 32.76C142.919 33.0667 142.372 33.22 141.705 33.22C141.465 33.22 141.212 33.2 140.945 33.16C140.679 33.12 140.392 33.06 140.085 32.98ZM161.546 33V29.42L161.986 29.92H159.006C157.459 29.92 156.246 29.6 155.366 28.96C154.486 28.32 154.046 27.4 154.046 26.2C154.046 24.92 154.506 23.94 155.426 23.26C156.359 22.58 157.612 22.24 159.186 22.24H164.326V33H161.546ZM153.886 33L156.746 28.9H159.926L157.206 33H153.886ZM161.546 28.46V23.98L161.986 24.78H159.246C158.606 24.78 158.106 24.9 157.746 25.14C157.399 25.38 157.226 25.7667 157.226 26.3C157.226 27.3267 157.886 27.84 159.206 27.84H161.986L161.546 28.46ZM172.988 33V22.24H176.088V26.44H180.768V22.24H183.888V33H180.768V28.98H176.088V33H172.988ZM193.315 33V30.9L193.115 30.44V26.68C193.115 26.0133 192.908 25.4933 192.495 25.12C192.095 24.7467 191.475 24.56 190.635 24.56C190.062 24.56 189.495 24.6533 188.935 24.84C188.388 25.0133 187.922 25.2533 187.535 25.56L186.415 23.38C187.002 22.9667 187.708 22.6467 188.535 22.42C189.362 22.1933 190.202 22.08 191.055 22.08C192.695 22.08 193.968 22.4667 194.875 23.24C195.782 24.0133 196.235 25.22 196.235 26.86V33H193.315ZM190.035 33.16C189.195 33.16 188.475 33.02 187.875 32.74C187.275 32.4467 186.815 32.0533 186.495 31.56C186.175 31.0667 186.015 30.5133 186.015 29.9C186.015 29.26 186.168 28.7 186.475 28.22C186.795 27.74 187.295 27.3667 187.975 27.1C188.655 26.82 189.542 26.68 190.635 26.68H193.495V28.5H190.975C190.242 28.5 189.735 28.62 189.455 28.86C189.188 29.1 189.055 29.4 189.055 29.76C189.055 30.16 189.208 30.48 189.515 30.72C189.835 30.9467 190.268 31.06 190.815 31.06C191.335 31.06 191.802 30.94 192.215 30.7C192.628 30.4467 192.928 30.08 193.115 29.6L193.595 31.04C193.368 31.7333 192.955 32.26 192.355 32.62C191.755 32.98 190.982 33.16 190.035 33.16ZM205.725 28.88C205.285 29.12 204.799 29.3133 204.265 29.46C203.732 29.6067 203.145 29.68 202.505 29.68C201.092 29.68 200.005 29.36 199.245 28.72C198.485 28.0667 198.105 27.0333 198.105 25.62V22.24H201.225V25.42C201.225 26.0867 201.399 26.5667 201.745 26.86C202.092 27.14 202.579 27.28 203.205 27.28C203.659 27.28 204.092 27.2267 204.505 27.12C204.932 27.0133 205.339 26.86 205.725 26.66V28.88ZM205.505 33V22.24H208.625V33H205.505ZM211.621 33V22.24H214.721V28.64L219.961 22.24H222.821V33H219.721V26.6L214.501 33H211.621ZM225.82 33V22.24H228.92V26.44H233.6V22.24H236.72V33H233.6V28.98H228.92V33H225.82ZM246.147 33V30.9L245.947 30.44V26.68C245.947 26.0133 245.74 25.4933 245.327 25.12C244.927 24.7467 244.307 24.56 243.467 24.56C242.894 24.56 242.327 24.6533 241.767 24.84C241.22 25.0133 240.754 25.2533 240.367 25.56L239.247 23.38C239.834 22.9667 240.54 22.6467 241.367 22.42C242.194 22.1933 243.034 22.08 243.887 22.08C245.527 22.08 246.8 22.4667 247.707 23.24C248.614 24.0133 249.067 25.22 249.067 26.86V33H246.147ZM242.867 33.16C242.027 33.16 241.307 33.02 240.707 32.74C240.107 32.4467 239.647 32.0533 239.327 31.56C239.007 31.0667 238.847 30.5133 238.847 29.9C238.847 29.26 239 28.7 239.307 28.22C239.627 27.74 240.127 27.3667 240.807 27.1C241.487 26.82 242.374 26.68 243.467 26.68H246.327V28.5H243.807C243.074 28.5 242.567 28.62 242.287 28.86C242.02 29.1 241.887 29.4 241.887 29.76C241.887 30.16 242.04 30.48 242.347 30.72C242.667 30.9467 243.1 31.06 243.647 31.06C244.167 31.06 244.634 30.94 245.047 30.7C245.46 30.4467 245.76 30.08 245.947 29.6L246.427 31.04C246.2 31.7333 245.787 32.26 245.187 32.62C244.587 32.98 243.814 33.16 242.867 33.16ZM251.777 33V22.24H254.877V26.2H258.037V28.9H254.877V33H251.777ZM261.957 33.16C260.851 33.16 259.864 32.92 258.997 32.44C258.131 31.96 257.451 31.3067 256.957 30.48C256.464 29.64 256.217 28.6867 256.217 27.62C256.217 26.54 256.464 25.5867 256.957 24.76C257.451 23.92 258.131 23.2667 258.997 22.8C259.864 22.32 260.851 22.08 261.957 22.08C263.064 22.08 264.044 22.32 264.897 22.8C265.764 23.2667 266.444 23.92 266.937 24.76C267.431 25.5867 267.677 26.54 267.677 27.62C267.677 28.6867 267.431 29.64 266.937 30.48C266.444 31.32 265.764 31.98 264.897 32.46C264.044 32.9267 263.064 33.16 261.957 33.16ZM261.957 30.6C262.464 30.6 262.911 30.48 263.297 30.24C263.697 30 264.011 29.66 264.237 29.22C264.477 28.7667 264.597 28.2333 264.597 27.62C264.597 26.9933 264.477 26.46 264.237 26.02C264.011 25.58 263.697 25.24 263.297 25C262.911 24.76 262.464 24.64 261.957 24.64C261.464 24.64 261.011 24.76 260.597 25C260.197 25.24 259.877 25.58 259.637 26.02C259.411 26.46 259.297 26.9933 259.297 27.62C259.297 28.2333 259.411 28.7667 259.637 29.22C259.877 29.66 260.197 30 260.597 30.24C261.011 30.48 261.464 30.6 261.957 30.6ZM277.184 30.44L276.504 31.16V22.24H279.624V31.16L278.904 30.44H283.864L283.164 31.16V22.24H286.264V33H269.844V22.24H272.944V31.16L272.244 30.44H277.184ZM284.864 35.14V32.28L285.564 33H283.084V30.44H287.764V35.14H284.864ZM289.258 33V22.24H292.358V28.64L297.598 22.24H300.458V33H297.358V26.6L292.138 33H289.258ZM302.017 33L306.837 26.68L306.777 28.4L302.157 22.24H305.657L308.577 26.26L307.257 26.3L310.277 22.24H313.597L308.957 28.34V26.66L313.757 33H310.217L307.157 28.72L308.457 28.9L305.417 33H302.017Z" fill="white"/>
<path d="M106.296 86.48C104.312 86.48 102.552 86.144 101.016 85.472C99.5121 84.768 98.3281 83.76 97.4641 82.448C96.6321 81.104 96.2161 79.472 96.2161 77.552V74.912H103.56V77.264C103.56 78.384 103.88 79.232 104.52 79.808C105.16 80.352 105.928 80.624 106.824 80.624C107.752 80.624 108.536 80.336 109.176 79.76C109.816 79.184 110.136 78.352 110.136 77.264V53.072H117.96V77.552C117.96 79.504 117.496 81.152 116.568 82.496C115.672 83.808 114.424 84.8 112.824 85.472C111.256 86.144 109.464 86.48 107.448 86.48H106.296ZM135.701 86.48C133.941 86.48 132.261 86.288 130.661 85.904C129.093 85.488 127.685 84.88 126.437 84.08C125.189 83.248 124.197 82.192 123.461 80.912C122.757 79.6 122.405 78.032 122.405 76.208C122.405 76.048 122.405 75.888 122.405 75.728C122.405 75.536 122.421 75.344 122.453 75.152H129.845C129.813 75.28 129.797 75.408 129.797 75.536C129.797 75.632 129.797 75.76 129.797 75.92C129.797 76.784 130.005 77.552 130.421 78.224C130.837 78.864 131.477 79.36 132.341 79.712C133.237 80.064 134.341 80.24 135.653 80.24C136.965 80.24 138.021 80.128 138.821 79.904C139.621 79.648 140.197 79.264 140.549 78.752C140.933 78.208 141.125 77.552 141.125 76.784C141.125 75.92 140.789 75.232 140.117 74.72C139.477 74.208 138.629 73.792 137.573 73.472C136.517 73.12 135.349 72.8 134.069 72.512C132.789 72.224 131.509 71.872 130.229 71.456C128.949 71.008 127.765 70.432 126.677 69.728C125.621 68.992 124.757 68.032 124.085 66.848C123.445 65.664 123.125 64.176 123.125 62.384C123.125 60.176 123.717 58.352 124.901 56.912C126.085 55.472 127.653 54.4 129.605 53.696C131.589 52.96 133.749 52.592 136.085 52.592C138.389 52.592 140.485 52.928 142.373 53.6C144.261 54.272 145.765 55.328 146.885 56.768C148.037 58.176 148.613 60 148.613 62.24V62.864H141.269V62.432C141.269 61.632 141.077 60.944 140.693 60.368C140.309 59.76 139.733 59.296 138.965 58.976C138.197 58.656 137.237 58.496 136.085 58.496C135.093 58.496 134.229 58.608 133.493 58.832C132.757 59.056 132.181 59.392 131.765 59.84C131.381 60.288 131.189 60.864 131.189 61.568C131.189 62.464 131.509 63.168 132.149 63.68C132.821 64.192 133.685 64.608 134.741 64.928C135.797 65.216 136.965 65.504 138.245 65.792C139.557 66.08 140.853 66.432 142.133 66.848C143.413 67.232 144.581 67.776 145.637 68.48C146.725 69.184 147.605 70.112 148.277 71.264C148.949 72.384 149.301 73.808 149.333 75.536C149.333 78.16 148.741 80.272 147.557 81.872C146.405 83.472 144.805 84.64 142.757 85.376C140.709 86.112 138.357 86.48 135.701 86.48Z" fill="#F7DF1E"/>
<path d="M152.211 86V62.96H157.235V76.912L162.835 69.648H168.627L162.579 77.136L168.819 86H162.867L158.995 80.592L157.235 82.224V86H152.211ZM171.59 86V69.648H175.686L176.07 71.504C176.582 70.7573 177.243 70.2133 178.054 69.872C178.865 69.5093 179.814 69.328 180.902 69.328C182.651 69.328 184.027 69.808 185.03 70.768C186.054 71.728 186.566 73.072 186.566 74.8V86H181.542V75.856C181.542 74.896 181.329 74.1813 180.902 73.712C180.475 73.2213 179.889 72.976 179.142 72.976C178.63 72.976 178.182 73.104 177.798 73.36C177.414 73.616 177.115 73.968 176.902 74.416C176.71 74.8427 176.614 75.344 176.614 75.92V86H171.59ZM198.202 86.32C196.474 86.32 194.991 85.968 193.754 85.264C192.516 84.56 191.556 83.5893 190.874 82.352C190.212 81.1147 189.882 79.7067 189.882 78.128V77.52C189.882 75.8987 190.212 74.4693 190.874 73.232C191.556 71.9947 192.516 71.0347 193.754 70.352C194.991 69.6693 196.463 69.328 198.17 69.328C199.919 69.328 201.412 69.68 202.65 70.384C203.908 71.0667 204.868 72.0267 205.53 73.264C206.191 74.48 206.522 75.8987 206.522 77.52V78.128C206.522 79.7493 206.18 81.1787 205.498 82.416C204.836 83.6533 203.887 84.6133 202.65 85.296C201.412 85.9787 199.93 86.32 198.202 86.32ZM198.202 83.12C199.055 83.12 199.759 82.8 200.314 82.16C200.89 81.52 201.178 80.688 201.178 79.664V75.984C201.178 74.9387 200.89 74.1067 200.314 73.488C199.759 72.848 199.055 72.528 198.202 72.528C197.37 72.528 196.666 72.848 196.09 73.488C195.514 74.1067 195.226 74.9387 195.226 75.984V79.664C195.226 80.688 195.514 81.52 196.09 82.16C196.666 82.8 197.37 83.12 198.202 83.12ZM210.669 86L207.789 69.648H211.693L213.517 79.792H213.645L215.437 69.648H219.501L221.197 79.792H221.325L223.117 69.648H226.989L224.141 86H219.181L217.549 76.176H217.421L215.693 86H210.669ZM236.673 86.32C234.774 86.32 233.206 86 231.969 85.36C230.753 84.6987 229.846 83.76 229.249 82.544C228.673 81.328 228.385 79.8987 228.385 78.256V77.392C228.385 75.6853 228.726 74.2347 229.409 73.04C230.113 71.824 231.094 70.9067 232.353 70.288C233.633 69.648 235.137 69.328 236.865 69.328C238.465 69.328 239.841 69.6267 240.993 70.224C242.166 70.8 243.062 71.6213 243.681 72.688C244.321 73.7333 244.641 74.992 244.641 76.464V78.768H233.729V79.632C233.729 80.8053 234.017 81.68 234.593 82.256C235.169 82.832 235.926 83.12 236.865 83.12C237.91 83.12 238.689 82.8747 239.201 82.384C239.713 81.872 239.969 81.0933 239.969 80.048H244.641C244.641 81.3707 244.31 82.5013 243.649 83.44C243.009 84.3787 242.091 85.0933 240.897 85.584C239.723 86.0747 238.315 86.32 236.673 86.32ZM233.729 75.984H239.713V75.568C239.713 74.9707 239.585 74.448 239.329 74C239.073 73.5307 238.721 73.168 238.273 72.912C237.846 72.656 237.345 72.528 236.769 72.528C236.15 72.528 235.617 72.6773 235.169 72.976C234.721 73.2533 234.369 73.6373 234.113 74.128C233.857 74.6187 233.729 75.152 233.729 75.728V75.984ZM251.092 86V73.328H247.7V69.648H255.188L255.412 71.728C255.753 71.0453 256.297 70.48 257.044 70.032C257.791 69.5627 258.719 69.328 259.828 69.328C261.3 69.328 262.441 69.7547 263.252 70.608C264.084 71.4613 264.5 72.592 264.5 74C264.5 74.3413 264.489 74.6827 264.468 75.024C264.468 75.344 264.436 75.6853 264.372 76.048H260.212V75.184C260.212 74.8 260.127 74.448 259.956 74.128C259.807 73.7867 259.572 73.52 259.252 73.328C258.953 73.136 258.58 73.04 258.132 73.04C257.684 73.04 257.3 73.1573 256.98 73.392C256.66 73.6267 256.415 73.936 256.244 74.32C256.073 74.6827 255.988 75.088 255.988 75.536V86H251.092ZM247.636 86V82.384H262.164V86H247.636Z" fill="white"/>
<path d="M268.352 86V81.04H274.912V65.44H268.352V61.76C269.418 61.68 270.565 61.4667 271.792 61.12C273.045 60.7733 274.285 60.3467 275.512 59.84C276.765 59.3067 277.925 58.7467 278.992 58.16H281.152V81.04H287.552V86H268.352Z" fill="#15195F"/>
<path d="M92.1204 168.28V163.32H89.7204L89.6904 164.34C89.6704 164.773 89.6404 165.183 89.6004 165.57C89.567 165.957 89.5137 166.31 89.4404 166.63C89.367 166.943 89.2704 167.21 89.1504 167.43C89.037 167.65 88.8937 167.807 88.7204 167.9L86.9904 167.68C87.2304 167.687 87.427 167.603 87.5804 167.43C87.7404 167.257 87.867 167.013 87.9604 166.7C88.0537 166.38 88.1204 166.007 88.1604 165.58C88.207 165.153 88.2404 164.69 88.2604 164.19L88.3404 162H93.7204V168.28H92.1204ZM86.7604 170.45L86.7704 167.68H94.7004V170.45H93.2004V169H88.2604V170.45H86.7604ZM98.8909 169V167.95L98.7909 167.72V165.84C98.7909 165.507 98.6876 165.247 98.4809 165.06C98.2809 164.873 97.9709 164.78 97.5509 164.78C97.2642 164.78 96.9809 164.827 96.7009 164.92C96.4276 165.007 96.1942 165.127 96.0009 165.28L95.4409 164.19C95.7342 163.983 96.0876 163.823 96.5009 163.71C96.9142 163.597 97.3342 163.54 97.7609 163.54C98.5809 163.54 99.2176 163.733 99.6709 164.12C100.124 164.507 100.351 165.11 100.351 165.93V169H98.8909ZM97.2509 169.08C96.8309 169.08 96.4709 169.01 96.1709 168.87C95.8709 168.723 95.6409 168.527 95.4809 168.28C95.3209 168.033 95.2409 167.757 95.2409 167.45C95.2409 167.13 95.3176 166.85 95.4709 166.61C95.6309 166.37 95.8809 166.183 96.2209 166.05C96.5609 165.91 97.0042 165.84 97.5509 165.84H98.9809V166.75H97.7209C97.3542 166.75 97.1009 166.81 96.9609 166.93C96.8276 167.05 96.7609 167.2 96.7609 167.38C96.7609 167.58 96.8376 167.74 96.9909 167.86C97.1509 167.973 97.3676 168.03 97.6409 168.03C97.9009 168.03 98.1342 167.97 98.3409 167.85C98.5476 167.723 98.6976 167.54 98.7909 167.3L99.0309 168.02C98.9176 168.367 98.7109 168.63 98.4109 168.81C98.1109 168.99 97.7242 169.08 97.2509 169.08ZM102.856 169V164.54L103.206 164.9H101.036V163.62H106.226V164.9H104.056L104.406 164.54V169H102.856ZM110.278 169V167.95L110.178 167.72V165.84C110.178 165.507 110.074 165.247 109.868 165.06C109.668 164.873 109.358 164.78 108.938 164.78C108.651 164.78 108.368 164.827 108.088 164.92C107.814 165.007 107.581 165.127 107.388 165.28L106.828 164.19C107.121 163.983 107.474 163.823 107.888 163.71C108.301 163.597 108.721 163.54 109.148 163.54C109.968 163.54 110.604 163.733 111.058 164.12C111.511 164.507 111.738 165.11 111.738 165.93V169H110.278ZM108.638 169.08C108.218 169.08 107.858 169.01 107.558 168.87C107.258 168.723 107.028 168.527 106.868 168.28C106.708 168.033 106.628 167.757 106.628 167.45C106.628 167.13 106.704 166.85 106.858 166.61C107.018 166.37 107.268 166.183 107.608 166.05C107.948 165.91 108.391 165.84 108.938 165.84H110.368V166.75H109.108C108.741 166.75 108.488 166.81 108.348 166.93C108.214 167.05 108.148 167.2 108.148 167.38C108.148 167.58 108.224 167.74 108.378 167.86C108.538 167.973 108.754 168.03 109.028 168.03C109.288 168.03 109.521 167.97 109.728 167.85C109.934 167.723 110.084 167.54 110.178 167.3L110.418 168.02C110.304 168.367 110.098 168.63 109.798 168.81C109.498 168.99 109.111 169.08 108.638 169.08ZM115.925 169V163.62H121.275V169H119.715V164.55L120.065 164.9H117.125L117.475 164.55V169H115.925ZM123.501 171.02C123.221 171.02 122.944 170.977 122.671 170.89C122.397 170.803 122.174 170.683 122.001 170.53L122.571 169.42C122.691 169.527 122.827 169.61 122.981 169.67C123.141 169.73 123.297 169.76 123.451 169.76C123.671 169.76 123.844 169.707 123.971 169.6C124.104 169.5 124.224 169.33 124.331 169.09L124.611 168.43L124.731 168.26L126.661 163.62H128.161L125.731 169.33C125.557 169.763 125.357 170.103 125.131 170.35C124.911 170.597 124.664 170.77 124.391 170.87C124.124 170.97 123.827 171.02 123.501 171.02ZM124.421 169.21L122.021 163.62H123.631L125.491 168.12L124.421 169.21ZM131.554 169.12C131.114 169.12 130.714 169.057 130.354 168.93C129.994 168.797 129.68 168.593 129.414 168.32C129.154 168.04 128.95 167.683 128.804 167.25C128.664 166.817 128.594 166.3 128.594 165.7C128.594 165.273 128.63 164.883 128.704 164.53C128.777 164.177 128.887 163.857 129.034 163.57C129.18 163.277 129.367 163.02 129.594 162.8C129.827 162.573 130.097 162.387 130.404 162.24C130.717 162.087 131.07 161.97 131.464 161.89L134.024 161.38L134.234 162.72L131.974 163.17C131.84 163.197 131.687 163.233 131.514 163.28C131.347 163.32 131.177 163.383 131.004 163.47C130.837 163.557 130.68 163.68 130.534 163.84C130.394 163.993 130.28 164.197 130.194 164.45C130.107 164.697 130.064 165.003 130.064 165.37C130.064 165.483 130.067 165.57 130.074 165.63C130.087 165.69 130.097 165.753 130.104 165.82C130.117 165.887 130.124 165.99 130.124 166.13L129.624 165.64C129.77 165.327 129.957 165.06 130.184 164.84C130.417 164.62 130.684 164.453 130.984 164.34C131.29 164.22 131.63 164.16 132.004 164.16C132.51 164.16 132.954 164.263 133.334 164.47C133.72 164.67 134.02 164.953 134.234 165.32C134.447 165.687 134.554 166.103 134.554 166.57C134.554 167.077 134.427 167.523 134.174 167.91C133.92 168.29 133.567 168.587 133.114 168.8C132.667 169.013 132.147 169.12 131.554 169.12ZM131.634 167.91C131.894 167.91 132.124 167.853 132.324 167.74C132.524 167.62 132.677 167.463 132.784 167.27C132.897 167.07 132.954 166.847 132.954 166.6C132.954 166.36 132.897 166.147 132.784 165.96C132.677 165.773 132.524 165.627 132.324 165.52C132.124 165.413 131.89 165.36 131.624 165.36C131.364 165.36 131.13 165.413 130.924 165.52C130.717 165.62 130.557 165.76 130.444 165.94C130.33 166.12 130.274 166.33 130.274 166.57C130.274 166.817 130.33 167.043 130.444 167.25C130.564 167.45 130.724 167.61 130.924 167.73C131.13 167.85 131.367 167.91 131.634 167.91ZM134.854 168.99L134.934 167.71C134.974 167.717 135.014 167.723 135.054 167.73C135.094 167.73 135.131 167.73 135.164 167.73C135.351 167.73 135.498 167.677 135.604 167.57C135.711 167.463 135.791 167.32 135.844 167.14C135.898 166.953 135.934 166.743 135.954 166.51C135.981 166.277 136.001 166.033 136.014 165.78L136.094 163.62H140.694V169H139.134V164.52L139.484 164.9H137.124L137.454 164.5L137.384 165.85C137.364 166.33 137.324 166.77 137.264 167.17C137.211 167.57 137.121 167.917 136.994 168.21C136.868 168.497 136.698 168.72 136.484 168.88C136.271 169.033 135.998 169.11 135.664 169.11C135.544 169.11 135.418 169.1 135.284 169.08C135.151 169.06 135.008 169.03 134.854 168.99ZM142.194 169V163.62H143.744V166.82L146.364 163.62H147.794V169H146.244V165.8L143.634 169H142.194ZM153.104 169L151.304 166.45L152.574 165.7L154.944 169H153.104ZM149.294 169V163.62H150.854V169H149.294ZM150.394 166.96V165.71H152.274V166.96H150.394ZM152.724 166.49L151.264 166.33L153.154 163.62H154.814L152.724 166.49ZM158.832 169V167.95L158.732 167.72V165.84C158.732 165.507 158.629 165.247 158.422 165.06C158.222 164.873 157.912 164.78 157.492 164.78C157.206 164.78 156.922 164.827 156.642 164.92C156.369 165.007 156.136 165.127 155.942 165.28L155.382 164.19C155.676 163.983 156.029 163.823 156.442 163.71C156.856 163.597 157.276 163.54 157.702 163.54C158.522 163.54 159.159 163.733 159.612 164.12C160.066 164.507 160.292 165.11 160.292 165.93V169H158.832ZM157.192 169.08C156.772 169.08 156.412 169.01 156.112 168.87C155.812 168.723 155.582 168.527 155.422 168.28C155.262 168.033 155.182 167.757 155.182 167.45C155.182 167.13 155.259 166.85 155.412 166.61C155.572 166.37 155.822 166.183 156.162 166.05C156.502 165.91 156.946 165.84 157.492 165.84H158.922V166.75H157.662C157.296 166.75 157.042 166.81 156.902 166.93C156.769 167.05 156.702 167.2 156.702 167.38C156.702 167.58 156.779 167.74 156.932 167.86C157.092 167.973 157.309 168.03 157.582 168.03C157.842 168.03 158.076 167.97 158.282 167.85C158.489 167.723 158.639 167.54 158.732 167.3L158.972 168.02C158.859 168.367 158.652 168.63 158.352 168.81C158.052 168.99 157.666 169.08 157.192 169.08ZM161.647 169V163.62H163.197V167.72H165.367V163.62H166.927V169H161.647ZM166.257 170.16V168.98L166.617 169H165.367V167.72H167.707V170.16H166.257ZM168.688 169V163.62H170.238V166.82L172.858 163.62H174.288V169H172.738V165.8L170.128 169H168.688ZM175.788 169V163.62H177.338V166.82L179.958 163.62H181.388V169H179.838V165.8L177.228 169H175.788ZM183.448 165.49C183.181 165.49 182.951 165.4 182.758 165.22C182.571 165.033 182.478 164.797 182.478 164.51C182.478 164.223 182.571 163.993 182.758 163.82C182.951 163.64 183.181 163.55 183.448 163.55C183.721 163.55 183.951 163.64 184.138 163.82C184.324 163.993 184.418 164.223 184.418 164.51C184.418 164.797 184.324 165.033 184.138 165.22C183.951 165.4 183.721 165.49 183.448 165.49ZM183.448 169.08C183.181 169.08 182.951 168.99 182.758 168.81C182.571 168.623 182.478 168.387 182.478 168.1C182.478 167.813 182.571 167.583 182.758 167.41C182.951 167.23 183.181 167.14 183.448 167.14C183.721 167.14 183.951 167.23 184.138 167.41C184.324 167.583 184.418 167.813 184.418 168.1C184.418 168.387 184.324 168.623 184.138 168.81C183.951 168.99 183.721 169.08 183.448 169.08ZM189.1 169V162.4L189.53 162.87H187.52V162H190.09V169H189.1ZM192.802 169V162.4L193.232 162.87H191.222V162H193.792V169H192.802ZM202.078 168.55V164.54H199.778L199.728 165.56C199.715 165.893 199.692 166.217 199.658 166.53C199.632 166.837 199.585 167.12 199.518 167.38C199.458 167.64 199.368 167.853 199.248 168.02C199.128 168.187 198.968 168.29 198.768 168.33L197.818 168.16C198.025 168.167 198.192 168.1 198.318 167.96C198.445 167.813 198.542 167.613 198.608 167.36C198.682 167.107 198.735 166.82 198.768 166.5C198.802 166.173 198.828 165.837 198.848 165.49L198.928 163.7H203.038V168.55H202.078ZM197.608 170.23V168.16H203.848V170.23H202.948V169H198.518V170.23H197.608ZM207.459 169.06C206.892 169.06 206.392 168.943 205.959 168.71C205.532 168.477 205.199 168.157 204.959 167.75C204.726 167.343 204.609 166.877 204.609 166.35C204.609 165.823 204.722 165.357 204.949 164.95C205.182 164.543 205.499 164.227 205.899 164C206.306 163.767 206.762 163.65 207.269 163.65C207.782 163.65 208.236 163.763 208.629 163.99C209.022 164.217 209.329 164.537 209.549 164.95C209.776 165.357 209.889 165.833 209.889 166.38C209.889 166.42 209.886 166.467 209.879 166.52C209.879 166.573 209.876 166.623 209.869 166.67H205.359V165.98H209.369L208.979 166.22C208.986 165.88 208.916 165.577 208.769 165.31C208.622 165.043 208.419 164.837 208.159 164.69C207.906 164.537 207.609 164.46 207.269 164.46C206.936 164.46 206.639 164.537 206.379 164.69C206.119 164.837 205.916 165.047 205.769 165.32C205.622 165.587 205.549 165.893 205.549 166.24V166.4C205.549 166.753 205.629 167.07 205.789 167.35C205.956 167.623 206.186 167.837 206.479 167.99C206.772 168.143 207.109 168.22 207.489 168.22C207.802 168.22 208.086 168.167 208.339 168.06C208.599 167.953 208.826 167.793 209.019 167.58L209.549 168.2C209.309 168.48 209.009 168.693 208.649 168.84C208.296 168.987 207.899 169.06 207.459 169.06ZM215.218 169L213.168 166.42L213.958 165.94L216.348 169H215.218ZM211.378 169V163.7H212.338V169H211.378ZM212.048 166.76V165.94H213.798V166.76H212.048ZM214.038 166.46L213.148 166.34L215.178 163.7H216.208L214.038 166.46ZM220.507 169V167.88L220.457 167.67V165.76C220.457 165.353 220.337 165.04 220.097 164.82C219.864 164.593 219.51 164.48 219.037 164.48C218.724 164.48 218.417 164.533 218.117 164.64C217.817 164.74 217.564 164.877 217.357 165.05L216.957 164.33C217.23 164.11 217.557 163.943 217.937 163.83C218.324 163.71 218.727 163.65 219.147 163.65C219.874 163.65 220.434 163.827 220.827 164.18C221.22 164.533 221.417 165.073 221.417 165.8V169H220.507ZM218.767 169.06C218.374 169.06 218.027 168.993 217.727 168.86C217.434 168.727 217.207 168.543 217.047 168.31C216.887 168.07 216.807 167.8 216.807 167.5C216.807 167.213 216.874 166.953 217.007 166.72C217.147 166.487 217.37 166.3 217.677 166.16C217.99 166.02 218.41 165.95 218.937 165.95H220.617V166.64H218.977C218.497 166.64 218.174 166.72 218.007 166.88C217.84 167.04 217.757 167.233 217.757 167.46C217.757 167.72 217.86 167.93 218.067 168.09C218.274 168.243 218.56 168.32 218.927 168.32C219.287 168.32 219.6 168.24 219.867 168.08C220.14 167.92 220.337 167.687 220.457 167.38L220.647 168.04C220.52 168.353 220.297 168.603 219.977 168.79C219.657 168.97 219.254 169.06 218.767 169.06ZM225.596 169.08C225.156 169.08 224.766 169.01 224.426 168.87C224.092 168.73 223.806 168.523 223.566 168.25C223.326 167.97 223.142 167.62 223.016 167.2C222.896 166.773 222.836 166.273 222.836 165.7C222.836 165.247 222.876 164.84 222.956 164.48C223.036 164.12 223.149 163.8 223.296 163.52C223.449 163.24 223.636 162.997 223.856 162.79C224.082 162.583 224.336 162.413 224.616 162.28C224.902 162.14 225.216 162.033 225.556 161.96L227.976 161.42L228.116 162.31L225.886 162.79C225.752 162.817 225.592 162.857 225.406 162.91C225.219 162.963 225.029 163.047 224.836 163.16C224.642 163.267 224.462 163.417 224.296 163.61C224.129 163.803 223.996 164.057 223.896 164.37C223.796 164.677 223.746 165.057 223.746 165.51C223.746 165.637 223.749 165.733 223.756 165.8C223.762 165.867 223.769 165.933 223.776 166C223.789 166.067 223.799 166.167 223.806 166.3L223.406 165.89C223.512 165.523 223.682 165.203 223.916 164.93C224.149 164.657 224.429 164.447 224.756 164.3C225.089 164.147 225.452 164.07 225.846 164.07C226.339 164.07 226.776 164.177 227.156 164.39C227.542 164.603 227.846 164.897 228.066 165.27C228.286 165.643 228.396 166.07 228.396 166.55C228.396 167.037 228.279 167.473 228.046 167.86C227.819 168.24 227.496 168.54 227.076 168.76C226.656 168.973 226.162 169.08 225.596 169.08ZM225.686 168.28C226.026 168.28 226.326 168.207 226.586 168.06C226.846 167.907 227.049 167.703 227.196 167.45C227.342 167.19 227.416 166.9 227.416 166.58C227.416 166.26 227.342 165.977 227.196 165.73C227.049 165.483 226.846 165.29 226.586 165.15C226.326 165.003 226.019 164.93 225.666 164.93C225.332 164.93 225.032 165 224.766 165.14C224.499 165.273 224.292 165.463 224.146 165.71C223.999 165.95 223.926 166.23 223.926 166.55C223.926 166.87 223.999 167.163 224.146 167.43C224.299 167.69 224.506 167.897 224.766 168.05C225.032 168.203 225.339 168.28 225.686 168.28ZM232.577 169.06C232.137 169.06 231.734 168.96 231.367 168.76C231.007 168.553 230.717 168.25 230.497 167.85C230.284 167.45 230.177 166.95 230.177 166.35C230.177 165.75 230.28 165.25 230.487 164.85C230.7 164.45 230.987 164.15 231.347 163.95C231.714 163.75 232.124 163.65 232.577 163.65C233.097 163.65 233.557 163.763 233.957 163.99C234.357 164.217 234.674 164.533 234.907 164.94C235.14 165.34 235.257 165.81 235.257 166.35C235.257 166.89 235.14 167.363 234.907 167.77C234.674 168.177 234.357 168.493 233.957 168.72C233.557 168.947 233.097 169.06 232.577 169.06ZM229.767 170.94V163.7H230.687V165.13L230.627 166.36L230.727 167.59V170.94H229.767ZM232.497 168.22C232.837 168.22 233.14 168.143 233.407 167.99C233.68 167.837 233.894 167.62 234.047 167.34C234.207 167.053 234.287 166.723 234.287 166.35C234.287 165.97 234.207 165.643 234.047 165.37C233.894 165.09 233.68 164.873 233.407 164.72C233.14 164.567 232.837 164.49 232.497 164.49C232.164 164.49 231.86 164.567 231.587 164.72C231.32 164.873 231.107 165.09 230.947 165.37C230.794 165.643 230.717 165.97 230.717 166.35C230.717 166.723 230.794 167.053 230.947 167.34C231.107 167.62 231.32 167.837 231.587 167.99C231.86 168.143 232.164 168.22 232.497 168.22ZM239.866 169V167.14L240.016 167.32H238.326C237.619 167.32 237.066 167.17 236.666 166.87C236.273 166.57 236.076 166.133 236.076 165.56C236.076 164.947 236.286 164.483 236.706 164.17C237.133 163.857 237.699 163.7 238.406 163.7H240.726V169H239.866ZM236.026 169L237.466 166.97H238.456L237.056 169H236.026ZM239.866 166.84V164.27L240.016 164.54H238.436C237.996 164.54 237.656 164.623 237.416 164.79C237.176 164.95 237.056 165.217 237.056 165.59C237.056 166.283 237.503 166.63 238.396 166.63H240.016L239.866 166.84ZM244.724 169V168.32L247.574 165.57C247.828 165.33 248.014 165.12 248.134 164.94C248.261 164.753 248.344 164.583 248.384 164.43C248.431 164.27 248.454 164.117 248.454 163.97C248.454 163.61 248.328 163.327 248.074 163.12C247.821 162.913 247.451 162.81 246.964 162.81C246.591 162.81 246.254 162.873 245.954 163C245.654 163.12 245.394 163.31 245.174 163.57L244.494 162.98C244.761 162.64 245.118 162.38 245.564 162.2C246.018 162.013 246.514 161.92 247.054 161.92C247.541 161.92 247.964 162 248.324 162.16C248.684 162.313 248.961 162.537 249.154 162.83C249.354 163.123 249.454 163.47 249.454 163.87C249.454 164.097 249.424 164.32 249.364 164.54C249.304 164.76 249.191 164.993 249.024 165.24C248.858 165.487 248.618 165.763 248.304 166.07L245.764 168.52L245.524 168.13H249.754V169H244.724ZM253.427 169.08C252.88 169.08 252.39 168.94 251.957 168.66C251.53 168.38 251.19 167.973 250.937 167.44C250.69 166.907 250.567 166.26 250.567 165.5C250.567 164.74 250.69 164.093 250.937 163.56C251.19 163.027 251.53 162.62 251.957 162.34C252.39 162.06 252.88 161.92 253.427 161.92C253.967 161.92 254.454 162.06 254.887 162.34C255.32 162.62 255.66 163.027 255.907 163.56C256.154 164.093 256.277 164.74 256.277 165.5C256.277 166.26 256.154 166.907 255.907 167.44C255.66 167.973 255.32 168.38 254.887 168.66C254.454 168.94 253.967 169.08 253.427 169.08ZM253.427 168.19C253.794 168.19 254.114 168.09 254.387 167.89C254.667 167.69 254.884 167.39 255.037 166.99C255.197 166.59 255.277 166.093 255.277 165.5C255.277 164.907 255.197 164.41 255.037 164.01C254.884 163.61 254.667 163.31 254.387 163.11C254.114 162.91 253.794 162.81 253.427 162.81C253.06 162.81 252.737 162.91 252.457 163.11C252.177 163.31 251.957 163.61 251.797 164.01C251.644 164.41 251.567 164.907 251.567 165.5C251.567 166.093 251.644 166.59 251.797 166.99C251.957 167.39 252.177 167.69 252.457 167.89C252.737 168.09 253.06 168.19 253.427 168.19ZM257.127 169V168.32L259.977 165.57C260.23 165.33 260.417 165.12 260.537 164.94C260.664 164.753 260.747 164.583 260.787 164.43C260.834 164.27 260.857 164.117 260.857 163.97C260.857 163.61 260.73 163.327 260.477 163.12C260.224 162.913 259.854 162.81 259.367 162.81C258.994 162.81 258.657 162.873 258.357 163C258.057 163.12 257.797 163.31 257.577 163.57L256.897 162.98C257.164 162.64 257.52 162.38 257.967 162.2C258.42 162.013 258.917 161.92 259.457 161.92C259.944 161.92 260.367 162 260.727 162.16C261.087 162.313 261.364 162.537 261.557 162.83C261.757 163.123 261.857 163.47 261.857 163.87C261.857 164.097 261.827 164.32 261.767 164.54C261.707 164.76 261.594 164.993 261.427 165.24C261.26 165.487 261.02 165.763 260.707 166.07L258.167 168.52L257.927 168.13H262.157V169H257.127ZM265.829 169.08C265.283 169.08 264.793 168.94 264.359 168.66C263.933 168.38 263.593 167.973 263.339 167.44C263.093 166.907 262.969 166.26 262.969 165.5C262.969 164.74 263.093 164.093 263.339 163.56C263.593 163.027 263.933 162.62 264.359 162.34C264.793 162.06 265.283 161.92 265.829 161.92C266.369 161.92 266.856 162.06 267.289 162.34C267.723 162.62 268.063 163.027 268.309 163.56C268.556 164.093 268.679 164.74 268.679 165.5C268.679 166.26 268.556 166.907 268.309 167.44C268.063 167.973 267.723 168.38 267.289 168.66C266.856 168.94 266.369 169.08 265.829 169.08ZM265.829 168.19C266.196 168.19 266.516 168.09 266.789 167.89C267.069 167.69 267.286 167.39 267.439 166.99C267.599 166.59 267.679 166.093 267.679 165.5C267.679 164.907 267.599 164.41 267.439 164.01C267.286 163.61 267.069 163.31 266.789 163.11C266.516 162.91 266.196 162.81 265.829 162.81C265.463 162.81 265.139 162.91 264.859 163.11C264.579 163.31 264.359 163.61 264.199 164.01C264.046 164.41 263.969 164.907 263.969 165.5C263.969 166.093 264.046 166.59 264.199 166.99C264.359 167.39 264.579 167.69 264.859 167.89C265.139 168.09 265.463 168.19 265.829 168.19ZM272.775 169V163.7H276.675V164.54H273.505L273.735 164.32V169H272.775ZM279.693 169.06C279.16 169.06 278.686 168.943 278.273 168.71C277.86 168.477 277.533 168.157 277.293 167.75C277.053 167.337 276.933 166.87 276.933 166.35C276.933 165.823 277.053 165.357 277.293 164.95C277.533 164.543 277.86 164.227 278.273 164C278.686 163.767 279.16 163.65 279.693 163.65C280.22 163.65 280.69 163.767 281.103 164C281.523 164.227 281.85 164.543 282.083 164.95C282.323 165.35 282.443 165.817 282.443 166.35C282.443 166.877 282.323 167.343 282.083 167.75C281.85 168.157 281.523 168.477 281.103 168.71C280.69 168.943 280.22 169.06 279.693 169.06ZM279.693 168.22C280.033 168.22 280.336 168.143 280.603 167.99C280.876 167.837 281.09 167.62 281.243 167.34C281.396 167.053 281.473 166.723 281.473 166.35C281.473 165.97 281.396 165.643 281.243 165.37C281.09 165.09 280.876 164.873 280.603 164.72C280.336 164.567 280.033 164.49 279.693 164.49C279.353 164.49 279.05 164.567 278.783 164.72C278.516 164.873 278.303 165.09 278.143 165.37C277.983 165.643 277.903 165.97 277.903 166.35C277.903 166.723 277.983 167.053 278.143 167.34C278.303 167.62 278.516 167.837 278.783 167.99C279.05 168.143 279.353 168.22 279.693 168.22ZM287.41 168.55V164.54H285.11L285.06 165.56C285.047 165.893 285.024 166.217 284.99 166.53C284.964 166.837 284.917 167.12 284.85 167.38C284.79 167.64 284.7 167.853 284.58 168.02C284.46 168.187 284.3 168.29 284.1 168.33L283.15 168.16C283.357 168.167 283.524 168.1 283.65 167.96C283.777 167.813 283.874 167.613 283.94 167.36C284.014 167.107 284.067 166.82 284.1 166.5C284.134 166.173 284.16 165.837 284.18 165.49L284.26 163.7H288.37V168.55H287.41ZM282.94 170.23V168.16H289.18V170.23H288.28V169H283.85V170.23H282.94ZM293.681 169V167.88L293.631 167.67V165.76C293.631 165.353 293.511 165.04 293.271 164.82C293.038 164.593 292.684 164.48 292.211 164.48C291.898 164.48 291.591 164.533 291.291 164.64C290.991 164.74 290.738 164.877 290.531 165.05L290.131 164.33C290.404 164.11 290.731 163.943 291.111 163.83C291.498 163.71 291.901 163.65 292.321 163.65C293.048 163.65 293.608 163.827 294.001 164.18C294.394 164.533 294.591 165.073 294.591 165.8V169H293.681ZM291.941 169.06C291.548 169.06 291.201 168.993 290.901 168.86C290.608 168.727 290.381 168.543 290.221 168.31C290.061 168.07 289.981 167.8 289.981 167.5C289.981 167.213 290.048 166.953 290.181 166.72C290.321 166.487 290.544 166.3 290.851 166.16C291.164 166.02 291.584 165.95 292.111 165.95H293.791V166.64H292.151C291.671 166.64 291.348 166.72 291.181 166.88C291.014 167.04 290.931 167.233 290.931 167.46C290.931 167.72 291.034 167.93 291.241 168.09C291.448 168.243 291.734 168.32 292.101 168.32C292.461 168.32 292.774 168.24 293.041 168.08C293.314 167.92 293.511 167.687 293.631 167.38L293.821 168.04C293.694 168.353 293.471 168.603 293.151 168.79C292.831 168.97 292.428 169.06 291.941 169.06Z" fill="white"/>
<path d="M47.724 129.168C47.0427 129.168 46.366 129.079 45.694 128.902C45.022 128.715 44.4527 128.454 43.986 128.118L44.868 126.382C45.2413 126.653 45.6753 126.867 46.17 127.026C46.6647 127.185 47.164 127.264 47.668 127.264C48.2373 127.264 48.6853 127.152 49.012 126.928C49.3387 126.704 49.502 126.396 49.502 126.004C49.502 125.631 49.3573 125.337 49.068 125.122C48.7787 124.907 48.312 124.8 47.668 124.8H46.632V123.302L49.362 120.208L49.614 121.02H44.476V119.2H51.336V120.67L48.62 123.764L47.472 123.106H48.13C49.334 123.106 50.244 123.377 50.86 123.918C51.476 124.459 51.784 125.155 51.784 126.004C51.784 126.555 51.6393 127.073 51.35 127.558C51.0607 128.034 50.6173 128.421 50.02 128.72C49.4227 129.019 48.6573 129.168 47.724 129.168ZM57.0312 129.168C56.2285 129.168 55.5098 128.972 54.8752 128.58C54.2405 128.179 53.7412 127.6 53.3772 126.844C53.0132 126.088 52.8312 125.173 52.8312 124.1C52.8312 123.027 53.0132 122.112 53.3772 121.356C53.7412 120.6 54.2405 120.026 54.8752 119.634C55.5098 119.233 56.2285 119.032 57.0312 119.032C57.8432 119.032 58.5618 119.233 59.1872 119.634C59.8218 120.026 60.3212 120.6 60.6852 121.356C61.0492 122.112 61.2312 123.027 61.2312 124.1C61.2312 125.173 61.0492 126.088 60.6852 126.844C60.3212 127.6 59.8218 128.179 59.1872 128.58C58.5618 128.972 57.8432 129.168 57.0312 129.168ZM57.0312 127.25C57.4138 127.25 57.7452 127.143 58.0252 126.928C58.3145 126.713 58.5385 126.373 58.6972 125.906C58.8652 125.439 58.9492 124.837 58.9492 124.1C58.9492 123.363 58.8652 122.761 58.6972 122.294C58.5385 121.827 58.3145 121.487 58.0252 121.272C57.7452 121.057 57.4138 120.95 57.0312 120.95C56.6578 120.95 56.3265 121.057 56.0372 121.272C55.7572 121.487 55.5332 121.827 55.3652 122.294C55.2065 122.761 55.1272 123.363 55.1272 124.1C55.1272 124.837 55.2065 125.439 55.3652 125.906C55.5332 126.373 55.7572 126.713 56.0372 126.928C56.3265 127.143 56.6578 127.25 57.0312 127.25ZM67.432 131.8C67.0773 131.8 66.732 131.739 66.396 131.618C66.06 131.506 65.7706 131.338 65.528 131.114L66.102 130.106C66.2886 130.283 66.494 130.419 66.718 130.512C66.942 130.605 67.18 130.652 67.432 130.652C67.7586 130.652 68.0293 130.568 68.244 130.4C68.4586 130.232 68.6593 129.933 68.846 129.504L69.308 128.482L69.448 128.314L72.36 121.58H73.676L70.078 129.742C69.8633 130.265 69.6206 130.675 69.35 130.974C69.0886 131.273 68.7993 131.483 68.482 131.604C68.1646 131.735 67.8146 131.8 67.432 131.8ZM69.196 129.238L65.808 121.58H67.208L70.092 128.188L69.196 129.238ZM78.986 129.084C78.37 129.084 77.8053 128.944 77.292 128.664C76.788 128.375 76.382 127.95 76.074 127.39C75.7753 126.83 75.626 126.13 75.626 125.29C75.626 124.45 75.7707 123.75 76.06 123.19C76.3587 122.63 76.76 122.21 77.264 121.93C77.7773 121.65 78.3513 121.51 78.986 121.51C79.714 121.51 80.358 121.669 80.918 121.986C81.478 122.303 81.9213 122.747 82.248 123.316C82.5747 123.876 82.738 124.534 82.738 125.29C82.738 126.046 82.5747 126.709 82.248 127.278C81.9213 127.847 81.478 128.291 80.918 128.608C80.358 128.925 79.714 129.084 78.986 129.084ZM75.052 131.716V121.58H76.34V123.582L76.256 125.304L76.396 127.026V131.716H75.052ZM78.874 127.908C79.35 127.908 79.7747 127.801 80.148 127.586C80.5307 127.371 80.8293 127.068 81.044 126.676C81.268 126.275 81.38 125.813 81.38 125.29C81.38 124.758 81.268 124.301 81.044 123.918C80.8293 123.526 80.5307 123.223 80.148 123.008C79.7747 122.793 79.35 122.686 78.874 122.686C78.4073 122.686 77.9827 122.793 77.6 123.008C77.2267 123.223 76.928 123.526 76.704 123.918C76.4893 124.301 76.382 124.758 76.382 125.29C76.382 125.813 76.4893 126.275 76.704 126.676C76.928 127.068 77.2267 127.371 77.6 127.586C77.9827 127.801 78.4073 127.908 78.874 127.908ZM87.8687 129.084C87.122 129.084 86.4593 128.921 85.8807 128.594C85.302 128.267 84.8447 127.819 84.5087 127.25C84.1727 126.671 84.0047 126.018 84.0047 125.29C84.0047 124.553 84.1727 123.899 84.5087 123.33C84.8447 122.761 85.302 122.317 85.8807 122C86.4593 121.673 87.122 121.51 87.8687 121.51C88.606 121.51 89.264 121.673 89.8427 122C90.4307 122.317 90.888 122.761 91.2147 123.33C91.5507 123.89 91.7187 124.543 91.7187 125.29C91.7187 126.027 91.5507 126.681 91.2147 127.25C90.888 127.819 90.4307 128.267 89.8427 128.594C89.264 128.921 88.606 129.084 87.8687 129.084ZM87.8687 127.908C88.3447 127.908 88.7693 127.801 89.1427 127.586C89.5253 127.371 89.824 127.068 90.0387 126.676C90.2533 126.275 90.3607 125.813 90.3607 125.29C90.3607 124.758 90.2533 124.301 90.0387 123.918C89.824 123.526 89.5253 123.223 89.1427 123.008C88.7693 122.793 88.3447 122.686 87.8687 122.686C87.3927 122.686 86.968 122.793 86.5947 123.008C86.2213 123.223 85.9227 123.526 85.6987 123.918C85.4747 124.301 85.3627 124.758 85.3627 125.29C85.3627 125.813 85.4747 126.275 85.6987 126.676C85.9227 127.068 86.2213 127.371 86.5947 127.586C86.968 127.801 87.3927 127.908 87.8687 127.908ZM99.0354 129L96.1654 125.388L97.2714 124.716L100.617 129H99.0354ZM93.6594 129V121.58H95.0034V129H93.6594ZM94.5974 125.864V124.716H97.0474V125.864H94.5974ZM97.3834 125.444L96.1374 125.276L98.9794 121.58H100.421L97.3834 125.444ZM104.959 129.084C104.212 129.084 103.549 128.921 102.971 128.594C102.392 128.267 101.935 127.819 101.599 127.25C101.263 126.671 101.095 126.018 101.095 125.29C101.095 124.553 101.263 123.899 101.599 123.33C101.935 122.761 102.392 122.317 102.971 122C103.549 121.673 104.212 121.51 104.959 121.51C105.696 121.51 106.354 121.673 106.933 122C107.521 122.317 107.978 122.761 108.305 123.33C108.641 123.89 108.809 124.543 108.809 125.29C108.809 126.027 108.641 126.681 108.305 127.25C107.978 127.819 107.521 128.267 106.933 128.594C106.354 128.921 105.696 129.084 104.959 129.084ZM104.959 127.908C105.435 127.908 105.859 127.801 106.233 127.586C106.615 127.371 106.914 127.068 107.129 126.676C107.343 126.275 107.451 125.813 107.451 125.29C107.451 124.758 107.343 124.301 107.129 123.918C106.914 123.526 106.615 123.223 106.233 123.008C105.859 122.793 105.435 122.686 104.959 122.686C104.483 122.686 104.058 122.793 103.685 123.008C103.311 123.223 103.013 123.526 102.789 123.918C102.565 124.301 102.453 124.758 102.453 125.29C102.453 125.813 102.565 126.275 102.789 126.676C103.013 127.068 103.311 127.371 103.685 127.586C104.058 127.801 104.483 127.908 104.959 127.908ZM110.749 129V121.58H114.193C115.061 121.58 115.743 121.748 116.237 122.084C116.741 122.411 116.993 122.877 116.993 123.484C116.993 124.091 116.755 124.562 116.279 124.898C115.813 125.225 115.192 125.388 114.417 125.388L114.627 125.024C115.514 125.024 116.172 125.187 116.601 125.514C117.031 125.841 117.245 126.321 117.245 126.956C117.245 127.6 117.003 128.104 116.517 128.468C116.041 128.823 115.309 129 114.319 129H110.749ZM112.065 127.964H114.221C114.781 127.964 115.201 127.88 115.481 127.712C115.761 127.535 115.901 127.255 115.901 126.872C115.901 126.48 115.771 126.195 115.509 126.018C115.257 125.831 114.856 125.738 114.305 125.738H112.065V127.964ZM112.065 124.772H114.081C114.595 124.772 114.982 124.679 115.243 124.492C115.514 124.296 115.649 124.025 115.649 123.68C115.649 123.325 115.514 123.059 115.243 122.882C114.982 122.705 114.595 122.616 114.081 122.616H112.065V124.772Z" fill="white"/>
<path d="M164.724 129.168C164.043 129.168 163.366 129.079 162.694 128.902C162.022 128.715 161.453 128.454 160.986 128.118L161.868 126.382C162.241 126.653 162.675 126.867 163.17 127.026C163.665 127.185 164.164 127.264 164.668 127.264C165.237 127.264 165.685 127.152 166.012 126.928C166.339 126.704 166.502 126.396 166.502 126.004C166.502 125.631 166.357 125.337 166.068 125.122C165.779 124.907 165.312 124.8 164.668 124.8H163.632V123.302L166.362 120.208L166.614 121.02H161.476V119.2H168.336V120.67L165.62 123.764L164.472 123.106H165.13C166.334 123.106 167.244 123.377 167.86 123.918C168.476 124.459 168.784 125.155 168.784 126.004C168.784 126.555 168.639 127.073 168.35 127.558C168.061 128.034 167.617 128.421 167.02 128.72C166.423 129.019 165.657 129.168 164.724 129.168ZM174.031 129.168C173.228 129.168 172.51 128.972 171.875 128.58C171.24 128.179 170.741 127.6 170.377 126.844C170.013 126.088 169.831 125.173 169.831 124.1C169.831 123.027 170.013 122.112 170.377 121.356C170.741 120.6 171.24 120.026 171.875 119.634C172.51 119.233 173.228 119.032 174.031 119.032C174.843 119.032 175.562 119.233 176.187 119.634C176.822 120.026 177.321 120.6 177.685 121.356C178.049 122.112 178.231 123.027 178.231 124.1C178.231 125.173 178.049 126.088 177.685 126.844C177.321 127.6 176.822 128.179 176.187 128.58C175.562 128.972 174.843 129.168 174.031 129.168ZM174.031 127.25C174.414 127.25 174.745 127.143 175.025 126.928C175.314 126.713 175.538 126.373 175.697 125.906C175.865 125.439 175.949 124.837 175.949 124.1C175.949 123.363 175.865 122.761 175.697 122.294C175.538 121.827 175.314 121.487 175.025 121.272C174.745 121.057 174.414 120.95 174.031 120.95C173.658 120.95 173.326 121.057 173.037 121.272C172.757 121.487 172.533 121.827 172.365 122.294C172.206 122.761 172.127 123.363 172.127 124.1C172.127 124.837 172.206 125.439 172.365 125.906C172.533 126.373 172.757 126.713 173.037 126.928C173.326 127.143 173.658 127.25 174.031 127.25ZM183.533 129.168C182.73 129.168 182.012 128.972 181.377 128.58C180.742 128.179 180.243 127.6 179.879 126.844C179.515 126.088 179.333 125.173 179.333 124.1C179.333 123.027 179.515 122.112 179.879 121.356C180.243 120.6 180.742 120.026 181.377 119.634C182.012 119.233 182.73 119.032 183.533 119.032C184.345 119.032 185.064 119.233 185.689 119.634C186.324 120.026 186.823 120.6 187.187 121.356C187.551 122.112 187.733 123.027 187.733 124.1C187.733 125.173 187.551 126.088 187.187 126.844C186.823 127.6 186.324 128.179 185.689 128.58C185.064 128.972 184.345 129.168 183.533 129.168ZM183.533 127.25C183.916 127.25 184.247 127.143 184.527 126.928C184.816 126.713 185.04 126.373 185.199 125.906C185.367 125.439 185.451 124.837 185.451 124.1C185.451 123.363 185.367 122.761 185.199 122.294C185.04 121.827 184.816 121.487 184.527 121.272C184.247 121.057 183.916 120.95 183.533 120.95C183.16 120.95 182.828 121.057 182.539 121.272C182.259 121.487 182.035 121.827 181.867 122.294C181.708 122.761 181.629 123.363 181.629 124.1C181.629 124.837 181.708 125.439 181.867 125.906C182.035 126.373 182.259 126.713 182.539 126.928C182.828 127.143 183.16 127.25 183.533 127.25ZM195.726 129.098C195.166 129.098 194.615 129.028 194.074 128.888C193.542 128.739 193.066 128.529 192.646 128.258L193.052 127.236C193.407 127.46 193.813 127.637 194.27 127.768C194.727 127.889 195.189 127.95 195.656 127.95C196.085 127.95 196.454 127.899 196.762 127.796C197.079 127.693 197.322 127.553 197.49 127.376C197.658 127.189 197.742 126.975 197.742 126.732C197.742 126.387 197.588 126.121 197.28 125.934C196.972 125.747 196.543 125.654 195.992 125.654H194.648V124.688H195.908C196.235 124.688 196.519 124.651 196.762 124.576C197.005 124.501 197.191 124.389 197.322 124.24C197.462 124.081 197.532 123.899 197.532 123.694C197.532 123.47 197.453 123.279 197.294 123.12C197.135 122.961 196.911 122.84 196.622 122.756C196.342 122.672 196.011 122.63 195.628 122.63C195.255 122.639 194.872 122.691 194.48 122.784C194.097 122.877 193.705 123.022 193.304 123.218L192.94 122.168C193.388 121.953 193.827 121.79 194.256 121.678C194.695 121.557 195.129 121.491 195.558 121.482C196.202 121.463 196.776 121.538 197.28 121.706C197.784 121.865 198.181 122.098 198.47 122.406C198.769 122.714 198.918 123.078 198.918 123.498C198.918 123.853 198.806 124.17 198.582 124.45C198.358 124.721 198.059 124.935 197.686 125.094C197.313 125.253 196.883 125.332 196.398 125.332L196.454 125.01C197.285 125.01 197.938 125.173 198.414 125.5C198.89 125.827 199.128 126.27 199.128 126.83C199.128 127.278 198.979 127.675 198.68 128.02C198.381 128.356 197.975 128.622 197.462 128.818C196.958 129.005 196.379 129.098 195.726 129.098ZM205.721 129V127.432L205.651 127.138V124.464C205.651 123.895 205.483 123.456 205.147 123.148C204.82 122.831 204.326 122.672 203.663 122.672C203.224 122.672 202.795 122.747 202.375 122.896C201.955 123.036 201.6 123.227 201.311 123.47L200.751 122.462C201.134 122.154 201.591 121.921 202.123 121.762C202.664 121.594 203.229 121.51 203.817 121.51C204.834 121.51 205.618 121.757 206.169 122.252C206.72 122.747 206.995 123.503 206.995 124.52V129H205.721ZM203.285 129.084C202.734 129.084 202.249 128.991 201.829 128.804C201.418 128.617 201.101 128.361 200.877 128.034C200.653 127.698 200.541 127.32 200.541 126.9C200.541 126.499 200.634 126.135 200.821 125.808C201.017 125.481 201.33 125.22 201.759 125.024C202.198 124.828 202.786 124.73 203.523 124.73H205.875V125.696H203.579C202.907 125.696 202.454 125.808 202.221 126.032C201.988 126.256 201.871 126.527 201.871 126.844C201.871 127.208 202.016 127.502 202.305 127.726C202.594 127.941 202.996 128.048 203.509 128.048C204.013 128.048 204.452 127.936 204.825 127.712C205.208 127.488 205.483 127.161 205.651 126.732L205.917 127.656C205.74 128.095 205.427 128.445 204.979 128.706C204.531 128.958 203.966 129.084 203.285 129.084ZM214.483 128.37V122.756H211.263L211.193 124.184C211.175 124.651 211.142 125.103 211.095 125.542C211.058 125.971 210.993 126.368 210.899 126.732C210.815 127.096 210.689 127.395 210.521 127.628C210.353 127.861 210.129 128.006 209.849 128.062L208.519 127.824C208.809 127.833 209.042 127.74 209.219 127.544C209.397 127.339 209.532 127.059 209.625 126.704C209.728 126.349 209.803 125.948 209.849 125.5C209.896 125.043 209.933 124.571 209.961 124.086L210.073 121.58H215.827V128.37H214.483ZM208.225 130.722V127.824H216.961V130.722H215.701V129H209.499V130.722H208.225ZM223.262 129V127.432L223.192 127.138V124.464C223.192 123.895 223.024 123.456 222.688 123.148C222.361 122.831 221.867 122.672 221.204 122.672C220.765 122.672 220.336 122.747 219.916 122.896C219.496 123.036 219.141 123.227 218.852 123.47L218.292 122.462C218.675 122.154 219.132 121.921 219.664 121.762C220.205 121.594 220.77 121.51 221.358 121.51C222.375 121.51 223.159 121.757 223.71 122.252C224.261 122.747 224.536 123.503 224.536 124.52V129H223.262ZM220.826 129.084C220.275 129.084 219.79 128.991 219.37 128.804C218.959 128.617 218.642 128.361 218.418 128.034C218.194 127.698 218.082 127.32 218.082 126.9C218.082 126.499 218.175 126.135 218.362 125.808C218.558 125.481 218.871 125.22 219.3 125.024C219.739 124.828 220.327 124.73 221.064 124.73H223.416V125.696H221.12C220.448 125.696 219.995 125.808 219.762 126.032C219.529 126.256 219.412 126.527 219.412 126.844C219.412 127.208 219.557 127.502 219.846 127.726C220.135 127.941 220.537 128.048 221.05 128.048C221.554 128.048 221.993 127.936 222.366 127.712C222.749 127.488 223.024 127.161 223.192 126.732L223.458 127.656C223.281 128.095 222.968 128.445 222.52 128.706C222.072 128.958 221.507 129.084 220.826 129.084ZM226.956 129V121.58H228.3V124.73H232.528V121.58H233.872V129H232.528V125.892H228.3V129H226.956ZM236.486 129V121.58H237.83V126.984L242.38 121.58H243.598V129H242.254V123.596L237.718 129H236.486ZM246.206 129V121.58H247.55V126.984L252.1 121.58H253.318V129H251.974V123.596L247.438 129H246.206ZM249.678 120.614C248.997 120.614 248.46 120.451 248.068 120.124C247.686 119.788 247.49 119.307 247.48 118.682H248.39C248.4 119.037 248.516 119.317 248.74 119.522C248.974 119.727 249.282 119.83 249.664 119.83C250.047 119.83 250.355 119.727 250.588 119.522C250.822 119.317 250.943 119.037 250.952 118.682H251.89C251.881 119.307 251.68 119.788 251.288 120.124C250.896 120.451 250.36 120.614 249.678 120.614Z" fill="white"/>
<path d="M295.99 119.032C296.895 119.032 297.675 119.219 298.328 119.592C298.981 119.965 299.485 120.511 299.84 121.23C300.195 121.939 300.372 122.826 300.372 123.89C300.372 125.019 300.157 125.976 299.728 126.76C299.308 127.544 298.725 128.141 297.978 128.552C297.231 128.963 296.363 129.168 295.374 129.168C294.861 129.168 294.366 129.112 293.89 129C293.414 128.888 293.003 128.72 292.658 128.496L293.498 126.83C293.769 127.017 294.058 127.147 294.366 127.222C294.674 127.287 294.996 127.32 295.332 127.32C296.172 127.32 296.839 127.063 297.334 126.55C297.838 126.037 298.09 125.276 298.09 124.268C298.09 124.1 298.085 123.913 298.076 123.708C298.067 123.503 298.043 123.297 298.006 123.092L298.622 123.68C298.463 124.044 298.239 124.352 297.95 124.604C297.661 124.847 297.325 125.033 296.942 125.164C296.559 125.285 296.13 125.346 295.654 125.346C295.029 125.346 294.459 125.22 293.946 124.968C293.442 124.716 293.036 124.361 292.728 123.904C292.429 123.447 292.28 122.91 292.28 122.294C292.28 121.622 292.443 121.043 292.77 120.558C293.106 120.073 293.554 119.699 294.114 119.438C294.683 119.167 295.309 119.032 295.99 119.032ZM296.13 120.726C295.803 120.726 295.519 120.787 295.276 120.908C295.033 121.02 294.842 121.188 294.702 121.412C294.562 121.627 294.492 121.883 294.492 122.182C294.492 122.63 294.641 122.989 294.94 123.26C295.248 123.521 295.654 123.652 296.158 123.652C296.485 123.652 296.774 123.591 297.026 123.47C297.287 123.339 297.488 123.162 297.628 122.938C297.768 122.714 297.838 122.462 297.838 122.182C297.838 121.902 297.768 121.655 297.628 121.44C297.497 121.216 297.306 121.043 297.054 120.922C296.802 120.791 296.494 120.726 296.13 120.726ZM305.66 129.168C304.857 129.168 304.139 128.972 303.504 128.58C302.869 128.179 302.37 127.6 302.006 126.844C301.642 126.088 301.46 125.173 301.46 124.1C301.46 123.027 301.642 122.112 302.006 121.356C302.37 120.6 302.869 120.026 303.504 119.634C304.139 119.233 304.857 119.032 305.66 119.032C306.472 119.032 307.191 119.233 307.816 119.634C308.451 120.026 308.95 120.6 309.314 121.356C309.678 122.112 309.86 123.027 309.86 124.1C309.86 125.173 309.678 126.088 309.314 126.844C308.95 127.6 308.451 128.179 307.816 128.58C307.191 128.972 306.472 129.168 305.66 129.168ZM305.66 127.25C306.043 127.25 306.374 127.143 306.654 126.928C306.943 126.713 307.167 126.373 307.326 125.906C307.494 125.439 307.578 124.837 307.578 124.1C307.578 123.363 307.494 122.761 307.326 122.294C307.167 121.827 306.943 121.487 306.654 121.272C306.374 121.057 306.043 120.95 305.66 120.95C305.287 120.95 304.955 121.057 304.666 121.272C304.386 121.487 304.162 121.827 303.994 122.294C303.835 122.761 303.756 123.363 303.756 124.1C303.756 124.837 303.835 125.439 303.994 125.906C304.162 126.373 304.386 126.713 304.666 126.928C304.955 127.143 305.287 127.25 305.66 127.25ZM320.359 125.962C319.967 126.149 319.561 126.298 319.141 126.41C318.73 126.513 318.306 126.564 317.867 126.564C316.971 126.564 316.262 126.354 315.739 125.934C315.226 125.514 314.969 124.865 314.969 123.988V121.58H316.313V123.904C316.313 124.436 316.476 124.828 316.803 125.08C317.139 125.332 317.587 125.458 318.147 125.458C318.502 125.458 318.866 125.411 319.239 125.318C319.622 125.225 319.995 125.094 320.359 124.926V125.962ZM320.261 129V121.58H321.605V129H320.261ZM328.764 129V127.432L328.694 127.138V124.464C328.694 123.895 328.526 123.456 328.19 123.148C327.863 122.831 327.369 122.672 326.706 122.672C326.267 122.672 325.838 122.747 325.418 122.896C324.998 123.036 324.643 123.227 324.354 123.47L323.794 122.462C324.177 122.154 324.634 121.921 325.166 121.762C325.707 121.594 326.272 121.51 326.86 121.51C327.877 121.51 328.661 121.757 329.212 122.252C329.763 122.747 330.038 123.503 330.038 124.52V129H328.764ZM326.328 129.084C325.777 129.084 325.292 128.991 324.872 128.804C324.461 128.617 324.144 128.361 323.92 128.034C323.696 127.698 323.584 127.32 323.584 126.9C323.584 126.499 323.677 126.135 323.864 125.808C324.06 125.481 324.373 125.22 324.802 125.024C325.241 124.828 325.829 124.73 326.566 124.73H328.918V125.696H326.622C325.95 125.696 325.497 125.808 325.264 126.032C325.031 126.256 324.914 126.527 324.914 126.844C324.914 127.208 325.059 127.502 325.348 127.726C325.637 127.941 326.039 128.048 326.552 128.048C327.056 128.048 327.495 127.936 327.868 127.712C328.251 127.488 328.526 127.161 328.694 126.732L328.96 127.656C328.783 128.095 328.47 128.445 328.022 128.706C327.574 128.958 327.009 129.084 326.328 129.084ZM335.692 129.084C334.936 129.084 334.26 128.921 333.662 128.594C333.074 128.267 332.612 127.819 332.276 127.25C331.94 126.681 331.772 126.027 331.772 125.29C331.772 124.553 331.94 123.899 332.276 123.33C332.612 122.761 333.074 122.317 333.662 122C334.26 121.673 334.936 121.51 335.692 121.51C336.364 121.51 336.962 121.645 337.484 121.916C338.016 122.177 338.427 122.569 338.716 123.092L337.694 123.75C337.452 123.386 337.153 123.12 336.798 122.952C336.453 122.775 336.08 122.686 335.678 122.686C335.193 122.686 334.759 122.793 334.376 123.008C333.994 123.223 333.69 123.526 333.466 123.918C333.242 124.301 333.13 124.758 333.13 125.29C333.13 125.822 333.242 126.284 333.466 126.676C333.69 127.068 333.994 127.371 334.376 127.586C334.759 127.801 335.193 127.908 335.678 127.908C336.08 127.908 336.453 127.824 336.798 127.656C337.153 127.479 337.452 127.208 337.694 126.844L338.716 127.488C338.427 128.001 338.016 128.398 337.484 128.678C336.962 128.949 336.364 129.084 335.692 129.084ZM343.525 129.084C342.778 129.084 342.116 128.921 341.537 128.594C340.958 128.267 340.501 127.819 340.165 127.25C339.829 126.671 339.661 126.018 339.661 125.29C339.661 124.553 339.829 123.899 340.165 123.33C340.501 122.761 340.958 122.317 341.537 122C342.116 121.673 342.778 121.51 343.525 121.51C344.262 121.51 344.92 121.673 345.499 122C346.087 122.317 346.544 122.761 346.871 123.33C347.207 123.89 347.375 124.543 347.375 125.29C347.375 126.027 347.207 126.681 346.871 127.25C346.544 127.819 346.087 128.267 345.499 128.594C344.92 128.921 344.262 129.084 343.525 129.084ZM343.525 127.908C344.001 127.908 344.426 127.801 344.799 127.586C345.182 127.371 345.48 127.068 345.695 126.676C345.91 126.275 346.017 125.813 346.017 125.29C346.017 124.758 345.91 124.301 345.695 123.918C345.48 123.526 345.182 123.223 344.799 123.008C344.426 122.793 344.001 122.686 343.525 122.686C343.049 122.686 342.624 122.793 342.251 123.008C341.878 123.223 341.579 123.526 341.355 123.918C341.131 124.301 341.019 124.758 341.019 125.29C341.019 125.813 341.131 126.275 341.355 126.676C341.579 127.068 341.878 127.371 342.251 127.586C342.624 127.801 343.049 127.908 343.525 127.908ZM349.316 129V121.58H352.76C353.628 121.58 354.309 121.748 354.804 122.084C355.308 122.411 355.56 122.877 355.56 123.484C355.56 124.091 355.322 124.562 354.846 124.898C354.379 125.225 353.758 125.388 352.984 125.388L353.194 125.024C354.08 125.024 354.738 125.187 355.168 125.514C355.597 125.841 355.812 126.321 355.812 126.956C355.812 127.6 355.569 128.104 355.084 128.468C354.608 128.823 353.875 129 352.886 129H349.316ZM350.632 127.964H352.788C353.348 127.964 353.768 127.88 354.048 127.712C354.328 127.535 354.468 127.255 354.468 126.872C354.468 126.48 354.337 126.195 354.076 126.018C353.824 125.831 353.422 125.738 352.872 125.738H350.632V127.964ZM350.632 124.772H352.648C353.161 124.772 353.548 124.679 353.81 124.492C354.08 124.296 354.216 124.025 354.216 123.68C354.216 123.325 354.08 123.059 353.81 122.882C353.548 122.705 353.161 122.616 352.648 122.616H350.632V124.772Z" fill="white"/>
<g clip-path="url(#clip0_2985_716)">
<path d="M20.2003 117.75C20.6777 117.75 21.1355 117.552 21.4731 117.201C21.8106 116.849 22.0003 116.372 22.0003 115.875C22.0003 115.378 21.8106 114.901 21.4731 114.549C21.1355 114.198 20.6777 114 20.2003 114C19.7229 114 19.2651 114.198 18.9275 114.549C18.5899 114.901 18.4003 115.378 18.4003 115.875C18.4003 116.372 18.5899 116.849 18.9275 117.201C19.2651 117.552 19.7229 117.75 20.2003 117.75ZM19.9003 132.75V127.75H20.5003V132.75C20.5003 133.441 21.0365 134 21.7003 134C22.364 134 22.9003 133.441 22.9003 132.75V121.5H25.0003H27.4003H28.0003C28.664 121.5 29.2003 120.941 29.2003 120.25C29.2003 119.559 28.664 119 28.0003 119H27.4003V116.5H34.6003V124H27.4003V122.75H25.0003V124.625C25.0003 125.66 25.8065 126.5 26.8003 126.5H35.2003C36.194 126.5 37.0003 125.66 37.0003 124.625V115.875C37.0003 114.84 36.194 114 35.2003 114H26.8003C25.8065 114 25.0003 114.84 25.0003 115.875V119H22.1165H19.6453C18.3815 119 17.2115 119.691 16.559 120.82L14.3728 124.609C14.0315 125.199 14.2153 125.969 14.7815 126.324C15.3478 126.68 16.0865 126.488 16.4278 125.898L17.5003 124.035V132.75C17.5003 133.441 18.0365 134 18.7003 134C19.364 134 19.9003 133.441 19.9003 132.75Z" fill="white"/>
</g>
<g clip-path="url(#clip1_2985_716)">
<path d="M137.898 114.519C138.347 114.886 138.384 115.509 137.98 115.917L134.714 119.216C134.515 119.418 134.234 119.537 133.934 119.541C133.635 119.546 133.349 119.443 133.136 119.253L131.317 117.604C130.896 117.216 130.896 116.589 131.317 116.202C131.739 115.814 132.433 115.814 132.855 116.202L133.857 117.113L136.356 114.589C136.76 114.181 137.445 114.148 137.894 114.515L137.898 114.519ZM137.898 121.117C138.347 121.484 138.384 122.106 137.98 122.514L134.714 125.813C134.515 126.015 134.234 126.135 133.934 126.139C133.635 126.143 133.349 126.04 133.136 125.85L131.317 124.201C130.891 123.813 130.891 123.186 131.317 122.803C131.744 122.42 132.433 122.415 132.855 122.803L133.857 123.714L136.356 121.191C136.76 120.783 137.445 120.75 137.894 121.117H137.898ZM141.16 116.903C141.16 116.173 141.808 115.583 142.611 115.583H152.771C153.573 115.583 154.222 116.173 154.222 116.903C154.222 117.632 153.573 118.222 152.771 118.222H142.611C141.808 118.222 141.16 117.632 141.16 116.903ZM141.16 123.5C141.16 122.77 141.808 122.18 142.611 122.18H152.771C153.573 122.18 154.222 122.77 154.222 123.5C154.222 124.23 153.573 124.819 152.771 124.819H142.611C141.808 124.819 141.16 124.23 141.16 123.5ZM138.257 130.097C138.257 129.367 138.905 128.778 139.708 128.778H152.771C153.573 128.778 154.222 129.367 154.222 130.097C154.222 130.827 153.573 131.416 152.771 131.416H139.708C138.905 131.416 138.257 130.827 138.257 130.097ZM133.177 128.118C133.754 128.118 134.308 128.326 134.716 128.698C135.125 129.069 135.354 129.572 135.354 130.097C135.354 130.622 135.125 131.125 134.716 131.497C134.308 131.868 133.754 132.076 133.177 132.076C132.6 132.076 132.046 131.868 131.637 131.497C131.229 131.125 131 130.622 131 130.097C131 129.572 131.229 129.069 131.637 128.698C132.046 128.326 132.6 128.118 133.177 128.118Z" fill="white"/>
</g>
<g clip-path="url(#clip2_2985_716)">
<path d="M273 114C275.652 114 278.196 115.054 280.071 116.929C281.946 118.804 283 121.348 283 124C283 126.652 281.946 129.196 280.071 131.071C278.196 132.946 275.652 134 273 134C270.348 134 267.804 132.946 265.929 131.071C264.054 129.196 263 126.652 263 124C263 121.348 264.054 118.804 265.929 116.929C267.804 115.054 270.348 114 273 114ZM272.062 118.688V124C272.062 124.312 272.219 124.605 272.48 124.781L276.23 127.281C276.66 127.57 277.242 127.453 277.531 127.02C277.82 126.586 277.703 126.008 277.27 125.719L273.938 123.5V118.688C273.938 118.168 273.52 117.75 273 117.75C272.48 117.75 272.062 118.168 272.062 118.688Z" fill="white"/>
</g>
<defs>
<linearGradient id="paint0_linear_2985_716" x1="191" y1="0" x2="191" y2="200" gradientUnits="userSpaceOnUse">
<stop stop-color="#405DBA"/>
<stop offset="1" stop-color="#1E1848"/>
</linearGradient>
<clipPath id="clip0_2985_716">
<rect width="23" height="20" fill="white" transform="translate(14 114)"/>
</clipPath>
<clipPath id="clip1_2985_716">
<rect width="23.2222" height="19" fill="white" transform="translate(131 114)"/>
</clipPath>
<clipPath id="clip2_2985_716">
<rect width="20" height="20" fill="white" transform="translate(263 114)"/>
</clipPath>
</defs>
</svg>
