<svg width="382" height="200" viewBox="0 0 382 200" fill="none" xmlns="http://www.w3.org/2000/svg">
<path d="M0 20C0 8.95431 8.9543 0 20 0H362C373.046 0 382 8.95431 382 20V200H0V20Z" fill="url(#paint0_linear_2985_701)"/>
<path d="M88.9484 33L84.5884 26.26L87.2084 24.68L92.6284 33H88.9484ZM79.8484 33V19H83.0684V33H79.8484ZM82.1284 27.36V24.66H87.0084V27.36H82.1284ZM87.5084 26.36L84.5284 26L89.0684 19H92.4884L87.5084 26.36ZM95.1514 37.04C94.5914 37.04 94.0381 36.9533 93.4914 36.78C92.9447 36.6067 92.4981 36.3667 92.1514 36.06L93.2914 33.84C93.5314 34.0533 93.8047 34.22 94.1114 34.34C94.4314 34.46 94.7447 34.52 95.0514 34.52C95.4914 34.52 95.8381 34.4133 96.0914 34.2C96.3581 34 96.5981 33.66 96.8114 33.18L97.3714 31.86L97.6114 31.52L101.471 22.24H104.471L99.6114 33.66C99.2647 34.5267 98.8647 35.2067 98.4114 35.7C97.9714 36.1933 97.4781 36.54 96.9314 36.74C96.3981 36.94 95.8047 37.04 95.1514 37.04ZM96.9914 33.42L92.1914 22.24H95.4114L99.1314 31.24L96.9914 33.42ZM112.317 33.16C111.41 33.16 110.617 32.96 109.937 32.56C109.257 32.16 108.723 31.5533 108.337 30.74C107.963 29.9133 107.777 28.8733 107.777 27.62C107.777 26.3533 107.957 25.3133 108.317 24.5C108.677 23.6867 109.197 23.08 109.877 22.68C110.557 22.28 111.37 22.08 112.317 22.08C113.33 22.08 114.237 22.3133 115.037 22.78C115.85 23.2333 116.49 23.8733 116.957 24.7C117.437 25.5267 117.677 26.5 117.677 27.62C117.677 28.7533 117.437 29.7333 116.957 30.56C116.49 31.3867 115.85 32.0267 115.037 32.48C114.237 32.9333 113.33 33.16 112.317 33.16ZM105.957 36.88V22.24H108.937V24.44L108.877 27.64L109.077 30.82V36.88H105.957ZM111.777 30.6C112.297 30.6 112.757 30.48 113.157 30.24C113.57 30 113.897 29.66 114.137 29.22C114.39 28.7667 114.517 28.2333 114.517 27.62C114.517 26.9933 114.39 26.46 114.137 26.02C113.897 25.58 113.57 25.24 113.157 25C112.757 24.76 112.297 24.64 111.777 24.64C111.257 24.64 110.79 24.76 110.377 25C109.963 25.24 109.637 25.58 109.397 26.02C109.157 26.46 109.037 26.9933 109.037 27.62C109.037 28.2333 109.157 28.7667 109.397 29.22C109.637 29.66 109.963 30 110.377 30.24C110.79 30.48 111.257 30.6 111.777 30.6ZM124.983 33.16C123.823 33.16 122.79 32.9267 121.883 32.46C120.977 31.98 120.263 31.32 119.743 30.48C119.237 29.64 118.983 28.6867 118.983 27.62C118.983 26.54 119.237 25.5867 119.743 24.76C120.263 23.92 120.977 23.2667 121.883 22.8C122.79 22.32 123.823 22.08 124.983 22.08C126.117 22.08 127.103 22.32 127.943 22.8C128.783 23.2667 129.403 23.94 129.803 24.82L127.383 26.12C127.103 25.6133 126.75 25.24 126.323 25C125.91 24.76 125.457 24.64 124.963 24.64C124.43 24.64 123.95 24.76 123.523 25C123.097 25.24 122.757 25.58 122.503 26.02C122.263 26.46 122.143 26.9933 122.143 27.62C122.143 28.2467 122.263 28.78 122.503 29.22C122.757 29.66 123.097 30 123.523 30.24C123.95 30.48 124.43 30.6 124.963 30.6C125.457 30.6 125.91 30.4867 126.323 30.26C126.75 30.02 127.103 29.64 127.383 29.12L129.803 30.44C129.403 31.3067 128.783 31.98 127.943 32.46C127.103 32.9267 126.117 33.16 124.983 33.16ZM144.763 31.6V24.8H141.243L141.183 26.18C141.157 26.7533 141.123 27.3 141.083 27.82C141.043 28.34 140.963 28.8133 140.843 29.24C140.737 29.6533 140.577 30.0067 140.363 30.3C140.15 30.58 139.863 30.7733 139.503 30.88L136.423 30.44C136.81 30.44 137.123 30.3267 137.363 30.1C137.603 29.86 137.79 29.5333 137.923 29.12C138.057 28.6933 138.157 28.2133 138.223 27.68C138.29 27.1333 138.337 26.56 138.363 25.96L138.503 22.24H147.883V31.6H144.763ZM136.063 35.32V30.44H149.423V35.32H146.523V33H138.963V35.32H136.063ZM150.027 32.98L150.187 30.42C150.267 30.4333 150.347 30.4467 150.427 30.46C150.507 30.46 150.58 30.46 150.647 30.46C151.02 30.46 151.313 30.3533 151.527 30.14C151.74 29.9267 151.9 29.64 152.007 29.28C152.113 28.9067 152.187 28.4867 152.227 28.02C152.28 27.5533 152.32 27.0667 152.347 26.56L152.507 22.24H161.707V33H158.587V24.04L159.287 24.8H154.567L155.227 24L155.087 26.7C155.047 27.66 154.967 28.54 154.847 29.34C154.74 30.14 154.56 30.8333 154.307 31.42C154.053 31.9933 153.713 32.44 153.287 32.76C152.86 33.0667 152.313 33.22 151.647 33.22C151.407 33.22 151.153 33.2 150.887 33.16C150.62 33.12 150.333 33.06 150.027 32.98ZM171.487 33V29.42L171.927 29.92H168.947C167.4 29.92 166.187 29.6 165.307 28.96C164.427 28.32 163.987 27.4 163.987 26.2C163.987 24.92 164.447 23.94 165.367 23.26C166.3 22.58 167.554 22.24 169.127 22.24H174.267V33H171.487ZM163.827 33L166.687 28.9H169.867L167.147 33H163.827ZM171.487 28.46V23.98L171.927 24.78H169.187C168.547 24.78 168.047 24.9 167.687 25.14C167.34 25.38 167.167 25.7667 167.167 26.3C167.167 27.3267 167.827 27.84 169.147 27.84H171.927L171.487 28.46ZM181.57 32.98L181.73 30.42C181.81 30.4333 181.89 30.4467 181.97 30.46C182.05 30.46 182.123 30.46 182.19 30.46C182.563 30.46 182.856 30.3533 183.07 30.14C183.283 29.9267 183.443 29.64 183.55 29.28C183.656 28.9067 183.73 28.4867 183.77 28.02C183.823 27.5533 183.863 27.0667 183.89 26.56L184.05 22.24H193.25V33H190.13V24.04L190.83 24.8H186.11L186.77 24L186.63 26.7C186.59 27.66 186.51 28.54 186.39 29.34C186.283 30.14 186.103 30.8333 185.85 31.42C185.596 31.9933 185.256 32.44 184.83 32.76C184.403 33.0667 183.856 33.22 183.19 33.22C182.95 33.22 182.696 33.2 182.43 33.16C182.163 33.12 181.876 33.06 181.57 32.98ZM196.25 33V22.24H199.35V26.2H202.51V28.9H199.35V33H196.25ZM206.43 33.16C205.323 33.16 204.337 32.92 203.47 32.44C202.603 31.96 201.923 31.3067 201.43 30.48C200.937 29.64 200.69 28.6867 200.69 27.62C200.69 26.54 200.937 25.5867 201.43 24.76C201.923 23.92 202.603 23.2667 203.47 22.8C204.337 22.32 205.323 22.08 206.43 22.08C207.537 22.08 208.517 22.32 209.37 22.8C210.237 23.2667 210.917 23.92 211.41 24.76C211.903 25.5867 212.15 26.54 212.15 27.62C212.15 28.6867 211.903 29.64 211.41 30.48C210.917 31.32 210.237 31.98 209.37 32.46C208.517 32.9267 207.537 33.16 206.43 33.16ZM206.43 30.6C206.937 30.6 207.383 30.48 207.77 30.24C208.17 30 208.483 29.66 208.71 29.22C208.95 28.7667 209.07 28.2333 209.07 27.62C209.07 26.9933 208.95 26.46 208.71 26.02C208.483 25.58 208.17 25.24 207.77 25C207.383 24.76 206.937 24.64 206.43 24.64C205.937 24.64 205.483 24.76 205.07 25C204.67 25.24 204.35 25.58 204.11 26.02C203.883 26.46 203.77 26.9933 203.77 27.62C203.77 28.2333 203.883 28.7667 204.11 29.22C204.35 29.66 204.67 30 205.07 30.24C205.483 30.48 205.937 30.6 206.43 30.6ZM219.656 33.24C218.776 33.24 217.976 33.1133 217.256 32.86C216.536 32.5933 215.91 32.1867 215.376 31.64C214.856 31.08 214.45 30.3667 214.156 29.5C213.876 28.6333 213.736 27.6 213.736 26.4C213.736 25.5467 213.81 24.7667 213.956 24.06C214.103 23.3533 214.323 22.7133 214.616 22.14C214.91 21.5533 215.283 21.04 215.736 20.6C216.203 20.1467 216.743 19.7733 217.356 19.48C217.983 19.1733 218.69 18.94 219.476 18.78L224.596 17.76L225.016 20.44L220.496 21.34C220.23 21.3933 219.923 21.4667 219.576 21.56C219.243 21.64 218.903 21.7667 218.556 21.94C218.223 22.1133 217.91 22.36 217.616 22.68C217.336 22.9867 217.11 23.3933 216.936 23.9C216.763 24.3933 216.676 25.0067 216.676 25.74C216.676 25.9667 216.683 26.14 216.696 26.26C216.723 26.38 216.743 26.5067 216.756 26.64C216.783 26.7733 216.796 26.98 216.796 27.26L215.796 26.28C216.09 25.6533 216.463 25.12 216.916 24.68C217.383 24.24 217.916 23.9067 218.516 23.68C219.13 23.44 219.81 23.32 220.556 23.32C221.57 23.32 222.456 23.5267 223.216 23.94C223.99 24.34 224.59 24.9067 225.016 25.64C225.443 26.3733 225.656 27.2067 225.656 28.14C225.656 29.1533 225.403 30.0467 224.896 30.82C224.39 31.58 223.683 32.1733 222.776 32.6C221.883 33.0267 220.843 33.24 219.656 33.24ZM219.816 30.82C220.336 30.82 220.796 30.7067 221.196 30.48C221.596 30.24 221.903 29.9267 222.116 29.54C222.343 29.14 222.456 28.6933 222.456 28.2C222.456 27.72 222.343 27.2933 222.116 26.92C221.903 26.5467 221.596 26.2533 221.196 26.04C220.796 25.8267 220.33 25.72 219.796 25.72C219.276 25.72 218.81 25.8267 218.396 26.04C217.983 26.24 217.663 26.52 217.436 26.88C217.21 27.24 217.096 27.66 217.096 28.14C217.096 28.6333 217.21 29.0867 217.436 29.5C217.676 29.9 217.996 30.22 218.396 30.46C218.81 30.7 219.283 30.82 219.816 30.82ZM227.773 33V22.24H230.873V28.64L236.113 22.24H238.973V33H235.873V26.6L230.653 33H227.773ZM244.273 33V24.08L244.973 24.8H240.633V22.24H251.013V24.8H246.673L247.373 24.08V33H244.273ZM257.487 33.16C256.26 33.16 255.18 32.92 254.247 32.44C253.327 31.96 252.613 31.3067 252.107 30.48C251.6 29.64 251.347 28.6867 251.347 27.62C251.347 26.54 251.593 25.5867 252.087 24.76C252.593 23.92 253.28 23.2667 254.147 22.8C255.013 22.32 255.993 22.08 257.087 22.08C258.14 22.08 259.087 22.3067 259.927 22.76C260.78 23.2 261.453 23.84 261.947 24.68C262.44 25.5067 262.687 26.5 262.687 27.66C262.687 27.78 262.68 27.92 262.667 28.08C262.653 28.2267 262.64 28.3667 262.627 28.5H253.887V26.68H260.987L259.787 27.22C259.787 26.66 259.673 26.1733 259.447 25.76C259.22 25.3467 258.907 25.0267 258.507 24.8C258.107 24.56 257.64 24.44 257.107 24.44C256.573 24.44 256.1 24.56 255.687 24.8C255.287 25.0267 254.973 25.3533 254.747 25.78C254.52 26.1933 254.407 26.6867 254.407 27.26V27.74C254.407 28.3267 254.533 28.8467 254.787 29.3C255.053 29.74 255.42 30.08 255.887 30.32C256.367 30.5467 256.927 30.66 257.567 30.66C258.14 30.66 258.64 30.5733 259.067 30.4C259.507 30.2267 259.907 29.9667 260.267 29.62L261.927 31.42C261.433 31.98 260.813 32.4133 260.067 32.72C259.32 33.0133 258.46 33.16 257.487 33.16ZM263.62 32.98L263.78 30.42C263.86 30.4333 263.94 30.4467 264.02 30.46C264.1 30.46 264.174 30.46 264.24 30.46C264.614 30.46 264.907 30.3533 265.12 30.14C265.334 29.9267 265.494 29.64 265.6 29.28C265.707 28.9067 265.78 28.4867 265.82 28.02C265.874 27.5533 265.914 27.0667 265.94 26.56L266.1 22.24H275.3V33H272.18V24.04L272.88 24.8H268.16L268.82 24L268.68 26.7C268.64 27.66 268.56 28.54 268.44 29.34C268.334 30.14 268.154 30.8333 267.9 31.42C267.647 31.9933 267.307 32.44 266.88 32.76C266.454 33.0667 265.907 33.22 265.24 33.22C265 33.22 264.747 33.2 264.48 33.16C264.214 33.12 263.927 33.06 263.62 32.98ZM283.561 33.16C282.334 33.16 281.254 32.92 280.321 32.44C279.401 31.96 278.687 31.3067 278.181 30.48C277.674 29.64 277.421 28.6867 277.421 27.62C277.421 26.54 277.667 25.5867 278.161 24.76C278.667 23.92 279.354 23.2667 280.221 22.8C281.087 22.32 282.067 22.08 283.161 22.08C284.214 22.08 285.161 22.3067 286.001 22.76C286.854 23.2 287.527 23.84 288.021 24.68C288.514 25.5067 288.761 26.5 288.761 27.66C288.761 27.78 288.754 27.92 288.741 28.08C288.727 28.2267 288.714 28.3667 288.701 28.5H279.961V26.68H287.061L285.861 27.22C285.861 26.66 285.747 26.1733 285.521 25.76C285.294 25.3467 284.981 25.0267 284.581 24.8C284.181 24.56 283.714 24.44 283.181 24.44C282.647 24.44 282.174 24.56 281.761 24.8C281.361 25.0267 281.047 25.3533 280.821 25.78C280.594 26.1933 280.481 26.6867 280.481 27.26V27.74C280.481 28.3267 280.607 28.8467 280.861 29.3C281.127 29.74 281.494 30.08 281.961 30.32C282.441 30.5467 283.001 30.66 283.641 30.66C284.214 30.66 284.714 30.5733 285.141 30.4C285.581 30.2267 285.981 29.9667 286.341 29.62L288.001 31.42C287.507 31.98 286.887 32.4133 286.141 32.72C285.394 33.0133 284.534 33.16 283.561 33.16ZM291.152 33V22.24H294.252V28.64L299.492 22.24H302.352V33H299.252V26.6L294.032 33H291.152ZM296.552 21.08C295.379 21.08 294.499 20.8267 293.912 20.32C293.326 19.8 293.026 19.02 293.012 17.98H295.052C295.066 18.4333 295.192 18.7933 295.432 19.06C295.672 19.3267 296.039 19.46 296.532 19.46C297.012 19.46 297.379 19.3267 297.632 19.06C297.899 18.7933 298.032 18.4333 298.032 17.98H300.112C300.112 19.02 299.812 19.8 299.212 20.32C298.612 20.8267 297.726 21.08 296.552 21.08Z" fill="white"/>
<path d="M106.296 86.48C104.312 86.48 102.552 86.144 101.016 85.472C99.5121 84.768 98.3281 83.76 97.4641 82.448C96.6321 81.104 96.2161 79.472 96.2161 77.552V74.912H103.56V77.264C103.56 78.384 103.88 79.232 104.52 79.808C105.16 80.352 105.928 80.624 106.824 80.624C107.752 80.624 108.536 80.336 109.176 79.76C109.816 79.184 110.136 78.352 110.136 77.264V53.072H117.96V77.552C117.96 79.504 117.496 81.152 116.568 82.496C115.672 83.808 114.424 84.8 112.824 85.472C111.256 86.144 109.464 86.48 107.448 86.48H106.296ZM135.701 86.48C133.941 86.48 132.261 86.288 130.661 85.904C129.093 85.488 127.685 84.88 126.437 84.08C125.189 83.248 124.197 82.192 123.461 80.912C122.757 79.6 122.405 78.032 122.405 76.208C122.405 76.048 122.405 75.888 122.405 75.728C122.405 75.536 122.421 75.344 122.453 75.152H129.845C129.813 75.28 129.797 75.408 129.797 75.536C129.797 75.632 129.797 75.76 129.797 75.92C129.797 76.784 130.005 77.552 130.421 78.224C130.837 78.864 131.477 79.36 132.341 79.712C133.237 80.064 134.341 80.24 135.653 80.24C136.965 80.24 138.021 80.128 138.821 79.904C139.621 79.648 140.197 79.264 140.549 78.752C140.933 78.208 141.125 77.552 141.125 76.784C141.125 75.92 140.789 75.232 140.117 74.72C139.477 74.208 138.629 73.792 137.573 73.472C136.517 73.12 135.349 72.8 134.069 72.512C132.789 72.224 131.509 71.872 130.229 71.456C128.949 71.008 127.765 70.432 126.677 69.728C125.621 68.992 124.757 68.032 124.085 66.848C123.445 65.664 123.125 64.176 123.125 62.384C123.125 60.176 123.717 58.352 124.901 56.912C126.085 55.472 127.653 54.4 129.605 53.696C131.589 52.96 133.749 52.592 136.085 52.592C138.389 52.592 140.485 52.928 142.373 53.6C144.261 54.272 145.765 55.328 146.885 56.768C148.037 58.176 148.613 60 148.613 62.24V62.864H141.269V62.432C141.269 61.632 141.077 60.944 140.693 60.368C140.309 59.76 139.733 59.296 138.965 58.976C138.197 58.656 137.237 58.496 136.085 58.496C135.093 58.496 134.229 58.608 133.493 58.832C132.757 59.056 132.181 59.392 131.765 59.84C131.381 60.288 131.189 60.864 131.189 61.568C131.189 62.464 131.509 63.168 132.149 63.68C132.821 64.192 133.685 64.608 134.741 64.928C135.797 65.216 136.965 65.504 138.245 65.792C139.557 66.08 140.853 66.432 142.133 66.848C143.413 67.232 144.581 67.776 145.637 68.48C146.725 69.184 147.605 70.112 148.277 71.264C148.949 72.384 149.301 73.808 149.333 75.536C149.333 78.16 148.741 80.272 147.557 81.872C146.405 83.472 144.805 84.64 142.757 85.376C140.709 86.112 138.357 86.48 135.701 86.48Z" fill="#F7DF1E"/>
<path d="M152.211 86V62.96H157.235V76.912L162.835 69.648H168.627L162.579 77.136L168.819 86H162.867L158.995 80.592L157.235 82.224V86H152.211ZM171.59 86V69.648H175.686L176.07 71.504C176.582 70.7573 177.243 70.2133 178.054 69.872C178.865 69.5093 179.814 69.328 180.902 69.328C182.651 69.328 184.027 69.808 185.03 70.768C186.054 71.728 186.566 73.072 186.566 74.8V86H181.542V75.856C181.542 74.896 181.329 74.1813 180.902 73.712C180.475 73.2213 179.889 72.976 179.142 72.976C178.63 72.976 178.182 73.104 177.798 73.36C177.414 73.616 177.115 73.968 176.902 74.416C176.71 74.8427 176.614 75.344 176.614 75.92V86H171.59ZM198.202 86.32C196.474 86.32 194.991 85.968 193.754 85.264C192.516 84.56 191.556 83.5893 190.874 82.352C190.212 81.1147 189.882 79.7067 189.882 78.128V77.52C189.882 75.8987 190.212 74.4693 190.874 73.232C191.556 71.9947 192.516 71.0347 193.754 70.352C194.991 69.6693 196.463 69.328 198.17 69.328C199.919 69.328 201.412 69.68 202.65 70.384C203.908 71.0667 204.868 72.0267 205.53 73.264C206.191 74.48 206.522 75.8987 206.522 77.52V78.128C206.522 79.7493 206.18 81.1787 205.498 82.416C204.836 83.6533 203.887 84.6133 202.65 85.296C201.412 85.9787 199.93 86.32 198.202 86.32ZM198.202 83.12C199.055 83.12 199.759 82.8 200.314 82.16C200.89 81.52 201.178 80.688 201.178 79.664V75.984C201.178 74.9387 200.89 74.1067 200.314 73.488C199.759 72.848 199.055 72.528 198.202 72.528C197.37 72.528 196.666 72.848 196.09 73.488C195.514 74.1067 195.226 74.9387 195.226 75.984V79.664C195.226 80.688 195.514 81.52 196.09 82.16C196.666 82.8 197.37 83.12 198.202 83.12ZM210.669 86L207.789 69.648H211.693L213.517 79.792H213.645L215.437 69.648H219.501L221.197 79.792H221.325L223.117 69.648H226.989L224.141 86H219.181L217.549 76.176H217.421L215.693 86H210.669ZM236.673 86.32C234.774 86.32 233.206 86 231.969 85.36C230.753 84.6987 229.846 83.76 229.249 82.544C228.673 81.328 228.385 79.8987 228.385 78.256V77.392C228.385 75.6853 228.726 74.2347 229.409 73.04C230.113 71.824 231.094 70.9067 232.353 70.288C233.633 69.648 235.137 69.328 236.865 69.328C238.465 69.328 239.841 69.6267 240.993 70.224C242.166 70.8 243.062 71.6213 243.681 72.688C244.321 73.7333 244.641 74.992 244.641 76.464V78.768H233.729V79.632C233.729 80.8053 234.017 81.68 234.593 82.256C235.169 82.832 235.926 83.12 236.865 83.12C237.91 83.12 238.689 82.8747 239.201 82.384C239.713 81.872 239.969 81.0933 239.969 80.048H244.641C244.641 81.3707 244.31 82.5013 243.649 83.44C243.009 84.3787 242.091 85.0933 240.897 85.584C239.723 86.0747 238.315 86.32 236.673 86.32ZM233.729 75.984H239.713V75.568C239.713 74.9707 239.585 74.448 239.329 74C239.073 73.5307 238.721 73.168 238.273 72.912C237.846 72.656 237.345 72.528 236.769 72.528C236.15 72.528 235.617 72.6773 235.169 72.976C234.721 73.2533 234.369 73.6373 234.113 74.128C233.857 74.6187 233.729 75.152 233.729 75.728V75.984ZM251.092 86V73.328H247.7V69.648H255.188L255.412 71.728C255.753 71.0453 256.297 70.48 257.044 70.032C257.791 69.5627 258.719 69.328 259.828 69.328C261.3 69.328 262.441 69.7547 263.252 70.608C264.084 71.4613 264.5 72.592 264.5 74C264.5 74.3413 264.489 74.6827 264.468 75.024C264.468 75.344 264.436 75.6853 264.372 76.048H260.212V75.184C260.212 74.8 260.127 74.448 259.956 74.128C259.807 73.7867 259.572 73.52 259.252 73.328C258.953 73.136 258.58 73.04 258.132 73.04C257.684 73.04 257.3 73.1573 256.98 73.392C256.66 73.6267 256.415 73.936 256.244 74.32C256.073 74.6827 255.988 75.088 255.988 75.536V86H251.092ZM247.636 86V82.384H262.164V86H247.636Z" fill="white"/>
<path d="M267.112 86V84.68C267.112 83.1067 267.378 81.7467 267.912 80.6C268.445 79.4267 269.338 78.3867 270.592 77.48L278.552 71.72C279.352 71.1067 279.978 70.4 280.432 69.6C280.885 68.8 281.112 67.92 281.112 66.96C281.112 65.8133 280.778 64.9067 280.112 64.24C279.472 63.5467 278.472 63.2 277.112 63.2C276.312 63.2 275.592 63.3733 274.952 63.72C274.338 64.04 273.858 64.5067 273.512 65.12C273.165 65.7067 272.992 66.3733 272.992 67.12C272.992 67.3067 272.992 67.4933 272.992 67.68C272.992 67.84 272.992 68 272.992 68.16H267.312C267.312 68.0267 267.312 67.9067 267.312 67.8C267.312 67.6667 267.312 67.5467 267.312 67.44C267.312 65.6533 267.698 64.0667 268.472 62.68C269.272 61.2933 270.405 60.2 271.872 59.4C273.365 58.5733 275.125 58.16 277.152 58.16H278.072C279.992 58.16 281.658 58.5333 283.072 59.28C284.485 60 285.578 61.0133 286.352 62.32C287.152 63.6267 287.552 65.12 287.552 66.8C287.552 68.1867 287.312 69.3867 286.832 70.4C286.378 71.4133 285.712 72.3333 284.832 73.16C283.978 73.9867 282.965 74.8133 281.792 75.64L277.072 78.88C276.778 79.0933 276.512 79.2933 276.272 79.48C276.058 79.6667 275.872 79.8533 275.712 80.04C275.578 80.2267 275.472 80.4133 275.392 80.6H287.632V86H267.112Z" fill="#E6B82D"/>
<path d="M90.3381 168.28V163.32H87.9381L87.9081 164.34C87.8881 164.773 87.8581 165.183 87.8181 165.57C87.7848 165.957 87.7315 166.31 87.6581 166.63C87.5848 166.943 87.4881 167.21 87.3681 167.43C87.2548 167.65 87.1115 167.807 86.9381 167.9L85.2081 167.68C85.4481 167.687 85.6448 167.603 85.7981 167.43C85.9581 167.257 86.0848 167.013 86.1781 166.7C86.2715 166.38 86.3381 166.007 86.3781 165.58C86.4248 165.153 86.4581 164.69 86.4781 164.19L86.5581 162H91.9381V168.28H90.3381ZM84.9781 170.45L84.9881 167.68H92.9181V170.45H91.4181V169H86.4781V170.45H84.9781ZM97.1087 169V167.95L97.0087 167.72V165.84C97.0087 165.507 96.9053 165.247 96.6987 165.06C96.4987 164.873 96.1887 164.78 95.7687 164.78C95.482 164.78 95.1987 164.827 94.9187 164.92C94.6453 165.007 94.412 165.127 94.2187 165.28L93.6587 164.19C93.952 163.983 94.3053 163.823 94.7187 163.71C95.132 163.597 95.552 163.54 95.9787 163.54C96.7987 163.54 97.4353 163.733 97.8887 164.12C98.342 164.507 98.5687 165.11 98.5687 165.93V169H97.1087ZM95.4687 169.08C95.0487 169.08 94.6887 169.01 94.3887 168.87C94.0887 168.723 93.8587 168.527 93.6987 168.28C93.5387 168.033 93.4587 167.757 93.4587 167.45C93.4587 167.13 93.5353 166.85 93.6887 166.61C93.8487 166.37 94.0987 166.183 94.4387 166.05C94.7787 165.91 95.222 165.84 95.7687 165.84H97.1987V166.75H95.9387C95.572 166.75 95.3187 166.81 95.1787 166.93C95.0453 167.05 94.9787 167.2 94.9787 167.38C94.9787 167.58 95.0553 167.74 95.2087 167.86C95.3687 167.973 95.5853 168.03 95.8587 168.03C96.1187 168.03 96.352 167.97 96.5587 167.85C96.7653 167.723 96.9153 167.54 97.0087 167.3L97.2487 168.02C97.1353 168.367 96.9287 168.63 96.6287 168.81C96.3287 168.99 95.942 169.08 95.4687 169.08ZM101.074 169V164.54L101.424 164.9H99.2538V163.62H104.444V164.9H102.274L102.624 164.54V169H101.074ZM108.495 169V167.95L108.395 167.72V165.84C108.395 165.507 108.292 165.247 108.085 165.06C107.885 164.873 107.575 164.78 107.155 164.78C106.869 164.78 106.585 164.827 106.305 164.92C106.032 165.007 105.799 165.127 105.605 165.28L105.045 164.19C105.339 163.983 105.692 163.823 106.105 163.71C106.519 163.597 106.939 163.54 107.365 163.54C108.185 163.54 108.822 163.733 109.275 164.12C109.729 164.507 109.955 165.11 109.955 165.93V169H108.495ZM106.855 169.08C106.435 169.08 106.075 169.01 105.775 168.87C105.475 168.723 105.245 168.527 105.085 168.28C104.925 168.033 104.845 167.757 104.845 167.45C104.845 167.13 104.922 166.85 105.075 166.61C105.235 166.37 105.485 166.183 105.825 166.05C106.165 165.91 106.609 165.84 107.155 165.84H108.585V166.75H107.325C106.959 166.75 106.705 166.81 106.565 166.93C106.432 167.05 106.365 167.2 106.365 167.38C106.365 167.58 106.442 167.74 106.595 167.86C106.755 167.973 106.972 168.03 107.245 168.03C107.505 168.03 107.739 167.97 107.945 167.85C108.152 167.723 108.302 167.54 108.395 167.3L108.635 168.02C108.522 168.367 108.315 168.63 108.015 168.81C107.715 168.99 107.329 169.08 106.855 169.08ZM114.143 169V163.62H119.493V169H117.933V164.55L118.283 164.9H115.343L115.693 164.55V169H114.143ZM121.718 171.02C121.438 171.02 121.162 170.977 120.888 170.89C120.615 170.803 120.392 170.683 120.218 170.53L120.788 169.42C120.908 169.527 121.045 169.61 121.198 169.67C121.358 169.73 121.515 169.76 121.668 169.76C121.888 169.76 122.062 169.707 122.188 169.6C122.322 169.5 122.442 169.33 122.548 169.09L122.828 168.43L122.948 168.26L124.878 163.62H126.378L123.948 169.33C123.775 169.763 123.575 170.103 123.348 170.35C123.128 170.597 122.882 170.77 122.608 170.87C122.342 170.97 122.045 171.02 121.718 171.02ZM122.638 169.21L120.238 163.62H121.848L123.708 168.12L122.638 169.21ZM129.772 169.12C129.332 169.12 128.932 169.057 128.572 168.93C128.212 168.797 127.898 168.593 127.632 168.32C127.372 168.04 127.168 167.683 127.022 167.25C126.882 166.817 126.812 166.3 126.812 165.7C126.812 165.273 126.848 164.883 126.922 164.53C126.995 164.177 127.105 163.857 127.252 163.57C127.398 163.277 127.585 163.02 127.812 162.8C128.045 162.573 128.315 162.387 128.622 162.24C128.935 162.087 129.288 161.97 129.682 161.89L132.242 161.38L132.452 162.72L130.192 163.17C130.058 163.197 129.905 163.233 129.732 163.28C129.565 163.32 129.395 163.383 129.222 163.47C129.055 163.557 128.898 163.68 128.752 163.84C128.612 163.993 128.498 164.197 128.412 164.45C128.325 164.697 128.282 165.003 128.282 165.37C128.282 165.483 128.285 165.57 128.292 165.63C128.305 165.69 128.315 165.753 128.322 165.82C128.335 165.887 128.342 165.99 128.342 166.13L127.842 165.64C127.988 165.327 128.175 165.06 128.402 164.84C128.635 164.62 128.902 164.453 129.202 164.34C129.508 164.22 129.848 164.16 130.222 164.16C130.728 164.16 131.172 164.263 131.552 164.47C131.938 164.67 132.238 164.953 132.452 165.32C132.665 165.687 132.772 166.103 132.772 166.57C132.772 167.077 132.645 167.523 132.392 167.91C132.138 168.29 131.785 168.587 131.332 168.8C130.885 169.013 130.365 169.12 129.772 169.12ZM129.852 167.91C130.112 167.91 130.342 167.853 130.542 167.74C130.742 167.62 130.895 167.463 131.002 167.27C131.115 167.07 131.172 166.847 131.172 166.6C131.172 166.36 131.115 166.147 131.002 165.96C130.895 165.773 130.742 165.627 130.542 165.52C130.342 165.413 130.108 165.36 129.842 165.36C129.582 165.36 129.348 165.413 129.142 165.52C128.935 165.62 128.775 165.76 128.662 165.94C128.548 166.12 128.492 166.33 128.492 166.57C128.492 166.817 128.548 167.043 128.662 167.25C128.782 167.45 128.942 167.61 129.142 167.73C129.348 167.85 129.585 167.91 129.852 167.91ZM133.072 168.99L133.152 167.71C133.192 167.717 133.232 167.723 133.272 167.73C133.312 167.73 133.349 167.73 133.382 167.73C133.569 167.73 133.715 167.677 133.822 167.57C133.929 167.463 134.009 167.32 134.062 167.14C134.115 166.953 134.152 166.743 134.172 166.51C134.199 166.277 134.219 166.033 134.232 165.78L134.312 163.62H138.912V169H137.352V164.52L137.702 164.9H135.342L135.672 164.5L135.602 165.85C135.582 166.33 135.542 166.77 135.482 167.17C135.429 167.57 135.339 167.917 135.212 168.21C135.085 168.497 134.915 168.72 134.702 168.88C134.489 169.033 134.215 169.11 133.882 169.11C133.762 169.11 133.635 169.1 133.502 169.08C133.369 169.06 133.225 169.03 133.072 168.99ZM140.412 169V163.62H141.962V166.82L144.582 163.62H146.012V169H144.462V165.8L141.852 169H140.412ZM151.322 169L149.522 166.45L150.792 165.7L153.162 169H151.322ZM147.512 169V163.62H149.072V169H147.512ZM148.612 166.96V165.71H150.492V166.96H148.612ZM150.942 166.49L149.482 166.33L151.372 163.62H153.032L150.942 166.49ZM157.05 169V167.95L156.95 167.72V165.84C156.95 165.507 156.847 165.247 156.64 165.06C156.44 164.873 156.13 164.78 155.71 164.78C155.423 164.78 155.14 164.827 154.86 164.92C154.587 165.007 154.353 165.127 154.16 165.28L153.6 164.19C153.893 163.983 154.247 163.823 154.66 163.71C155.073 163.597 155.493 163.54 155.92 163.54C156.74 163.54 157.377 163.733 157.83 164.12C158.283 164.507 158.51 165.11 158.51 165.93V169H157.05ZM155.41 169.08C154.99 169.08 154.63 169.01 154.33 168.87C154.03 168.723 153.8 168.527 153.64 168.28C153.48 168.033 153.4 167.757 153.4 167.45C153.4 167.13 153.477 166.85 153.63 166.61C153.79 166.37 154.04 166.183 154.38 166.05C154.72 165.91 155.163 165.84 155.71 165.84H157.14V166.75H155.88C155.513 166.75 155.26 166.81 155.12 166.93C154.987 167.05 154.92 167.2 154.92 167.38C154.92 167.58 154.997 167.74 155.15 167.86C155.31 167.973 155.527 168.03 155.8 168.03C156.06 168.03 156.293 167.97 156.5 167.85C156.707 167.723 156.857 167.54 156.95 167.3L157.19 168.02C157.077 168.367 156.87 168.63 156.57 168.81C156.27 168.99 155.883 169.08 155.41 169.08ZM159.865 169V163.62H161.415V167.72H163.585V163.62H165.145V169H159.865ZM164.475 170.16V168.98L164.835 169H163.585V167.72H165.925V170.16H164.475ZM166.906 169V163.62H168.456V166.82L171.076 163.62H172.506V169H170.956V165.8L168.346 169H166.906ZM174.006 169V163.62H175.556V166.82L178.176 163.62H179.606V169H178.056V165.8L175.446 169H174.006ZM181.665 165.49C181.399 165.49 181.169 165.4 180.975 165.22C180.789 165.033 180.695 164.797 180.695 164.51C180.695 164.223 180.789 163.993 180.975 163.82C181.169 163.64 181.399 163.55 181.665 163.55C181.939 163.55 182.169 163.64 182.355 163.82C182.542 163.993 182.635 164.223 182.635 164.51C182.635 164.797 182.542 165.033 182.355 165.22C182.169 165.4 181.939 165.49 181.665 165.49ZM181.665 169.08C181.399 169.08 181.169 168.99 180.975 168.81C180.789 168.623 180.695 168.387 180.695 168.1C180.695 167.813 180.789 167.583 180.975 167.41C181.169 167.23 181.399 167.14 181.665 167.14C181.939 167.14 182.169 167.23 182.355 167.41C182.542 167.583 182.635 167.813 182.635 168.1C182.635 168.387 182.542 168.623 182.355 168.81C182.169 168.99 181.939 169.08 181.665 169.08ZM188.278 169.08C187.785 169.08 187.305 169.003 186.838 168.85C186.378 168.697 186.002 168.49 185.708 168.23L186.168 167.44C186.402 167.66 186.705 167.84 187.078 167.98C187.452 168.12 187.852 168.19 188.278 168.19C188.798 168.19 189.202 168.08 189.488 167.86C189.782 167.633 189.928 167.33 189.928 166.95C189.928 166.583 189.788 166.29 189.508 166.07C189.235 165.843 188.798 165.73 188.198 165.73H187.638V165.03L189.718 162.47L189.858 162.87H186.028V162H190.648V162.68L188.578 165.23L188.058 164.92H188.388C189.235 164.92 189.868 165.11 190.288 165.49C190.715 165.87 190.928 166.353 190.928 166.94C190.928 167.333 190.832 167.693 190.638 168.02C190.445 168.347 190.152 168.607 189.758 168.8C189.372 168.987 188.878 169.08 188.278 169.08ZM194.721 169.08C194.174 169.08 193.684 168.94 193.251 168.66C192.824 168.38 192.484 167.973 192.231 167.44C191.984 166.907 191.861 166.26 191.861 165.5C191.861 164.74 191.984 164.093 192.231 163.56C192.484 163.027 192.824 162.62 193.251 162.34C193.684 162.06 194.174 161.92 194.721 161.92C195.261 161.92 195.748 162.06 196.181 162.34C196.614 162.62 196.954 163.027 197.201 163.56C197.448 164.093 197.571 164.74 197.571 165.5C197.571 166.26 197.448 166.907 197.201 167.44C196.954 167.973 196.614 168.38 196.181 168.66C195.748 168.94 195.261 169.08 194.721 169.08ZM194.721 168.19C195.088 168.19 195.408 168.09 195.681 167.89C195.961 167.69 196.178 167.39 196.331 166.99C196.491 166.59 196.571 166.093 196.571 165.5C196.571 164.907 196.491 164.41 196.331 164.01C196.178 163.61 195.961 163.31 195.681 163.11C195.408 162.91 195.088 162.81 194.721 162.81C194.354 162.81 194.031 162.91 193.751 163.11C193.471 163.31 193.251 163.61 193.091 164.01C192.938 164.41 192.861 164.907 192.861 165.5C192.861 166.093 192.938 166.59 193.091 166.99C193.251 167.39 193.471 167.69 193.751 167.89C194.031 168.09 194.354 168.19 194.721 168.19ZM203.936 169.06C203.403 169.06 202.93 168.943 202.516 168.71C202.103 168.477 201.776 168.157 201.536 167.75C201.296 167.337 201.176 166.87 201.176 166.35C201.176 165.823 201.296 165.357 201.536 164.95C201.776 164.543 202.103 164.227 202.516 164C202.93 163.767 203.403 163.65 203.936 163.65C204.463 163.65 204.933 163.767 205.346 164C205.766 164.227 206.093 164.543 206.326 164.95C206.566 165.35 206.686 165.817 206.686 166.35C206.686 166.877 206.566 167.343 206.326 167.75C206.093 168.157 205.766 168.477 205.346 168.71C204.933 168.943 204.463 169.06 203.936 169.06ZM203.936 168.22C204.276 168.22 204.58 168.143 204.846 167.99C205.12 167.837 205.333 167.62 205.486 167.34C205.64 167.053 205.716 166.723 205.716 166.35C205.716 165.97 205.64 165.643 205.486 165.37C205.333 165.09 205.12 164.873 204.846 164.72C204.58 164.567 204.276 164.49 203.936 164.49C203.596 164.49 203.293 164.567 203.026 164.72C202.76 164.873 202.546 165.09 202.386 165.37C202.226 165.643 202.146 165.97 202.146 166.35C202.146 166.723 202.226 167.053 202.386 167.34C202.546 167.62 202.76 167.837 203.026 167.99C203.293 168.143 203.596 168.22 203.936 168.22ZM211.913 169L209.863 166.42L210.653 165.94L213.043 169H211.913ZM208.073 169V163.7H209.033V169H208.073ZM208.743 166.76V165.94H210.493V166.76H208.743ZM210.733 166.46L209.843 166.34L211.873 163.7H212.903L210.733 166.46ZM215.011 169V164.29L215.251 164.54H213.071V163.7H217.911V164.54H215.741L215.971 164.29V169H215.011ZM222.195 169V167.14L222.345 167.32H220.655C219.948 167.32 219.395 167.17 218.995 166.87C218.602 166.57 218.405 166.133 218.405 165.56C218.405 164.947 218.615 164.483 219.035 164.17C219.462 163.857 220.028 163.7 220.735 163.7H223.055V169H222.195ZM218.355 169L219.795 166.97H220.785L219.385 169H218.355ZM222.195 166.84V164.27L222.345 164.54H220.765C220.325 164.54 219.985 164.623 219.745 164.79C219.505 164.95 219.385 165.217 219.385 165.59C219.385 166.283 219.832 166.63 220.725 166.63H222.345L222.195 166.84ZM227.378 169.08C226.938 169.08 226.548 169.01 226.208 168.87C225.875 168.73 225.588 168.523 225.348 168.25C225.108 167.97 224.925 167.62 224.798 167.2C224.678 166.773 224.618 166.273 224.618 165.7C224.618 165.247 224.658 164.84 224.738 164.48C224.818 164.12 224.931 163.8 225.078 163.52C225.231 163.24 225.418 162.997 225.638 162.79C225.865 162.583 226.118 162.413 226.398 162.28C226.685 162.14 226.998 162.033 227.338 161.96L229.758 161.42L229.898 162.31L227.668 162.79C227.535 162.817 227.375 162.857 227.188 162.91C227.001 162.963 226.811 163.047 226.618 163.16C226.425 163.267 226.245 163.417 226.078 163.61C225.911 163.803 225.778 164.057 225.678 164.37C225.578 164.677 225.528 165.057 225.528 165.51C225.528 165.637 225.531 165.733 225.538 165.8C225.545 165.867 225.551 165.933 225.558 166C225.571 166.067 225.581 166.167 225.588 166.3L225.188 165.89C225.295 165.523 225.465 165.203 225.698 164.93C225.931 164.657 226.211 164.447 226.538 164.3C226.871 164.147 227.235 164.07 227.628 164.07C228.121 164.07 228.558 164.177 228.938 164.39C229.325 164.603 229.628 164.897 229.848 165.27C230.068 165.643 230.178 166.07 230.178 166.55C230.178 167.037 230.061 167.473 229.828 167.86C229.601 168.24 229.278 168.54 228.858 168.76C228.438 168.973 227.945 169.08 227.378 169.08ZM227.468 168.28C227.808 168.28 228.108 168.207 228.368 168.06C228.628 167.907 228.831 167.703 228.978 167.45C229.125 167.19 229.198 166.9 229.198 166.58C229.198 166.26 229.125 165.977 228.978 165.73C228.831 165.483 228.628 165.29 228.368 165.15C228.108 165.003 227.801 164.93 227.448 164.93C227.115 164.93 226.815 165 226.548 165.14C226.281 165.273 226.075 165.463 225.928 165.71C225.781 165.95 225.708 166.23 225.708 166.55C225.708 166.87 225.781 167.163 225.928 167.43C226.081 167.69 226.288 167.897 226.548 168.05C226.815 168.203 227.121 168.28 227.468 168.28ZM234.359 169.06C233.919 169.06 233.516 168.96 233.149 168.76C232.789 168.553 232.499 168.25 232.279 167.85C232.066 167.45 231.959 166.95 231.959 166.35C231.959 165.75 232.062 165.25 232.269 164.85C232.482 164.45 232.769 164.15 233.129 163.95C233.496 163.75 233.906 163.65 234.359 163.65C234.879 163.65 235.339 163.763 235.739 163.99C236.139 164.217 236.456 164.533 236.689 164.94C236.922 165.34 237.039 165.81 237.039 166.35C237.039 166.89 236.922 167.363 236.689 167.77C236.456 168.177 236.139 168.493 235.739 168.72C235.339 168.947 234.879 169.06 234.359 169.06ZM231.549 170.94V163.7H232.469V165.13L232.409 166.36L232.509 167.59V170.94H231.549ZM234.279 168.22C234.619 168.22 234.922 168.143 235.189 167.99C235.462 167.837 235.676 167.62 235.829 167.34C235.989 167.053 236.069 166.723 236.069 166.35C236.069 165.97 235.989 165.643 235.829 165.37C235.676 165.09 235.462 164.873 235.189 164.72C234.922 164.567 234.619 164.49 234.279 164.49C233.946 164.49 233.642 164.567 233.369 164.72C233.102 164.873 232.889 165.09 232.729 165.37C232.576 165.643 232.499 165.97 232.499 166.35C232.499 166.723 232.576 167.053 232.729 167.34C232.889 167.62 233.102 167.837 233.369 167.99C233.642 168.143 233.946 168.22 234.279 168.22ZM241.648 169V167.14L241.798 167.32H240.108C239.401 167.32 238.848 167.17 238.448 166.87C238.055 166.57 237.858 166.133 237.858 165.56C237.858 164.947 238.068 164.483 238.488 164.17C238.915 163.857 239.481 163.7 240.188 163.7H242.508V169H241.648ZM237.808 169L239.248 166.97H240.238L238.838 169H237.808ZM241.648 166.84V164.27L241.798 164.54H240.218C239.778 164.54 239.438 164.623 239.198 164.79C238.958 164.95 238.838 165.217 238.838 165.59C238.838 166.283 239.285 166.63 240.178 166.63H241.798L241.648 166.84ZM246.507 169V168.32L249.357 165.57C249.61 165.33 249.797 165.12 249.917 164.94C250.043 164.753 250.127 164.583 250.167 164.43C250.213 164.27 250.237 164.117 250.237 163.97C250.237 163.61 250.11 163.327 249.857 163.12C249.603 162.913 249.233 162.81 248.747 162.81C248.373 162.81 248.037 162.873 247.737 163C247.437 163.12 247.177 163.31 246.957 163.57L246.277 162.98C246.543 162.64 246.9 162.38 247.347 162.2C247.8 162.013 248.297 161.92 248.837 161.92C249.323 161.92 249.747 162 250.107 162.16C250.467 162.313 250.743 162.537 250.937 162.83C251.137 163.123 251.237 163.47 251.237 163.87C251.237 164.097 251.207 164.32 251.147 164.54C251.087 164.76 250.973 164.993 250.807 165.24C250.64 165.487 250.4 165.763 250.087 166.07L247.547 168.52L247.307 168.13H251.537V169H246.507ZM255.209 169.08C254.662 169.08 254.172 168.94 253.739 168.66C253.312 168.38 252.972 167.973 252.719 167.44C252.472 166.907 252.349 166.26 252.349 165.5C252.349 164.74 252.472 164.093 252.719 163.56C252.972 163.027 253.312 162.62 253.739 162.34C254.172 162.06 254.662 161.92 255.209 161.92C255.749 161.92 256.236 162.06 256.669 162.34C257.102 162.62 257.442 163.027 257.689 163.56C257.936 164.093 258.059 164.74 258.059 165.5C258.059 166.26 257.936 166.907 257.689 167.44C257.442 167.973 257.102 168.38 256.669 168.66C256.236 168.94 255.749 169.08 255.209 169.08ZM255.209 168.19C255.576 168.19 255.896 168.09 256.169 167.89C256.449 167.69 256.666 167.39 256.819 166.99C256.979 166.59 257.059 166.093 257.059 165.5C257.059 164.907 256.979 164.41 256.819 164.01C256.666 163.61 256.449 163.31 256.169 163.11C255.896 162.91 255.576 162.81 255.209 162.81C254.842 162.81 254.519 162.91 254.239 163.11C253.959 163.31 253.739 163.61 253.579 164.01C253.426 164.41 253.349 164.907 253.349 165.5C253.349 166.093 253.426 166.59 253.579 166.99C253.739 167.39 253.959 167.69 254.239 167.89C254.519 168.09 254.842 168.19 255.209 168.19ZM258.909 169V168.32L261.759 165.57C262.012 165.33 262.199 165.12 262.319 164.94C262.446 164.753 262.529 164.583 262.569 164.43C262.616 164.27 262.639 164.117 262.639 163.97C262.639 163.61 262.512 163.327 262.259 163.12C262.006 162.913 261.636 162.81 261.149 162.81C260.776 162.81 260.439 162.873 260.139 163C259.839 163.12 259.579 163.31 259.359 163.57L258.679 162.98C258.946 162.64 259.302 162.38 259.749 162.2C260.202 162.013 260.699 161.92 261.239 161.92C261.726 161.92 262.149 162 262.509 162.16C262.869 162.313 263.146 162.537 263.339 162.83C263.539 163.123 263.639 163.47 263.639 163.87C263.639 164.097 263.609 164.32 263.549 164.54C263.489 164.76 263.376 164.993 263.209 165.24C263.042 165.487 262.802 165.763 262.489 166.07L259.949 168.52L259.709 168.13H263.939V169H258.909ZM267.611 169.08C267.065 169.08 266.575 168.94 266.141 168.66C265.715 168.38 265.375 167.973 265.121 167.44C264.875 166.907 264.751 166.26 264.751 165.5C264.751 164.74 264.875 164.093 265.121 163.56C265.375 163.027 265.715 162.62 266.141 162.34C266.575 162.06 267.065 161.92 267.611 161.92C268.151 161.92 268.638 162.06 269.071 162.34C269.505 162.62 269.845 163.027 270.091 163.56C270.338 164.093 270.461 164.74 270.461 165.5C270.461 166.26 270.338 166.907 270.091 167.44C269.845 167.973 269.505 168.38 269.071 168.66C268.638 168.94 268.151 169.08 267.611 169.08ZM267.611 168.19C267.978 168.19 268.298 168.09 268.571 167.89C268.851 167.69 269.068 167.39 269.221 166.99C269.381 166.59 269.461 166.093 269.461 165.5C269.461 164.907 269.381 164.41 269.221 164.01C269.068 163.61 268.851 163.31 268.571 163.11C268.298 162.91 267.978 162.81 267.611 162.81C267.245 162.81 266.921 162.91 266.641 163.11C266.361 163.31 266.141 163.61 265.981 164.01C265.828 164.41 265.751 164.907 265.751 165.5C265.751 166.093 265.828 166.59 265.981 166.99C266.141 167.39 266.361 167.69 266.641 167.89C266.921 168.09 267.245 168.19 267.611 168.19ZM274.557 169V163.7H278.457V164.54H275.287L275.517 164.32V169H274.557ZM281.475 169.06C280.942 169.06 280.469 168.943 280.055 168.71C279.642 168.477 279.315 168.157 279.075 167.75C278.835 167.337 278.715 166.87 278.715 166.35C278.715 165.823 278.835 165.357 279.075 164.95C279.315 164.543 279.642 164.227 280.055 164C280.469 163.767 280.942 163.65 281.475 163.65C282.002 163.65 282.472 163.767 282.885 164C283.305 164.227 283.632 164.543 283.865 164.95C284.105 165.35 284.225 165.817 284.225 166.35C284.225 166.877 284.105 167.343 283.865 167.75C283.632 168.157 283.305 168.477 282.885 168.71C282.472 168.943 282.002 169.06 281.475 169.06ZM281.475 168.22C281.815 168.22 282.119 168.143 282.385 167.99C282.659 167.837 282.872 167.62 283.025 167.34C283.179 167.053 283.255 166.723 283.255 166.35C283.255 165.97 283.179 165.643 283.025 165.37C282.872 165.09 282.659 164.873 282.385 164.72C282.119 164.567 281.815 164.49 281.475 164.49C281.135 164.49 280.832 164.567 280.565 164.72C280.299 164.873 280.085 165.09 279.925 165.37C279.765 165.643 279.685 165.97 279.685 166.35C279.685 166.723 279.765 167.053 279.925 167.34C280.085 167.62 280.299 167.837 280.565 167.99C280.832 168.143 281.135 168.22 281.475 168.22ZM289.193 168.55V164.54H286.893L286.843 165.56C286.829 165.893 286.806 166.217 286.773 166.53C286.746 166.837 286.699 167.12 286.633 167.38C286.573 167.64 286.483 167.853 286.363 168.02C286.243 168.187 286.083 168.29 285.883 168.33L284.933 168.16C285.139 168.167 285.306 168.1 285.433 167.96C285.559 167.813 285.656 167.613 285.723 167.36C285.796 167.107 285.849 166.82 285.883 166.5C285.916 166.173 285.943 165.837 285.963 165.49L286.043 163.7H290.153V168.55H289.193ZM284.723 170.23V168.16H290.963V170.23H290.063V169H285.633V170.23H284.723ZM295.463 169V167.88L295.413 167.67V165.76C295.413 165.353 295.293 165.04 295.053 164.82C294.82 164.593 294.467 164.48 293.993 164.48C293.68 164.48 293.373 164.533 293.073 164.64C292.773 164.74 292.52 164.877 292.313 165.05L291.913 164.33C292.187 164.11 292.513 163.943 292.893 163.83C293.28 163.71 293.683 163.65 294.103 163.65C294.83 163.65 295.39 163.827 295.783 164.18C296.177 164.533 296.373 165.073 296.373 165.8V169H295.463ZM293.723 169.06C293.33 169.06 292.983 168.993 292.683 168.86C292.39 168.727 292.163 168.543 292.003 168.31C291.843 168.07 291.763 167.8 291.763 167.5C291.763 167.213 291.83 166.953 291.963 166.72C292.103 166.487 292.327 166.3 292.633 166.16C292.947 166.02 293.367 165.95 293.893 165.95H295.573V166.64H293.933C293.453 166.64 293.13 166.72 292.963 166.88C292.797 167.04 292.713 167.233 292.713 167.46C292.713 167.72 292.817 167.93 293.023 168.09C293.23 168.243 293.517 168.32 293.883 168.32C294.243 168.32 294.557 168.24 294.823 168.08C295.097 167.92 295.293 167.687 295.413 167.38L295.603 168.04C295.477 168.353 295.253 168.603 294.933 168.79C294.613 168.97 294.21 169.06 293.723 169.06Z" fill="white"/>
<path d="M46.058 129V120.04L47.038 121.02H44.098V119.2H48.326V129H46.058ZM53.4724 119.032C54.3778 119.032 55.1571 119.219 55.8104 119.592C56.4638 119.965 56.9678 120.511 57.3224 121.23C57.6771 121.939 57.8544 122.826 57.8544 123.89C57.8544 125.019 57.6398 125.976 57.2104 126.76C56.7904 127.544 56.2071 128.141 55.4604 128.552C54.7138 128.963 53.8458 129.168 52.8564 129.168C52.3431 129.168 51.8484 129.112 51.3724 129C50.8964 128.888 50.4858 128.72 50.1404 128.496L50.9804 126.83C51.2511 127.017 51.5404 127.147 51.8484 127.222C52.1564 127.287 52.4784 127.32 52.8144 127.32C53.6544 127.32 54.3218 127.063 54.8164 126.55C55.3204 126.037 55.5724 125.276 55.5724 124.268C55.5724 124.1 55.5678 123.913 55.5584 123.708C55.5491 123.503 55.5258 123.297 55.4884 123.092L56.1044 123.68C55.9458 124.044 55.7218 124.352 55.4324 124.604C55.1431 124.847 54.8071 125.033 54.4244 125.164C54.0418 125.285 53.6124 125.346 53.1364 125.346C52.5111 125.346 51.9418 125.22 51.4284 124.968C50.9244 124.716 50.5184 124.361 50.2104 123.904C49.9118 123.447 49.7624 122.91 49.7624 122.294C49.7624 121.622 49.9258 121.043 50.2524 120.558C50.5884 120.073 51.0364 119.699 51.5964 119.438C52.1658 119.167 52.7911 119.032 53.4724 119.032ZM53.6124 120.726C53.2858 120.726 53.0011 120.787 52.7584 120.908C52.5158 121.02 52.3244 121.188 52.1844 121.412C52.0444 121.627 51.9744 121.883 51.9744 122.182C51.9744 122.63 52.1238 122.989 52.4224 123.26C52.7304 123.521 53.1364 123.652 53.6404 123.652C53.9671 123.652 54.2564 123.591 54.5084 123.47C54.7698 123.339 54.9704 123.162 55.1104 122.938C55.2504 122.714 55.3204 122.462 55.3204 122.182C55.3204 121.902 55.2504 121.655 55.1104 121.44C54.9798 121.216 54.7884 121.043 54.5364 120.922C54.2844 120.791 53.9764 120.726 53.6124 120.726ZM63.1425 129.168C62.3398 129.168 61.6212 128.972 60.9865 128.58C60.3518 128.179 59.8525 127.6 59.4885 126.844C59.1245 126.088 58.9425 125.173 58.9425 124.1C58.9425 123.027 59.1245 122.112 59.4885 121.356C59.8525 120.6 60.3518 120.026 60.9865 119.634C61.6212 119.233 62.3398 119.032 63.1425 119.032C63.9545 119.032 64.6732 119.233 65.2985 119.634C65.9332 120.026 66.4325 120.6 66.7965 121.356C67.1605 122.112 67.3425 123.027 67.3425 124.1C67.3425 125.173 67.1605 126.088 66.7965 126.844C66.4325 127.6 65.9332 128.179 65.2985 128.58C64.6732 128.972 63.9545 129.168 63.1425 129.168ZM63.1425 127.25C63.5252 127.25 63.8565 127.143 64.1365 126.928C64.4258 126.713 64.6498 126.373 64.8085 125.906C64.9765 125.439 65.0605 124.837 65.0605 124.1C65.0605 123.363 64.9765 122.761 64.8085 122.294C64.6498 121.827 64.4258 121.487 64.1365 121.272C63.8565 121.057 63.5252 120.95 63.1425 120.95C62.7692 120.95 62.4378 121.057 62.1485 121.272C61.8685 121.487 61.6445 121.827 61.4765 122.294C61.3178 122.761 61.2385 123.363 61.2385 124.1C61.2385 124.837 61.3178 125.439 61.4765 125.906C61.6445 126.373 61.8685 126.713 62.1485 126.928C62.4378 127.143 62.7692 127.25 63.1425 127.25ZM73.5433 131.8C73.1886 131.8 72.8433 131.739 72.5073 131.618C72.1713 131.506 71.8819 131.338 71.6393 131.114L72.2133 130.106C72.3999 130.283 72.6053 130.419 72.8293 130.512C73.0533 130.605 73.2913 130.652 73.5433 130.652C73.8699 130.652 74.1406 130.568 74.3553 130.4C74.5699 130.232 74.7706 129.933 74.9573 129.504L75.4193 128.482L75.5593 128.314L78.4713 121.58H79.7873L76.1893 129.742C75.9746 130.265 75.7319 130.675 75.4613 130.974C75.1999 131.273 74.9106 131.483 74.5933 131.604C74.2759 131.735 73.9259 131.8 73.5433 131.8ZM75.3073 129.238L71.9193 121.58H73.3193L76.2033 128.188L75.3073 129.238ZM85.0973 129.084C84.4813 129.084 83.9167 128.944 83.4033 128.664C82.8993 128.375 82.4933 127.95 82.1853 127.39C81.8867 126.83 81.7373 126.13 81.7373 125.29C81.7373 124.45 81.882 123.75 82.1713 123.19C82.47 122.63 82.8713 122.21 83.3753 121.93C83.8887 121.65 84.4627 121.51 85.0973 121.51C85.8253 121.51 86.4693 121.669 87.0293 121.986C87.5893 122.303 88.0327 122.747 88.3593 123.316C88.686 123.876 88.8493 124.534 88.8493 125.29C88.8493 126.046 88.686 126.709 88.3593 127.278C88.0327 127.847 87.5893 128.291 87.0293 128.608C86.4693 128.925 85.8253 129.084 85.0973 129.084ZM81.1633 131.716V121.58H82.4513V123.582L82.3673 125.304L82.5073 127.026V131.716H81.1633ZM84.9853 127.908C85.4613 127.908 85.886 127.801 86.2593 127.586C86.642 127.371 86.9407 127.068 87.1553 126.676C87.3793 126.275 87.4913 125.813 87.4913 125.29C87.4913 124.758 87.3793 124.301 87.1553 123.918C86.9407 123.526 86.642 123.223 86.2593 123.008C85.886 122.793 85.4613 122.686 84.9853 122.686C84.5187 122.686 84.094 122.793 83.7113 123.008C83.338 123.223 83.0393 123.526 82.8153 123.918C82.6007 124.301 82.4933 124.758 82.4933 125.29C82.4933 125.813 82.6007 126.275 82.8153 126.676C83.0393 127.068 83.338 127.371 83.7113 127.586C84.094 127.801 84.5187 127.908 84.9853 127.908ZM93.98 129.084C93.2333 129.084 92.5707 128.921 91.992 128.594C91.4133 128.267 90.956 127.819 90.62 127.25C90.284 126.671 90.116 126.018 90.116 125.29C90.116 124.553 90.284 123.899 90.62 123.33C90.956 122.761 91.4133 122.317 91.992 122C92.5707 121.673 93.2333 121.51 93.98 121.51C94.7173 121.51 95.3753 121.673 95.954 122C96.542 122.317 96.9993 122.761 97.326 123.33C97.662 123.89 97.83 124.543 97.83 125.29C97.83 126.027 97.662 126.681 97.326 127.25C96.9993 127.819 96.542 128.267 95.954 128.594C95.3753 128.921 94.7173 129.084 93.98 129.084ZM93.98 127.908C94.456 127.908 94.8807 127.801 95.254 127.586C95.6367 127.371 95.9353 127.068 96.15 126.676C96.3647 126.275 96.472 125.813 96.472 125.29C96.472 124.758 96.3647 124.301 96.15 123.918C95.9353 123.526 95.6367 123.223 95.254 123.008C94.8807 122.793 94.456 122.686 93.98 122.686C93.504 122.686 93.0793 122.793 92.706 123.008C92.3327 123.223 92.034 123.526 91.81 123.918C91.586 124.301 91.474 124.758 91.474 125.29C91.474 125.813 91.586 126.275 91.81 126.676C92.034 127.068 92.3327 127.371 92.706 127.586C93.0793 127.801 93.504 127.908 93.98 127.908ZM105.147 129L102.277 125.388L103.383 124.716L106.729 129H105.147ZM99.7708 129V121.58H101.115V129H99.7708ZM100.709 125.864V124.716H103.159V125.864H100.709ZM103.495 125.444L102.249 125.276L105.091 121.58H106.533L103.495 125.444ZM111.07 129.084C110.323 129.084 109.661 128.921 109.082 128.594C108.503 128.267 108.046 127.819 107.71 127.25C107.374 126.671 107.206 126.018 107.206 125.29C107.206 124.553 107.374 123.899 107.71 123.33C108.046 122.761 108.503 122.317 109.082 122C109.661 121.673 110.323 121.51 111.07 121.51C111.807 121.51 112.465 121.673 113.044 122C113.632 122.317 114.089 122.761 114.416 123.33C114.752 123.89 114.92 124.543 114.92 125.29C114.92 126.027 114.752 126.681 114.416 127.25C114.089 127.819 113.632 128.267 113.044 128.594C112.465 128.921 111.807 129.084 111.07 129.084ZM111.07 127.908C111.546 127.908 111.971 127.801 112.344 127.586C112.727 127.371 113.025 127.068 113.24 126.676C113.455 126.275 113.562 125.813 113.562 125.29C113.562 124.758 113.455 124.301 113.24 123.918C113.025 123.526 112.727 123.223 112.344 123.008C111.971 122.793 111.546 122.686 111.07 122.686C110.594 122.686 110.169 122.793 109.796 123.008C109.423 123.223 109.124 123.526 108.9 123.918C108.676 124.301 108.564 124.758 108.564 125.29C108.564 125.813 108.676 126.275 108.9 126.676C109.124 127.068 109.423 127.371 109.796 127.586C110.169 127.801 110.594 127.908 111.07 127.908ZM116.861 129V121.58H120.305C121.173 121.58 121.854 121.748 122.349 122.084C122.853 122.411 123.105 122.877 123.105 123.484C123.105 124.091 122.867 124.562 122.391 124.898C121.924 125.225 121.303 125.388 120.529 125.388L120.739 125.024C121.625 125.024 122.283 125.187 122.713 125.514C123.142 125.841 123.357 126.321 123.357 126.956C123.357 127.6 123.114 128.104 122.629 128.468C122.153 128.823 121.42 129 120.431 129H116.861ZM118.177 127.964H120.333C120.893 127.964 121.313 127.88 121.593 127.712C121.873 127.535 122.013 127.255 122.013 126.872C122.013 126.48 121.882 126.195 121.621 126.018C121.369 125.831 120.967 125.738 120.417 125.738H118.177V127.964ZM118.177 124.772H120.193C120.706 124.772 121.093 124.679 121.355 124.492C121.625 124.296 121.761 124.025 121.761 123.68C121.761 123.325 121.625 123.059 121.355 122.882C121.093 122.705 120.706 122.616 120.193 122.616H118.177V124.772Z" fill="white"/>
<path d="M164.99 119.032C165.895 119.032 166.675 119.219 167.328 119.592C167.981 119.965 168.485 120.511 168.84 121.23C169.195 121.939 169.372 122.826 169.372 123.89C169.372 125.019 169.157 125.976 168.728 126.76C168.308 127.544 167.725 128.141 166.978 128.552C166.231 128.963 165.363 129.168 164.374 129.168C163.861 129.168 163.366 129.112 162.89 129C162.414 128.888 162.003 128.72 161.658 128.496L162.498 126.83C162.769 127.017 163.058 127.147 163.366 127.222C163.674 127.287 163.996 127.32 164.332 127.32C165.172 127.32 165.839 127.063 166.334 126.55C166.838 126.037 167.09 125.276 167.09 124.268C167.09 124.1 167.085 123.913 167.076 123.708C167.067 123.503 167.043 123.297 167.006 123.092L167.622 123.68C167.463 124.044 167.239 124.352 166.95 124.604C166.661 124.847 166.325 125.033 165.942 125.164C165.559 125.285 165.13 125.346 164.654 125.346C164.029 125.346 163.459 125.22 162.946 124.968C162.442 124.716 162.036 124.361 161.728 123.904C161.429 123.447 161.28 122.91 161.28 122.294C161.28 121.622 161.443 121.043 161.77 120.558C162.106 120.073 162.554 119.699 163.114 119.438C163.683 119.167 164.309 119.032 164.99 119.032ZM165.13 120.726C164.803 120.726 164.519 120.787 164.276 120.908C164.033 121.02 163.842 121.188 163.702 121.412C163.562 121.627 163.492 121.883 163.492 122.182C163.492 122.63 163.641 122.989 163.94 123.26C164.248 123.521 164.654 123.652 165.158 123.652C165.485 123.652 165.774 123.591 166.026 123.47C166.287 123.339 166.488 123.162 166.628 122.938C166.768 122.714 166.838 122.462 166.838 122.182C166.838 121.902 166.768 121.655 166.628 121.44C166.497 121.216 166.306 121.043 166.054 120.922C165.802 120.791 165.494 120.726 165.13 120.726ZM174.66 129.168C173.857 129.168 173.139 128.972 172.504 128.58C171.869 128.179 171.37 127.6 171.006 126.844C170.642 126.088 170.46 125.173 170.46 124.1C170.46 123.027 170.642 122.112 171.006 121.356C171.37 120.6 171.869 120.026 172.504 119.634C173.139 119.233 173.857 119.032 174.66 119.032C175.472 119.032 176.191 119.233 176.816 119.634C177.451 120.026 177.95 120.6 178.314 121.356C178.678 122.112 178.86 123.027 178.86 124.1C178.86 125.173 178.678 126.088 178.314 126.844C177.95 127.6 177.451 128.179 176.816 128.58C176.191 128.972 175.472 129.168 174.66 129.168ZM174.66 127.25C175.043 127.25 175.374 127.143 175.654 126.928C175.943 126.713 176.167 126.373 176.326 125.906C176.494 125.439 176.578 124.837 176.578 124.1C176.578 123.363 176.494 122.761 176.326 122.294C176.167 121.827 175.943 121.487 175.654 121.272C175.374 121.057 175.043 120.95 174.66 120.95C174.287 120.95 173.955 121.057 173.666 121.272C173.386 121.487 173.162 121.827 172.994 122.294C172.835 122.761 172.756 123.363 172.756 124.1C172.756 124.837 172.835 125.439 172.994 125.906C173.162 126.373 173.386 126.713 173.666 126.928C173.955 127.143 174.287 127.25 174.66 127.25ZM184.162 129.168C183.359 129.168 182.641 128.972 182.006 128.58C181.371 128.179 180.872 127.6 180.508 126.844C180.144 126.088 179.962 125.173 179.962 124.1C179.962 123.027 180.144 122.112 180.508 121.356C180.872 120.6 181.371 120.026 182.006 119.634C182.641 119.233 183.359 119.032 184.162 119.032C184.974 119.032 185.693 119.233 186.318 119.634C186.953 120.026 187.452 120.6 187.816 121.356C188.18 122.112 188.362 123.027 188.362 124.1C188.362 125.173 188.18 126.088 187.816 126.844C187.452 127.6 186.953 128.179 186.318 128.58C185.693 128.972 184.974 129.168 184.162 129.168ZM184.162 127.25C184.545 127.25 184.876 127.143 185.156 126.928C185.445 126.713 185.669 126.373 185.828 125.906C185.996 125.439 186.08 124.837 186.08 124.1C186.08 123.363 185.996 122.761 185.828 122.294C185.669 121.827 185.445 121.487 185.156 121.272C184.876 121.057 184.545 120.95 184.162 120.95C183.789 120.95 183.457 121.057 183.168 121.272C182.888 121.487 182.664 121.827 182.496 122.294C182.337 122.761 182.258 123.363 182.258 124.1C182.258 124.837 182.337 125.439 182.496 125.906C182.664 126.373 182.888 126.713 183.168 126.928C183.457 127.143 183.789 127.25 184.162 127.25ZM196.355 129.098C195.795 129.098 195.244 129.028 194.703 128.888C194.171 128.739 193.695 128.529 193.275 128.258L193.681 127.236C194.035 127.46 194.441 127.637 194.899 127.768C195.356 127.889 195.818 127.95 196.285 127.95C196.714 127.95 197.083 127.899 197.391 127.796C197.708 127.693 197.951 127.553 198.119 127.376C198.287 127.189 198.371 126.975 198.371 126.732C198.371 126.387 198.217 126.121 197.909 125.934C197.601 125.747 197.171 125.654 196.621 125.654H195.277V124.688H196.537C196.863 124.688 197.148 124.651 197.391 124.576C197.633 124.501 197.82 124.389 197.951 124.24C198.091 124.081 198.161 123.899 198.161 123.694C198.161 123.47 198.081 123.279 197.923 123.12C197.764 122.961 197.54 122.84 197.251 122.756C196.971 122.672 196.639 122.63 196.257 122.63C195.883 122.639 195.501 122.691 195.109 122.784C194.726 122.877 194.334 123.022 193.933 123.218L193.569 122.168C194.017 121.953 194.455 121.79 194.885 121.678C195.323 121.557 195.757 121.491 196.187 121.482C196.831 121.463 197.405 121.538 197.909 121.706C198.413 121.865 198.809 122.098 199.099 122.406C199.397 122.714 199.547 123.078 199.547 123.498C199.547 123.853 199.435 124.17 199.211 124.45C198.987 124.721 198.688 124.935 198.315 125.094C197.941 125.253 197.512 125.332 197.027 125.332L197.083 125.01C197.913 125.01 198.567 125.173 199.043 125.5C199.519 125.827 199.757 126.27 199.757 126.83C199.757 127.278 199.607 127.675 199.309 128.02C199.01 128.356 198.604 128.622 198.091 128.818C197.587 129.005 197.008 129.098 196.355 129.098ZM206.35 129V127.432L206.28 127.138V124.464C206.28 123.895 206.112 123.456 205.776 123.148C205.449 122.831 204.955 122.672 204.292 122.672C203.853 122.672 203.424 122.747 203.004 122.896C202.584 123.036 202.229 123.227 201.94 123.47L201.38 122.462C201.763 122.154 202.22 121.921 202.752 121.762C203.293 121.594 203.858 121.51 204.446 121.51C205.463 121.51 206.247 121.757 206.798 122.252C207.349 122.747 207.624 123.503 207.624 124.52V129H206.35ZM203.914 129.084C203.363 129.084 202.878 128.991 202.458 128.804C202.047 128.617 201.73 128.361 201.506 128.034C201.282 127.698 201.17 127.32 201.17 126.9C201.17 126.499 201.263 126.135 201.45 125.808C201.646 125.481 201.959 125.22 202.388 125.024C202.827 124.828 203.415 124.73 204.152 124.73H206.504V125.696H204.208C203.536 125.696 203.083 125.808 202.85 126.032C202.617 126.256 202.5 126.527 202.5 126.844C202.5 127.208 202.645 127.502 202.934 127.726C203.223 127.941 203.625 128.048 204.138 128.048C204.642 128.048 205.081 127.936 205.454 127.712C205.837 127.488 206.112 127.161 206.28 126.732L206.546 127.656C206.369 128.095 206.056 128.445 205.608 128.706C205.16 128.958 204.595 129.084 203.914 129.084ZM215.112 128.37V122.756H211.892L211.822 124.184C211.804 124.651 211.771 125.103 211.724 125.542C211.687 125.971 211.622 126.368 211.528 126.732C211.444 127.096 211.318 127.395 211.15 127.628C210.982 127.861 210.758 128.006 210.478 128.062L209.148 127.824C209.438 127.833 209.671 127.74 209.848 127.544C210.026 127.339 210.161 127.059 210.254 126.704C210.357 126.349 210.432 125.948 210.478 125.5C210.525 125.043 210.562 124.571 210.59 124.086L210.702 121.58H216.456V128.37H215.112ZM208.854 130.722V127.824H217.59V130.722H216.33V129H210.128V130.722H208.854ZM223.891 129V127.432L223.821 127.138V124.464C223.821 123.895 223.653 123.456 223.317 123.148C222.99 122.831 222.496 122.672 221.833 122.672C221.394 122.672 220.965 122.747 220.545 122.896C220.125 123.036 219.77 123.227 219.481 123.47L218.921 122.462C219.304 122.154 219.761 121.921 220.293 121.762C220.834 121.594 221.399 121.51 221.987 121.51C223.004 121.51 223.788 121.757 224.339 122.252C224.89 122.747 225.165 123.503 225.165 124.52V129H223.891ZM221.455 129.084C220.904 129.084 220.419 128.991 219.999 128.804C219.588 128.617 219.271 128.361 219.047 128.034C218.823 127.698 218.711 127.32 218.711 126.9C218.711 126.499 218.804 126.135 218.991 125.808C219.187 125.481 219.5 125.22 219.929 125.024C220.368 124.828 220.956 124.73 221.693 124.73H224.045V125.696H221.749C221.077 125.696 220.624 125.808 220.391 126.032C220.158 126.256 220.041 126.527 220.041 126.844C220.041 127.208 220.186 127.502 220.475 127.726C220.764 127.941 221.166 128.048 221.679 128.048C222.183 128.048 222.622 127.936 222.995 127.712C223.378 127.488 223.653 127.161 223.821 126.732L224.087 127.656C223.91 128.095 223.597 128.445 223.149 128.706C222.701 128.958 222.136 129.084 221.455 129.084ZM227.585 129V121.58H228.929V124.73H233.157V121.58H234.501V129H233.157V125.892H228.929V129H227.585ZM237.115 129V121.58H238.459V126.984L243.008 121.58H244.227V129H242.882V123.596L238.347 129H237.115ZM246.835 129V121.58H248.179V126.984L252.729 121.58H253.947V129H252.603V123.596L248.067 129H246.835ZM250.307 120.614C249.626 120.614 249.089 120.451 248.697 120.124C248.315 119.788 248.119 119.307 248.109 118.682H249.019C249.029 119.037 249.145 119.317 249.369 119.522C249.603 119.727 249.911 119.83 250.293 119.83C250.676 119.83 250.984 119.727 251.217 119.522C251.451 119.317 251.572 119.037 251.581 118.682H252.519C252.51 119.307 252.309 119.788 251.917 120.124C251.525 120.451 250.989 120.614 250.307 120.614Z" fill="white"/>
<path d="M292.462 129V127.53L296.242 123.96C296.541 123.689 296.76 123.447 296.9 123.232C297.04 123.017 297.133 122.821 297.18 122.644C297.236 122.467 297.264 122.303 297.264 122.154C297.264 121.762 297.129 121.463 296.858 121.258C296.597 121.043 296.209 120.936 295.696 120.936C295.285 120.936 294.903 121.015 294.548 121.174C294.203 121.333 293.909 121.58 293.666 121.916L292.014 120.852C292.387 120.292 292.91 119.849 293.582 119.522C294.254 119.195 295.029 119.032 295.906 119.032C296.634 119.032 297.269 119.153 297.81 119.396C298.361 119.629 298.785 119.961 299.084 120.39C299.392 120.819 299.546 121.333 299.546 121.93C299.546 122.247 299.504 122.565 299.42 122.882C299.345 123.19 299.187 123.517 298.944 123.862C298.711 124.207 298.365 124.595 297.908 125.024L294.772 127.978L294.338 127.152H299.868V129H292.462ZM304.136 129.168C303.454 129.168 302.778 129.079 302.106 128.902C301.443 128.715 300.874 128.454 300.398 128.118L301.294 126.382C301.667 126.653 302.096 126.867 302.582 127.026C303.076 127.185 303.576 127.264 304.08 127.264C304.649 127.264 305.097 127.152 305.424 126.928C305.75 126.704 305.914 126.391 305.914 125.99C305.914 125.738 305.848 125.514 305.718 125.318C305.587 125.122 305.354 124.973 305.018 124.87C304.691 124.767 304.229 124.716 303.632 124.716H301.126L301.63 119.2H307.608V121.02H302.442L303.618 119.984L303.268 123.918L302.092 122.882H304.164C305.134 122.882 305.914 123.017 306.502 123.288C307.099 123.549 307.533 123.909 307.804 124.366C308.074 124.823 308.21 125.341 308.21 125.92C308.21 126.499 308.065 127.035 307.776 127.53C307.486 128.015 307.038 128.412 306.432 128.72C305.834 129.019 305.069 129.168 304.136 129.168ZM313.33 129.168C312.527 129.168 311.809 128.972 311.174 128.58C310.539 128.179 310.04 127.6 309.676 126.844C309.312 126.088 309.13 125.173 309.13 124.1C309.13 123.027 309.312 122.112 309.676 121.356C310.04 120.6 310.539 120.026 311.174 119.634C311.809 119.233 312.527 119.032 313.33 119.032C314.142 119.032 314.861 119.233 315.486 119.634C316.121 120.026 316.62 120.6 316.984 121.356C317.348 122.112 317.53 123.027 317.53 124.1C317.53 125.173 317.348 126.088 316.984 126.844C316.62 127.6 316.121 128.179 315.486 128.58C314.861 128.972 314.142 129.168 313.33 129.168ZM313.33 127.25C313.713 127.25 314.044 127.143 314.324 126.928C314.613 126.713 314.837 126.373 314.996 125.906C315.164 125.439 315.248 124.837 315.248 124.1C315.248 123.363 315.164 122.761 314.996 122.294C314.837 121.827 314.613 121.487 314.324 121.272C314.044 121.057 313.713 120.95 313.33 120.95C312.957 120.95 312.625 121.057 312.336 121.272C312.056 121.487 311.832 121.827 311.664 122.294C311.505 122.761 311.426 123.363 311.426 124.1C311.426 124.837 311.505 125.439 311.664 125.906C311.832 126.373 312.056 126.713 312.336 126.928C312.625 127.143 312.957 127.25 313.33 127.25ZM328.029 125.962C327.637 126.149 327.231 126.298 326.811 126.41C326.4 126.513 325.975 126.564 325.537 126.564C324.641 126.564 323.931 126.354 323.409 125.934C322.895 125.514 322.639 124.865 322.639 123.988V121.58H323.983V123.904C323.983 124.436 324.146 124.828 324.473 125.08C324.809 125.332 325.257 125.458 325.817 125.458C326.171 125.458 326.535 125.411 326.909 125.318C327.291 125.225 327.665 125.094 328.029 124.926V125.962ZM327.931 129V121.58H329.275V129H327.931ZM336.434 129V127.432L336.364 127.138V124.464C336.364 123.895 336.196 123.456 335.86 123.148C335.533 122.831 335.039 122.672 334.376 122.672C333.937 122.672 333.508 122.747 333.088 122.896C332.668 123.036 332.313 123.227 332.024 123.47L331.464 122.462C331.847 122.154 332.304 121.921 332.836 121.762C333.377 121.594 333.942 121.51 334.53 121.51C335.547 121.51 336.331 121.757 336.882 122.252C337.433 122.747 337.708 123.503 337.708 124.52V129H336.434ZM333.998 129.084C333.447 129.084 332.962 128.991 332.542 128.804C332.131 128.617 331.814 128.361 331.59 128.034C331.366 127.698 331.254 127.32 331.254 126.9C331.254 126.499 331.347 126.135 331.534 125.808C331.73 125.481 332.043 125.22 332.472 125.024C332.911 124.828 333.499 124.73 334.236 124.73H336.588V125.696H334.292C333.62 125.696 333.167 125.808 332.934 126.032C332.701 126.256 332.584 126.527 332.584 126.844C332.584 127.208 332.729 127.502 333.018 127.726C333.307 127.941 333.709 128.048 334.222 128.048C334.726 128.048 335.165 127.936 335.538 127.712C335.921 127.488 336.196 127.161 336.364 126.732L336.63 127.656C336.453 128.095 336.14 128.445 335.692 128.706C335.244 128.958 334.679 129.084 333.998 129.084ZM343.362 129.084C342.606 129.084 341.93 128.921 341.332 128.594C340.744 128.267 340.282 127.819 339.946 127.25C339.61 126.681 339.442 126.027 339.442 125.29C339.442 124.553 339.61 123.899 339.946 123.33C340.282 122.761 340.744 122.317 341.332 122C341.93 121.673 342.606 121.51 343.362 121.51C344.034 121.51 344.632 121.645 345.154 121.916C345.686 122.177 346.097 122.569 346.386 123.092L345.364 123.75C345.122 123.386 344.823 123.12 344.468 122.952C344.123 122.775 343.75 122.686 343.348 122.686C342.863 122.686 342.429 122.793 342.046 123.008C341.664 123.223 341.36 123.526 341.136 123.918C340.912 124.301 340.8 124.758 340.8 125.29C340.8 125.822 340.912 126.284 341.136 126.676C341.36 127.068 341.664 127.371 342.046 127.586C342.429 127.801 342.863 127.908 343.348 127.908C343.75 127.908 344.123 127.824 344.468 127.656C344.823 127.479 345.122 127.208 345.364 126.844L346.386 127.488C346.097 128.001 345.686 128.398 345.154 128.678C344.632 128.949 344.034 129.084 343.362 129.084ZM351.195 129.084C350.448 129.084 349.786 128.921 349.207 128.594C348.628 128.267 348.171 127.819 347.835 127.25C347.499 126.671 347.331 126.018 347.331 125.29C347.331 124.553 347.499 123.899 347.835 123.33C348.171 122.761 348.628 122.317 349.207 122C349.786 121.673 350.448 121.51 351.195 121.51C351.932 121.51 352.59 121.673 353.169 122C353.757 122.317 354.214 122.761 354.541 123.33C354.877 123.89 355.045 124.543 355.045 125.29C355.045 126.027 354.877 126.681 354.541 127.25C354.214 127.819 353.757 128.267 353.169 128.594C352.59 128.921 351.932 129.084 351.195 129.084ZM351.195 127.908C351.671 127.908 352.096 127.801 352.469 127.586C352.852 127.371 353.15 127.068 353.365 126.676C353.58 126.275 353.687 125.813 353.687 125.29C353.687 124.758 353.58 124.301 353.365 123.918C353.15 123.526 352.852 123.223 352.469 123.008C352.096 122.793 351.671 122.686 351.195 122.686C350.719 122.686 350.294 122.793 349.921 123.008C349.548 123.223 349.249 123.526 349.025 123.918C348.801 124.301 348.689 124.758 348.689 125.29C348.689 125.813 348.801 126.275 349.025 126.676C349.249 127.068 349.548 127.371 349.921 127.586C350.294 127.801 350.719 127.908 351.195 127.908ZM356.986 129V121.58H360.43C361.298 121.58 361.979 121.748 362.474 122.084C362.978 122.411 363.23 122.877 363.23 123.484C363.23 124.091 362.992 124.562 362.516 124.898C362.049 125.225 361.428 125.388 360.654 125.388L360.864 125.024C361.75 125.024 362.408 125.187 362.838 125.514C363.267 125.841 363.482 126.321 363.482 126.956C363.482 127.6 363.239 128.104 362.754 128.468C362.278 128.823 361.545 129 360.556 129H356.986ZM358.302 127.964H360.458C361.018 127.964 361.438 127.88 361.718 127.712C361.998 127.535 362.138 127.255 362.138 126.872C362.138 126.48 362.007 126.195 361.746 126.018C361.494 125.831 361.092 125.738 360.542 125.738H358.302V127.964ZM358.302 124.772H360.318C360.831 124.772 361.218 124.679 361.48 124.492C361.75 124.296 361.886 124.025 361.886 123.68C361.886 123.325 361.75 123.059 361.48 122.882C361.218 122.705 360.831 122.616 360.318 122.616H358.302V124.772Z" fill="white"/>
<g clip-path="url(#clip0_2985_701)">
<path d="M20.2003 117.75C20.6777 117.75 21.1355 117.552 21.4731 117.201C21.8106 116.849 22.0003 116.372 22.0003 115.875C22.0003 115.378 21.8106 114.901 21.4731 114.549C21.1355 114.198 20.6777 114 20.2003 114C19.7229 114 19.2651 114.198 18.9275 114.549C18.5899 114.901 18.4003 115.378 18.4003 115.875C18.4003 116.372 18.5899 116.849 18.9275 117.201C19.2651 117.552 19.7229 117.75 20.2003 117.75ZM19.9003 132.75V127.75H20.5003V132.75C20.5003 133.441 21.0365 134 21.7003 134C22.364 134 22.9003 133.441 22.9003 132.75V121.5H25.0003H27.4003H28.0003C28.664 121.5 29.2003 120.941 29.2003 120.25C29.2003 119.559 28.664 119 28.0003 119H27.4003V116.5H34.6003V124H27.4003V122.75H25.0003V124.625C25.0003 125.66 25.8065 126.5 26.8003 126.5H35.2003C36.194 126.5 37.0003 125.66 37.0003 124.625V115.875C37.0003 114.84 36.194 114 35.2003 114H26.8003C25.8065 114 25.0003 114.84 25.0003 115.875V119H22.1165H19.6453C18.3815 119 17.2115 119.691 16.559 120.82L14.3728 124.609C14.0315 125.199 14.2153 125.969 14.7815 126.324C15.3478 126.68 16.0865 126.488 16.4278 125.898L17.5003 124.035V132.75C17.5003 133.441 18.0365 134 18.7003 134C19.364 134 19.9003 133.441 19.9003 132.75Z" fill="white"/>
</g>
<g clip-path="url(#clip1_2985_701)">
<path d="M137.898 114.519C138.347 114.886 138.384 115.509 137.98 115.917L134.714 119.216C134.515 119.418 134.234 119.537 133.934 119.541C133.635 119.546 133.349 119.443 133.136 119.253L131.317 117.604C130.896 117.216 130.896 116.589 131.317 116.202C131.739 115.814 132.433 115.814 132.855 116.202L133.857 117.113L136.356 114.589C136.76 114.181 137.445 114.148 137.894 114.515L137.898 114.519ZM137.898 121.117C138.347 121.484 138.384 122.106 137.98 122.514L134.714 125.813C134.515 126.015 134.234 126.135 133.934 126.139C133.635 126.143 133.349 126.04 133.136 125.85L131.317 124.201C130.891 123.813 130.891 123.186 131.317 122.803C131.744 122.42 132.433 122.415 132.855 122.803L133.857 123.714L136.356 121.191C136.76 120.783 137.445 120.75 137.894 121.117H137.898ZM141.16 116.903C141.16 116.173 141.808 115.583 142.611 115.583H152.771C153.573 115.583 154.222 116.173 154.222 116.903C154.222 117.632 153.573 118.222 152.771 118.222H142.611C141.808 118.222 141.16 117.632 141.16 116.903ZM141.16 123.5C141.16 122.77 141.808 122.18 142.611 122.18H152.771C153.573 122.18 154.222 122.77 154.222 123.5C154.222 124.23 153.573 124.819 152.771 124.819H142.611C141.808 124.819 141.16 124.23 141.16 123.5ZM138.257 130.097C138.257 129.367 138.905 128.778 139.708 128.778H152.771C153.573 128.778 154.222 129.367 154.222 130.097C154.222 130.827 153.573 131.416 152.771 131.416H139.708C138.905 131.416 138.257 130.827 138.257 130.097ZM133.177 128.118C133.754 128.118 134.308 128.326 134.716 128.698C135.125 129.069 135.354 129.572 135.354 130.097C135.354 130.622 135.125 131.125 134.716 131.497C134.308 131.868 133.754 132.076 133.177 132.076C132.6 132.076 132.046 131.868 131.637 131.497C131.229 131.125 131 130.622 131 130.097C131 129.572 131.229 129.069 131.637 128.698C132.046 128.326 132.6 128.118 133.177 128.118Z" fill="white"/>
</g>
<g clip-path="url(#clip2_2985_701)">
<path d="M273 114C275.652 114 278.196 115.054 280.071 116.929C281.946 118.804 283 121.348 283 124C283 126.652 281.946 129.196 280.071 131.071C278.196 132.946 275.652 134 273 134C270.348 134 267.804 132.946 265.929 131.071C264.054 129.196 263 126.652 263 124C263 121.348 264.054 118.804 265.929 116.929C267.804 115.054 270.348 114 273 114ZM272.062 118.688V124C272.062 124.312 272.219 124.605 272.48 124.781L276.23 127.281C276.66 127.57 277.242 127.453 277.531 127.02C277.82 126.586 277.703 126.008 277.27 125.719L273.938 123.5V118.688C273.938 118.168 273.52 117.75 273 117.75C272.48 117.75 272.062 118.168 272.062 118.688Z" fill="white"/>
</g>
<defs>
<linearGradient id="paint0_linear_2985_701" x1="191" y1="0" x2="191" y2="200" gradientUnits="userSpaceOnUse">
<stop stop-color="#AA8017"/>
<stop offset="1" stop-color="#3C2309"/>
</linearGradient>
<clipPath id="clip0_2985_701">
<rect width="23" height="20" fill="white" transform="translate(14 114)"/>
</clipPath>
<clipPath id="clip1_2985_701">
<rect width="23.2222" height="19" fill="white" transform="translate(131 114)"/>
</clipPath>
<clipPath id="clip2_2985_701">
<rect width="20" height="20" fill="white" transform="translate(263 114)"/>
</clipPath>
</defs>
</svg>
