<svg width="75" height="75" viewBox="0 0 75 75" fill="none" xmlns="http://www.w3.org/2000/svg">
<g clip-path="url(#clip0_51_726)">
<path d="M37.5 24.9375C43.9398 24.9375 50.1163 27.4952 54.6699 32.0488C59.2235 36.6024 61.7812 42.779 61.7812 49.2188C61.7812 55.6585 59.2235 61.8351 54.6699 66.3887C50.1163 70.9423 43.9398 73.5 37.5 73.5C31.0602 73.5 24.8837 70.9423 20.3301 66.3887C15.7765 61.8351 13.2188 55.6585 13.2188 49.2188C13.2188 42.779 15.7765 36.6024 20.3301 32.0488C24.8837 27.4952 31.0602 24.9375 37.5 24.9375ZM40.0801 34.6621C39.0272 32.4944 35.9851 32.5317 34.9277 34.6465L34.9248 34.6533L31.6738 41.2402L24.3975 42.2988C22.004 42.6407 21.1375 45.5388 22.7871 47.1885L22.8008 47.2021L28.0703 52.3408L26.8223 59.584V59.5859C26.4241 61.9139 28.869 63.7243 30.9873 62.6191L30.9922 62.6162L37.4922 59.1914L43.9932 62.6162L43.998 62.6191C46.1073 63.7196 48.5608 61.939 48.1641 59.5889L48.1631 59.584L46.9141 52.3408L52.1846 47.2021L52.1836 47.2012C53.9192 45.5192 52.9152 42.6617 50.6074 42.3018L50.5918 42.2998L43.3252 41.2402L40.0791 34.6621H40.0801ZM3.60352 1.5H19.6143C20.7334 1.5 21.7772 2.09206 22.3379 3.03613L22.3418 3.04297L31.2373 17.8613C25.3631 19.0312 20.0656 21.8019 15.8301 25.7148L1.84863 4.7627L1.84375 4.75684L1.76562 4.62988C1.59427 4.32698 1.5 3.96882 1.5 3.60352C1.5 2.43976 2.43976 1.5 3.60352 1.5ZM55.3857 1.5H71.3965C72.5602 1.5 73.5 2.43976 73.5 3.60352C73.5 3.9467 73.4148 4.28255 73.2627 4.57324L73.1367 4.76367L59.168 25.7148C54.9324 21.8022 49.6358 19.031 43.7617 17.8613L52.6572 3.04199C53.2374 2.08454 54.2752 1.5 55.3857 1.5Z" fill="url(#paint0_linear_51_726)" stroke="black" stroke-width="3"/>
</g>
<defs>
<linearGradient id="paint0_linear_51_726" x1="37.5" y1="0" x2="37.5" y2="75" gradientUnits="userSpaceOnUse">
<stop stop-color="#FF0000"/>
<stop offset="1" stop-color="#691414"/>
</linearGradient>
<clipPath id="clip0_51_726">
<rect width="75" height="75" fill="white"/>
</clipPath>
</defs>
</svg>
