<svg width="40" height="37" viewBox="0 0 40 37" fill="none" xmlns="http://www.w3.org/2000/svg">
<g clip-path="url(#clip0_3005_633)">
<path d="M20.0067 1.5C20.2573 1.5 20.5147 1.64889 20.6454 1.93066L20.6483 1.93555L25.1132 11.4961L25.452 12.2227L26.245 12.3438L36.2196 13.875V13.876C36.4621 13.9138 36.7058 14.0989 36.8065 14.416C36.9052 14.7271 36.8188 15.0668 36.6122 15.2793H36.6112L29.3749 22.7305L28.8495 23.2715L28.9706 24.0166L30.6854 34.541V34.542C30.7382 34.8723 30.6024 35.191 30.3661 35.3701C30.184 35.5079 29.953 35.542 29.7372 35.46L29.6454 35.418L20.7421 30.4717L20.0135 30.0664L19.285 30.4717L10.3817 35.418C10.15 35.5451 9.87325 35.5277 9.65417 35.3643C9.43042 35.1973 9.28774 34.8778 9.34167 34.541L11.0497 24.0156L11.1708 23.2715L10.6454 22.7305L3.40906 15.2793C3.20895 15.0735 3.11682 14.732 3.21765 14.4053C3.31043 14.1052 3.55041 13.9151 3.80066 13.876L3.79968 13.875L13.7694 12.3438L14.5614 12.2227L14.9003 11.4961L19.3651 1.93457C19.506 1.64095 19.7647 1.50009 20.0067 1.5Z" fill="#DFDFDF" stroke="black" stroke-width="3"/>
</g>
<defs>
<clipPath id="clip0_3005_633">
<rect width="40" height="37" fill="white"/>
</clipPath>
</defs>
</svg>
