<svg width="30" height="26" viewBox="0 0 30 26" fill="none" xmlns="http://www.w3.org/2000/svg">
<g clip-path="url(#clip0_51_704)">
<path d="M16.5053 0.914062C16.2293 0.355469 15.6459 0 15.0053 0C14.3647 0 13.7865 0.355469 13.5053 0.914062L10.1563 7.63242L2.67718 8.70898C2.05217 8.80039 1.53134 9.22695 1.33863 9.81094C1.14592 10.3949 1.30217 11.0398 1.75009 11.4715L7.17718 16.707L5.89593 24.1059C5.79176 24.7152 6.05218 25.3348 6.5678 25.6953C7.08343 26.0559 7.76572 26.1016 8.32822 25.8121L15.0105 22.3336L21.6928 25.8121C22.2553 26.1016 22.9376 26.0609 23.4532 25.6953C23.9688 25.3297 24.2293 24.7152 24.1251 24.1059L22.8386 16.707L28.2657 11.4715C28.7136 11.0398 28.8751 10.3949 28.6772 9.81094C28.4793 9.22695 27.9636 8.80039 27.3386 8.70898L19.8543 7.63242L16.5053 0.914062Z" fill="#D400FF"/>
</g>
<defs>
<clipPath id="clip0_51_704">
<rect width="30" height="26" fill="white"/>
</clipPath>
</defs>
</svg>
