<svg width="114" height="87" viewBox="0 0 114 87" fill="none" xmlns="http://www.w3.org/2000/svg">
<path d="M56.995 0C41.0034 0 28.1982 7.11562 18.8763 15.5848C9.6138 23.9766 3.41901 34.0312 0.489844 40.9342C-0.163281 42.4617 -0.163281 44.1633 0.489844 45.6908C3.41901 52.5937 9.6138 62.6484 18.8763 71.0402C28.1982 79.5094 41.0034 86.625 56.995 86.625C72.9867 86.625 85.7919 79.5094 95.1138 71.0402C104.376 62.6291 110.571 52.5937 113.52 45.6908C114.173 44.1633 114.173 42.4617 113.52 40.9342C110.571 34.0312 104.376 23.9766 95.1138 15.5848C85.7919 7.11562 72.9867 0 56.995 0ZM28.495 43.3125C28.495 35.9279 31.4977 28.8457 36.8425 23.624C42.1873 18.4023 49.4364 15.4688 56.995 15.4688C64.5537 15.4688 71.8028 18.4023 77.1476 23.624C82.4923 28.8457 85.495 35.9279 85.495 43.3125C85.495 50.6971 82.4923 57.7793 77.1476 63.001C71.8028 68.2227 64.5537 71.1562 56.995 71.1562C49.4364 71.1562 42.1873 68.2227 36.8425 63.001C31.4977 57.7793 28.495 50.6971 28.495 43.3125ZM56.995 30.9375C56.995 37.7631 51.3148 43.3125 44.3284 43.3125C42.9232 43.3125 41.5773 43.0805 40.3107 42.6744C39.2221 42.3264 37.9555 42.9838 37.995 44.1053C38.0544 45.4395 38.2523 46.7736 38.6284 48.1078C41.3398 58.0078 51.77 63.8859 61.9034 61.2369C72.0367 58.5879 78.0534 48.3979 75.3419 38.4979C73.145 30.4734 65.8815 25.0787 57.8065 24.75C56.6586 24.7113 55.9857 25.9295 56.3419 27.0123C56.7575 28.2498 56.995 29.5646 56.995 30.9375Z" fill="white"/>
</svg>
