<?xml version="1.0" encoding="utf-8"?>
<!-- Generator: Adobe Illustrator 27.2.0, SVG Export Plug-In . SVG Version: 6.00 Build 0)  -->
<svg version="1.1" fill="#F7DF1E" id="Слой_1" xmlns="http://www.w3.org/2000/svg" xmlns:xlink="http://www.w3.org/1999/xlink" x="0px" y="0px"
	 viewBox="0 0 448 448" style="enable-background:new 0 0 448 448;" xml:space="preserve">
<path d="M448,64c0-35.3-28.7-64-64-64H64C28.7,0,0,28.7,0,64v320c0,35.3,28.7,64,64,64h320c35.3,0,64-28.7,64-64V64z M265.8,375.7
	c0-1.8,0-6,0.1-11.6c0.1-11.4,0.1-28.8,0.1-43.7c0-15.6-5.2-25.5-11.3-30.7c37-4.1,76-9.2,76-73.1c0-18.2-6.5-27.3-17.1-39
	c1.7-4.3,7.4-22-1.7-45c-13.9-4.3-45.7,17.9-45.7,17.9c-13.2-3.7-27.5-5.6-41.6-5.6s-28.4,1.9-41.6,5.6c0,0-31.8-22.2-45.7-17.9
	c-9.1,22.9-3.5,40.6-1.7,45c-10.6,11.7-15.6,20.8-15.6,39c0,63.6,37.3,69,74.3,73.1c-4.8,4.3-9.1,11.7-10.6,22.3
	c-9.5,4.3-33.8,11.7-48.3-13.9c-9.1-15.8-25.5-17.1-25.5-17.1c-16.2-0.2-1.1,10.2-1.1,10.2c10.8,5,18.4,24.2,18.4,24.2
	c9.7,29.7,56.1,19.7,56.1,19.7c0,9,0.1,21.7,0.1,30.6c0,4.8,0.1,8.6,0.1,10c0,4.3-3,9.5-11.5,8c-66-22.1-112.2-84.9-112.2-158.3
	c0-91.8,70.2-161.5,162-161.5S388,133.6,388,225.4c0.1,73.4-44.7,136.3-110.7,158.3C268.9,385.2,265.8,380,265.8,375.7z
	 M175.3,320.9c-0.2-1.5,1.1-2.8,3-3.2c1.9-0.2,3.7,0.6,3.9,1.9c0.3,1.3-1,2.6-3,3C177.3,323,175.5,322.2,175.3,320.9L175.3,320.9z
	 M166.2,324.1c-2.2,0.2-3.7-0.9-3.7-2.4c0-1.3,1.5-2.4,3.5-2.4c1.9-0.2,3.7,0.9,3.7,2.4C169.7,323,168.2,324.1,166.2,324.1z
	 M151.9,321.9c-1.9-0.4-3.2-1.9-2.8-3.2s2.4-1.9,4.1-1.5c2,0.6,3.3,2.1,2.8,3.4C155.6,321.9,153.6,322.5,151.9,321.9L151.9,321.9z
	 M139.4,314.6c-1.5-1.3-1.9-3.2-0.9-4.1c0.9-1.1,2.8-0.9,4.3,0.6c1.3,1.3,1.8,3.3,0.9,4.1C142.8,316.3,140.9,316.1,139.4,314.6z
	 M130.9,304.6c-1.1-1.5-1.1-3.2,0-3.9c1.1-0.9,2.8-0.2,3.7,1.3c1.1,1.5,1.1,3.3,0,4.1C133.7,306.7,132,306.1,130.9,304.6z
	 M124.6,295.8c-1.1-1.3-1.3-2.8-0.4-3.5c0.9-0.9,2.4-0.4,3.5,0.6c1.1,1.3,1.3,2.8,0.4,3.5C127.2,297.3,125.7,296.8,124.6,295.8z
	 M118.6,289.4c-1.3-0.6-1.9-1.7-1.5-2.6c0.4-0.6,1.5-0.9,2.8-0.4c1.3,0.7,1.9,1.8,1.5,2.6C121,289.9,119.7,290.1,118.6,289.4z"/>
</svg>
