<?xml version="1.0" encoding="utf-8"?>
<!-- Generator: Adobe Illustrator 27.2.0, SVG Export Plug-In . SVG Version: 6.00 Build 0)  -->
<svg version="1.1" fill="#F7DF1E" id="Слой_1" xmlns="http://www.w3.org/2000/svg" xmlns:xlink="http://www.w3.org/1999/xlink" x="0px" y="0px"
	 viewBox="0 0 448 448" style="enable-background:new 0 0 448 448;" xml:space="preserve">
<path d="M282,223.5l-95.2-54.1v108.2L282,223.5z M384-0.8H64C28.7-0.8,0,28,0,63.2v320c0,35.3,28.7,64,64,64h320
	c35.3,0,64-28.7,64-64v-320C448,28,419.3-0.8,384-0.8z M398.4,135.4c7.6,28.6,7.6,88.2,7.6,88.2s0,59.6-7.6,88.1
	c-4.2,15.8-16.5,27.7-32.2,31.9c-28.3,7.7-142.2,7.7-142.2,7.7s-113.9,0-142.2-7.6c-15.7-4.2-28-16.1-32.2-31.9
	C42,283.1,42,223.5,42,223.5s0-59.7,7.6-88.2c4.2-15.8,16.5-28.2,32.2-32.4c28.3-7.7,142.2-7.7,142.2-7.7s113.9,0,142.2,7.7
	C381.9,107.1,394.2,119.6,398.4,135.4L398.4,135.4z"/>
</svg>
