<svg width="50" height="49" viewBox="0 0 50 49" fill="none" xmlns="http://www.w3.org/2000/svg">
<path d="M25 0C11.1895 0 0 10.8398 0 24.2188C0 37.5977 11.1895 48.4375 25 48.4375C38.8105 48.4375 50 37.5977 50 24.2188C50 10.8398 38.8105 0 25 0ZM36.5927 16.4746C36.2198 20.3027 34.5867 29.5996 33.7601 33.8867C33.4073 35.7031 32.7218 36.3086 32.0565 36.3672C30.6048 36.4941 29.5061 35.4395 28.0948 34.541C25.8972 33.1445 24.6472 32.2754 22.5202 30.9082C20.0504 29.3359 21.6532 28.4668 23.0544 27.0508C23.4274 26.6797 29.8185 21.0449 29.9395 20.5371C29.9597 20.4688 29.9698 20.2344 29.8185 20.1074C29.6673 19.9805 29.4556 20.0293 29.3044 20.0586C29.0827 20.1042 25.5679 22.3535 18.7601 26.8066C17.7655 27.4707 16.8616 27.793 16.0484 27.7734C15.1512 27.7539 13.4375 27.2852 12.1573 26.8848C10.5948 26.3965 9.34476 26.1328 9.45565 25.293C9.50941 24.8568 10.131 24.4108 11.3206 23.9551C18.6055 20.8822 23.4644 18.8542 25.8972 17.8711C32.8427 15.0781 34.2843 14.5898 35.2218 14.5703C35.4335 14.5703 35.8871 14.6191 36.1895 14.8535C36.3869 15.0216 36.5127 15.2548 36.5423 15.5078C36.5969 15.8272 36.6138 16.1515 36.5927 16.4746Z" fill="#F7DF1E"/>
</svg>
